<?xml version="1.0" encoding="UTF-8"?>
<svg xmlns="http://www.w3.org/2000/svg" xmlns:xlink="http://www.w3.org/1999/xlink" width="1844" height="121" viewBox="0 0 1844 121">
<defs>
<g>
<g id="glyph-0-0">
<path d="M 2 0 L 2 -10 L 10 -10 L 10 0 Z M 2.25 -0.25 L 9.75 -0.25 L 9.75 -9.75 L 2.25 -9.75 Z M 2.25 -0.25 "/>
</g>
<g id="glyph-0-1">
<path d="M 1.28125 0 L 1.28125 -11.453125 L 2.796875 -11.453125 L 2.796875 -6.75 L 8.75 -6.75 L 8.75 -11.453125 L 10.265625 -11.453125 L 10.265625 0 L 8.75 0 L 8.75 -5.398438 L 2.796875 -5.398438 L 2.796875 0 Z M 1.28125 0 "/>
</g>
<g id="glyph-1-0">
<path d="M 1.332031 0 L 1.332031 -6.667969 L 6.667969 -6.667969 L 6.667969 0 Z M 1.5 -0.167969 L 6.5 -0.167969 L 6.5 -6.5 L 1.5 -6.5 Z M 1.5 -0.167969 "/>
</g>
<g id="glyph-1-1">
<path d="M 0.515625 -3.71875 C 0.515625 -4.984375 0.855469 -5.976562 1.535156 -6.695312 C 2.214844 -7.414062 3.09375 -7.769531 4.171875 -7.769531 C 4.875 -7.769531 5.511719 -7.601562 6.078125 -7.265625 C 6.644531 -6.929688 7.074219 -6.460938 7.371094 -5.855469 C 7.667969 -5.253906 7.816406 -4.570312 7.816406 -3.808594 C 7.816406 -3.035156 7.660156 -2.339844 7.347656 -1.730469 C 7.035156 -1.117188 6.59375 -0.65625 6.019531 -0.339844 C 5.449219 -0.0273438 4.828125 0.128906 4.167969 0.128906 C 3.449219 0.128906 2.804688 -0.0429688 2.238281 -0.390625 C 1.671875 -0.738281 1.246094 -1.210938 0.953125 -1.8125 C 0.660156 -2.414062 0.515625 -3.046875 0.515625 -3.71875 Z M 1.558594 -3.703125 C 1.558594 -2.78125 1.804688 -2.058594 2.300781 -1.527344 C 2.792969 -1 3.414062 -0.734375 4.160156 -0.734375 C 4.921875 -0.734375 5.546875 -1 6.039062 -1.535156 C 6.53125 -2.070312 6.777344 -2.828125 6.777344 -3.8125 C 6.777344 -4.433594 6.671875 -4.976562 6.460938 -5.441406 C 6.25 -5.902344 5.945312 -6.261719 5.539062 -6.519531 C 5.132812 -6.773438 4.679688 -6.902344 4.175781 -6.902344 C 3.460938 -6.902344 2.847656 -6.65625 2.332031 -6.164062 C 1.816406 -5.671875 1.558594 -4.851562 1.558594 -3.703125 Z M 1.558594 -3.703125 "/>
</g>
<g id="glyph-1-2">
<path d="M 0.480469 -2.453125 L 1.433594 -2.535156 C 1.476562 -2.152344 1.582031 -1.839844 1.746094 -1.597656 C 1.910156 -1.351562 2.167969 -1.152344 2.515625 -1.003906 C 2.863281 -0.851562 3.253906 -0.777344 3.6875 -0.777344 C 4.074219 -0.777344 4.414062 -0.832031 4.707031 -0.949219 C 5.003906 -1.0625 5.222656 -1.21875 5.367188 -1.417969 C 5.511719 -1.617188 5.582031 -1.835938 5.582031 -2.074219 C 5.582031 -2.3125 5.515625 -2.523438 5.375 -2.699219 C 5.234375 -2.878906 5.007812 -3.03125 4.6875 -3.152344 C 4.484375 -3.230469 4.03125 -3.355469 3.328125 -3.523438 C 2.625 -3.691406 2.136719 -3.851562 1.855469 -4 C 1.488281 -4.191406 1.21875 -4.429688 1.039062 -4.710938 C 0.859375 -4.992188 0.769531 -5.3125 0.769531 -5.660156 C 0.769531 -6.046875 0.878906 -6.40625 1.097656 -6.742188 C 1.316406 -7.078125 1.636719 -7.332031 2.058594 -7.503906 C 2.476562 -7.679688 2.945312 -7.765625 3.457031 -7.765625 C 4.023438 -7.765625 4.523438 -7.675781 4.957031 -7.492188 C 5.386719 -7.308594 5.71875 -7.042969 5.953125 -6.6875 C 6.1875 -6.332031 6.3125 -5.933594 6.328125 -5.484375 L 5.359375 -5.410156 C 5.308594 -5.894531 5.132812 -6.257812 4.832031 -6.503906 C 4.53125 -6.75 4.085938 -6.875 3.5 -6.875 C 2.890625 -6.875 2.445312 -6.761719 2.164062 -6.539062 C 1.882812 -6.316406 1.746094 -6.046875 1.746094 -5.730469 C 1.746094 -5.457031 1.84375 -5.230469 2.042969 -5.050781 C 2.238281 -4.875 2.742188 -4.695312 3.566406 -4.507812 C 4.386719 -4.320312 4.949219 -4.160156 5.253906 -4.019531 C 5.699219 -3.816406 6.027344 -3.554688 6.238281 -3.242188 C 6.449219 -2.929688 6.558594 -2.566406 6.558594 -2.15625 C 6.558594 -1.75 6.441406 -1.367188 6.207031 -1.007812 C 5.976562 -0.648438 5.640625 -0.367188 5.207031 -0.167969 C 4.769531 0.03125 4.28125 0.128906 3.734375 0.128906 C 3.042969 0.128906 2.464844 0.03125 1.996094 -0.171875 C 1.53125 -0.375 1.164062 -0.675781 0.898438 -1.082031 C 0.632812 -1.484375 0.492188 -1.941406 0.480469 -2.453125 Z M 0.480469 -2.453125 "/>
</g>
<g id="glyph-1-3">
<path d="M 6.269531 -2.675781 L 7.28125 -2.421875 C 7.070312 -1.59375 6.6875 -0.960938 6.136719 -0.523438 C 5.585938 -0.0859375 4.914062 0.128906 4.121094 0.128906 C 3.296875 0.128906 2.628906 -0.0390625 2.113281 -0.371094 C 1.597656 -0.707031 1.203125 -1.191406 0.933594 -1.828125 C 0.664062 -2.464844 0.53125 -3.144531 0.53125 -3.875 C 0.53125 -4.671875 0.683594 -5.363281 0.988281 -5.957031 C 1.292969 -6.546875 1.722656 -6.996094 2.285156 -7.304688 C 2.84375 -7.613281 3.460938 -7.765625 4.136719 -7.765625 C 4.898438 -7.765625 5.542969 -7.570312 6.0625 -7.183594 C 6.582031 -6.792969 6.945312 -6.246094 7.152344 -5.542969 L 6.15625 -5.308594 C 5.980469 -5.863281 5.722656 -6.265625 5.386719 -6.519531 C 5.050781 -6.773438 4.625 -6.902344 4.113281 -6.902344 C 3.527344 -6.902344 3.039062 -6.761719 2.644531 -6.480469 C 2.25 -6.199219 1.972656 -5.820312 1.8125 -5.347656 C 1.652344 -4.871094 1.574219 -4.382812 1.574219 -3.878906 C 1.574219 -3.230469 1.667969 -2.664062 1.855469 -2.179688 C 2.046875 -1.695312 2.339844 -1.332031 2.738281 -1.09375 C 3.136719 -0.855469 3.570312 -0.734375 4.035156 -0.734375 C 4.601562 -0.734375 5.082031 -0.898438 5.472656 -1.222656 C 5.867188 -1.550781 6.132812 -2.035156 6.269531 -2.675781 Z M 6.269531 -2.675781 "/>
</g>
<g id="glyph-1-4">
<path d="M 0.582031 -1.765625 L 1.484375 -1.847656 C 1.5625 -1.425781 1.707031 -1.117188 1.921875 -0.925781 C 2.136719 -0.734375 2.414062 -0.640625 2.75 -0.640625 C 3.039062 -0.640625 3.289062 -0.707031 3.507812 -0.839844 C 3.726562 -0.972656 3.902344 -1.148438 4.042969 -1.367188 C 4.179688 -1.585938 4.296875 -1.886719 4.390625 -2.261719 C 4.484375 -2.636719 4.53125 -3.015625 4.53125 -3.40625 C 4.53125 -3.449219 4.53125 -3.511719 4.527344 -3.59375 C 4.339844 -3.296875 4.082031 -3.054688 3.757812 -2.867188 C 3.433594 -2.679688 3.082031 -2.589844 2.703125 -2.589844 C 2.070312 -2.589844 1.535156 -2.816406 1.097656 -3.277344 C 0.660156 -3.734375 0.441406 -4.339844 0.441406 -5.089844 C 0.441406 -5.863281 0.671875 -6.484375 1.128906 -6.957031 C 1.585938 -7.429688 2.15625 -7.667969 2.84375 -7.667969 C 3.339844 -7.667969 3.792969 -7.53125 4.207031 -7.265625 C 4.617188 -7 4.929688 -6.617188 5.144531 -6.121094 C 5.355469 -5.628906 5.464844 -4.910156 5.464844 -3.972656 C 5.464844 -2.996094 5.359375 -2.222656 5.144531 -1.644531 C 4.933594 -1.066406 4.617188 -0.625 4.199219 -0.324219 C 3.78125 -0.0195312 3.292969 0.128906 2.730469 0.128906 C 2.132812 0.128906 1.644531 -0.0351562 1.265625 -0.367188 C 0.886719 -0.699219 0.660156 -1.164062 0.582031 -1.765625 Z M 4.421875 -5.136719 C 4.421875 -5.675781 4.277344 -6.101562 3.992188 -6.417969 C 3.707031 -6.734375 3.359375 -6.890625 2.957031 -6.890625 C 2.542969 -6.890625 2.179688 -6.71875 1.871094 -6.378906 C 1.5625 -6.039062 1.40625 -5.597656 1.40625 -5.058594 C 1.40625 -4.570312 1.554688 -4.175781 1.847656 -3.871094 C 2.140625 -3.566406 2.5 -3.417969 2.933594 -3.417969 C 3.367188 -3.417969 3.722656 -3.570312 4.003906 -3.871094 C 4.28125 -4.175781 4.421875 -4.597656 4.421875 -5.136719 Z M 4.421875 -5.136719 "/>
</g>
<g id="glyph-1-5">
<path d="M 1.886719 -4.140625 C 1.496094 -4.28125 1.207031 -4.484375 1.019531 -4.75 C 0.832031 -5.015625 0.738281 -5.328125 0.738281 -5.699219 C 0.738281 -6.253906 0.9375 -6.71875 1.339844 -7.097656 C 1.738281 -7.476562 2.269531 -7.667969 2.933594 -7.667969 C 3.597656 -7.667969 4.136719 -7.472656 4.542969 -7.085938 C 4.949219 -6.699219 5.152344 -6.226562 5.152344 -5.671875 C 5.152344 -5.316406 5.058594 -5.007812 4.871094 -4.746094 C 4.6875 -4.484375 4.40625 -4.28125 4.027344 -4.140625 C 4.496094 -3.988281 4.851562 -3.742188 5.097656 -3.402344 C 5.339844 -3.0625 5.464844 -2.65625 5.464844 -2.183594 C 5.464844 -1.53125 5.234375 -0.980469 4.769531 -0.535156 C 4.308594 -0.0898438 3.703125 0.128906 2.949219 0.128906 C 2.195312 0.128906 1.585938 -0.09375 1.125 -0.539062 C 0.664062 -0.984375 0.433594 -1.542969 0.433594 -2.207031 C 0.433594 -2.703125 0.558594 -3.121094 0.808594 -3.457031 C 1.0625 -3.792969 1.421875 -4.019531 1.886719 -4.140625 Z M 1.699219 -5.730469 C 1.699219 -5.367188 1.8125 -5.074219 2.046875 -4.84375 C 2.28125 -4.613281 2.582031 -4.5 2.953125 -4.5 C 3.3125 -4.5 3.609375 -4.613281 3.839844 -4.839844 C 4.070312 -5.066406 4.1875 -5.347656 4.1875 -5.675781 C 4.1875 -6.019531 4.070312 -6.308594 3.832031 -6.542969 C 3.59375 -6.777344 3.296875 -6.894531 2.941406 -6.894531 C 2.585938 -6.894531 2.289062 -6.78125 2.050781 -6.550781 C 1.816406 -6.324219 1.699219 -6.046875 1.699219 -5.730469 Z M 1.394531 -2.203125 C 1.394531 -1.9375 1.460938 -1.675781 1.585938 -1.425781 C 1.710938 -1.175781 1.902344 -0.984375 2.152344 -0.847656 C 2.402344 -0.710938 2.671875 -0.640625 2.957031 -0.640625 C 3.40625 -0.640625 3.777344 -0.785156 4.066406 -1.074219 C 4.359375 -1.363281 4.503906 -1.726562 4.503906 -2.171875 C 4.503906 -2.625 4.355469 -2.996094 4.054688 -3.292969 C 3.753906 -3.585938 3.378906 -3.734375 2.925781 -3.734375 C 2.484375 -3.734375 2.121094 -3.589844 1.832031 -3.296875 C 1.542969 -3.003906 1.394531 -2.640625 1.394531 -2.203125 Z M 1.394531 -2.203125 "/>
</g>
<g id="glyph-1-6">
<path d="M 0.503906 -6.636719 L 0.503906 -7.535156 L 5.449219 -7.535156 L 5.449219 -6.808594 C 4.960938 -6.289062 4.480469 -5.601562 4.003906 -4.746094 C 3.527344 -3.886719 3.15625 -3.003906 2.894531 -2.097656 C 2.707031 -1.460938 2.589844 -0.761719 2.535156 0 L 1.574219 0 C 1.582031 -0.601562 1.703125 -1.328125 1.925781 -2.175781 C 2.152344 -3.027344 2.476562 -3.847656 2.898438 -4.636719 C 3.320312 -5.425781 3.769531 -6.09375 4.246094 -6.636719 Z M 0.503906 -6.636719 "/>
</g>
<g id="glyph-1-7">
<path d="M 5.308594 -5.765625 L 4.375 -5.691406 C 4.292969 -6.058594 4.171875 -6.328125 4.019531 -6.496094 C 3.765625 -6.761719 3.453125 -6.894531 3.082031 -6.894531 C 2.785156 -6.894531 2.523438 -6.8125 2.296875 -6.644531 C 2 -6.429688 1.769531 -6.117188 1.597656 -5.703125 C 1.429688 -5.289062 1.339844 -4.703125 1.332031 -3.9375 C 1.558594 -4.28125 1.835938 -4.535156 2.160156 -4.703125 C 2.488281 -4.871094 2.828125 -4.953125 3.1875 -4.953125 C 3.8125 -4.953125 4.34375 -4.722656 4.785156 -4.261719 C 5.222656 -3.800781 5.441406 -3.207031 5.441406 -2.480469 C 5.441406 -2 5.339844 -1.554688 5.132812 -1.144531 C 4.925781 -0.730469 4.640625 -0.417969 4.28125 -0.199219 C 3.921875 0.0195312 3.511719 0.128906 3.050781 0.128906 C 2.269531 0.128906 1.632812 -0.15625 1.140625 -0.730469 C 0.648438 -1.304688 0.402344 -2.253906 0.402344 -3.574219 C 0.402344 -5.050781 0.671875 -6.121094 1.21875 -6.792969 C 1.695312 -7.375 2.335938 -7.667969 3.140625 -7.667969 C 3.742188 -7.667969 4.234375 -7.5 4.617188 -7.160156 C 5 -6.824219 5.230469 -6.359375 5.308594 -5.765625 Z M 1.480469 -2.472656 C 1.480469 -2.152344 1.546875 -1.84375 1.683594 -1.546875 C 1.820312 -1.25 2.015625 -1.027344 2.261719 -0.871094 C 2.507812 -0.71875 2.765625 -0.640625 3.035156 -0.640625 C 3.433594 -0.640625 3.773438 -0.800781 4.058594 -1.121094 C 4.34375 -1.441406 4.484375 -1.875 4.484375 -2.421875 C 4.484375 -2.949219 4.34375 -3.367188 4.0625 -3.667969 C 3.78125 -3.972656 3.425781 -4.125 3 -4.125 C 2.578125 -4.125 2.21875 -3.972656 1.921875 -3.667969 C 1.625 -3.363281 1.480469 -2.96875 1.480469 -2.472656 Z M 1.480469 -2.472656 "/>
</g>
<g id="glyph-1-8">
<path d="M 0.441406 -2 L 1.425781 -2.082031 C 1.5 -1.605469 1.667969 -1.242188 1.933594 -1.003906 C 2.199219 -0.761719 2.519531 -0.640625 2.894531 -0.640625 C 3.347656 -0.640625 3.730469 -0.8125 4.042969 -1.152344 C 4.355469 -1.492188 4.511719 -1.941406 4.511719 -2.503906 C 4.511719 -3.039062 4.359375 -3.460938 4.058594 -3.769531 C 3.757812 -4.078125 3.367188 -4.234375 2.878906 -4.234375 C 2.578125 -4.234375 2.304688 -4.164062 2.0625 -4.027344 C 1.820312 -3.890625 1.628906 -3.714844 1.488281 -3.496094 L 0.609375 -3.609375 L 1.347656 -7.53125 L 5.144531 -7.53125 L 5.144531 -6.636719 L 2.097656 -6.636719 L 1.6875 -4.582031 C 2.144531 -4.902344 2.625 -5.0625 3.128906 -5.0625 C 3.796875 -5.0625 4.359375 -4.832031 4.816406 -4.371094 C 5.277344 -3.910156 5.503906 -3.3125 5.503906 -2.589844 C 5.503906 -1.898438 5.304688 -1.300781 4.902344 -0.796875 C 4.410156 -0.179688 3.742188 0.128906 2.894531 0.128906 C 2.199219 0.128906 1.632812 -0.0625 1.195312 -0.453125 C 0.757812 -0.84375 0.503906 -1.359375 0.441406 -2 Z M 0.441406 -2 "/>
</g>
<g id="glyph-1-9">
<path d="M 3.449219 0 L 3.449219 -1.828125 L 0.136719 -1.828125 L 0.136719 -2.6875 L 3.621094 -7.636719 L 4.386719 -7.636719 L 4.386719 -2.6875 L 5.417969 -2.6875 L 5.417969 -1.828125 L 4.386719 -1.828125 L 4.386719 0 Z M 3.449219 -2.6875 L 3.449219 -6.128906 L 1.058594 -2.6875 Z M 3.449219 -2.6875 "/>
</g>
<g id="glyph-1-10">
<path d="M 0.449219 -2.015625 L 1.386719 -2.140625 C 1.492188 -1.609375 1.675781 -1.226562 1.933594 -0.992188 C 2.191406 -0.757812 2.507812 -0.640625 2.878906 -0.640625 C 3.320312 -0.640625 3.695312 -0.792969 3.996094 -1.097656 C 4.300781 -1.402344 4.453125 -1.78125 4.453125 -2.234375 C 4.453125 -2.664062 4.3125 -3.019531 4.03125 -3.300781 C 3.75 -3.578125 3.390625 -3.71875 2.957031 -3.71875 C 2.78125 -3.71875 2.5625 -3.683594 2.296875 -3.613281 L 2.402344 -4.4375 C 2.464844 -4.429688 2.515625 -4.425781 2.550781 -4.425781 C 2.949219 -4.425781 3.3125 -4.53125 3.628906 -4.738281 C 3.949219 -4.949219 4.109375 -5.269531 4.109375 -5.703125 C 4.109375 -6.046875 3.992188 -6.332031 3.761719 -6.558594 C 3.527344 -6.785156 3.226562 -6.894531 2.859375 -6.894531 C 2.496094 -6.894531 2.191406 -6.78125 1.949219 -6.550781 C 1.707031 -6.324219 1.546875 -5.980469 1.480469 -5.519531 L 0.542969 -5.6875 C 0.65625 -6.316406 0.917969 -6.804688 1.324219 -7.148438 C 1.730469 -7.492188 2.234375 -7.667969 2.839844 -7.667969 C 3.253906 -7.667969 3.640625 -7.578125 3.988281 -7.398438 C 4.339844 -7.21875 4.609375 -6.976562 4.792969 -6.667969 C 4.980469 -6.359375 5.074219 -6.03125 5.074219 -5.683594 C 5.074219 -5.351562 4.984375 -5.050781 4.808594 -4.78125 C 4.628906 -4.511719 4.367188 -4.296875 4.019531 -4.136719 C 4.472656 -4.03125 4.824219 -3.816406 5.074219 -3.488281 C 5.324219 -3.160156 5.449219 -2.75 5.449219 -2.253906 C 5.449219 -1.589844 5.203125 -1.023438 4.71875 -0.558594 C 4.234375 -0.0976562 3.617188 0.136719 2.875 0.136719 C 2.203125 0.136719 1.648438 -0.0625 1.207031 -0.464844 C 0.761719 -0.863281 0.511719 -1.378906 0.449219 -2.015625 Z M 0.449219 -2.015625 "/>
</g>
<g id="glyph-1-11">
<path d="M 5.371094 -0.902344 L 5.371094 0 L 0.324219 0 C 0.316406 -0.226562 0.351562 -0.441406 0.433594 -0.652344 C 0.5625 -0.996094 0.765625 -1.332031 1.050781 -1.667969 C 1.332031 -2 1.742188 -2.386719 2.277344 -2.824219 C 3.105469 -3.503906 3.667969 -4.042969 3.957031 -4.441406 C 4.25 -4.839844 4.394531 -5.214844 4.394531 -5.566406 C 4.394531 -5.9375 4.261719 -6.253906 3.996094 -6.507812 C 3.730469 -6.761719 3.386719 -6.890625 2.957031 -6.890625 C 2.507812 -6.890625 2.144531 -6.753906 1.875 -6.484375 C 1.605469 -6.214844 1.46875 -5.839844 1.464844 -5.359375 L 0.5 -5.457031 C 0.566406 -6.175781 0.8125 -6.726562 1.246094 -7.101562 C 1.675781 -7.476562 2.253906 -7.667969 2.980469 -7.667969 C 3.710938 -7.667969 4.292969 -7.464844 4.71875 -7.058594 C 5.144531 -6.652344 5.359375 -6.148438 5.359375 -5.546875 C 5.359375 -5.242188 5.296875 -4.941406 5.171875 -4.644531 C 5.046875 -4.351562 4.839844 -4.039062 4.550781 -3.714844 C 4.261719 -3.386719 3.777344 -2.9375 3.105469 -2.371094 C 2.542969 -1.898438 2.179688 -1.578125 2.019531 -1.410156 C 1.859375 -1.242188 1.730469 -1.070312 1.625 -0.902344 Z M 5.371094 -0.902344 "/>
</g>
<g id="glyph-1-12">
<path d="M 3.972656 0 L 3.035156 0 L 3.035156 -5.972656 C 2.808594 -5.757812 2.515625 -5.542969 2.148438 -5.328125 C 1.78125 -5.113281 1.453125 -4.953125 1.160156 -4.84375 L 1.160156 -5.75 C 1.683594 -5.996094 2.144531 -6.296875 2.535156 -6.644531 C 2.929688 -6.996094 3.207031 -7.335938 3.371094 -7.667969 L 3.972656 -7.667969 Z M 3.972656 0 "/>
</g>
<g id="glyph-1-13">
<path d="M 0.441406 -3.765625 C 0.441406 -4.667969 0.535156 -5.394531 0.722656 -5.945312 C 0.90625 -6.496094 1.183594 -6.921875 1.550781 -7.21875 C 1.917969 -7.515625 2.375 -7.667969 2.933594 -7.667969 C 3.34375 -7.667969 3.703125 -7.585938 4.011719 -7.417969 C 4.320312 -7.253906 4.574219 -7.015625 4.777344 -6.707031 C 4.976562 -6.394531 5.136719 -6.015625 5.25 -5.570312 C 5.363281 -5.125 5.421875 -4.523438 5.421875 -3.765625 C 5.421875 -2.871094 5.328125 -2.148438 5.144531 -1.597656 C 4.960938 -1.046875 4.6875 -0.621094 4.320312 -0.320312 C 3.953125 -0.0195312 3.492188 0.128906 2.933594 0.128906 C 2.195312 0.128906 1.617188 -0.132812 1.199219 -0.660156 C 0.695312 -1.296875 0.441406 -2.332031 0.441406 -3.765625 Z M 1.40625 -3.765625 C 1.40625 -2.511719 1.554688 -1.679688 1.847656 -1.261719 C 2.140625 -0.847656 2.5 -0.640625 2.933594 -0.640625 C 3.363281 -0.640625 3.726562 -0.847656 4.019531 -1.265625 C 4.3125 -1.683594 4.457031 -2.515625 4.457031 -3.765625 C 4.457031 -5.023438 4.3125 -5.859375 4.019531 -6.269531 C 3.726562 -6.683594 3.359375 -6.890625 2.921875 -6.890625 C 2.492188 -6.890625 2.148438 -6.707031 1.890625 -6.34375 C 1.566406 -5.878906 1.40625 -5.019531 1.40625 -3.765625 Z M 1.40625 -3.765625 "/>
</g>
</g>
</defs>
<path fill="none" stroke-width="0.0333333" stroke-linecap="butt" stroke-linejoin="miter" stroke="rgb(0%, 0%, 0%)" stroke-opacity="1" stroke-miterlimit="10" d="M 0.255224 1.571191 L 0.597998 1.769141 " transform="matrix(40, 0, 0, 40, 8.564468, 11.640623)"/>
<path fill="none" stroke-width="0.0333333" stroke-linecap="butt" stroke-linejoin="miter" stroke="rgb(0%, 0%, 0%)" stroke-opacity="1" stroke-miterlimit="10" d="M 1.073095 1.804297 L 1.506787 1.553906 " transform="matrix(40, 0, 0, 40, 8.564468, 11.640623)"/>
<path fill="none" stroke-width="0.0333333" stroke-linecap="butt" stroke-linejoin="miter" stroke="rgb(0%, 0%, 0%)" stroke-opacity="1" stroke-miterlimit="10" d="M 1.750537 1.622559 L 2.00122 2.056738 " transform="matrix(40, 0, 0, 40, 8.564468, 11.640623)"/>
<path fill="none" stroke-width="0.0333333" stroke-linecap="butt" stroke-linejoin="miter" stroke="rgb(0%, 0%, 0%)" stroke-opacity="1" stroke-miterlimit="10" d="M 1.894873 1.539258 L 2.145556 1.973438 " transform="matrix(40, 0, 0, 40, 8.564468, 11.640623)"/>
<path fill="none" stroke-width="0.0333333" stroke-linecap="butt" stroke-linejoin="miter" stroke="rgb(0%, 0%, 0%)" stroke-opacity="1" stroke-miterlimit="10" d="M 1.645556 1.107422 L 1.420263 0.71709 " transform="matrix(40, 0, 0, 40, 8.564468, 11.640623)"/>
<path fill="none" stroke-width="0.0333333" stroke-linecap="butt" stroke-linejoin="miter" stroke="rgb(0%, 0%, 0%)" stroke-opacity="1" stroke-miterlimit="10" d="M 1.50122 1.190723 L 1.275927 0.800391 " transform="matrix(40, 0, 0, 40, 8.564468, 11.640623)"/>
<path fill="none" stroke-width="0.0333333" stroke-linecap="butt" stroke-linejoin="miter" stroke="rgb(0%, 0%, 0%)" stroke-opacity="1" stroke-miterlimit="10" d="M 1.908545 1.321973 L 2.372705 1.054004 " transform="matrix(40, 0, 0, 40, 8.564468, 11.640623)"/>
<path fill="none" stroke-width="0.0333333" stroke-linecap="butt" stroke-linejoin="miter" stroke="rgb(0%, 0%, 0%)" stroke-opacity="1" stroke-miterlimit="10" d="M 2.770459 1.023438 L 3.130029 1.230957 " transform="matrix(40, 0, 0, 40, 8.564468, 11.640623)"/>
<path fill="none" stroke-width="0.0333333" stroke-linecap="butt" stroke-linejoin="miter" stroke="rgb(0%, 0%, 0%)" stroke-opacity="1" stroke-miterlimit="10" d="M 2.882959 1.377051 L 3.132959 0.944043 " transform="matrix(40, 0, 0, 40, 8.564468, 11.640623)"/>
<path fill="none" stroke-width="0.0333333" stroke-linecap="butt" stroke-linejoin="miter" stroke="rgb(0%, 0%, 0%)" stroke-opacity="1" stroke-miterlimit="10" d="M 2.767529 1.310352 L 3.017529 0.877344 " transform="matrix(40, 0, 0, 40, 8.564468, 11.640623)"/>
<path fill="none" stroke-width="0.0333333" stroke-linecap="butt" stroke-linejoin="miter" stroke="rgb(0%, 0%, 0%)" stroke-opacity="1" stroke-miterlimit="10" d="M 3.534912 1.594824 L 3.732568 2.071973 " transform="matrix(40, 0, 0, 40, 8.564468, 11.640623)"/>
<path fill="none" stroke-width="0.0333333" stroke-linecap="butt" stroke-linejoin="miter" stroke="rgb(0%, 0%, 0%)" stroke-opacity="1" stroke-miterlimit="10" d="M 3.428271 1.990625 L 3.890185 1.799316 " transform="matrix(40, 0, 0, 40, 8.564468, 11.640623)"/>
<path fill="none" stroke-width="0.0333333" stroke-linecap="butt" stroke-linejoin="miter" stroke="rgb(0%, 0%, 0%)" stroke-opacity="1" stroke-miterlimit="10" d="M 3.377197 1.867481 L 3.839209 1.676172 " transform="matrix(40, 0, 0, 40, 8.564468, 11.640623)"/>
<path fill="none" stroke-width="0.0333333" stroke-linecap="butt" stroke-linejoin="miter" stroke="rgb(0%, 0%, 0%)" stroke-opacity="1" stroke-miterlimit="10" d="M 3.657373 1.312305 L 3.935302 1.151856 " transform="matrix(40, 0, 0, 40, 8.564468, 11.640623)"/>
<path fill="none" stroke-width="0.0333333" stroke-linecap="butt" stroke-linejoin="miter" stroke="rgb(0%, 0%, 0%)" stroke-opacity="1" stroke-miterlimit="10" d="M 4.492138 1.017383 L 4.86206 1.230957 " transform="matrix(40, 0, 0, 40, 8.564468, 11.640623)"/>
<path fill="none" stroke-width="0.0333333" stroke-linecap="butt" stroke-linejoin="miter" stroke="rgb(0%, 0%, 0%)" stroke-opacity="1" stroke-miterlimit="10" d="M 5.389404 1.312305 L 5.667138 1.151953 " transform="matrix(40, 0, 0, 40, 8.564468, 11.640623)"/>
<path fill="none" stroke-width="0.0333333" stroke-linecap="butt" stroke-linejoin="miter" stroke="rgb(0%, 0%, 0%)" stroke-opacity="1" stroke-miterlimit="10" d="M 6.22417 1.017383 L 6.594091 1.230957 " transform="matrix(40, 0, 0, 40, 8.564468, 11.640623)"/>
<path fill="none" stroke-width="0.0333333" stroke-linecap="butt" stroke-linejoin="miter" stroke="rgb(0%, 0%, 0%)" stroke-opacity="1" stroke-miterlimit="10" d="M 7.121435 1.312305 L 7.396435 1.153516 " transform="matrix(40, 0, 0, 40, 8.564468, 11.640623)"/>
<path fill="none" stroke-width="0.0333333" stroke-linecap="butt" stroke-linejoin="miter" stroke="rgb(0%, 0%, 0%)" stroke-opacity="1" stroke-miterlimit="10" d="M 7.956201 1.017383 L 8.32622 1.230957 " transform="matrix(40, 0, 0, 40, 8.564468, 11.640623)"/>
<path fill="none" stroke-width="0.0333333" stroke-linecap="butt" stroke-linejoin="miter" stroke="rgb(0%, 0%, 0%)" stroke-opacity="1" stroke-miterlimit="10" d="M 8.853466 1.312305 L 9.132373 1.15127 " transform="matrix(40, 0, 0, 40, 8.564468, 11.640623)"/>
<path fill="none" stroke-width="0.0333333" stroke-linecap="butt" stroke-linejoin="miter" stroke="rgb(0%, 0%, 0%)" stroke-opacity="1" stroke-miterlimit="10" d="M 9.68833 1.017383 L 10.097802 1.253906 " transform="matrix(40, 0, 0, 40, 8.564468, 11.640623)"/>
<path fill="none" stroke-width="0.0333333" stroke-linecap="butt" stroke-linejoin="miter" stroke="rgb(0%, 0%, 0%)" stroke-opacity="1" stroke-miterlimit="10" d="M 10.392334 1.583203 L 10.392334 2.170703 " transform="matrix(40, 0, 0, 40, 8.564468, 11.640623)"/>
<path fill="none" stroke-width="0.0333333" stroke-linecap="butt" stroke-linejoin="miter" stroke="rgb(0%, 0%, 0%)" stroke-opacity="1" stroke-miterlimit="10" d="M 10.585595 1.312305 L 10.756494 1.213574 " transform="matrix(40, 0, 0, 40, 8.564468, 11.640623)"/>
<path fill="none" stroke-width="0.0333333" stroke-linecap="butt" stroke-linejoin="miter" stroke="rgb(0%, 0%, 0%)" stroke-opacity="1" stroke-miterlimit="10" d="M 10.554345 1.517383 L 10.925927 1.731934 " transform="matrix(40, 0, 0, 40, 8.564468, 11.640623)"/>
<path fill="none" stroke-width="0.0333333" stroke-linecap="butt" stroke-linejoin="miter" stroke="rgb(0%, 0%, 0%)" stroke-opacity="1" stroke-miterlimit="10" d="M 9.408252 0.638867 L 9.257861 0.275781 " transform="matrix(40, 0, 0, 40, 8.564468, 11.640623)"/>
<path fill="none" stroke-width="0.0333333" stroke-linecap="butt" stroke-linejoin="miter" stroke="rgb(0%, 0%, 0%)" stroke-opacity="1" stroke-miterlimit="10" d="M 9.631982 0.668652 L 9.780713 0.30957 " transform="matrix(40, 0, 0, 40, 8.564468, 11.640623)"/>
<path fill="none" stroke-width="0.0333333" stroke-linecap="butt" stroke-linejoin="miter" stroke="rgb(0%, 0%, 0%)" stroke-opacity="1" stroke-miterlimit="10" d="M 8.731103 1.594824 L 8.928662 2.071973 " transform="matrix(40, 0, 0, 40, 8.564468, 11.640623)"/>
<path fill="none" stroke-width="0.0333333" stroke-linecap="butt" stroke-linejoin="miter" stroke="rgb(0%, 0%, 0%)" stroke-opacity="1" stroke-miterlimit="10" d="M 8.532373 1.73252 L 8.391845 2.071973 " transform="matrix(40, 0, 0, 40, 8.564468, 11.640623)"/>
<path fill="none" stroke-width="0.0333333" stroke-linecap="butt" stroke-linejoin="miter" stroke="rgb(0%, 0%, 0%)" stroke-opacity="1" stroke-miterlimit="10" d="M 7.67622 0.638867 L 7.52583 0.275781 " transform="matrix(40, 0, 0, 40, 8.564468, 11.640623)"/>
<path fill="none" stroke-width="0.0333333" stroke-linecap="butt" stroke-linejoin="miter" stroke="rgb(0%, 0%, 0%)" stroke-opacity="1" stroke-miterlimit="10" d="M 7.899951 0.668652 L 8.048681 0.30957 " transform="matrix(40, 0, 0, 40, 8.564468, 11.640623)"/>
<path fill="none" stroke-width="0.0333333" stroke-linecap="butt" stroke-linejoin="miter" stroke="rgb(0%, 0%, 0%)" stroke-opacity="1" stroke-miterlimit="10" d="M 6.998974 1.594824 L 7.19663 2.071973 " transform="matrix(40, 0, 0, 40, 8.564468, 11.640623)"/>
<path fill="none" stroke-width="0.0333333" stroke-linecap="butt" stroke-linejoin="miter" stroke="rgb(0%, 0%, 0%)" stroke-opacity="1" stroke-miterlimit="10" d="M 6.801806 1.729004 L 6.659716 2.071973 " transform="matrix(40, 0, 0, 40, 8.564468, 11.640623)"/>
<path fill="none" stroke-width="0.0333333" stroke-linecap="butt" stroke-linejoin="miter" stroke="rgb(0%, 0%, 0%)" stroke-opacity="1" stroke-miterlimit="10" d="M 5.944091 0.638867 L 5.793701 0.275781 " transform="matrix(40, 0, 0, 40, 8.564468, 11.640623)"/>
<path fill="none" stroke-width="0.0333333" stroke-linecap="butt" stroke-linejoin="miter" stroke="rgb(0%, 0%, 0%)" stroke-opacity="1" stroke-miterlimit="10" d="M 6.16792 0.668652 L 6.31665 0.30957 " transform="matrix(40, 0, 0, 40, 8.564468, 11.640623)"/>
<path fill="none" stroke-width="0.0333333" stroke-linecap="butt" stroke-linejoin="miter" stroke="rgb(0%, 0%, 0%)" stroke-opacity="1" stroke-miterlimit="10" d="M 5.266943 1.594824 L 5.464599 2.071973 " transform="matrix(40, 0, 0, 40, 8.564468, 11.640623)"/>
<path fill="none" stroke-width="0.0333333" stroke-linecap="butt" stroke-linejoin="miter" stroke="rgb(0%, 0%, 0%)" stroke-opacity="1" stroke-miterlimit="10" d="M 5.071045 1.725879 L 4.927685 2.071973 " transform="matrix(40, 0, 0, 40, 8.564468, 11.640623)"/>
<path fill="none" stroke-width="0.0333333" stroke-linecap="butt" stroke-linejoin="miter" stroke="rgb(0%, 0%, 0%)" stroke-opacity="1" stroke-miterlimit="10" d="M 4.21206 0.638867 L 4.06167 0.275781 " transform="matrix(40, 0, 0, 40, 8.564468, 11.640623)"/>
<path fill="none" stroke-width="0.0333333" stroke-linecap="butt" stroke-linejoin="miter" stroke="rgb(0%, 0%, 0%)" stroke-opacity="1" stroke-miterlimit="10" d="M 4.435791 0.668652 L 4.584521 0.30957 " transform="matrix(40, 0, 0, 40, 8.564468, 11.640623)"/>
<path fill="none" stroke-width="0.0333333" stroke-linecap="butt" stroke-linejoin="miter" stroke="rgb(0%, 0%, 0%)" stroke-opacity="1" stroke-miterlimit="10" d="M 3.336279 1.732422 L 3.195654 2.071973 " transform="matrix(40, 0, 0, 40, 8.564468, 11.640623)"/>
<g fill="rgb(0%, 0%, 0%)" fill-opacity="1">
<use xlink:href="#glyph-0-1" x="2.792969" y="74.324219"/>
</g>
<g fill="rgb(0%, 0%, 0%)" fill-opacity="1">
<use xlink:href="#glyph-1-1" x="37.628906" y="90.445312"/>
</g>
<g fill="rgb(0%, 0%, 0%)" fill-opacity="1">
<use xlink:href="#glyph-1-2" x="72.304688" y="70.441406"/>
</g>
<g fill="rgb(0%, 0%, 0%)" fill-opacity="1">
<use xlink:href="#glyph-1-1" x="92.269531" y="105.085938"/>
</g>
<g fill="rgb(0%, 0%, 0%)" fill-opacity="1">
<use xlink:href="#glyph-1-1" x="55.09375" y="35.804688"/>
</g>
<g fill="rgb(0%, 0%, 0%)" fill-opacity="1">
<use xlink:href="#glyph-1-1" x="106.910156" y="50.445313"/>
</g>
<g fill="rgb(0%, 0%, 0%)" fill-opacity="1">
<use xlink:href="#glyph-1-3" x="141.535156" y="70.441406"/>
</g>
<g fill="rgb(0%, 0%, 0%)" fill-opacity="1">
<use xlink:href="#glyph-1-4" x="135.269531" y="75.078125"/>
</g>
<g fill="rgb(0%, 0%, 0%)" fill-opacity="1">
<use xlink:href="#glyph-0-1" x="156.664063" y="111.277344"/>
</g>
<g fill="rgb(0%, 0%, 0%)" fill-opacity="1">
<use xlink:href="#glyph-1-3" x="176.175781" y="50.441406"/>
</g>
<g fill="rgb(0%, 0%, 0%)" fill-opacity="1">
<use xlink:href="#glyph-1-5" x="169.910156" y="55.078125"/>
</g>
<g fill="rgb(0%, 0%, 0%)" fill-opacity="1">
<use xlink:href="#glyph-1-3" x="210.816406" y="70.441406"/>
</g>
<g fill="rgb(0%, 0%, 0%)" fill-opacity="1">
<use xlink:href="#glyph-1-6" x="204.566406" y="74.949219"/>
</g>
<g fill="rgb(0%, 0%, 0%)" fill-opacity="1">
<use xlink:href="#glyph-1-3" x="245.457031" y="50.441406"/>
</g>
<g fill="rgb(0%, 0%, 0%)" fill-opacity="1">
<use xlink:href="#glyph-1-7" x="239.210938" y="55.078125"/>
</g>
<g fill="rgb(0%, 0%, 0%)" fill-opacity="1">
<use xlink:href="#glyph-1-3" x="280.101562" y="70.441406"/>
</g>
<g fill="rgb(0%, 0%, 0%)" fill-opacity="1">
<use xlink:href="#glyph-1-8" x="273.789062" y="74.945312"/>
</g>
<g fill="rgb(0%, 0%, 0%)" fill-opacity="1">
<use xlink:href="#glyph-1-3" x="314.742188" y="50.441406"/>
</g>
<g fill="rgb(0%, 0%, 0%)" fill-opacity="1">
<use xlink:href="#glyph-1-9" x="308.519531" y="55.046875"/>
</g>
<g fill="rgb(0%, 0%, 0%)" fill-opacity="1">
<use xlink:href="#glyph-1-3" x="349.382812" y="70.441406"/>
</g>
<g fill="rgb(0%, 0%, 0%)" fill-opacity="1">
<use xlink:href="#glyph-1-10" x="343.128906" y="75.078125"/>
</g>
<g fill="rgb(0%, 0%, 0%)" fill-opacity="1">
<use xlink:href="#glyph-1-3" x="384.023438" y="50.441406"/>
</g>
<g fill="rgb(0%, 0%, 0%)" fill-opacity="1">
<use xlink:href="#glyph-1-11" x="377.851562" y="55.078125"/>
</g>
<g fill="rgb(0%, 0%, 0%)" fill-opacity="1">
<use xlink:href="#glyph-1-3" x="418.664062" y="70.441406"/>
</g>
<g fill="rgb(0%, 0%, 0%)" fill-opacity="1">
<use xlink:href="#glyph-1-12" x="413.886719" y="75.078125"/>
</g>
<g fill="rgb(0%, 0%, 0%)" fill-opacity="1">
<use xlink:href="#glyph-0-1" x="418.484375" y="114.324219"/>
</g>
<g fill="rgb(0%, 0%, 0%)" fill-opacity="1">
<use xlink:href="#glyph-1-9" x="407.082031" y="115.085938"/>
<use xlink:href="#glyph-1-9" x="413.014324" y="115.085938"/>
</g>
<g fill="rgb(0%, 0%, 0%)" fill-opacity="1">
<use xlink:href="#glyph-0-1" x="453.125" y="54.324219"/>
</g>
<g fill="rgb(0%, 0%, 0%)" fill-opacity="1">
<use xlink:href="#glyph-1-9" x="441.632812" y="55.085938"/>
<use xlink:href="#glyph-1-8" x="447.565105" y="55.085938"/>
</g>
<g fill="rgb(0%, 0%, 0%)" fill-opacity="1">
<use xlink:href="#glyph-0-1" x="453.125" y="94.324219"/>
</g>
<g fill="rgb(0%, 0%, 0%)" fill-opacity="1">
<use xlink:href="#glyph-1-9" x="441.695312" y="95.117188"/>
<use xlink:href="#glyph-1-7" x="447.627605" y="95.117188"/>
</g>
<g fill="rgb(0%, 0%, 0%)" fill-opacity="1">
<use xlink:href="#glyph-0-1" x="368.535156" y="17.367188"/>
</g>
<g fill="rgb(0%, 0%, 0%)" fill-opacity="1">
<use xlink:href="#glyph-1-9" x="357.179688" y="18.160156"/>
<use xlink:href="#glyph-1-11" x="363.11198" y="18.160156"/>
</g>
<g fill="rgb(0%, 0%, 0%)" fill-opacity="1">
<use xlink:href="#glyph-0-1" x="399.152344" y="17.367188"/>
</g>
<g fill="rgb(0%, 0%, 0%)" fill-opacity="1">
<use xlink:href="#glyph-1-9" x="387.71875" y="18.160156"/>
<use xlink:href="#glyph-1-10" x="393.651043" y="18.160156"/>
</g>
<g fill="rgb(0%, 0%, 0%)" fill-opacity="1">
<use xlink:href="#glyph-0-1" x="364.507812" y="111.277344"/>
</g>
<g fill="rgb(0%, 0%, 0%)" fill-opacity="1">
<use xlink:href="#glyph-1-9" x="353.101562" y="112.070312"/>
<use xlink:href="#glyph-1-13" x="359.033855" y="112.070312"/>
</g>
<g fill="rgb(0%, 0%, 0%)" fill-opacity="1">
<use xlink:href="#glyph-0-1" x="333.894531" y="111.277344"/>
</g>
<g fill="rgb(0%, 0%, 0%)" fill-opacity="1">
<use xlink:href="#glyph-1-9" x="323.933594" y="112.070312"/>
<use xlink:href="#glyph-1-12" x="329.865886" y="112.070312"/>
</g>
<g fill="rgb(0%, 0%, 0%)" fill-opacity="1">
<use xlink:href="#glyph-0-1" x="299.253906" y="17.367188"/>
</g>
<g fill="rgb(0%, 0%, 0%)" fill-opacity="1">
<use xlink:href="#glyph-1-10" x="287.804688" y="18.160156"/>
<use xlink:href="#glyph-1-5" x="293.73698" y="18.160156"/>
</g>
<g fill="rgb(0%, 0%, 0%)" fill-opacity="1">
<use xlink:href="#glyph-0-1" x="329.867188" y="17.367188"/>
</g>
<g fill="rgb(0%, 0%, 0%)" fill-opacity="1">
<use xlink:href="#glyph-1-10" x="318.417969" y="18.160156"/>
<use xlink:href="#glyph-1-4" x="324.350261" y="18.160156"/>
</g>
<g fill="rgb(0%, 0%, 0%)" fill-opacity="1">
<use xlink:href="#glyph-0-1" x="295.226562" y="111.277344"/>
</g>
<g fill="rgb(0%, 0%, 0%)" fill-opacity="1">
<use xlink:href="#glyph-1-10" x="283.800781" y="112.070312"/>
<use xlink:href="#glyph-1-7" x="289.733074" y="112.070312"/>
</g>
<g fill="rgb(0%, 0%, 0%)" fill-opacity="1">
<use xlink:href="#glyph-0-1" x="264.613281" y="111.277344"/>
</g>
<g fill="rgb(0%, 0%, 0%)" fill-opacity="1">
<use xlink:href="#glyph-1-10" x="253.179688" y="112.070312"/>
<use xlink:href="#glyph-1-6" x="259.11198" y="112.070312"/>
</g>
<g fill="rgb(0%, 0%, 0%)" fill-opacity="1">
<use xlink:href="#glyph-0-1" x="229.972656" y="17.367188"/>
</g>
<g fill="rgb(0%, 0%, 0%)" fill-opacity="1">
<use xlink:href="#glyph-1-10" x="218.570313" y="18.160156"/>
<use xlink:href="#glyph-1-9" x="224.502605" y="18.160156"/>
</g>
<g fill="rgb(0%, 0%, 0%)" fill-opacity="1">
<use xlink:href="#glyph-0-1" x="260.585938" y="17.367188"/>
</g>
<g fill="rgb(0%, 0%, 0%)" fill-opacity="1">
<use xlink:href="#glyph-1-10" x="249.09375" y="18.160156"/>
<use xlink:href="#glyph-1-8" x="255.026043" y="18.160156"/>
</g>
<g fill="rgb(0%, 0%, 0%)" fill-opacity="1">
<use xlink:href="#glyph-0-1" x="225.945313" y="111.277344"/>
</g>
<g fill="rgb(0%, 0%, 0%)" fill-opacity="1">
<use xlink:href="#glyph-1-10" x="214.589844" y="112.070312"/>
<use xlink:href="#glyph-1-11" x="220.522136" y="112.070312"/>
</g>
<g fill="rgb(0%, 0%, 0%)" fill-opacity="1">
<use xlink:href="#glyph-0-1" x="195.332031" y="111.277344"/>
</g>
<g fill="rgb(0%, 0%, 0%)" fill-opacity="1">
<use xlink:href="#glyph-1-10" x="183.898438" y="112.070312"/>
<use xlink:href="#glyph-1-10" x="189.83073" y="112.070312"/>
</g>
<g fill="rgb(0%, 0%, 0%)" fill-opacity="1">
<use xlink:href="#glyph-0-1" x="160.691406" y="17.367188"/>
</g>
<g fill="rgb(0%, 0%, 0%)" fill-opacity="1">
<use xlink:href="#glyph-1-10" x="149.28125" y="18.160156"/>
<use xlink:href="#glyph-1-13" x="155.213543" y="18.160156"/>
</g>
<g fill="rgb(0%, 0%, 0%)" fill-opacity="1">
<use xlink:href="#glyph-0-1" x="191.304688" y="17.367188"/>
</g>
<g fill="rgb(0%, 0%, 0%)" fill-opacity="1">
<use xlink:href="#glyph-1-10" x="181.34375" y="18.160156"/>
<use xlink:href="#glyph-1-12" x="187.276043" y="18.160156"/>
</g>
<g fill="rgb(0%, 0%, 0%)" fill-opacity="1">
<use xlink:href="#glyph-0-1" x="126.046875" y="111.277344"/>
</g>
<g fill="rgb(0%, 0%, 0%)" fill-opacity="1">
<use xlink:href="#glyph-1-11" x="114.601563" y="112.070312"/>
<use xlink:href="#glyph-1-5" x="120.533855" y="112.070312"/>
</g>
<path fill="none" stroke-width="0.0625" stroke-linecap="butt" stroke-linejoin="miter" stroke="rgb(0%, 0%, 0%)" stroke-opacity="1" stroke-miterlimit="10" d="M 0.0000480652 0.000000000000000222 L 0.500048 0.000000000000000222 M 0.250048 -0.25 L 0.250048 0.25 " transform="matrix(40, 0, 0, 40, 481.123077, 60.5)"/>
<path fill="none" stroke-width="0.0333333" stroke-linecap="butt" stroke-linejoin="miter" stroke="rgb(0%, 0%, 0%)" stroke-opacity="1" stroke-miterlimit="10" d="M 0.241943 1.360352 L 0.386279 1.276953 " transform="matrix(40, 0, 0, 40, 523.349639, 10.152343)"/>
<path fill="none" stroke-width="0.0333333" stroke-linecap="butt" stroke-linejoin="miter" stroke="rgb(0%, 0%, 0%)" stroke-opacity="1" stroke-miterlimit="10" d="M 0.496825 1.501855 L 0.246825 1.068848 " transform="matrix(40, 0, 0, 40, 523.349639, 10.152343)"/>
<path fill="none" stroke-width="0.0333333" stroke-linecap="butt" stroke-linejoin="miter" stroke="rgb(0%, 0%, 0%)" stroke-opacity="1" stroke-miterlimit="10" d="M 0.381396 1.568457 L 0.131396 1.135449 " transform="matrix(40, 0, 0, 40, 523.349639, 10.152343)"/>
<path fill="none" stroke-width="0.0333333" stroke-linecap="butt" stroke-linejoin="miter" stroke="rgb(0%, 0%, 0%)" stroke-opacity="1" stroke-miterlimit="10" d="M 1.038427 1.099512 L 1.397997 1.307129 " transform="matrix(40, 0, 0, 40, 523.349639, 10.152343)"/>
<path fill="none" stroke-width="0.0333333" stroke-linecap="butt" stroke-linejoin="miter" stroke="rgb(0%, 0%, 0%)" stroke-opacity="1" stroke-miterlimit="10" d="M 1.093212 1.419824 L 1.343212 0.986816 " transform="matrix(40, 0, 0, 40, 523.349639, 10.152343)"/>
<path fill="none" stroke-width="0.0333333" stroke-linecap="butt" stroke-linejoin="miter" stroke="rgb(0%, 0%, 0%)" stroke-opacity="1" stroke-miterlimit="10" d="M 1.925341 1.388379 L 2.090575 1.293066 " transform="matrix(40, 0, 0, 40, 523.349639, 10.152343)"/>
<path fill="none" stroke-width="0.0333333" stroke-linecap="butt" stroke-linejoin="miter" stroke="rgb(0%, 0%, 0%)" stroke-opacity="1" stroke-miterlimit="10" d="M 2.190673 1.523926 L 1.940673 1.090918 " transform="matrix(40, 0, 0, 40, 523.349639, 10.152343)"/>
<path fill="none" stroke-width="0.0333333" stroke-linecap="butt" stroke-linejoin="miter" stroke="rgb(0%, 0%, 0%)" stroke-opacity="1" stroke-miterlimit="10" d="M 2.075146 1.590527 L 1.825146 1.15752 " transform="matrix(40, 0, 0, 40, 523.349639, 10.152343)"/>
<path fill="none" stroke-width="0.0333333" stroke-linecap="butt" stroke-linejoin="miter" stroke="rgb(0%, 0%, 0%)" stroke-opacity="1" stroke-miterlimit="10" d="M 2.760107 1.093555 L 3.130029 1.307129 " transform="matrix(40, 0, 0, 40, 523.349639, 10.152343)"/>
<path fill="none" stroke-width="0.0333333" stroke-linecap="butt" stroke-linejoin="miter" stroke="rgb(0%, 0%, 0%)" stroke-opacity="1" stroke-miterlimit="10" d="M 3.657372 1.388379 L 3.837743 1.284277 " transform="matrix(40, 0, 0, 40, 523.349639, 10.152343)"/>
<path fill="none" stroke-width="0.0333333" stroke-linecap="butt" stroke-linejoin="miter" stroke="rgb(0%, 0%, 0%)" stroke-opacity="1" stroke-miterlimit="10" d="M 4.492138 1.093555 L 4.86206 1.307129 " transform="matrix(40, 0, 0, 40, 523.349639, 10.152343)"/>
<path fill="none" stroke-width="0.0333333" stroke-linecap="butt" stroke-linejoin="miter" stroke="rgb(0%, 0%, 0%)" stroke-opacity="1" stroke-miterlimit="10" d="M 5.112841 1.775293 L 5.112841 2.241992 " transform="matrix(40, 0, 0, 40, 523.349639, 10.152343)"/>
<path fill="none" stroke-width="0.0333333" stroke-linecap="butt" stroke-linejoin="miter" stroke="rgb(0%, 0%, 0%)" stroke-opacity="1" stroke-miterlimit="10" d="M 5.279443 1.775293 L 5.279443 2.241992 " transform="matrix(40, 0, 0, 40, 523.349639, 10.152343)"/>
<path fill="none" stroke-width="0.0333333" stroke-linecap="butt" stroke-linejoin="miter" stroke="rgb(0%, 0%, 0%)" stroke-opacity="1" stroke-miterlimit="10" d="M 5.389404 1.388379 L 5.571435 1.283301 " transform="matrix(40, 0, 0, 40, 523.349639, 10.152343)"/>
<path fill="none" stroke-width="0.0333333" stroke-linecap="butt" stroke-linejoin="miter" stroke="rgb(0%, 0%, 0%)" stroke-opacity="1" stroke-miterlimit="10" d="M 6.234618 1.099512 L 6.595849 1.308105 " transform="matrix(40, 0, 0, 40, 523.349639, 10.152343)"/>
<path fill="none" stroke-width="0.0333333" stroke-linecap="butt" stroke-linejoin="miter" stroke="rgb(0%, 0%, 0%)" stroke-opacity="1" stroke-miterlimit="10" d="M 4.43579 0.744824 L 4.584618 0.385645 " transform="matrix(40, 0, 0, 40, 523.349639, 10.152343)"/>
<path fill="none" stroke-width="0.0333333" stroke-linecap="butt" stroke-linejoin="miter" stroke="rgb(0%, 0%, 0%)" stroke-opacity="1" stroke-miterlimit="10" d="M 4.21206 0.714941 L 4.061669 0.351953 " transform="matrix(40, 0, 0, 40, 523.349639, 10.152343)"/>
<path fill="none" stroke-width="0.0333333" stroke-linecap="butt" stroke-linejoin="miter" stroke="rgb(0%, 0%, 0%)" stroke-opacity="1" stroke-miterlimit="10" d="M 3.336279 1.808496 L 3.195654 2.148047 " transform="matrix(40, 0, 0, 40, 523.349639, 10.152343)"/>
<path fill="none" stroke-width="0.0333333" stroke-linecap="butt" stroke-linejoin="miter" stroke="rgb(0%, 0%, 0%)" stroke-opacity="1" stroke-miterlimit="10" d="M 3.534911 1.670898 L 3.732568 2.148047 " transform="matrix(40, 0, 0, 40, 523.349639, 10.152343)"/>
<path fill="none" stroke-width="0.0333333" stroke-linecap="butt" stroke-linejoin="miter" stroke="rgb(0%, 0%, 0%)" stroke-opacity="1" stroke-miterlimit="10" d="M 2.681396 0.741992 L 2.681396 0.27207 " transform="matrix(40, 0, 0, 40, 523.349639, 10.152343)"/>
<path fill="none" stroke-width="0.0333333" stroke-linecap="butt" stroke-linejoin="miter" stroke="rgb(0%, 0%, 0%)" stroke-opacity="1" stroke-miterlimit="10" d="M 2.514697 0.741992 L 2.514697 0.27207 " transform="matrix(40, 0, 0, 40, 523.349639, 10.152343)"/>
<path fill="none" stroke-width="0.0333333" stroke-linecap="butt" stroke-linejoin="miter" stroke="rgb(0%, 0%, 0%)" stroke-opacity="1" stroke-miterlimit="10" d="M 1.648681 1.77207 L 1.648681 2.241992 " transform="matrix(40, 0, 0, 40, 523.349639, 10.152343)"/>
<path fill="none" stroke-width="0.0333333" stroke-linecap="butt" stroke-linejoin="miter" stroke="rgb(0%, 0%, 0%)" stroke-opacity="1" stroke-miterlimit="10" d="M 1.81538 1.77207 L 1.81538 2.241992 " transform="matrix(40, 0, 0, 40, 523.349639, 10.152343)"/>
<g fill="rgb(0%, 0%, 0%)" fill-opacity="1">
<use xlink:href="#glyph-0-1" x="517.578125" y="75.878906"/>
</g>
<g fill="rgb(0%, 0%, 0%)" fill-opacity="1">
<use xlink:href="#glyph-1-1" x="552.414062" y="52"/>
</g>
<g fill="rgb(0%, 0%, 0%)" fill-opacity="1">
<use xlink:href="#glyph-1-11" x="540.246094" y="56.632813"/>
<use xlink:href="#glyph-1-9" x="546.178386" y="56.632813"/>
</g>
<g fill="rgb(0%, 0%, 0%)" fill-opacity="1">
<use xlink:href="#glyph-1-3" x="587.039062" y="71.996094"/>
</g>
<g fill="rgb(0%, 0%, 0%)" fill-opacity="1">
<use xlink:href="#glyph-1-11" x="574.933594" y="76.632813"/>
<use xlink:href="#glyph-1-11" x="580.865886" y="76.632813"/>
</g>
<g fill="rgb(0%, 0%, 0%)" fill-opacity="1">
<use xlink:href="#glyph-1-3" x="621.679688" y="51.996094"/>
</g>
<g fill="rgb(0%, 0%, 0%)" fill-opacity="1">
<use xlink:href="#glyph-1-11" x="609.523438" y="56.632813"/>
<use xlink:href="#glyph-1-13" x="615.45573" y="56.632813"/>
</g>
<g fill="rgb(0%, 0%, 0%)" fill-opacity="1">
<use xlink:href="#glyph-1-3" x="656.320312" y="71.996094"/>
</g>
<g fill="rgb(0%, 0%, 0%)" fill-opacity="1">
<use xlink:href="#glyph-1-12" x="644.121094" y="76.632813"/>
<use xlink:href="#glyph-1-4" x="650.053386" y="76.632813"/>
</g>
<g fill="rgb(0%, 0%, 0%)" fill-opacity="1">
<use xlink:href="#glyph-1-3" x="690.960938" y="51.996094"/>
</g>
<g fill="rgb(0%, 0%, 0%)" fill-opacity="1">
<use xlink:href="#glyph-1-12" x="678.761719" y="56.632813"/>
<use xlink:href="#glyph-1-5" x="684.694011" y="56.632813"/>
</g>
<g fill="rgb(0%, 0%, 0%)" fill-opacity="1">
<use xlink:href="#glyph-1-3" x="725.601562" y="71.996094"/>
</g>
<g fill="rgb(0%, 0%, 0%)" fill-opacity="1">
<use xlink:href="#glyph-1-12" x="713.421875" y="76.632813"/>
<use xlink:href="#glyph-1-7" x="719.354168" y="76.632813"/>
</g>
<g fill="rgb(0%, 0%, 0%)" fill-opacity="1">
<use xlink:href="#glyph-1-1" x="725.617188" y="112"/>
</g>
<g fill="rgb(0%, 0%, 0%)" fill-opacity="1">
<use xlink:href="#glyph-1-12" x="713.359375" y="116.632812"/>
<use xlink:href="#glyph-1-8" x="719.291668" y="116.632812"/>
</g>
<g fill="rgb(0%, 0%, 0%)" fill-opacity="1">
<use xlink:href="#glyph-1-1" x="760.257812" y="52"/>
</g>
<g fill="rgb(0%, 0%, 0%)" fill-opacity="1">
<use xlink:href="#glyph-1-12" x="748.058594" y="56.632813"/>
<use xlink:href="#glyph-1-6" x="753.990886" y="56.632813"/>
</g>
<g fill="rgb(0%, 0%, 0%)" fill-opacity="1">
<use xlink:href="#glyph-0-1" x="794.707031" y="75.878906"/>
</g>
<g fill="rgb(0%, 0%, 0%)" fill-opacity="1">
<use xlink:href="#glyph-1-9" x="783.273438" y="76.640625"/>
<use xlink:href="#glyph-1-6" x="789.20573" y="76.640625"/>
</g>
<g fill="rgb(0%, 0%, 0%)" fill-opacity="1">
<use xlink:href="#glyph-0-1" x="706.089844" y="18.925781"/>
</g>
<g fill="rgb(0%, 0%, 0%)" fill-opacity="1">
<use xlink:href="#glyph-1-8" x="696.128906" y="19.71875"/>
<use xlink:href="#glyph-1-12" x="702.061199" y="19.71875"/>
</g>
<g fill="rgb(0%, 0%, 0%)" fill-opacity="1">
<use xlink:href="#glyph-0-1" x="675.476562" y="18.925781"/>
</g>
<g fill="rgb(0%, 0%, 0%)" fill-opacity="1">
<use xlink:href="#glyph-1-8" x="664.117188" y="19.71875"/>
<use xlink:href="#glyph-1-11" x="670.04948" y="19.71875"/>
</g>
<g fill="rgb(0%, 0%, 0%)" fill-opacity="1">
<use xlink:href="#glyph-0-1" x="640.832031" y="112.835938"/>
</g>
<g fill="rgb(0%, 0%, 0%)" fill-opacity="1">
<use xlink:href="#glyph-1-9" x="629.382812" y="113.628906"/>
<use xlink:href="#glyph-1-4" x="635.315105" y="113.628906"/>
</g>
<g fill="rgb(0%, 0%, 0%)" fill-opacity="1">
<use xlink:href="#glyph-0-1" x="671.449219" y="112.835938"/>
</g>
<g fill="rgb(0%, 0%, 0%)" fill-opacity="1">
<use xlink:href="#glyph-1-8" x="660.039062" y="113.628906"/>
<use xlink:href="#glyph-1-13" x="665.971355" y="113.628906"/>
</g>
<g fill="rgb(0%, 0%, 0%)" fill-opacity="1">
<use xlink:href="#glyph-1-1" x="621.695312" y="12"/>
</g>
<g fill="rgb(0%, 0%, 0%)" fill-opacity="1">
<use xlink:href="#glyph-1-11" x="610.972656" y="16.632812"/>
<use xlink:href="#glyph-1-12" x="616.904949" y="16.632812"/>
</g>
<g fill="rgb(0%, 0%, 0%)" fill-opacity="1">
<use xlink:href="#glyph-1-1" x="587.054688" y="112"/>
</g>
<g fill="rgb(0%, 0%, 0%)" fill-opacity="1">
<use xlink:href="#glyph-1-11" x="574.855469" y="116.632812"/>
<use xlink:href="#glyph-1-10" x="580.787761" y="116.632812"/>
</g>
<path fill="none" stroke-width="0.0625" stroke-linecap="butt" stroke-linejoin="miter" stroke="rgb(0%, 0%, 0%)" stroke-opacity="1" stroke-miterlimit="10" d="M 0.0000482798 0.000000000000000222 L 0.500048 0.000000000000000222 M 0.250048 -0.25 L 0.250048 0.25 " transform="matrix(40, 0, 0, 40, 822.701194, 60.5)"/>
<path fill="none" stroke-width="0.0333333" stroke-linecap="butt" stroke-linejoin="miter" stroke="rgb(0%, 0%, 0%)" stroke-opacity="1" stroke-miterlimit="10" d="M 0.236572 0.0833008 L 0.453564 0.0833008 " transform="matrix(40, 0, 0, 40, 875.130881, 60.5)"/>
<path fill="none" stroke-width="0.0333333" stroke-linecap="butt" stroke-linejoin="miter" stroke="rgb(0%, 0%, 0%)" stroke-opacity="1" stroke-miterlimit="10" d="M 0.236572 -0.0833008 L 0.453564 -0.0833008 " transform="matrix(40, 0, 0, 40, 875.130881, 60.5)"/>
<path fill="none" stroke-width="0.0333333" stroke-linecap="butt" stroke-linejoin="miter" stroke="rgb(0%, 0%, 0%)" stroke-opacity="1" stroke-miterlimit="10" d="M 0.411767 0.25 L 0.411767 -0.25 " transform="matrix(40, 0, 0, 40, 875.130881, 60.5)"/>
<path fill="none" stroke-width="0.0333333" stroke-linecap="butt" stroke-linejoin="miter" stroke="rgb(0%, 0%, 0%)" stroke-opacity="1" stroke-miterlimit="10" d="M 0.278369 0.25 L 0.278369 -0.25 " transform="matrix(40, 0, 0, 40, 875.130881, 60.5)"/>
<g fill="rgb(0%, 0%, 0%)" fill-opacity="1">
<use xlink:href="#glyph-1-1" x="872.375" y="62.347656"/>
</g>
<g fill="rgb(0%, 0%, 0%)" fill-opacity="1">
<use xlink:href="#glyph-1-11" x="860.121094" y="66.980469"/>
<use xlink:href="#glyph-1-8" x="866.053386" y="66.980469"/>
</g>
<g fill="rgb(0%, 0%, 0%)" fill-opacity="1">
<use xlink:href="#glyph-1-1" x="909.554688" y="62.347656"/>
</g>
<g fill="rgb(0%, 0%, 0%)" fill-opacity="1">
<use xlink:href="#glyph-1-11" x="897.359375" y="66.980469"/>
<use xlink:href="#glyph-1-7" x="903.291668" y="66.980469"/>
</g>
<path fill-rule="nonzero" fill="rgb(0%, 0%, 0%)" fill-opacity="1" d="M 935.101562 61.75 L 985.101562 61.75 L 985.101562 65.5 L 995.101562 60.5 L 985.101562 55.5 L 985.101562 59.25 L 935.101562 59.25 "/>
<path fill="none" stroke-width="0.0333333" stroke-linecap="butt" stroke-linejoin="miter" stroke="rgb(0%, 0%, 0%)" stroke-opacity="1" stroke-miterlimit="10" d="M 0.455323 -0.0833008 L 0.236573 -0.0833008 " transform="matrix(40, 0, 0, 40, 1027.4785, 60.5)"/>
<path fill="none" stroke-width="0.0333333" stroke-linecap="butt" stroke-linejoin="miter" stroke="rgb(0%, 0%, 0%)" stroke-opacity="1" stroke-miterlimit="10" d="M 0.455323 0.0833008 L 0.236573 0.0833008 " transform="matrix(40, 0, 0, 40, 1027.4785, 60.5)"/>
<path fill="none" stroke-width="0.0333333" stroke-linecap="butt" stroke-linejoin="miter" stroke="rgb(0%, 0%, 0%)" stroke-opacity="1" stroke-miterlimit="10" d="M 1.152198 0.0833008 L 1.454151 0.0833008 " transform="matrix(40, 0, 0, 40, 1027.4785, 60.5)"/>
<path fill="none" stroke-width="0.0333333" stroke-linecap="butt" stroke-linejoin="miter" stroke="rgb(0%, 0%, 0%)" stroke-opacity="1" stroke-miterlimit="10" d="M 1.152198 -0.0833008 L 1.454151 -0.0833008 " transform="matrix(40, 0, 0, 40, 1027.4785, 60.5)"/>
<path fill="none" stroke-width="0.0333333" stroke-linecap="butt" stroke-linejoin="miter" stroke="rgb(0%, 0%, 0%)" stroke-opacity="1" stroke-miterlimit="10" d="M 1.303174 0.25 L 1.303174 -0.25 " transform="matrix(40, 0, 0, 40, 1027.4785, 60.5)"/>
<g fill="rgb(0%, 0%, 0%)" fill-opacity="1">
<use xlink:href="#glyph-1-3" x="1061.886719" y="62.34375"/>
</g>
<g fill="rgb(0%, 0%, 0%)" fill-opacity="1">
<use xlink:href="#glyph-1-11" x="1049.78125" y="66.980469"/>
<use xlink:href="#glyph-1-11" x="1055.713543" y="66.980469"/>
</g>
<g fill="rgb(0%, 0%, 0%)" fill-opacity="1">
<use xlink:href="#glyph-1-1" x="1024.722656" y="62.347656"/>
</g>
<g fill="rgb(0%, 0%, 0%)" fill-opacity="1">
<use xlink:href="#glyph-1-11" x="1012.527344" y="66.980469"/>
<use xlink:href="#glyph-1-10" x="1018.459636" y="66.980469"/>
</g>
<g fill="rgb(0%, 0%, 0%)" fill-opacity="1">
<use xlink:href="#glyph-1-1" x="1101.902344" y="62.347656"/>
</g>
<g fill="rgb(0%, 0%, 0%)" fill-opacity="1">
<use xlink:href="#glyph-1-11" x="1089.734375" y="66.980469"/>
<use xlink:href="#glyph-1-9" x="1095.666668" y="66.980469"/>
</g>
<path fill="none" stroke-width="0.0625" stroke-linecap="butt" stroke-linejoin="miter" stroke="rgb(0%, 0%, 0%)" stroke-opacity="1" stroke-miterlimit="10" d="M -0.0000484288 0.000000000000000222 L 0.499952 0.000000000000000222 M 0.249952 -0.25 L 0.249952 0.25 " transform="matrix(40, 0, 0, 40, 1127.451156, 60.5)"/>
<path fill="none" stroke-width="0.0333333" stroke-linecap="butt" stroke-linejoin="miter" stroke="rgb(0%, 0%, 0%)" stroke-opacity="1" stroke-miterlimit="10" d="M 7.499756 1.253857 L 7.090186 1.017432 " transform="matrix(40, 0, 0, 40, 1182.09178, 11.580079)"/>
<path fill="none" stroke-width="0.0333333" stroke-linecap="butt" stroke-linejoin="miter" stroke="rgb(0%, 0%, 0%)" stroke-opacity="1" stroke-miterlimit="10" d="M 6.534327 1.151318 L 6.25542 1.312256 " transform="matrix(40, 0, 0, 40, 1182.09178, 11.580079)"/>
<path fill="none" stroke-width="0.0333333" stroke-linecap="butt" stroke-linejoin="miter" stroke="rgb(0%, 0%, 0%)" stroke-opacity="1" stroke-miterlimit="10" d="M 5.728077 1.231006 L 5.358155 1.017432 " transform="matrix(40, 0, 0, 40, 1182.09178, 11.580079)"/>
<path fill="none" stroke-width="0.0333333" stroke-linecap="butt" stroke-linejoin="miter" stroke="rgb(0%, 0%, 0%)" stroke-opacity="1" stroke-miterlimit="10" d="M 4.798389 1.153564 L 4.523389 1.312256 " transform="matrix(40, 0, 0, 40, 1182.09178, 11.580079)"/>
<path fill="none" stroke-width="0.0333333" stroke-linecap="butt" stroke-linejoin="miter" stroke="rgb(0%, 0%, 0%)" stroke-opacity="1" stroke-miterlimit="10" d="M 3.996045 1.231006 L 3.626123 1.017432 " transform="matrix(40, 0, 0, 40, 1182.09178, 11.580079)"/>
<path fill="none" stroke-width="0.0333333" stroke-linecap="butt" stroke-linejoin="miter" stroke="rgb(0%, 0%, 0%)" stroke-opacity="1" stroke-miterlimit="10" d="M 3.069092 1.152002 L 2.791358 1.312256 " transform="matrix(40, 0, 0, 40, 1182.09178, 11.580079)"/>
<path fill="none" stroke-width="0.0333333" stroke-linecap="butt" stroke-linejoin="miter" stroke="rgb(0%, 0%, 0%)" stroke-opacity="1" stroke-miterlimit="10" d="M 2.264014 1.231006 L 1.894092 1.017432 " transform="matrix(40, 0, 0, 40, 1182.09178, 11.580079)"/>
<path fill="none" stroke-width="0.0333333" stroke-linecap="butt" stroke-linejoin="miter" stroke="rgb(0%, 0%, 0%)" stroke-opacity="1" stroke-miterlimit="10" d="M 1.337256 1.151807 L 1.059327 1.312256 " transform="matrix(40, 0, 0, 40, 1182.09178, 11.580079)"/>
<path fill="none" stroke-width="0.0333333" stroke-linecap="butt" stroke-linejoin="miter" stroke="rgb(0%, 0%, 0%)" stroke-opacity="1" stroke-miterlimit="10" d="M 0.782666 1.69917 L 0.782666 2.165869 " transform="matrix(40, 0, 0, 40, 1182.09178, 11.580079)"/>
<path fill="none" stroke-width="0.0333333" stroke-linecap="butt" stroke-linejoin="miter" stroke="rgb(0%, 0%, 0%)" stroke-opacity="1" stroke-miterlimit="10" d="M 0.949366 1.69917 L 0.949366 2.165869 " transform="matrix(40, 0, 0, 40, 1182.09178, 11.580079)"/>
<path fill="none" stroke-width="0.0333333" stroke-linecap="butt" stroke-linejoin="miter" stroke="rgb(0%, 0%, 0%)" stroke-opacity="1" stroke-miterlimit="10" d="M 0.616065 1.99917 L 1.116065 1.99917 " transform="matrix(40, 0, 0, 40, 1182.09178, 11.580079)"/>
<path fill="none" stroke-width="0.0333333" stroke-linecap="butt" stroke-linejoin="miter" stroke="rgb(0%, 0%, 0%)" stroke-opacity="1" stroke-miterlimit="10" d="M 0.616065 1.865869 L 1.116065 1.865869 " transform="matrix(40, 0, 0, 40, 1182.09178, 11.580079)"/>
<path fill="none" stroke-width="0.0333333" stroke-linecap="butt" stroke-linejoin="miter" stroke="rgb(0%, 0%, 0%)" stroke-opacity="1" stroke-miterlimit="10" d="M 0.531983 1.231006 L 0.255225 1.07124 " transform="matrix(40, 0, 0, 40, 1182.09178, 11.580079)"/>
<path fill="none" stroke-width="0.0333333" stroke-linecap="butt" stroke-linejoin="miter" stroke="rgb(0%, 0%, 0%)" stroke-opacity="1" stroke-miterlimit="10" d="M 1.837745 0.668701 L 1.986475 0.309619 " transform="matrix(40, 0, 0, 40, 1182.09178, 11.580079)"/>
<path fill="none" stroke-width="0.0333333" stroke-linecap="butt" stroke-linejoin="miter" stroke="rgb(0%, 0%, 0%)" stroke-opacity="1" stroke-miterlimit="10" d="M 1.614014 0.638916 L 1.463623 0.27583 " transform="matrix(40, 0, 0, 40, 1182.09178, 11.580079)"/>
<path fill="none" stroke-width="0.0333333" stroke-linecap="butt" stroke-linejoin="miter" stroke="rgb(0%, 0%, 0%)" stroke-opacity="1" stroke-miterlimit="10" d="M 2.472998 1.72583 L 2.329639 2.071924 " transform="matrix(40, 0, 0, 40, 1182.09178, 11.580079)"/>
<path fill="none" stroke-width="0.0333333" stroke-linecap="butt" stroke-linejoin="miter" stroke="rgb(0%, 0%, 0%)" stroke-opacity="1" stroke-miterlimit="10" d="M 2.668897 1.594775 L 2.866553 2.071924 " transform="matrix(40, 0, 0, 40, 1182.09178, 11.580079)"/>
<path fill="none" stroke-width="0.0333333" stroke-linecap="butt" stroke-linejoin="miter" stroke="rgb(0%, 0%, 0%)" stroke-opacity="1" stroke-miterlimit="10" d="M 3.569776 0.668701 L 3.718506 0.309619 " transform="matrix(40, 0, 0, 40, 1182.09178, 11.580079)"/>
<path fill="none" stroke-width="0.0333333" stroke-linecap="butt" stroke-linejoin="miter" stroke="rgb(0%, 0%, 0%)" stroke-opacity="1" stroke-miterlimit="10" d="M 3.346045 0.638916 L 3.195655 0.27583 " transform="matrix(40, 0, 0, 40, 1182.09178, 11.580079)"/>
<path fill="none" stroke-width="0.0333333" stroke-linecap="butt" stroke-linejoin="miter" stroke="rgb(0%, 0%, 0%)" stroke-opacity="1" stroke-miterlimit="10" d="M 4.20376 1.728955 L 4.06167 2.071924 " transform="matrix(40, 0, 0, 40, 1182.09178, 11.580079)"/>
<path fill="none" stroke-width="0.0333333" stroke-linecap="butt" stroke-linejoin="miter" stroke="rgb(0%, 0%, 0%)" stroke-opacity="1" stroke-miterlimit="10" d="M 4.400928 1.594775 L 4.598584 2.071924 " transform="matrix(40, 0, 0, 40, 1182.09178, 11.580079)"/>
<path fill="none" stroke-width="0.0333333" stroke-linecap="butt" stroke-linejoin="miter" stroke="rgb(0%, 0%, 0%)" stroke-opacity="1" stroke-miterlimit="10" d="M 5.301807 0.668701 L 5.450635 0.309619 " transform="matrix(40, 0, 0, 40, 1182.09178, 11.580079)"/>
<path fill="none" stroke-width="0.0333333" stroke-linecap="butt" stroke-linejoin="miter" stroke="rgb(0%, 0%, 0%)" stroke-opacity="1" stroke-miterlimit="10" d="M 5.078077 0.638916 L 4.927686 0.27583 " transform="matrix(40, 0, 0, 40, 1182.09178, 11.580079)"/>
<path fill="none" stroke-width="0.0333333" stroke-linecap="butt" stroke-linejoin="miter" stroke="rgb(0%, 0%, 0%)" stroke-opacity="1" stroke-miterlimit="10" d="M 5.934327 1.732471 L 5.793702 2.071924 " transform="matrix(40, 0, 0, 40, 1182.09178, 11.580079)"/>
<path fill="none" stroke-width="0.0333333" stroke-linecap="butt" stroke-linejoin="miter" stroke="rgb(0%, 0%, 0%)" stroke-opacity="1" stroke-miterlimit="10" d="M 6.132959 1.594775 L 6.330616 2.071924 " transform="matrix(40, 0, 0, 40, 1182.09178, 11.580079)"/>
<path fill="none" stroke-width="0.0333333" stroke-linecap="butt" stroke-linejoin="miter" stroke="rgb(0%, 0%, 0%)" stroke-opacity="1" stroke-miterlimit="10" d="M 7.033936 0.668701 L 7.184034 0.306201 " transform="matrix(40, 0, 0, 40, 1182.09178, 11.580079)"/>
<path fill="none" stroke-width="0.0333333" stroke-linecap="butt" stroke-linejoin="miter" stroke="rgb(0%, 0%, 0%)" stroke-opacity="1" stroke-miterlimit="10" d="M 6.810108 0.638818 L 6.659717 0.27583 " transform="matrix(40, 0, 0, 40, 1182.09178, 11.580079)"/>
<path fill="none" stroke-width="0.0333333" stroke-linecap="butt" stroke-linejoin="miter" stroke="rgb(0%, 0%, 0%)" stroke-opacity="1" stroke-miterlimit="10" d="M 7.79419 1.583252 L 7.79419 2.170752 " transform="matrix(40, 0, 0, 40, 1182.09178, 11.580079)"/>
<path fill="none" stroke-width="0.0333333" stroke-linecap="butt" stroke-linejoin="miter" stroke="rgb(0%, 0%, 0%)" stroke-opacity="1" stroke-miterlimit="10" d="M 7.987452 1.312256 L 8.158448 1.213623 " transform="matrix(40, 0, 0, 40, 1182.09178, 11.580079)"/>
<path fill="none" stroke-width="0.0333333" stroke-linecap="butt" stroke-linejoin="miter" stroke="rgb(0%, 0%, 0%)" stroke-opacity="1" stroke-miterlimit="10" d="M 7.956202 1.517432 L 8.327881 1.731982 " transform="matrix(40, 0, 0, 40, 1182.09178, 11.580079)"/>
<g fill="rgb(0%, 0%, 0%)" fill-opacity="1">
<use xlink:href="#glyph-1-3" x="1488.269531" y="70.378906"/>
</g>
<g fill="rgb(0%, 0%, 0%)" fill-opacity="1">
<use xlink:href="#glyph-1-12" x="1483.488281" y="75.015625"/>
</g>
<g fill="rgb(0%, 0%, 0%)" fill-opacity="1">
<use xlink:href="#glyph-1-3" x="1453.628906" y="50.378906"/>
</g>
<g fill="rgb(0%, 0%, 0%)" fill-opacity="1">
<use xlink:href="#glyph-1-11" x="1447.457031" y="55.015625"/>
</g>
<g fill="rgb(0%, 0%, 0%)" fill-opacity="1">
<use xlink:href="#glyph-1-3" x="1418.984375" y="70.378906"/>
</g>
<g fill="rgb(0%, 0%, 0%)" fill-opacity="1">
<use xlink:href="#glyph-1-10" x="1412.734375" y="75.015625"/>
</g>
<g fill="rgb(0%, 0%, 0%)" fill-opacity="1">
<use xlink:href="#glyph-1-3" x="1384.34375" y="50.378906"/>
</g>
<g fill="rgb(0%, 0%, 0%)" fill-opacity="1">
<use xlink:href="#glyph-1-9" x="1378.125" y="54.984375"/>
</g>
<g fill="rgb(0%, 0%, 0%)" fill-opacity="1">
<use xlink:href="#glyph-1-3" x="1349.703125" y="70.378906"/>
</g>
<g fill="rgb(0%, 0%, 0%)" fill-opacity="1">
<use xlink:href="#glyph-1-8" x="1343.394531" y="74.882812"/>
</g>
<g fill="rgb(0%, 0%, 0%)" fill-opacity="1">
<use xlink:href="#glyph-1-3" x="1315.0625" y="50.378906"/>
</g>
<g fill="rgb(0%, 0%, 0%)" fill-opacity="1">
<use xlink:href="#glyph-1-7" x="1308.816406" y="55.015625"/>
</g>
<g fill="rgb(0%, 0%, 0%)" fill-opacity="1">
<use xlink:href="#glyph-1-3" x="1280.421875" y="70.378906"/>
</g>
<g fill="rgb(0%, 0%, 0%)" fill-opacity="1">
<use xlink:href="#glyph-1-6" x="1274.167969" y="74.886719"/>
</g>
<g fill="rgb(0%, 0%, 0%)" fill-opacity="1">
<use xlink:href="#glyph-1-3" x="1245.78125" y="50.378906"/>
</g>
<g fill="rgb(0%, 0%, 0%)" fill-opacity="1">
<use xlink:href="#glyph-1-5" x="1239.515625" y="55.015625"/>
</g>
<g fill="rgb(0%, 0%, 0%)" fill-opacity="1">
<use xlink:href="#glyph-1-3" x="1211.140625" y="70.378906"/>
</g>
<g fill="rgb(0%, 0%, 0%)" fill-opacity="1">
<use xlink:href="#glyph-1-4" x="1204.871094" y="75.015625"/>
</g>
<g fill="rgb(0%, 0%, 0%)" fill-opacity="1">
<use xlink:href="#glyph-1-1" x="1211.15625" y="110.382812"/>
</g>
<g fill="rgb(0%, 0%, 0%)" fill-opacity="1">
<use xlink:href="#glyph-1-11" x="1198.964844" y="115.015625"/>
<use xlink:href="#glyph-1-7" x="1204.897136" y="115.015625"/>
</g>
<g fill="rgb(0%, 0%, 0%)" fill-opacity="1">
<use xlink:href="#glyph-0-1" x="1176.320312" y="54.261719"/>
</g>
<g fill="rgb(0%, 0%, 0%)" fill-opacity="1">
<use xlink:href="#glyph-1-11" x="1164.871094" y="55.054688"/>
<use xlink:href="#glyph-1-5" x="1170.803386" y="55.054688"/>
</g>
<g fill="rgb(0%, 0%, 0%)" fill-opacity="1">
<use xlink:href="#glyph-0-1" x="1260.910156" y="17.308594"/>
</g>
<g fill="rgb(0%, 0%, 0%)" fill-opacity="1">
<use xlink:href="#glyph-1-10" x="1249.5" y="18.101562"/>
<use xlink:href="#glyph-1-13" x="1255.432293" y="18.101562"/>
</g>
<g fill="rgb(0%, 0%, 0%)" fill-opacity="1">
<use xlink:href="#glyph-0-1" x="1230.292969" y="17.308594"/>
</g>
<g fill="rgb(0%, 0%, 0%)" fill-opacity="1">
<use xlink:href="#glyph-1-10" x="1220.335938" y="18.101562"/>
<use xlink:href="#glyph-1-12" x="1226.26823" y="18.101562"/>
</g>
<g fill="rgb(0%, 0%, 0%)" fill-opacity="1">
<use xlink:href="#glyph-0-1" x="1264.933594" y="111.21875"/>
</g>
<g fill="rgb(0%, 0%, 0%)" fill-opacity="1">
<use xlink:href="#glyph-1-10" x="1253.578125" y="112.011719"/>
<use xlink:href="#glyph-1-11" x="1259.510418" y="112.011719"/>
</g>
<g fill="rgb(0%, 0%, 0%)" fill-opacity="1">
<use xlink:href="#glyph-0-1" x="1295.550781" y="111.21875"/>
</g>
<g fill="rgb(0%, 0%, 0%)" fill-opacity="1">
<use xlink:href="#glyph-1-10" x="1284.117188" y="112.011719"/>
<use xlink:href="#glyph-1-10" x="1290.04948" y="112.011719"/>
</g>
<g fill="rgb(0%, 0%, 0%)" fill-opacity="1">
<use xlink:href="#glyph-0-1" x="1330.191406" y="17.308594"/>
</g>
<g fill="rgb(0%, 0%, 0%)" fill-opacity="1">
<use xlink:href="#glyph-1-10" x="1318.789062" y="18.101562"/>
<use xlink:href="#glyph-1-9" x="1324.721355" y="18.101562"/>
</g>
<g fill="rgb(0%, 0%, 0%)" fill-opacity="1">
<use xlink:href="#glyph-0-1" x="1299.574219" y="17.308594"/>
</g>
<g fill="rgb(0%, 0%, 0%)" fill-opacity="1">
<use xlink:href="#glyph-1-10" x="1288.085938" y="18.101562"/>
<use xlink:href="#glyph-1-8" x="1294.01823" y="18.101562"/>
</g>
<g fill="rgb(0%, 0%, 0%)" fill-opacity="1">
<use xlink:href="#glyph-0-1" x="1334.21875" y="111.21875"/>
</g>
<g fill="rgb(0%, 0%, 0%)" fill-opacity="1">
<use xlink:href="#glyph-1-10" x="1322.789062" y="112.011719"/>
<use xlink:href="#glyph-1-7" x="1328.721355" y="112.011719"/>
</g>
<g fill="rgb(0%, 0%, 0%)" fill-opacity="1">
<use xlink:href="#glyph-0-1" x="1364.832031" y="111.21875"/>
</g>
<g fill="rgb(0%, 0%, 0%)" fill-opacity="1">
<use xlink:href="#glyph-1-10" x="1353.398438" y="112.011719"/>
<use xlink:href="#glyph-1-6" x="1359.33073" y="112.011719"/>
</g>
<g fill="rgb(0%, 0%, 0%)" fill-opacity="1">
<use xlink:href="#glyph-0-1" x="1399.472656" y="17.308594"/>
</g>
<g fill="rgb(0%, 0%, 0%)" fill-opacity="1">
<use xlink:href="#glyph-1-10" x="1388.023438" y="18.101562"/>
<use xlink:href="#glyph-1-5" x="1393.95573" y="18.101562"/>
</g>
<g fill="rgb(0%, 0%, 0%)" fill-opacity="1">
<use xlink:href="#glyph-0-1" x="1368.859375" y="17.308594"/>
</g>
<g fill="rgb(0%, 0%, 0%)" fill-opacity="1">
<use xlink:href="#glyph-1-10" x="1357.410156" y="18.101562"/>
<use xlink:href="#glyph-1-4" x="1363.342449" y="18.101562"/>
</g>
<g fill="rgb(0%, 0%, 0%)" fill-opacity="1">
<use xlink:href="#glyph-0-1" x="1403.5" y="111.21875"/>
</g>
<g fill="rgb(0%, 0%, 0%)" fill-opacity="1">
<use xlink:href="#glyph-1-9" x="1392.089844" y="112.011719"/>
<use xlink:href="#glyph-1-13" x="1398.022136" y="112.011719"/>
</g>
<g fill="rgb(0%, 0%, 0%)" fill-opacity="1">
<use xlink:href="#glyph-0-1" x="1434.113281" y="111.21875"/>
</g>
<g fill="rgb(0%, 0%, 0%)" fill-opacity="1">
<use xlink:href="#glyph-1-9" x="1424.152344" y="112.011719"/>
<use xlink:href="#glyph-1-12" x="1430.084636" y="112.011719"/>
</g>
<g fill="rgb(0%, 0%, 0%)" fill-opacity="1">
<use xlink:href="#glyph-0-1" x="1468.753906" y="17.308594"/>
</g>
<g fill="rgb(0%, 0%, 0%)" fill-opacity="1">
<use xlink:href="#glyph-1-9" x="1457.398438" y="18.101562"/>
<use xlink:href="#glyph-1-11" x="1463.33073" y="18.101562"/>
</g>
<g fill="rgb(0%, 0%, 0%)" fill-opacity="1">
<use xlink:href="#glyph-0-1" x="1438.140625" y="17.308594"/>
</g>
<g fill="rgb(0%, 0%, 0%)" fill-opacity="1">
<use xlink:href="#glyph-1-9" x="1426.707031" y="18.101562"/>
<use xlink:href="#glyph-1-10" x="1432.639324" y="18.101562"/>
</g>
<g fill="rgb(0%, 0%, 0%)" fill-opacity="1">
<use xlink:href="#glyph-0-1" x="1488.089844" y="114.261719"/>
</g>
<g fill="rgb(0%, 0%, 0%)" fill-opacity="1">
<use xlink:href="#glyph-1-9" x="1476.6875" y="115.023438"/>
<use xlink:href="#glyph-1-9" x="1482.619793" y="115.023438"/>
</g>
<g fill="rgb(0%, 0%, 0%)" fill-opacity="1">
<use xlink:href="#glyph-0-1" x="1522.730469" y="54.261719"/>
</g>
<g fill="rgb(0%, 0%, 0%)" fill-opacity="1">
<use xlink:href="#glyph-1-9" x="1511.238281" y="55.023438"/>
<use xlink:href="#glyph-1-8" x="1517.170574" y="55.023438"/>
</g>
<g fill="rgb(0%, 0%, 0%)" fill-opacity="1">
<use xlink:href="#glyph-0-1" x="1522.730469" y="94.261719"/>
</g>
<g fill="rgb(0%, 0%, 0%)" fill-opacity="1">
<use xlink:href="#glyph-1-9" x="1511.300781" y="95.054688"/>
<use xlink:href="#glyph-1-7" x="1517.233074" y="95.054688"/>
</g>
<path fill="none" stroke-width="0.0625" stroke-linecap="butt" stroke-linejoin="miter" stroke="rgb(0%, 0%, 0%)" stroke-opacity="1" stroke-miterlimit="10" d="M -0.0000485957 0.000000000000000222 L 0.499951 0.000000000000000222 M 0.249951 -0.25 L 0.249951 0.25 " transform="matrix(40, 0, 0, 40, 1550.7246, 60.5)"/>
<path fill="none" stroke-width="0.0333333" stroke-linecap="butt" stroke-linejoin="miter" stroke="rgb(0%, 0%, 0%)" stroke-opacity="1" stroke-miterlimit="10" d="M 0.240967 1.360889 L 0.385303 1.27749 " transform="matrix(40, 0, 0, 40, 1592.951161, 10.220702)"/>
<path fill="none" stroke-width="0.0333333" stroke-linecap="butt" stroke-linejoin="miter" stroke="rgb(0%, 0%, 0%)" stroke-opacity="1" stroke-miterlimit="10" d="M 0.49585 1.502393 L 0.24585 1.069385 " transform="matrix(40, 0, 0, 40, 1592.951161, 10.220702)"/>
<path fill="none" stroke-width="0.0333333" stroke-linecap="butt" stroke-linejoin="miter" stroke="rgb(0%, 0%, 0%)" stroke-opacity="1" stroke-miterlimit="10" d="M 0.38042 1.568994 L 0.13042 1.135986 " transform="matrix(40, 0, 0, 40, 1592.951161, 10.220702)"/>
<path fill="none" stroke-width="0.0333333" stroke-linecap="butt" stroke-linejoin="miter" stroke="rgb(0%, 0%, 0%)" stroke-opacity="1" stroke-miterlimit="10" d="M 1.038428 1.099561 L 1.397998 1.30708 " transform="matrix(40, 0, 0, 40, 1592.951161, 10.220702)"/>
<path fill="none" stroke-width="0.0333333" stroke-linecap="butt" stroke-linejoin="miter" stroke="rgb(0%, 0%, 0%)" stroke-opacity="1" stroke-miterlimit="10" d="M 1.150928 1.453174 L 1.400928 1.020166 " transform="matrix(40, 0, 0, 40, 1592.951161, 10.220702)"/>
<path fill="none" stroke-width="0.0333333" stroke-linecap="butt" stroke-linejoin="miter" stroke="rgb(0%, 0%, 0%)" stroke-opacity="1" stroke-miterlimit="10" d="M 1.035498 1.386475 L 1.285498 0.953467 " transform="matrix(40, 0, 0, 40, 1592.951161, 10.220702)"/>
<path fill="none" stroke-width="0.0333333" stroke-linecap="butt" stroke-linejoin="miter" stroke="rgb(0%, 0%, 0%)" stroke-opacity="1" stroke-miterlimit="10" d="M 1.925342 1.388428 L 2.105713 1.284326 " transform="matrix(40, 0, 0, 40, 1592.951161, 10.220702)"/>
<path fill="none" stroke-width="0.0333333" stroke-linecap="butt" stroke-linejoin="miter" stroke="rgb(0%, 0%, 0%)" stroke-opacity="1" stroke-miterlimit="10" d="M 2.760108 1.093506 L 3.13003 1.30708 " transform="matrix(40, 0, 0, 40, 1592.951161, 10.220702)"/>
<path fill="none" stroke-width="0.0333333" stroke-linecap="butt" stroke-linejoin="miter" stroke="rgb(0%, 0%, 0%)" stroke-opacity="1" stroke-miterlimit="10" d="M 3.657373 1.388428 L 3.838135 1.284033 " transform="matrix(40, 0, 0, 40, 1592.951161, 10.220702)"/>
<path fill="none" stroke-width="0.0333333" stroke-linecap="butt" stroke-linejoin="miter" stroke="rgb(0%, 0%, 0%)" stroke-opacity="1" stroke-miterlimit="10" d="M 4.413428 0.741943 L 4.413428 0.275342 " transform="matrix(40, 0, 0, 40, 1592.951161, 10.220702)"/>
<path fill="none" stroke-width="0.0333333" stroke-linecap="butt" stroke-linejoin="miter" stroke="rgb(0%, 0%, 0%)" stroke-opacity="1" stroke-miterlimit="10" d="M 4.246826 0.741943 L 4.246826 0.275342 " transform="matrix(40, 0, 0, 40, 1592.951161, 10.220702)"/>
<path fill="none" stroke-width="0.0333333" stroke-linecap="butt" stroke-linejoin="miter" stroke="rgb(0%, 0%, 0%)" stroke-opacity="1" stroke-miterlimit="10" d="M 4.492139 1.093506 L 4.862061 1.30708 " transform="matrix(40, 0, 0, 40, 1592.951161, 10.220702)"/>
<path fill="none" stroke-width="0.0333333" stroke-linecap="butt" stroke-linejoin="miter" stroke="rgb(0%, 0%, 0%)" stroke-opacity="1" stroke-miterlimit="10" d="M 5.403174 1.38042 L 5.562842 1.28833 " transform="matrix(40, 0, 0, 40, 1592.951161, 10.220702)"/>
<path fill="none" stroke-width="0.0333333" stroke-linecap="butt" stroke-linejoin="miter" stroke="rgb(0%, 0%, 0%)" stroke-opacity="1" stroke-miterlimit="10" d="M 3.33628 1.808545 L 3.195655 2.148096 " transform="matrix(40, 0, 0, 40, 1592.951161, 10.220702)"/>
<path fill="none" stroke-width="0.0333333" stroke-linecap="butt" stroke-linejoin="miter" stroke="rgb(0%, 0%, 0%)" stroke-opacity="1" stroke-miterlimit="10" d="M 3.534912 1.670947 L 3.732569 2.148096 " transform="matrix(40, 0, 0, 40, 1592.951161, 10.220702)"/>
<path fill="none" stroke-width="0.0333333" stroke-linecap="butt" stroke-linejoin="miter" stroke="rgb(0%, 0%, 0%)" stroke-opacity="1" stroke-miterlimit="10" d="M 2.70376 0.744775 L 2.852588 0.385596 " transform="matrix(40, 0, 0, 40, 1592.951161, 10.220702)"/>
<path fill="none" stroke-width="0.0333333" stroke-linecap="butt" stroke-linejoin="miter" stroke="rgb(0%, 0%, 0%)" stroke-opacity="1" stroke-miterlimit="10" d="M 2.48003 0.71499 L 2.329639 0.351904 " transform="matrix(40, 0, 0, 40, 1592.951161, 10.220702)"/>
<path fill="none" stroke-width="0.0333333" stroke-linecap="butt" stroke-linejoin="miter" stroke="rgb(0%, 0%, 0%)" stroke-opacity="1" stroke-miterlimit="10" d="M 1.648682 1.775342 L 1.648682 2.241943 " transform="matrix(40, 0, 0, 40, 1592.951161, 10.220702)"/>
<path fill="none" stroke-width="0.0333333" stroke-linecap="butt" stroke-linejoin="miter" stroke="rgb(0%, 0%, 0%)" stroke-opacity="1" stroke-miterlimit="10" d="M 1.815381 1.775342 L 1.815381 2.241943 " transform="matrix(40, 0, 0, 40, 1592.951161, 10.220702)"/>
<g fill="rgb(0%, 0%, 0%)" fill-opacity="1">
<use xlink:href="#glyph-0-1" x="1587.179688" y="75.949219"/>
</g>
<g fill="rgb(0%, 0%, 0%)" fill-opacity="1">
<use xlink:href="#glyph-1-1" x="1622.015625" y="52.070312"/>
</g>
<g fill="rgb(0%, 0%, 0%)" fill-opacity="1">
<use xlink:href="#glyph-1-11" x="1609.761719" y="56.703125"/>
<use xlink:href="#glyph-1-8" x="1615.694011" y="56.703125"/>
</g>
<g fill="rgb(0%, 0%, 0%)" fill-opacity="1">
<use xlink:href="#glyph-1-3" x="1656.640625" y="72.066406"/>
</g>
<g fill="rgb(0%, 0%, 0%)" fill-opacity="1">
<use xlink:href="#glyph-1-11" x="1644.484375" y="76.703125"/>
<use xlink:href="#glyph-1-13" x="1650.416668" y="76.703125"/>
</g>
<g fill="rgb(0%, 0%, 0%)" fill-opacity="1">
<use xlink:href="#glyph-1-3" x="1691.28125" y="52.066406"/>
</g>
<g fill="rgb(0%, 0%, 0%)" fill-opacity="1">
<use xlink:href="#glyph-1-12" x="1679.082031" y="56.703125"/>
<use xlink:href="#glyph-1-4" x="1685.014324" y="56.703125"/>
</g>
<g fill="rgb(0%, 0%, 0%)" fill-opacity="1">
<use xlink:href="#glyph-1-3" x="1725.921875" y="72.066406"/>
</g>
<g fill="rgb(0%, 0%, 0%)" fill-opacity="1">
<use xlink:href="#glyph-1-12" x="1713.722656" y="76.703125"/>
<use xlink:href="#glyph-1-5" x="1719.654949" y="76.703125"/>
</g>
<g fill="rgb(0%, 0%, 0%)" fill-opacity="1">
<use xlink:href="#glyph-1-3" x="1760.5625" y="52.066406"/>
</g>
<g fill="rgb(0%, 0%, 0%)" fill-opacity="1">
<use xlink:href="#glyph-1-12" x="1748.382812" y="56.703125"/>
<use xlink:href="#glyph-1-7" x="1754.315105" y="56.703125"/>
</g>
<g fill="rgb(0%, 0%, 0%)" fill-opacity="1">
<use xlink:href="#glyph-1-1" x="1760.578125" y="12.070312"/>
</g>
<g fill="rgb(0%, 0%, 0%)" fill-opacity="1">
<use xlink:href="#glyph-1-12" x="1748.320312" y="16.703125"/>
<use xlink:href="#glyph-1-8" x="1754.252605" y="16.703125"/>
</g>
<g fill="rgb(0%, 0%, 0%)" fill-opacity="1">
<use xlink:href="#glyph-1-1" x="1795.21875" y="72.070312"/>
</g>
<g fill="rgb(0%, 0%, 0%)" fill-opacity="1">
<use xlink:href="#glyph-1-12" x="1783.019531" y="76.703125"/>
<use xlink:href="#glyph-1-6" x="1788.951824" y="76.703125"/>
</g>
<g fill="rgb(0%, 0%, 0%)" fill-opacity="1">
<use xlink:href="#glyph-0-1" x="1829.664062" y="55.949219"/>
</g>
<g fill="rgb(0%, 0%, 0%)" fill-opacity="1">
<use xlink:href="#glyph-1-9" x="1818.230469" y="56.710938"/>
<use xlink:href="#glyph-1-6" x="1824.162761" y="56.710938"/>
</g>
<g fill="rgb(0%, 0%, 0%)" fill-opacity="1">
<use xlink:href="#glyph-0-1" x="1710.433594" y="112.902344"/>
</g>
<g fill="rgb(0%, 0%, 0%)" fill-opacity="1">
<use xlink:href="#glyph-1-8" x="1700.472656" y="113.695312"/>
<use xlink:href="#glyph-1-12" x="1706.404949" y="113.695312"/>
</g>
<g fill="rgb(0%, 0%, 0%)" fill-opacity="1">
<use xlink:href="#glyph-0-1" x="1741.050781" y="112.902344"/>
</g>
<g fill="rgb(0%, 0%, 0%)" fill-opacity="1">
<use xlink:href="#glyph-1-8" x="1729.695312" y="113.695312"/>
<use xlink:href="#glyph-1-11" x="1735.627605" y="113.695312"/>
</g>
<g fill="rgb(0%, 0%, 0%)" fill-opacity="1">
<use xlink:href="#glyph-0-1" x="1706.410156" y="18.992188"/>
</g>
<g fill="rgb(0%, 0%, 0%)" fill-opacity="1">
<use xlink:href="#glyph-1-9" x="1694.960937" y="19.785156"/>
<use xlink:href="#glyph-1-4" x="1700.89323" y="19.785156"/>
</g>
<g fill="rgb(0%, 0%, 0%)" fill-opacity="1">
<use xlink:href="#glyph-0-1" x="1675.792969" y="18.992188"/>
</g>
<g fill="rgb(0%, 0%, 0%)" fill-opacity="1">
<use xlink:href="#glyph-1-8" x="1664.386719" y="19.785156"/>
<use xlink:href="#glyph-1-13" x="1670.319011" y="19.785156"/>
</g>
<g fill="rgb(0%, 0%, 0%)" fill-opacity="1">
<use xlink:href="#glyph-1-1" x="1656.65625" y="112.070312"/>
</g>
<g fill="rgb(0%, 0%, 0%)" fill-opacity="1">
<use xlink:href="#glyph-1-11" x="1645.933594" y="116.703125"/>
<use xlink:href="#glyph-1-12" x="1651.865886" y="116.703125"/>
</g>
</svg>
