<?xml version="1.0" encoding="UTF-8"?>
<svg xmlns="http://www.w3.org/2000/svg" xmlns:xlink="http://www.w3.org/1999/xlink" width="775" height="238" viewBox="0 0 775 238">
<defs>
<g>
<g id="glyph-0-0">
<path d="M 1.332031 0 L 1.332031 -6.667969 L 6.667969 -6.667969 L 6.667969 0 Z M 1.5 -0.167969 L 6.5 -0.167969 L 6.5 -6.5 L 1.5 -6.5 Z M 1.5 -0.167969 "/>
</g>
<g id="glyph-0-1">
<path d="M 6.269531 -2.675781 L 7.28125 -2.421875 C 7.070312 -1.59375 6.6875 -0.960938 6.136719 -0.523438 C 5.585938 -0.0859375 4.914062 0.128906 4.121094 0.128906 C 3.296875 0.128906 2.628906 -0.0390625 2.113281 -0.371094 C 1.597656 -0.707031 1.203125 -1.191406 0.933594 -1.828125 C 0.664062 -2.464844 0.53125 -3.144531 0.53125 -3.875 C 0.53125 -4.671875 0.683594 -5.363281 0.988281 -5.957031 C 1.292969 -6.546875 1.722656 -6.996094 2.285156 -7.304688 C 2.84375 -7.613281 3.460938 -7.765625 4.136719 -7.765625 C 4.898438 -7.765625 5.542969 -7.570312 6.0625 -7.183594 C 6.582031 -6.792969 6.945312 -6.246094 7.152344 -5.542969 L 6.15625 -5.308594 C 5.980469 -5.863281 5.722656 -6.265625 5.386719 -6.519531 C 5.050781 -6.773438 4.625 -6.902344 4.113281 -6.902344 C 3.527344 -6.902344 3.039062 -6.761719 2.644531 -6.480469 C 2.25 -6.199219 1.972656 -5.820312 1.8125 -5.347656 C 1.652344 -4.871094 1.574219 -4.382812 1.574219 -3.878906 C 1.574219 -3.230469 1.667969 -2.664062 1.855469 -2.179688 C 2.046875 -1.695312 2.339844 -1.332031 2.738281 -1.09375 C 3.136719 -0.855469 3.570312 -0.734375 4.035156 -0.734375 C 4.601562 -0.734375 5.082031 -0.898438 5.472656 -1.222656 C 5.867188 -1.550781 6.132812 -2.035156 6.269531 -2.675781 Z M 6.269531 -2.675781 "/>
</g>
<g id="glyph-0-2">
<path d="M 0.449219 -2.015625 L 1.386719 -2.140625 C 1.492188 -1.609375 1.675781 -1.226562 1.933594 -0.992188 C 2.191406 -0.757812 2.507812 -0.640625 2.878906 -0.640625 C 3.320312 -0.640625 3.695312 -0.792969 3.996094 -1.097656 C 4.300781 -1.402344 4.453125 -1.78125 4.453125 -2.234375 C 4.453125 -2.664062 4.3125 -3.019531 4.03125 -3.300781 C 3.75 -3.578125 3.390625 -3.71875 2.957031 -3.71875 C 2.78125 -3.71875 2.5625 -3.683594 2.296875 -3.613281 L 2.402344 -4.4375 C 2.464844 -4.429688 2.515625 -4.425781 2.550781 -4.425781 C 2.949219 -4.425781 3.3125 -4.53125 3.628906 -4.738281 C 3.949219 -4.949219 4.109375 -5.269531 4.109375 -5.703125 C 4.109375 -6.046875 3.992188 -6.332031 3.761719 -6.558594 C 3.527344 -6.785156 3.226562 -6.894531 2.859375 -6.894531 C 2.496094 -6.894531 2.191406 -6.78125 1.949219 -6.550781 C 1.707031 -6.324219 1.546875 -5.980469 1.480469 -5.519531 L 0.542969 -5.6875 C 0.65625 -6.316406 0.917969 -6.804688 1.324219 -7.148438 C 1.730469 -7.492188 2.234375 -7.667969 2.839844 -7.667969 C 3.253906 -7.667969 3.640625 -7.578125 3.988281 -7.398438 C 4.339844 -7.21875 4.609375 -6.976562 4.792969 -6.667969 C 4.980469 -6.359375 5.074219 -6.03125 5.074219 -5.683594 C 5.074219 -5.351562 4.984375 -5.050781 4.808594 -4.78125 C 4.628906 -4.511719 4.367188 -4.296875 4.019531 -4.136719 C 4.472656 -4.03125 4.824219 -3.816406 5.074219 -3.488281 C 5.324219 -3.160156 5.449219 -2.75 5.449219 -2.253906 C 5.449219 -1.589844 5.203125 -1.023438 4.71875 -0.558594 C 4.234375 -0.0976562 3.617188 0.136719 2.875 0.136719 C 2.203125 0.136719 1.648438 -0.0625 1.207031 -0.464844 C 0.761719 -0.863281 0.511719 -1.378906 0.449219 -2.015625 Z M 0.449219 -2.015625 "/>
</g>
<g id="glyph-0-3">
<path d="M 0.582031 -1.765625 L 1.484375 -1.847656 C 1.5625 -1.425781 1.707031 -1.117188 1.921875 -0.925781 C 2.136719 -0.734375 2.414062 -0.640625 2.75 -0.640625 C 3.039062 -0.640625 3.289062 -0.707031 3.507812 -0.839844 C 3.726562 -0.972656 3.902344 -1.148438 4.042969 -1.367188 C 4.179688 -1.585938 4.296875 -1.886719 4.390625 -2.261719 C 4.484375 -2.636719 4.53125 -3.015625 4.53125 -3.40625 C 4.53125 -3.449219 4.53125 -3.511719 4.527344 -3.59375 C 4.339844 -3.296875 4.082031 -3.054688 3.757812 -2.867188 C 3.433594 -2.679688 3.082031 -2.589844 2.703125 -2.589844 C 2.070312 -2.589844 1.535156 -2.816406 1.097656 -3.277344 C 0.660156 -3.734375 0.441406 -4.339844 0.441406 -5.089844 C 0.441406 -5.863281 0.671875 -6.484375 1.128906 -6.957031 C 1.585938 -7.429688 2.15625 -7.667969 2.84375 -7.667969 C 3.339844 -7.667969 3.792969 -7.53125 4.207031 -7.265625 C 4.617188 -7 4.929688 -6.617188 5.144531 -6.121094 C 5.355469 -5.628906 5.464844 -4.910156 5.464844 -3.972656 C 5.464844 -2.996094 5.359375 -2.222656 5.144531 -1.644531 C 4.933594 -1.066406 4.617188 -0.625 4.199219 -0.324219 C 3.78125 -0.0195312 3.292969 0.128906 2.730469 0.128906 C 2.132812 0.128906 1.644531 -0.0351562 1.265625 -0.367188 C 0.886719 -0.699219 0.660156 -1.164062 0.582031 -1.765625 Z M 4.421875 -5.136719 C 4.421875 -5.675781 4.277344 -6.101562 3.992188 -6.417969 C 3.707031 -6.734375 3.359375 -6.890625 2.957031 -6.890625 C 2.542969 -6.890625 2.179688 -6.71875 1.871094 -6.378906 C 1.5625 -6.039062 1.40625 -5.597656 1.40625 -5.058594 C 1.40625 -4.570312 1.554688 -4.175781 1.847656 -3.871094 C 2.140625 -3.566406 2.5 -3.417969 2.933594 -3.417969 C 3.367188 -3.417969 3.722656 -3.570312 4.003906 -3.871094 C 4.28125 -4.175781 4.421875 -4.597656 4.421875 -5.136719 Z M 4.421875 -5.136719 "/>
</g>
<g id="glyph-0-4">
<path d="M 0.480469 -2.453125 L 1.433594 -2.535156 C 1.476562 -2.152344 1.582031 -1.839844 1.746094 -1.597656 C 1.910156 -1.351562 2.167969 -1.152344 2.515625 -1.003906 C 2.863281 -0.851562 3.253906 -0.777344 3.6875 -0.777344 C 4.074219 -0.777344 4.414062 -0.832031 4.707031 -0.949219 C 5.003906 -1.0625 5.222656 -1.21875 5.367188 -1.417969 C 5.511719 -1.617188 5.582031 -1.835938 5.582031 -2.074219 C 5.582031 -2.3125 5.515625 -2.523438 5.375 -2.699219 C 5.234375 -2.878906 5.007812 -3.03125 4.6875 -3.152344 C 4.484375 -3.230469 4.03125 -3.355469 3.328125 -3.523438 C 2.625 -3.691406 2.136719 -3.851562 1.855469 -4 C 1.488281 -4.191406 1.21875 -4.429688 1.039062 -4.710938 C 0.859375 -4.992188 0.769531 -5.3125 0.769531 -5.660156 C 0.769531 -6.046875 0.878906 -6.40625 1.097656 -6.742188 C 1.316406 -7.078125 1.636719 -7.332031 2.058594 -7.503906 C 2.476562 -7.679688 2.945312 -7.765625 3.457031 -7.765625 C 4.023438 -7.765625 4.523438 -7.675781 4.957031 -7.492188 C 5.386719 -7.308594 5.71875 -7.042969 5.953125 -6.6875 C 6.1875 -6.332031 6.3125 -5.933594 6.328125 -5.484375 L 5.359375 -5.410156 C 5.308594 -5.894531 5.132812 -6.257812 4.832031 -6.503906 C 4.53125 -6.75 4.085938 -6.875 3.5 -6.875 C 2.890625 -6.875 2.445312 -6.761719 2.164062 -6.539062 C 1.882812 -6.316406 1.746094 -6.046875 1.746094 -5.730469 C 1.746094 -5.457031 1.84375 -5.230469 2.042969 -5.050781 C 2.238281 -4.875 2.742188 -4.695312 3.566406 -4.507812 C 4.386719 -4.320312 4.949219 -4.160156 5.253906 -4.019531 C 5.699219 -3.816406 6.027344 -3.554688 6.238281 -3.242188 C 6.449219 -2.929688 6.558594 -2.566406 6.558594 -2.15625 C 6.558594 -1.75 6.441406 -1.367188 6.207031 -1.007812 C 5.976562 -0.648438 5.640625 -0.367188 5.207031 -0.167969 C 4.769531 0.03125 4.28125 0.128906 3.734375 0.128906 C 3.042969 0.128906 2.464844 0.03125 1.996094 -0.171875 C 1.53125 -0.375 1.164062 -0.675781 0.898438 -1.082031 C 0.632812 -1.484375 0.492188 -1.941406 0.480469 -2.453125 Z M 0.480469 -2.453125 "/>
</g>
<g id="glyph-0-5">
<path d="M 3.449219 0 L 3.449219 -1.828125 L 0.136719 -1.828125 L 0.136719 -2.6875 L 3.621094 -7.636719 L 4.386719 -7.636719 L 4.386719 -2.6875 L 5.417969 -2.6875 L 5.417969 -1.828125 L 4.386719 -1.828125 L 4.386719 0 Z M 3.449219 -2.6875 L 3.449219 -6.128906 L 1.058594 -2.6875 Z M 3.449219 -2.6875 "/>
</g>
<g id="glyph-0-6">
<path d="M 3.972656 0 L 3.035156 0 L 3.035156 -5.972656 C 2.808594 -5.757812 2.515625 -5.542969 2.148438 -5.328125 C 1.78125 -5.113281 1.453125 -4.953125 1.160156 -4.84375 L 1.160156 -5.75 C 1.683594 -5.996094 2.144531 -6.296875 2.535156 -6.644531 C 2.929688 -6.996094 3.207031 -7.335938 3.371094 -7.667969 L 3.972656 -7.667969 Z M 3.972656 0 "/>
</g>
<g id="glyph-0-7">
<path d="M 0.515625 -3.71875 C 0.515625 -4.984375 0.855469 -5.976562 1.535156 -6.695312 C 2.214844 -7.414062 3.09375 -7.769531 4.171875 -7.769531 C 4.875 -7.769531 5.511719 -7.601562 6.078125 -7.265625 C 6.644531 -6.929688 7.074219 -6.460938 7.371094 -5.855469 C 7.667969 -5.253906 7.816406 -4.570312 7.816406 -3.808594 C 7.816406 -3.035156 7.660156 -2.339844 7.347656 -1.730469 C 7.035156 -1.117188 6.59375 -0.65625 6.019531 -0.339844 C 5.449219 -0.0273438 4.828125 0.128906 4.167969 0.128906 C 3.449219 0.128906 2.804688 -0.0429688 2.238281 -0.390625 C 1.671875 -0.738281 1.246094 -1.210938 0.953125 -1.8125 C 0.660156 -2.414062 0.515625 -3.046875 0.515625 -3.71875 Z M 1.558594 -3.703125 C 1.558594 -2.78125 1.804688 -2.058594 2.300781 -1.527344 C 2.792969 -1 3.414062 -0.734375 4.160156 -0.734375 C 4.921875 -0.734375 5.546875 -1 6.039062 -1.535156 C 6.53125 -2.070312 6.777344 -2.828125 6.777344 -3.8125 C 6.777344 -4.433594 6.671875 -4.976562 6.460938 -5.441406 C 6.25 -5.902344 5.945312 -6.261719 5.539062 -6.519531 C 5.132812 -6.773438 4.679688 -6.902344 4.175781 -6.902344 C 3.460938 -6.902344 2.847656 -6.65625 2.332031 -6.164062 C 1.816406 -5.671875 1.558594 -4.851562 1.558594 -3.703125 Z M 1.558594 -3.703125 "/>
</g>
<g id="glyph-1-0">
<path d="M 2 0 L 2 -10 L 10 -10 L 10 0 Z M 2.25 -0.25 L 9.75 -0.25 L 9.75 -9.75 L 2.25 -9.75 Z M 2.25 -0.25 "/>
</g>
<g id="glyph-1-1">
<path d="M 1.28125 0 L 1.28125 -11.453125 L 2.796875 -11.453125 L 2.796875 -6.75 L 8.75 -6.75 L 8.75 -11.453125 L 10.265625 -11.453125 L 10.265625 0 L 8.75 0 L 8.75 -5.398438 L 2.796875 -5.398438 L 2.796875 0 Z M 1.28125 0 "/>
</g>
</g>
</defs>
<path fill="none" stroke-width="0.0333333" stroke-linecap="butt" stroke-linejoin="miter" stroke="rgb(0%, 0%, 0%)" stroke-opacity="1" stroke-miterlimit="10" d="M 0.236523 0 L 0.501367 0 " transform="matrix(40, 0, 0, 40, 17.886734, 119)"/>
<path fill="none" stroke-width="0.0333333" stroke-linecap="butt" stroke-linejoin="miter" stroke="rgb(0%, 0%, 0%)" stroke-opacity="1" stroke-miterlimit="10" d="M 0.435644 0.25 L 0.435644 -0.25 " transform="matrix(40, 0, 0, 40, 17.886734, 119)"/>
<path fill="none" stroke-width="0.0333333" stroke-linecap="butt" stroke-linejoin="miter" stroke="rgb(0%, 0%, 0%)" stroke-opacity="1" stroke-miterlimit="10" d="M 0.302246 0.25 L 0.302246 -0.25 " transform="matrix(40, 0, 0, 40, 17.886734, 119)"/>
<g fill="rgb(0%, 0%, 0%)" fill-opacity="1">
<use xlink:href="#glyph-0-1" x="15.667969" y="120.84375"/>
</g>
<g fill="rgb(0%, 0%, 0%)" fill-opacity="1">
<use xlink:href="#glyph-0-2" x="3.46875" y="125.480469"/>
<use xlink:href="#glyph-0-3" x="9.401043" y="125.480469"/>
</g>
<g fill="rgb(0%, 0%, 0%)" fill-opacity="1">
<use xlink:href="#glyph-0-4" x="52.964844" y="120.84375"/>
</g>
<g fill="rgb(0%, 0%, 0%)" fill-opacity="1">
<use xlink:href="#glyph-0-5" x="42.203125" y="125.480469"/>
<use xlink:href="#glyph-0-6" x="48.135418" y="125.480469"/>
</g>
<path fill-rule="nonzero" fill="rgb(0%, 0%, 0%)" fill-opacity="1" d="M 77.253906 120.25 L 127.253906 120.25 L 127.253906 124 L 137.253906 119 L 127.253906 114 L 127.253906 117.75 L 77.253906 117.75 "/>
<path fill="none" stroke-width="0.0333333" stroke-linecap="butt" stroke-linejoin="miter" stroke="rgb(0%, 0%, 0%)" stroke-opacity="1" stroke-miterlimit="10" d="M 5.067773 1.766357 L 5.149707 2.231006 " transform="matrix(40, 0, 0, 40, 168.957044, 9.744143)"/>
<path fill="none" stroke-width="0.0333333" stroke-linecap="butt" stroke-linejoin="miter" stroke="rgb(0%, 0%, 0%)" stroke-opacity="1" stroke-miterlimit="10" d="M 4.996191 2.556299 L 4.560644 2.921826 " transform="matrix(40, 0, 0, 40, 168.957044, 9.744143)"/>
<path fill="none" stroke-width="0.0333333" stroke-linecap="butt" stroke-linejoin="miter" stroke="rgb(0%, 0%, 0%)" stroke-opacity="1" stroke-miterlimit="10" d="M 5.10332 2.684033 L 4.667773 3.049463 " transform="matrix(40, 0, 0, 40, 168.957044, 9.744143)"/>
<path fill="none" stroke-width="0.0333333" stroke-linecap="butt" stroke-linejoin="miter" stroke="rgb(0%, 0%, 0%)" stroke-opacity="1" stroke-miterlimit="10" d="M 4.44873 3.319873 L 4.547461 3.880225 " transform="matrix(40, 0, 0, 40, 168.957044, 9.744143)"/>
<path fill="none" stroke-width="0.0333333" stroke-linecap="butt" stroke-linejoin="miter" stroke="rgb(0%, 0%, 0%)" stroke-opacity="1" stroke-miterlimit="10" d="M 4.151953 3.052588 L 3.706836 2.890576 " transform="matrix(40, 0, 0, 40, 168.957044, 9.744143)"/>
<path fill="none" stroke-width="0.0333333" stroke-linecap="butt" stroke-linejoin="miter" stroke="rgb(0%, 0%, 0%)" stroke-opacity="1" stroke-miterlimit="10" d="M 3.263965 2.861768 L 2.828418 3.227197 " transform="matrix(40, 0, 0, 40, 168.957044, 9.744143)"/>
<path fill="none" stroke-width="0.0333333" stroke-linecap="butt" stroke-linejoin="miter" stroke="rgb(0%, 0%, 0%)" stroke-opacity="1" stroke-miterlimit="10" d="M 3.371093 2.989404 L 2.935547 3.354932 " transform="matrix(40, 0, 0, 40, 168.957044, 9.744143)"/>
<path fill="none" stroke-width="0.0333333" stroke-linecap="butt" stroke-linejoin="miter" stroke="rgb(0%, 0%, 0%)" stroke-opacity="1" stroke-miterlimit="10" d="M 2.716504 3.625244 L 2.815332 4.185693 " transform="matrix(40, 0, 0, 40, 168.957044, 9.744143)"/>
<path fill="none" stroke-width="0.0333333" stroke-linecap="butt" stroke-linejoin="miter" stroke="rgb(0%, 0%, 0%)" stroke-opacity="1" stroke-miterlimit="10" d="M 2.419726 3.357959 L 1.974707 3.196045 " transform="matrix(40, 0, 0, 40, 168.957044, 9.744143)"/>
<path fill="none" stroke-width="0.0333333" stroke-linecap="butt" stroke-linejoin="miter" stroke="rgb(0%, 0%, 0%)" stroke-opacity="1" stroke-miterlimit="10" d="M 1.584961 2.876611 L 1.351855 2.510693 " transform="matrix(40, 0, 0, 40, 168.957044, 9.744143)"/>
<path fill="none" stroke-width="0.0333333" stroke-linecap="butt" stroke-linejoin="miter" stroke="rgb(0%, 0%, 0%)" stroke-opacity="1" stroke-miterlimit="10" d="M 1.793847 2.829639 L 1.891406 2.389502 " transform="matrix(40, 0, 0, 40, 168.957044, 9.744143)"/>
<path fill="none" stroke-width="0.0333333" stroke-linecap="butt" stroke-linejoin="miter" stroke="rgb(0%, 0%, 0%)" stroke-opacity="1" stroke-miterlimit="10" d="M 1.585351 3.231006 L 1.15791 3.589697 " transform="matrix(40, 0, 0, 40, 168.957044, 9.744143)"/>
<path fill="none" stroke-width="0.0333333" stroke-linecap="butt" stroke-linejoin="miter" stroke="rgb(0%, 0%, 0%)" stroke-opacity="1" stroke-miterlimit="10" d="M 0.6875 3.663428 L 0.24248 3.501416 " transform="matrix(40, 0, 0, 40, 168.957044, 9.744143)"/>
<path fill="none" stroke-width="0.0333333" stroke-linecap="butt" stroke-linejoin="miter" stroke="rgb(0%, 0%, 0%)" stroke-opacity="1" stroke-miterlimit="10" d="M 0.48789 3.324756 L 0.316797 3.79458 " transform="matrix(40, 0, 0, 40, 168.957044, 9.744143)"/>
<path fill="none" stroke-width="0.0333333" stroke-linecap="butt" stroke-linejoin="miter" stroke="rgb(0%, 0%, 0%)" stroke-opacity="1" stroke-miterlimit="10" d="M 0.613183 3.370361 L 0.44209 3.840185 " transform="matrix(40, 0, 0, 40, 168.957044, 9.744143)"/>
<path fill="none" stroke-width="0.0333333" stroke-linecap="butt" stroke-linejoin="miter" stroke="rgb(0%, 0%, 0%)" stroke-opacity="1" stroke-miterlimit="10" d="M 3.41748 2.536475 L 3.318066 1.972412 " transform="matrix(40, 0, 0, 40, 168.957044, 9.744143)"/>
<path fill="none" stroke-width="0.0333333" stroke-linecap="butt" stroke-linejoin="miter" stroke="rgb(0%, 0%, 0%)" stroke-opacity="1" stroke-miterlimit="10" d="M 3.483593 1.638232 L 3.831738 1.346045 " transform="matrix(40, 0, 0, 40, 168.957044, 9.744143)"/>
<path fill="none" stroke-width="0.0333333" stroke-linecap="butt" stroke-linejoin="miter" stroke="rgb(0%, 0%, 0%)" stroke-opacity="1" stroke-miterlimit="10" d="M 3.021289 1.705127 L 2.586328 1.546826 " transform="matrix(40, 0, 0, 40, 168.957044, 9.744143)"/>
<path fill="none" stroke-width="0.0333333" stroke-linecap="butt" stroke-linejoin="miter" stroke="rgb(0%, 0%, 0%)" stroke-opacity="1" stroke-miterlimit="10" d="M 3.239648 1.527881 L 3.159277 1.071631 " transform="matrix(40, 0, 0, 40, 168.957044, 9.744143)"/>
<path fill="none" stroke-width="0.0333333" stroke-linecap="butt" stroke-linejoin="miter" stroke="rgb(0%, 0%, 0%)" stroke-opacity="1" stroke-miterlimit="10" d="M 5.439062 2.585107 L 5.884179 2.747119 " transform="matrix(40, 0, 0, 40, 168.957044, 9.744143)"/>
<path fill="none" stroke-width="0.0333333" stroke-linecap="butt" stroke-linejoin="miter" stroke="rgb(0%, 0%, 0%)" stroke-opacity="1" stroke-miterlimit="10" d="M 6.180859 3.014404 L 6.279687 3.574756 " transform="matrix(40, 0, 0, 40, 168.957044, 9.744143)"/>
<path fill="none" stroke-width="0.0333333" stroke-linecap="butt" stroke-linejoin="miter" stroke="rgb(0%, 0%, 0%)" stroke-opacity="1" stroke-miterlimit="10" d="M 6.399902 2.743994 L 6.835449 2.378564 " transform="matrix(40, 0, 0, 40, 168.957044, 9.744143)"/>
<path fill="none" stroke-width="0.0333333" stroke-linecap="butt" stroke-linejoin="miter" stroke="rgb(0%, 0%, 0%)" stroke-opacity="1" stroke-miterlimit="10" d="M 6.292773 2.616357 L 6.72832 2.250928 " transform="matrix(40, 0, 0, 40, 168.957044, 9.744143)"/>
<path fill="none" stroke-width="0.0333333" stroke-linecap="butt" stroke-linejoin="miter" stroke="rgb(0%, 0%, 0%)" stroke-opacity="1" stroke-miterlimit="10" d="M 7.171289 2.279736 L 7.616308 2.441748 " transform="matrix(40, 0, 0, 40, 168.957044, 9.744143)"/>
<path fill="none" stroke-width="0.0333333" stroke-linecap="butt" stroke-linejoin="miter" stroke="rgb(0%, 0%, 0%)" stroke-opacity="1" stroke-miterlimit="10" d="M 7.822363 2.705713 L 7.765332 2.862353 " transform="matrix(40, 0, 0, 40, 168.957044, 9.744143)"/>
<path fill="none" stroke-width="0.0333333" stroke-linecap="butt" stroke-linejoin="miter" stroke="rgb(0%, 0%, 0%)" stroke-opacity="1" stroke-miterlimit="10" d="M 8.129492 2.492725 L 8.578906 2.233252 " transform="matrix(40, 0, 0, 40, 168.957044, 9.744143)"/>
<path fill="none" stroke-width="0.0333333" stroke-linecap="butt" stroke-linejoin="miter" stroke="rgb(0%, 0%, 0%)" stroke-opacity="1" stroke-miterlimit="10" d="M 8.046191 2.348389 L 8.495605 2.088916 " transform="matrix(40, 0, 0, 40, 168.957044, 9.744143)"/>
<path fill="none" stroke-width="0.0333333" stroke-linecap="butt" stroke-linejoin="miter" stroke="rgb(0%, 0%, 0%)" stroke-opacity="1" stroke-miterlimit="10" d="M 8.762597 1.772998 L 8.762597 1.268701 " transform="matrix(40, 0, 0, 40, 168.957044, 9.744143)"/>
<path fill="none" stroke-width="0.0333333" stroke-linecap="butt" stroke-linejoin="miter" stroke="rgb(0%, 0%, 0%)" stroke-opacity="1" stroke-miterlimit="10" d="M 8.924609 2.12456 L 9.374023 2.384033 " transform="matrix(40, 0, 0, 40, 168.957044, 9.744143)"/>
<path fill="none" stroke-width="0.0333333" stroke-linecap="butt" stroke-linejoin="miter" stroke="rgb(0%, 0%, 0%)" stroke-opacity="1" stroke-miterlimit="10" d="M 9.888476 2.492725 L 10.33789 2.233252 " transform="matrix(40, 0, 0, 40, 168.957044, 9.744143)"/>
<path fill="none" stroke-width="0.0333333" stroke-linecap="butt" stroke-linejoin="miter" stroke="rgb(0%, 0%, 0%)" stroke-opacity="1" stroke-miterlimit="10" d="M 9.805078 2.348389 L 10.254492 2.088916 " transform="matrix(40, 0, 0, 40, 168.957044, 9.744143)"/>
<path fill="none" stroke-width="0.0333333" stroke-linecap="butt" stroke-linejoin="miter" stroke="rgb(0%, 0%, 0%)" stroke-opacity="1" stroke-miterlimit="10" d="M 10.521484 1.772998 L 10.521484 1.174853 " transform="matrix(40, 0, 0, 40, 168.957044, 9.744143)"/>
<path fill="none" stroke-width="0.0333333" stroke-linecap="butt" stroke-linejoin="miter" stroke="rgb(0%, 0%, 0%)" stroke-opacity="1" stroke-miterlimit="10" d="M 10.253418 0.860791 L 9.897265 0.655127 " transform="matrix(40, 0, 0, 40, 168.957044, 9.744143)"/>
<path fill="none" stroke-width="0.0333333" stroke-linecap="butt" stroke-linejoin="miter" stroke="rgb(0%, 0%, 0%)" stroke-opacity="1" stroke-miterlimit="10" d="M 10.714746 0.903955 L 11.145703 0.655127 " transform="matrix(40, 0, 0, 40, 168.957044, 9.744143)"/>
<path fill="none" stroke-width="0.0333333" stroke-linecap="butt" stroke-linejoin="miter" stroke="rgb(0%, 0%, 0%)" stroke-opacity="1" stroke-miterlimit="10" d="M 10.521484 0.757471 L 10.521484 0.253174 " transform="matrix(40, 0, 0, 40, 168.957044, 9.744143)"/>
<path fill="none" stroke-width="0.0333333" stroke-linecap="butt" stroke-linejoin="miter" stroke="rgb(0%, 0%, 0%)" stroke-opacity="1" stroke-miterlimit="10" d="M 10.683496 2.12456 L 11.207715 2.427197 " transform="matrix(40, 0, 0, 40, 168.957044, 9.744143)"/>
<path fill="none" stroke-width="0.0333333" stroke-linecap="butt" stroke-linejoin="miter" stroke="rgb(0%, 0%, 0%)" stroke-opacity="1" stroke-miterlimit="10" d="M 11.505175 2.252588 L 11.647363 1.861865 " transform="matrix(40, 0, 0, 40, 168.957044, 9.744143)"/>
<path fill="none" stroke-width="0.0333333" stroke-linecap="butt" stroke-linejoin="miter" stroke="rgb(0%, 0%, 0%)" stroke-opacity="1" stroke-miterlimit="10" d="M 11.647265 2.582178 L 12.162402 2.673096 " transform="matrix(40, 0, 0, 40, 168.957044, 9.744143)"/>
<path fill="none" stroke-width="0.0333333" stroke-linecap="butt" stroke-linejoin="miter" stroke="rgb(0%, 0%, 0%)" stroke-opacity="1" stroke-miterlimit="10" d="M 11.400976 2.698096 L 11.400976 3.29624 " transform="matrix(40, 0, 0, 40, 168.957044, 9.744143)"/>
<path fill="none" stroke-width="0.0333333" stroke-linecap="butt" stroke-linejoin="miter" stroke="rgb(0%, 0%, 0%)" stroke-opacity="1" stroke-miterlimit="10" d="M 11.653906 3.509717 L 12.162402 3.420068 " transform="matrix(40, 0, 0, 40, 168.957044, 9.744143)"/>
<path fill="none" stroke-width="0.0333333" stroke-linecap="butt" stroke-linejoin="miter" stroke="rgb(0%, 0%, 0%)" stroke-opacity="1" stroke-miterlimit="10" d="M 11.469922 3.743799 L 11.647363 4.231201 " transform="matrix(40, 0, 0, 40, 168.957044, 9.744143)"/>
<path fill="none" stroke-width="0.0333333" stroke-linecap="butt" stroke-linejoin="miter" stroke="rgb(0%, 0%, 0%)" stroke-opacity="1" stroke-miterlimit="10" d="M 11.238965 3.647803 L 10.714746 3.950537 " transform="matrix(40, 0, 0, 40, 168.957044, 9.744143)"/>
<path fill="none" stroke-width="0.0333333" stroke-linecap="butt" stroke-linejoin="miter" stroke="rgb(0%, 0%, 0%)" stroke-opacity="1" stroke-miterlimit="10" d="M 10.645312 4.209619 L 10.975293 4.602881 " transform="matrix(40, 0, 0, 40, 168.957044, 9.744143)"/>
<path fill="none" stroke-width="0.0333333" stroke-linecap="butt" stroke-linejoin="miter" stroke="rgb(0%, 0%, 0%)" stroke-opacity="1" stroke-miterlimit="10" d="M 10.362793 4.251221 L 10.067675 4.602881 " transform="matrix(40, 0, 0, 40, 168.957044, 9.744143)"/>
<path fill="none" stroke-width="0.0333333" stroke-linecap="butt" stroke-linejoin="miter" stroke="rgb(0%, 0%, 0%)" stroke-opacity="1" stroke-miterlimit="10" d="M 10.253418 3.907275 L 9.804004 3.647803 " transform="matrix(40, 0, 0, 40, 168.957044, 9.744143)"/>
<path fill="none" stroke-width="0.0333333" stroke-linecap="butt" stroke-linejoin="miter" stroke="rgb(0%, 0%, 0%)" stroke-opacity="1" stroke-miterlimit="10" d="M 9.641992 3.29624 L 9.641992 2.698096 " transform="matrix(40, 0, 0, 40, 168.957044, 9.744143)"/>
<path fill="none" stroke-width="0.0333333" stroke-linecap="butt" stroke-linejoin="miter" stroke="rgb(0%, 0%, 0%)" stroke-opacity="1" stroke-miterlimit="10" d="M 9.573047 3.743799 L 9.388965 4.249463 " transform="matrix(40, 0, 0, 40, 168.957044, 9.744143)"/>
<path fill="none" stroke-width="0.0333333" stroke-linecap="butt" stroke-linejoin="miter" stroke="rgb(0%, 0%, 0%)" stroke-opacity="1" stroke-miterlimit="10" d="M 9.38955 4.6729 L 9.649414 5.122998 " transform="matrix(40, 0, 0, 40, 168.957044, 9.744143)"/>
<path fill="none" stroke-width="0.0333333" stroke-linecap="butt" stroke-linejoin="miter" stroke="rgb(0%, 0%, 0%)" stroke-opacity="1" stroke-miterlimit="10" d="M 9.048437 4.552002 L 8.5333 4.642822 " transform="matrix(40, 0, 0, 40, 168.957044, 9.744143)"/>
<path fill="none" stroke-width="0.0333333" stroke-linecap="butt" stroke-linejoin="miter" stroke="rgb(0%, 0%, 0%)" stroke-opacity="1" stroke-miterlimit="10" d="M 9.225683 4.698096 L 9.04834 5.185498 " transform="matrix(40, 0, 0, 40, 168.957044, 9.744143)"/>
<path fill="none" stroke-width="0.0333333" stroke-linecap="butt" stroke-linejoin="miter" stroke="rgb(0%, 0%, 0%)" stroke-opacity="1" stroke-miterlimit="10" d="M 9.389062 3.509717 L 8.806347 3.406982 " transform="matrix(40, 0, 0, 40, 168.957044, 9.744143)"/>
<path fill="none" stroke-width="0.0333333" stroke-linecap="butt" stroke-linejoin="miter" stroke="rgb(0%, 0%, 0%)" stroke-opacity="1" stroke-miterlimit="10" d="M 8.593554 3.103564 L 8.513086 2.647412 " transform="matrix(40, 0, 0, 40, 168.957044, 9.744143)"/>
<path fill="none" stroke-width="0.0333333" stroke-linecap="butt" stroke-linejoin="miter" stroke="rgb(0%, 0%, 0%)" stroke-opacity="1" stroke-miterlimit="10" d="M 8.483203 3.567041 L 8.188183 3.918799 " transform="matrix(40, 0, 0, 40, 168.957044, 9.744143)"/>
<path fill="none" stroke-width="0.0333333" stroke-linecap="butt" stroke-linejoin="miter" stroke="rgb(0%, 0%, 0%)" stroke-opacity="1" stroke-miterlimit="10" d="M 8.43125 3.436182 L 8.270605 3.480518 " transform="matrix(40, 0, 0, 40, 168.957044, 9.744143)"/>
<path fill="none" stroke-width="0.0333333" stroke-linecap="butt" stroke-linejoin="miter" stroke="rgb(0%, 0%, 0%)" stroke-opacity="1" stroke-miterlimit="10" d="M 6.881933 1.925537 L 6.782519 1.361572 " transform="matrix(40, 0, 0, 40, 168.957044, 9.744143)"/>
<path fill="none" stroke-width="0.0333333" stroke-linecap="butt" stroke-linejoin="miter" stroke="rgb(0%, 0%, 0%)" stroke-opacity="1" stroke-miterlimit="10" d="M 6.947949 1.027295 L 7.296191 0.735205 " transform="matrix(40, 0, 0, 40, 168.957044, 9.744143)"/>
<path fill="none" stroke-width="0.0333333" stroke-linecap="butt" stroke-linejoin="miter" stroke="rgb(0%, 0%, 0%)" stroke-opacity="1" stroke-miterlimit="10" d="M 6.704101 0.916943 L 6.623632 0.460791 " transform="matrix(40, 0, 0, 40, 168.957044, 9.744143)"/>
<path fill="none" stroke-width="0.0333333" stroke-linecap="butt" stroke-linejoin="miter" stroke="rgb(0%, 0%, 0%)" stroke-opacity="1" stroke-miterlimit="10" d="M 6.485742 1.094287 L 6.050683 0.935986 " transform="matrix(40, 0, 0, 40, 168.957044, 9.744143)"/>
<g fill="rgb(0%, 0%, 0%)" fill-opacity="1">
<use xlink:href="#glyph-1-1" x="363.996094" y="75.34375"/>
</g>
<g fill="rgb(0%, 0%, 0%)" fill-opacity="1">
<use xlink:href="#glyph-0-1" x="374.605469" y="111.464844"/>
</g>
<g fill="rgb(0%, 0%, 0%)" fill-opacity="1">
<use xlink:href="#glyph-0-1" x="340.113281" y="137.574219"/>
</g>
<g fill="rgb(0%, 0%, 0%)" fill-opacity="1">
<use xlink:href="#glyph-1-1" x="346.984375" y="181.460938"/>
</g>
<g fill="rgb(0%, 0%, 0%)" fill-opacity="1">
<use xlink:href="#glyph-0-1" x="305.316406" y="123.683594"/>
</g>
<g fill="rgb(0%, 0%, 0%)" fill-opacity="1">
<use xlink:href="#glyph-0-1" x="270.824219" y="149.792969"/>
</g>
<g fill="rgb(0%, 0%, 0%)" fill-opacity="1">
<use xlink:href="#glyph-1-1" x="277.699219" y="193.679688"/>
</g>
<g fill="rgb(0%, 0%, 0%)" fill-opacity="1">
<use xlink:href="#glyph-0-1" x="236.027344" y="135.898438"/>
</g>
<g fill="rgb(0%, 0%, 0%)" fill-opacity="1">
<use xlink:href="#glyph-1-1" x="210.648438" y="105.523438"/>
</g>
<g fill="rgb(0%, 0%, 0%)" fill-opacity="1">
<use xlink:href="#glyph-1-1" x="241.265625" y="100.125"/>
</g>
<g fill="rgb(0%, 0%, 0%)" fill-opacity="1">
<use xlink:href="#glyph-0-7" x="201.550781" y="162.015625"/>
</g>
<g fill="rgb(0%, 0%, 0%)" fill-opacity="1">
<use xlink:href="#glyph-0-1" x="166.738281" y="148.117188"/>
</g>
<g fill="rgb(0%, 0%, 0%)" fill-opacity="1">
<use xlink:href="#glyph-0-2" x="154.539062" y="152.753906"/>
<use xlink:href="#glyph-0-3" x="160.471355" y="152.753906"/>
</g>
<g fill="rgb(0%, 0%, 0%)" fill-opacity="1">
<use xlink:href="#glyph-0-1" x="294.886719" y="83.679688"/>
</g>
<g fill="rgb(0%, 0%, 0%)" fill-opacity="1">
<use xlink:href="#glyph-1-1" x="325.824219" y="61.449219"/>
</g>
<g fill="rgb(0%, 0%, 0%)" fill-opacity="1">
<use xlink:href="#glyph-1-1" x="256.535156" y="73.667969"/>
</g>
<g fill="rgb(0%, 0%, 0%)" fill-opacity="1">
<use xlink:href="#glyph-1-1" x="287.652344" y="47.558594"/>
</g>
<g fill="rgb(0%, 0%, 0%)" fill-opacity="1">
<use xlink:href="#glyph-0-1" x="409.398438" y="125.359375"/>
</g>
<g fill="rgb(0%, 0%, 0%)" fill-opacity="1">
<use xlink:href="#glyph-1-1" x="416.273438" y="169.246094"/>
</g>
<g fill="rgb(0%, 0%, 0%)" fill-opacity="1">
<use xlink:href="#glyph-0-1" x="443.890625" y="99.246094"/>
</g>
<g fill="rgb(0%, 0%, 0%)" fill-opacity="1">
<use xlink:href="#glyph-0-1" x="478.6875" y="113.140625"/>
</g>
<g fill="rgb(0%, 0%, 0%)" fill-opacity="1">
<use xlink:href="#glyph-1-1" x="470.242188" y="139.738281"/>
</g>
<g fill="rgb(0%, 0%, 0%)" fill-opacity="1">
<use xlink:href="#glyph-0-1" x="513.867188" y="92.832031"/>
</g>
<g fill="rgb(0%, 0%, 0%)" fill-opacity="1">
<use xlink:href="#glyph-1-1" x="513.6875" y="56.09375"/>
</g>
<g fill="rgb(0%, 0%, 0%)" fill-opacity="1">
<use xlink:href="#glyph-0-1" x="549.046875" y="113.140625"/>
</g>
<g fill="rgb(0%, 0%, 0%)" fill-opacity="1">
<use xlink:href="#glyph-0-1" x="584.222656" y="92.832031"/>
</g>
<g fill="rgb(0%, 0%, 0%)" fill-opacity="1">
<use xlink:href="#glyph-0-1" x="584.222656" y="52.210938"/>
</g>
<g fill="rgb(0%, 0%, 0%)" fill-opacity="1">
<use xlink:href="#glyph-1-1" x="548.867188" y="35.78125"/>
</g>
<g fill="rgb(0%, 0%, 0%)" fill-opacity="1">
<use xlink:href="#glyph-1-1" x="619.222656" y="35.78125"/>
</g>
<g fill="rgb(0%, 0%, 0%)" fill-opacity="1">
<use xlink:href="#glyph-1-1" x="584.042969" y="15.472656"/>
</g>
<g fill="rgb(0%, 0%, 0%)" fill-opacity="1">
<use xlink:href="#glyph-0-1" x="622.777344" y="113.140625"/>
</g>
<g fill="rgb(0%, 0%, 0%)" fill-opacity="1">
<use xlink:href="#glyph-1-1" x="633.117188" y="78.851562"/>
</g>
<g fill="rgb(0%, 0%, 0%)" fill-opacity="1">
<use xlink:href="#glyph-1-1" x="659.226562" y="124.078125"/>
</g>
<g fill="rgb(0%, 0%, 0%)" fill-opacity="1">
<use xlink:href="#glyph-0-1" x="622.777344" y="153.761719"/>
</g>
<g fill="rgb(0%, 0%, 0%)" fill-opacity="1">
<use xlink:href="#glyph-1-1" x="659.226562" y="150.589844"/>
</g>
<g fill="rgb(0%, 0%, 0%)" fill-opacity="1">
<use xlink:href="#glyph-1-1" x="633.117188" y="195.816406"/>
</g>
<g fill="rgb(0%, 0%, 0%)" fill-opacity="1">
<use xlink:href="#glyph-0-1" x="584.222656" y="174.070312"/>
</g>
<g fill="rgb(0%, 0%, 0%)" fill-opacity="1">
<use xlink:href="#glyph-1-1" x="610.15625" y="209.070313"/>
</g>
<g fill="rgb(0%, 0%, 0%)" fill-opacity="1">
<use xlink:href="#glyph-1-1" x="557.933594" y="209.070313"/>
</g>
<g fill="rgb(0%, 0%, 0%)" fill-opacity="1">
<use xlink:href="#glyph-0-1" x="549.046875" y="153.761719"/>
</g>
<g fill="rgb(0%, 0%, 0%)" fill-opacity="1">
<use xlink:href="#glyph-0-1" x="535.152344" y="191.933594"/>
</g>
<g fill="rgb(0%, 0%, 0%)" fill-opacity="1">
<use xlink:href="#glyph-1-1" x="555.28125" y="230.992188"/>
</g>
<g fill="rgb(0%, 0%, 0%)" fill-opacity="1">
<use xlink:href="#glyph-1-1" x="494.96875" y="202.867188"/>
</g>
<g fill="rgb(0%, 0%, 0%)" fill-opacity="1">
<use xlink:href="#glyph-1-1" x="521.078125" y="233.984375"/>
</g>
<g fill="rgb(0%, 0%, 0%)" fill-opacity="1">
<use xlink:href="#glyph-0-1" x="509.042969" y="146.707031"/>
</g>
<g fill="rgb(0%, 0%, 0%)" fill-opacity="1">
<use xlink:href="#glyph-1-1" x="501.808594" y="110.585938"/>
</g>
<g fill="rgb(0%, 0%, 0%)" fill-opacity="1">
<use xlink:href="#glyph-1-1" x="482.75" y="181.707031"/>
</g>
<g fill="rgb(0%, 0%, 0%)" fill-opacity="1">
<use xlink:href="#glyph-1-1" x="485.5625" y="157.027344"/>
</g>
<g fill="rgb(0%, 0%, 0%)" fill-opacity="1">
<use xlink:href="#glyph-0-1" x="433.464844" y="59.242188"/>
</g>
<g fill="rgb(0%, 0%, 0%)" fill-opacity="1">
<use xlink:href="#glyph-1-1" x="464.402344" y="37.015625"/>
</g>
<g fill="rgb(0%, 0%, 0%)" fill-opacity="1">
<use xlink:href="#glyph-1-1" x="426.230469" y="23.125"/>
</g>
<g fill="rgb(0%, 0%, 0%)" fill-opacity="1">
<use xlink:href="#glyph-1-1" x="395.113281" y="49.234375"/>
</g>
<path fill="none" stroke-width="0.0625" stroke-linecap="butt" stroke-linejoin="miter" stroke="rgb(0%, 0%, 0%)" stroke-opacity="1" stroke-miterlimit="10" d="M 0.0000000655651 0 L 0.5 0 M 0.25 -0.25 L 0.25 0.25 " transform="matrix(40, 0, 0, 40, 687.222654, 119)"/>
<path fill="none" stroke-width="0.0333333" stroke-linecap="butt" stroke-linejoin="miter" stroke="rgb(0%, 0%, 0%)" stroke-opacity="1" stroke-miterlimit="10" d="M 0.222266 0 L 0.501367 0 " transform="matrix(40, 0, 0, 40, 729.449215, 119)"/>
<path fill="none" stroke-width="0.0333333" stroke-linecap="butt" stroke-linejoin="miter" stroke="rgb(0%, 0%, 0%)" stroke-opacity="1" stroke-miterlimit="10" d="M 0.428516 0.25 L 0.428516 -0.25 " transform="matrix(40, 0, 0, 40, 729.449215, 119)"/>
<path fill="none" stroke-width="0.0333333" stroke-linecap="butt" stroke-linejoin="miter" stroke="rgb(0%, 0%, 0%)" stroke-opacity="1" stroke-miterlimit="10" d="M 0.295117 0.25 L 0.295117 -0.25 " transform="matrix(40, 0, 0, 40, 729.449215, 119)"/>
<g fill="rgb(0%, 0%, 0%)" fill-opacity="1">
<use xlink:href="#glyph-1-1" x="723.675781" y="124.726562"/>
</g>
<g fill="rgb(0%, 0%, 0%)" fill-opacity="1">
<use xlink:href="#glyph-0-4" x="764.527344" y="120.84375"/>
</g>
<g fill="rgb(0%, 0%, 0%)" fill-opacity="1">
<use xlink:href="#glyph-0-5" x="753.765625" y="125.480469"/>
<use xlink:href="#glyph-0-6" x="759.697918" y="125.480469"/>
</g>
</svg>
