<?xml version="1.0" encoding="UTF-8"?>
<svg xmlns="http://www.w3.org/2000/svg" xmlns:xlink="http://www.w3.org/1999/xlink" width="958" height="120" viewBox="0 0 958 120">
<defs>
<g>
<g id="glyph-0-0">
<path d="M 2 0 L 2 -10 L 10 -10 L 10 0 Z M 2.25 -0.25 L 9.75 -0.25 L 9.75 -9.75 L 2.25 -9.75 Z M 2.25 -0.25 "/>
</g>
<g id="glyph-0-1">
<path d="M 1.28125 0 L 1.28125 -11.453125 L 2.796875 -11.453125 L 2.796875 -6.75 L 8.75 -6.75 L 8.75 -11.453125 L 10.265625 -11.453125 L 10.265625 0 L 8.75 0 L 8.75 -5.398438 L 2.796875 -5.398438 L 2.796875 0 Z M 1.28125 0 "/>
</g>
<g id="glyph-1-0">
<path d="M 1.332031 0 L 1.332031 -6.667969 L 6.667969 -6.667969 L 6.667969 0 Z M 1.5 -0.167969 L 6.5 -0.167969 L 6.5 -6.5 L 1.5 -6.5 Z M 1.5 -0.167969 "/>
</g>
<g id="glyph-1-1">
<path d="M 0.515625 -3.71875 C 0.515625 -4.984375 0.855469 -5.976562 1.535156 -6.695312 C 2.214844 -7.414062 3.09375 -7.769531 4.171875 -7.769531 C 4.875 -7.769531 5.511719 -7.601562 6.078125 -7.265625 C 6.644531 -6.929688 7.074219 -6.460938 7.371094 -5.855469 C 7.667969 -5.253906 7.816406 -4.570312 7.816406 -3.808594 C 7.816406 -3.035156 7.660156 -2.339844 7.347656 -1.730469 C 7.035156 -1.117188 6.59375 -0.65625 6.019531 -0.339844 C 5.449219 -0.0273438 4.828125 0.128906 4.167969 0.128906 C 3.449219 0.128906 2.804688 -0.0429688 2.238281 -0.390625 C 1.671875 -0.738281 1.246094 -1.210938 0.953125 -1.8125 C 0.660156 -2.414062 0.515625 -3.046875 0.515625 -3.71875 Z M 1.558594 -3.703125 C 1.558594 -2.78125 1.804688 -2.058594 2.300781 -1.527344 C 2.792969 -1 3.414062 -0.734375 4.160156 -0.734375 C 4.921875 -0.734375 5.546875 -1 6.039062 -1.535156 C 6.53125 -2.070312 6.777344 -2.828125 6.777344 -3.8125 C 6.777344 -4.433594 6.671875 -4.976562 6.460938 -5.441406 C 6.25 -5.902344 5.945312 -6.261719 5.539062 -6.519531 C 5.132812 -6.773438 4.679688 -6.902344 4.175781 -6.902344 C 3.460938 -6.902344 2.847656 -6.65625 2.332031 -6.164062 C 1.816406 -5.671875 1.558594 -4.851562 1.558594 -3.703125 Z M 1.558594 -3.703125 "/>
</g>
<g id="glyph-1-2">
<path d="M 0.582031 -1.765625 L 1.484375 -1.847656 C 1.5625 -1.425781 1.707031 -1.117188 1.921875 -0.925781 C 2.136719 -0.734375 2.414062 -0.640625 2.75 -0.640625 C 3.039062 -0.640625 3.289062 -0.707031 3.507812 -0.839844 C 3.726562 -0.972656 3.902344 -1.148438 4.042969 -1.367188 C 4.179688 -1.585938 4.296875 -1.886719 4.390625 -2.261719 C 4.484375 -2.636719 4.53125 -3.015625 4.53125 -3.40625 C 4.53125 -3.449219 4.53125 -3.511719 4.527344 -3.59375 C 4.339844 -3.296875 4.082031 -3.054688 3.757812 -2.867188 C 3.433594 -2.679688 3.082031 -2.589844 2.703125 -2.589844 C 2.070312 -2.589844 1.535156 -2.816406 1.097656 -3.277344 C 0.660156 -3.734375 0.441406 -4.339844 0.441406 -5.089844 C 0.441406 -5.863281 0.671875 -6.484375 1.128906 -6.957031 C 1.585938 -7.429688 2.15625 -7.667969 2.84375 -7.667969 C 3.339844 -7.667969 3.792969 -7.53125 4.207031 -7.265625 C 4.617188 -7 4.929688 -6.617188 5.144531 -6.121094 C 5.355469 -5.628906 5.464844 -4.910156 5.464844 -3.972656 C 5.464844 -2.996094 5.359375 -2.222656 5.144531 -1.644531 C 4.933594 -1.066406 4.617188 -0.625 4.199219 -0.324219 C 3.78125 -0.0195312 3.292969 0.128906 2.730469 0.128906 C 2.132812 0.128906 1.644531 -0.0351562 1.265625 -0.367188 C 0.886719 -0.699219 0.660156 -1.164062 0.582031 -1.765625 Z M 4.421875 -5.136719 C 4.421875 -5.675781 4.277344 -6.101562 3.992188 -6.417969 C 3.707031 -6.734375 3.359375 -6.890625 2.957031 -6.890625 C 2.542969 -6.890625 2.179688 -6.71875 1.871094 -6.378906 C 1.5625 -6.039062 1.40625 -5.597656 1.40625 -5.058594 C 1.40625 -4.570312 1.554688 -4.175781 1.847656 -3.871094 C 2.140625 -3.566406 2.5 -3.417969 2.933594 -3.417969 C 3.367188 -3.417969 3.722656 -3.570312 4.003906 -3.871094 C 4.28125 -4.175781 4.421875 -4.597656 4.421875 -5.136719 Z M 4.421875 -5.136719 "/>
</g>
<g id="glyph-1-3">
<path d="M 5.371094 -0.902344 L 5.371094 0 L 0.324219 0 C 0.316406 -0.226562 0.351562 -0.441406 0.433594 -0.652344 C 0.5625 -0.996094 0.765625 -1.332031 1.050781 -1.667969 C 1.332031 -2 1.742188 -2.386719 2.277344 -2.824219 C 3.105469 -3.503906 3.667969 -4.042969 3.957031 -4.441406 C 4.25 -4.839844 4.394531 -5.214844 4.394531 -5.566406 C 4.394531 -5.9375 4.261719 -6.253906 3.996094 -6.507812 C 3.730469 -6.761719 3.386719 -6.890625 2.957031 -6.890625 C 2.507812 -6.890625 2.144531 -6.753906 1.875 -6.484375 C 1.605469 -6.214844 1.46875 -5.839844 1.464844 -5.359375 L 0.5 -5.457031 C 0.566406 -6.175781 0.8125 -6.726562 1.246094 -7.101562 C 1.675781 -7.476562 2.253906 -7.667969 2.980469 -7.667969 C 3.710938 -7.667969 4.292969 -7.464844 4.71875 -7.058594 C 5.144531 -6.652344 5.359375 -6.148438 5.359375 -5.546875 C 5.359375 -5.242188 5.296875 -4.941406 5.171875 -4.644531 C 5.046875 -4.351562 4.839844 -4.039062 4.550781 -3.714844 C 4.261719 -3.386719 3.777344 -2.9375 3.105469 -2.371094 C 2.542969 -1.898438 2.179688 -1.578125 2.019531 -1.410156 C 1.859375 -1.242188 1.730469 -1.070312 1.625 -0.902344 Z M 5.371094 -0.902344 "/>
</g>
<g id="glyph-1-4">
<path d="M 6.269531 -2.675781 L 7.28125 -2.421875 C 7.070312 -1.59375 6.6875 -0.960938 6.136719 -0.523438 C 5.585938 -0.0859375 4.914062 0.128906 4.121094 0.128906 C 3.296875 0.128906 2.628906 -0.0390625 2.113281 -0.371094 C 1.597656 -0.707031 1.203125 -1.191406 0.933594 -1.828125 C 0.664062 -2.464844 0.53125 -3.144531 0.53125 -3.875 C 0.53125 -4.671875 0.683594 -5.363281 0.988281 -5.957031 C 1.292969 -6.546875 1.722656 -6.996094 2.285156 -7.304688 C 2.84375 -7.613281 3.460938 -7.765625 4.136719 -7.765625 C 4.898438 -7.765625 5.542969 -7.570312 6.0625 -7.183594 C 6.582031 -6.792969 6.945312 -6.246094 7.152344 -5.542969 L 6.15625 -5.308594 C 5.980469 -5.863281 5.722656 -6.265625 5.386719 -6.519531 C 5.050781 -6.773438 4.625 -6.902344 4.113281 -6.902344 C 3.527344 -6.902344 3.039062 -6.761719 2.644531 -6.480469 C 2.25 -6.199219 1.972656 -5.820312 1.8125 -5.347656 C 1.652344 -4.871094 1.574219 -4.382812 1.574219 -3.878906 C 1.574219 -3.230469 1.667969 -2.664062 1.855469 -2.179688 C 2.046875 -1.695312 2.339844 -1.332031 2.738281 -1.09375 C 3.136719 -0.855469 3.570312 -0.734375 4.035156 -0.734375 C 4.601562 -0.734375 5.082031 -0.898438 5.472656 -1.222656 C 5.867188 -1.550781 6.132812 -2.035156 6.269531 -2.675781 Z M 6.269531 -2.675781 "/>
</g>
<g id="glyph-1-5">
<path d="M 3.972656 0 L 3.035156 0 L 3.035156 -5.972656 C 2.808594 -5.757812 2.515625 -5.542969 2.148438 -5.328125 C 1.78125 -5.113281 1.453125 -4.953125 1.160156 -4.84375 L 1.160156 -5.75 C 1.683594 -5.996094 2.144531 -6.296875 2.535156 -6.644531 C 2.929688 -6.996094 3.207031 -7.335938 3.371094 -7.667969 L 3.972656 -7.667969 Z M 3.972656 0 "/>
</g>
</g>
</defs>
<path fill="none" stroke-width="0.0333333" stroke-linecap="butt" stroke-linejoin="miter" stroke="rgb(0%, 0%, 0%)" stroke-opacity="1" stroke-miterlimit="10" d="M 0.255175 0.147363 L 0.531933 0.307129 " transform="matrix(40, 0, 0, 40, 8.49221, 49.65625)"/>
<path fill="none" stroke-width="0.0333333" stroke-linecap="butt" stroke-linejoin="miter" stroke="rgb(0%, 0%, 0%)" stroke-opacity="1" stroke-miterlimit="10" d="M 0.326367 0.477051 L 0.576367 0.044043 " transform="matrix(40, 0, 0, 40, 8.49221, 49.65625)"/>
<path fill="none" stroke-width="0.0333333" stroke-linecap="butt" stroke-linejoin="miter" stroke="rgb(0%, 0%, 0%)" stroke-opacity="1" stroke-miterlimit="10" d="M 0.210839 0.410449 L 0.460839 -0.0225586 " transform="matrix(40, 0, 0, 40, 8.49221, 49.65625)"/>
<path fill="none" stroke-width="0.0333333" stroke-linecap="butt" stroke-linejoin="miter" stroke="rgb(0%, 0%, 0%)" stroke-opacity="1" stroke-miterlimit="10" d="M 1.073046 0.380469 L 1.254101 0.275977 " transform="matrix(40, 0, 0, 40, 8.49221, 49.65625)"/>
<g fill="rgb(0%, 0%, 0%)" fill-opacity="1">
<use xlink:href="#glyph-0-1" x="2.71875" y="55.382813"/>
</g>
<g fill="rgb(0%, 0%, 0%)" fill-opacity="1">
<use xlink:href="#glyph-1-1" x="37.554688" y="71.503906"/>
</g>
<g fill="rgb(0%, 0%, 0%)" fill-opacity="1">
<use xlink:href="#glyph-1-2" x="25.433594" y="76.136719"/>
<use xlink:href="#glyph-1-3" x="31.365886" y="76.136719"/>
</g>
<g fill="rgb(0%, 0%, 0%)" fill-opacity="1">
<use xlink:href="#glyph-1-4" x="72.179688" y="51.5"/>
</g>
<g fill="rgb(0%, 0%, 0%)" fill-opacity="1">
<use xlink:href="#glyph-1-2" x="61.46875" y="56.136719"/>
<use xlink:href="#glyph-1-5" x="67.401043" y="56.136719"/>
</g>
<path fill-rule="nonzero" fill="rgb(0%, 0%, 0%)" fill-opacity="1" d="M 97.191406 61.25 L 147.191406 61.25 L 147.191406 65 L 157.191406 60 L 147.191406 55 L 147.191406 58.75 L 97.191406 58.75 "/>
<path fill="none" stroke-width="0.0333333" stroke-linecap="butt" stroke-linejoin="miter" stroke="rgb(0%, 0%, 0%)" stroke-opacity="1" stroke-miterlimit="10" d="M 8.660253 0.253174 L 8.660253 0.741943 " transform="matrix(40, 0, 0, 40, 187.410178, 10.099611)"/>
<path fill="none" stroke-width="0.0333333" stroke-linecap="butt" stroke-linejoin="miter" stroke="rgb(0%, 0%, 0%)" stroke-opacity="1" stroke-miterlimit="10" d="M 8.393261 1.057861 L 7.957324 1.309619 " transform="matrix(40, 0, 0, 40, 187.410178, 10.099611)"/>
<path fill="none" stroke-width="0.0333333" stroke-linecap="butt" stroke-linejoin="miter" stroke="rgb(0%, 0%, 0%)" stroke-opacity="1" stroke-miterlimit="10" d="M 8.47666 1.202197 L 8.040624 1.453955 " transform="matrix(40, 0, 0, 40, 187.410178, 10.099611)"/>
<path fill="none" stroke-width="0.0333333" stroke-linecap="butt" stroke-linejoin="miter" stroke="rgb(0%, 0%, 0%)" stroke-opacity="1" stroke-miterlimit="10" d="M 7.794238 1.659326 L 7.794238 2.246826 " transform="matrix(40, 0, 0, 40, 187.410178, 10.099611)"/>
<path fill="none" stroke-width="0.0333333" stroke-linecap="butt" stroke-linejoin="miter" stroke="rgb(0%, 0%, 0%)" stroke-opacity="1" stroke-miterlimit="10" d="M 7.526171 1.345264 L 7.090234 1.093506 " transform="matrix(40, 0, 0, 40, 187.410178, 10.099611)"/>
<path fill="none" stroke-width="0.0333333" stroke-linecap="butt" stroke-linejoin="miter" stroke="rgb(0%, 0%, 0%)" stroke-opacity="1" stroke-miterlimit="10" d="M 6.810156 0.71499 L 6.659765 0.351904 " transform="matrix(40, 0, 0, 40, 187.410178, 10.099611)"/>
<path fill="none" stroke-width="0.0333333" stroke-linecap="butt" stroke-linejoin="miter" stroke="rgb(0%, 0%, 0%)" stroke-opacity="1" stroke-miterlimit="10" d="M 7.033886 0.744775 L 7.196679 0.351904 " transform="matrix(40, 0, 0, 40, 187.410178, 10.099611)"/>
<path fill="none" stroke-width="0.0333333" stroke-linecap="butt" stroke-linejoin="miter" stroke="rgb(0%, 0%, 0%)" stroke-opacity="1" stroke-miterlimit="10" d="M 6.702929 1.130029 L 6.255468 1.388428 " transform="matrix(40, 0, 0, 40, 187.410178, 10.099611)"/>
<path fill="none" stroke-width="0.0333333" stroke-linecap="butt" stroke-linejoin="miter" stroke="rgb(0%, 0%, 0%)" stroke-opacity="1" stroke-miterlimit="10" d="M 6.062206 1.659326 L 6.062206 2.246826 " transform="matrix(40, 0, 0, 40, 187.410178, 10.099611)"/>
<path fill="none" stroke-width="0.0333333" stroke-linecap="butt" stroke-linejoin="miter" stroke="rgb(0%, 0%, 0%)" stroke-opacity="1" stroke-miterlimit="10" d="M 5.835839 1.273096 L 5.399804 1.021338 " transform="matrix(40, 0, 0, 40, 187.410178, 10.099611)"/>
<path fill="none" stroke-width="0.0333333" stroke-linecap="butt" stroke-linejoin="miter" stroke="rgb(0%, 0%, 0%)" stroke-opacity="1" stroke-miterlimit="10" d="M 5.752441 1.417432 L 5.316503 1.165674 " transform="matrix(40, 0, 0, 40, 187.410178, 10.099611)"/>
<path fill="none" stroke-width="0.0333333" stroke-linecap="butt" stroke-linejoin="miter" stroke="rgb(0%, 0%, 0%)" stroke-opacity="1" stroke-miterlimit="10" d="M 5.196191 0.741943 L 5.196191 0.253174 " transform="matrix(40, 0, 0, 40, 187.410178, 10.099611)"/>
<path fill="none" stroke-width="0.0333333" stroke-linecap="butt" stroke-linejoin="miter" stroke="rgb(0%, 0%, 0%)" stroke-opacity="1" stroke-miterlimit="10" d="M 4.970898 1.130029 L 4.523339 1.388428 " transform="matrix(40, 0, 0, 40, 187.410178, 10.099611)"/>
<path fill="none" stroke-width="0.0333333" stroke-linecap="butt" stroke-linejoin="miter" stroke="rgb(0%, 0%, 0%)" stroke-opacity="1" stroke-miterlimit="10" d="M 4.400976 1.670947 L 4.598535 2.148096 " transform="matrix(40, 0, 0, 40, 187.410178, 10.099611)"/>
<path fill="none" stroke-width="0.0333333" stroke-linecap="butt" stroke-linejoin="miter" stroke="rgb(0%, 0%, 0%)" stroke-opacity="1" stroke-miterlimit="10" d="M 4.25039 1.692529 L 4.061718 2.148096 " transform="matrix(40, 0, 0, 40, 187.410178, 10.099611)"/>
<path fill="none" stroke-width="0.0333333" stroke-linecap="butt" stroke-linejoin="miter" stroke="rgb(0%, 0%, 0%)" stroke-opacity="1" stroke-miterlimit="10" d="M 4.062109 1.345264 L 3.626074 1.093506 " transform="matrix(40, 0, 0, 40, 187.410178, 10.099611)"/>
<path fill="none" stroke-width="0.0333333" stroke-linecap="butt" stroke-linejoin="miter" stroke="rgb(0%, 0%, 0%)" stroke-opacity="1" stroke-miterlimit="10" d="M 3.346093 0.71499 L 3.195703 0.351904 " transform="matrix(40, 0, 0, 40, 187.410178, 10.099611)"/>
<path fill="none" stroke-width="0.0333333" stroke-linecap="butt" stroke-linejoin="miter" stroke="rgb(0%, 0%, 0%)" stroke-opacity="1" stroke-miterlimit="10" d="M 3.569824 0.744775 L 3.732519 0.351904 " transform="matrix(40, 0, 0, 40, 187.410178, 10.099611)"/>
<path fill="none" stroke-width="0.0333333" stroke-linecap="butt" stroke-linejoin="miter" stroke="rgb(0%, 0%, 0%)" stroke-opacity="1" stroke-miterlimit="10" d="M 3.238769 1.130029 L 2.791308 1.388428 " transform="matrix(40, 0, 0, 40, 187.410178, 10.099611)"/>
<path fill="none" stroke-width="0.0333333" stroke-linecap="butt" stroke-linejoin="miter" stroke="rgb(0%, 0%, 0%)" stroke-opacity="1" stroke-miterlimit="10" d="M 2.668847 1.670947 L 2.866503 2.148096 " transform="matrix(40, 0, 0, 40, 187.410178, 10.099611)"/>
<path fill="none" stroke-width="0.0333333" stroke-linecap="butt" stroke-linejoin="miter" stroke="rgb(0%, 0%, 0%)" stroke-opacity="1" stroke-miterlimit="10" d="M 2.518359 1.692529 L 2.329589 2.148096 " transform="matrix(40, 0, 0, 40, 187.410178, 10.099611)"/>
<path fill="none" stroke-width="0.0333333" stroke-linecap="butt" stroke-linejoin="miter" stroke="rgb(0%, 0%, 0%)" stroke-opacity="1" stroke-miterlimit="10" d="M 2.330078 1.345264 L 1.894042 1.093506 " transform="matrix(40, 0, 0, 40, 187.410178, 10.099611)"/>
<path fill="none" stroke-width="0.0333333" stroke-linecap="butt" stroke-linejoin="miter" stroke="rgb(0%, 0%, 0%)" stroke-opacity="1" stroke-miterlimit="10" d="M 1.815429 0.741943 L 1.815429 0.159521 " transform="matrix(40, 0, 0, 40, 187.410178, 10.099611)"/>
<path fill="none" stroke-width="0.0333333" stroke-linecap="butt" stroke-linejoin="miter" stroke="rgb(0%, 0%, 0%)" stroke-opacity="1" stroke-miterlimit="10" d="M 1.64873 0.741943 L 1.64873 0.159521 " transform="matrix(40, 0, 0, 40, 187.410178, 10.099611)"/>
<path fill="none" stroke-width="0.0333333" stroke-linecap="butt" stroke-linejoin="miter" stroke="rgb(0%, 0%, 0%)" stroke-opacity="1" stroke-miterlimit="10" d="M 1.506738 1.130029 L 1.073046 1.38042 " transform="matrix(40, 0, 0, 40, 187.410178, 10.099611)"/>
<path fill="none" stroke-width="0.0333333" stroke-linecap="butt" stroke-linejoin="miter" stroke="rgb(0%, 0%, 0%)" stroke-opacity="1" stroke-miterlimit="10" d="M 1.107226 1.072119 L 1.357226 1.505127 " transform="matrix(40, 0, 0, 40, 187.410178, 10.099611)"/>
<path fill="none" stroke-width="0.0333333" stroke-linecap="butt" stroke-linejoin="miter" stroke="rgb(0%, 0%, 0%)" stroke-opacity="1" stroke-miterlimit="10" d="M 1.222656 1.00542 L 1.472656 1.438428 " transform="matrix(40, 0, 0, 40, 187.410178, 10.099611)"/>
<path fill="none" stroke-width="0.0333333" stroke-linecap="butt" stroke-linejoin="miter" stroke="rgb(0%, 0%, 0%)" stroke-opacity="1" stroke-miterlimit="10" d="M 0.531933 1.30708 L 0.225292 1.130029 " transform="matrix(40, 0, 0, 40, 187.410178, 10.099611)"/>
<path fill="none" stroke-width="0.0333333" stroke-linecap="butt" stroke-linejoin="miter" stroke="rgb(0%, 0%, 0%)" stroke-opacity="1" stroke-miterlimit="10" d="M 8.822265 1.093506 L 9.2583 1.345264 " transform="matrix(40, 0, 0, 40, 187.410178, 10.099611)"/>
<path fill="none" stroke-width="0.0333333" stroke-linecap="butt" stroke-linejoin="miter" stroke="rgb(0%, 0%, 0%)" stroke-opacity="1" stroke-miterlimit="10" d="M 9.59707 1.670947 L 9.794726 2.148096 " transform="matrix(40, 0, 0, 40, 187.410178, 10.099611)"/>
<path fill="none" stroke-width="0.0333333" stroke-linecap="butt" stroke-linejoin="miter" stroke="rgb(0%, 0%, 0%)" stroke-opacity="1" stroke-miterlimit="10" d="M 9.446484 1.692529 L 9.257812 2.148096 " transform="matrix(40, 0, 0, 40, 187.410178, 10.099611)"/>
<path fill="none" stroke-width="0.0333333" stroke-linecap="butt" stroke-linejoin="miter" stroke="rgb(0%, 0%, 0%)" stroke-opacity="1" stroke-miterlimit="10" d="M 9.719531 1.388428 L 10.166992 1.130029 " transform="matrix(40, 0, 0, 40, 187.410178, 10.099611)"/>
<path fill="none" stroke-width="0.0333333" stroke-linecap="butt" stroke-linejoin="miter" stroke="rgb(0%, 0%, 0%)" stroke-opacity="1" stroke-miterlimit="10" d="M 10.392285 0.741943 L 10.392285 0.253174 " transform="matrix(40, 0, 0, 40, 187.410178, 10.099611)"/>
<path fill="none" stroke-width="0.0333333" stroke-linecap="butt" stroke-linejoin="miter" stroke="rgb(0%, 0%, 0%)" stroke-opacity="1" stroke-miterlimit="10" d="M 10.512695 1.165674 L 10.948632 1.417432 " transform="matrix(40, 0, 0, 40, 187.410178, 10.099611)"/>
<path fill="none" stroke-width="0.0333333" stroke-linecap="butt" stroke-linejoin="miter" stroke="rgb(0%, 0%, 0%)" stroke-opacity="1" stroke-miterlimit="10" d="M 10.595996 1.021338 L 11.031933 1.273096 " transform="matrix(40, 0, 0, 40, 187.410178, 10.099611)"/>
<path fill="none" stroke-width="0.0333333" stroke-linecap="butt" stroke-linejoin="miter" stroke="rgb(0%, 0%, 0%)" stroke-opacity="1" stroke-miterlimit="10" d="M 11.2583 1.659326 L 11.2583 2.246826 " transform="matrix(40, 0, 0, 40, 187.410178, 10.099611)"/>
<path fill="none" stroke-width="0.0333333" stroke-linecap="butt" stroke-linejoin="miter" stroke="rgb(0%, 0%, 0%)" stroke-opacity="1" stroke-miterlimit="10" d="M 11.451562 1.388428 L 11.899023 1.130029 " transform="matrix(40, 0, 0, 40, 187.410178, 10.099611)"/>
<path fill="none" stroke-width="0.0333333" stroke-linecap="butt" stroke-linejoin="miter" stroke="rgb(0%, 0%, 0%)" stroke-opacity="1" stroke-miterlimit="10" d="M 12.006347 0.71499 L 11.855956 0.351904 " transform="matrix(40, 0, 0, 40, 187.410178, 10.099611)"/>
<path fill="none" stroke-width="0.0333333" stroke-linecap="butt" stroke-linejoin="miter" stroke="rgb(0%, 0%, 0%)" stroke-opacity="1" stroke-miterlimit="10" d="M 12.230078 0.744775 L 12.392773 0.351904 " transform="matrix(40, 0, 0, 40, 187.410178, 10.099611)"/>
<path fill="none" stroke-width="0.0333333" stroke-linecap="butt" stroke-linejoin="miter" stroke="rgb(0%, 0%, 0%)" stroke-opacity="1" stroke-miterlimit="10" d="M 12.286328 1.093506 L 12.722363 1.345264 " transform="matrix(40, 0, 0, 40, 187.410178, 10.099611)"/>
<path fill="none" stroke-width="0.0333333" stroke-linecap="butt" stroke-linejoin="miter" stroke="rgb(0%, 0%, 0%)" stroke-opacity="1" stroke-miterlimit="10" d="M 12.990429 1.659326 L 12.990429 2.246826 " transform="matrix(40, 0, 0, 40, 187.410178, 10.099611)"/>
<path fill="none" stroke-width="0.0333333" stroke-linecap="butt" stroke-linejoin="miter" stroke="rgb(0%, 0%, 0%)" stroke-opacity="1" stroke-miterlimit="10" d="M 13.236816 1.453955 L 13.672753 1.202197 " transform="matrix(40, 0, 0, 40, 187.410178, 10.099611)"/>
<path fill="none" stroke-width="0.0333333" stroke-linecap="butt" stroke-linejoin="miter" stroke="rgb(0%, 0%, 0%)" stroke-opacity="1" stroke-miterlimit="10" d="M 13.153417 1.309619 L 13.589453 1.057861 " transform="matrix(40, 0, 0, 40, 187.410178, 10.099611)"/>
<path fill="none" stroke-width="0.0333333" stroke-linecap="butt" stroke-linejoin="miter" stroke="rgb(0%, 0%, 0%)" stroke-opacity="1" stroke-miterlimit="10" d="M 13.856445 0.741943 L 13.856445 0.253174 " transform="matrix(40, 0, 0, 40, 187.410178, 10.099611)"/>
<path fill="none" stroke-width="0.0333333" stroke-linecap="butt" stroke-linejoin="miter" stroke="rgb(0%, 0%, 0%)" stroke-opacity="1" stroke-miterlimit="10" d="M 14.018456 1.093506 L 14.454394 1.345264 " transform="matrix(40, 0, 0, 40, 187.410178, 10.099611)"/>
<path fill="none" stroke-width="0.0333333" stroke-linecap="butt" stroke-linejoin="miter" stroke="rgb(0%, 0%, 0%)" stroke-opacity="1" stroke-miterlimit="10" d="M 14.793261 1.670947 L 14.990917 2.148096 " transform="matrix(40, 0, 0, 40, 187.410178, 10.099611)"/>
<path fill="none" stroke-width="0.0333333" stroke-linecap="butt" stroke-linejoin="miter" stroke="rgb(0%, 0%, 0%)" stroke-opacity="1" stroke-miterlimit="10" d="M 14.642675 1.692529 L 14.454003 2.148096 " transform="matrix(40, 0, 0, 40, 187.410178, 10.099611)"/>
<path fill="none" stroke-width="0.0333333" stroke-linecap="butt" stroke-linejoin="miter" stroke="rgb(0%, 0%, 0%)" stroke-opacity="1" stroke-miterlimit="10" d="M 14.915722 1.388428 L 15.363183 1.130029 " transform="matrix(40, 0, 0, 40, 187.410178, 10.099611)"/>
<path fill="none" stroke-width="0.0333333" stroke-linecap="butt" stroke-linejoin="miter" stroke="rgb(0%, 0%, 0%)" stroke-opacity="1" stroke-miterlimit="10" d="M 15.47041 0.71499 L 15.320019 0.351904 " transform="matrix(40, 0, 0, 40, 187.410178, 10.099611)"/>
<path fill="none" stroke-width="0.0333333" stroke-linecap="butt" stroke-linejoin="miter" stroke="rgb(0%, 0%, 0%)" stroke-opacity="1" stroke-miterlimit="10" d="M 15.69414 0.744775 L 15.856933 0.351904 " transform="matrix(40, 0, 0, 40, 187.410178, 10.099611)"/>
<path fill="none" stroke-width="0.0333333" stroke-linecap="butt" stroke-linejoin="miter" stroke="rgb(0%, 0%, 0%)" stroke-opacity="1" stroke-miterlimit="10" d="M 15.750488 1.093506 L 16.186425 1.345264 " transform="matrix(40, 0, 0, 40, 187.410178, 10.099611)"/>
<path fill="none" stroke-width="0.0333333" stroke-linecap="butt" stroke-linejoin="miter" stroke="rgb(0%, 0%, 0%)" stroke-opacity="1" stroke-miterlimit="10" d="M 16.525292 1.670947 L 16.722949 2.148096 " transform="matrix(40, 0, 0, 40, 187.410178, 10.099611)"/>
<path fill="none" stroke-width="0.0333333" stroke-linecap="butt" stroke-linejoin="miter" stroke="rgb(0%, 0%, 0%)" stroke-opacity="1" stroke-miterlimit="10" d="M 16.374706 1.692529 L 16.186035 2.148096 " transform="matrix(40, 0, 0, 40, 187.410178, 10.099611)"/>
<path fill="none" stroke-width="0.0333333" stroke-linecap="butt" stroke-linejoin="miter" stroke="rgb(0%, 0%, 0%)" stroke-opacity="1" stroke-miterlimit="10" d="M 16.647753 1.388428 L 17.095214 1.130029 " transform="matrix(40, 0, 0, 40, 187.410178, 10.099611)"/>
<path fill="none" stroke-width="0.0333333" stroke-linecap="butt" stroke-linejoin="miter" stroke="rgb(0%, 0%, 0%)" stroke-opacity="1" stroke-miterlimit="10" d="M 17.202441 0.71499 L 17.05205 0.351904 " transform="matrix(40, 0, 0, 40, 187.410178, 10.099611)"/>
<path fill="none" stroke-width="0.0333333" stroke-linecap="butt" stroke-linejoin="miter" stroke="rgb(0%, 0%, 0%)" stroke-opacity="1" stroke-miterlimit="10" d="M 17.426171 0.744775 L 17.588964 0.351904 " transform="matrix(40, 0, 0, 40, 187.410178, 10.099611)"/>
<path fill="none" stroke-width="0.0333333" stroke-linecap="butt" stroke-linejoin="miter" stroke="rgb(0%, 0%, 0%)" stroke-opacity="1" stroke-miterlimit="10" d="M 17.482519 1.093506 L 17.918554 1.345264 " transform="matrix(40, 0, 0, 40, 187.410178, 10.099611)"/>
<path fill="none" stroke-width="0.0333333" stroke-linecap="butt" stroke-linejoin="miter" stroke="rgb(0%, 0%, 0%)" stroke-opacity="1" stroke-miterlimit="10" d="M 18.186523 1.659326 L 18.186523 2.246826 " transform="matrix(40, 0, 0, 40, 187.410178, 10.099611)"/>
<path fill="none" stroke-width="0.0333333" stroke-linecap="butt" stroke-linejoin="miter" stroke="rgb(0%, 0%, 0%)" stroke-opacity="1" stroke-miterlimit="10" d="M 18.379785 1.388428 L 18.797363 1.147314 " transform="matrix(40, 0, 0, 40, 187.410178, 10.099611)"/>
<path fill="none" stroke-width="0.0333333" stroke-linecap="butt" stroke-linejoin="miter" stroke="rgb(0%, 0%, 0%)" stroke-opacity="1" stroke-miterlimit="10" d="M 18.348535 1.593506 L 18.797363 1.852685 " transform="matrix(40, 0, 0, 40, 187.410178, 10.099611)"/>
<g fill="rgb(0%, 0%, 0%)" fill-opacity="1">
<use xlink:href="#glyph-0-1" x="528.046875" y="15.828125"/>
</g>
<g fill="rgb(0%, 0%, 0%)" fill-opacity="1">
<use xlink:href="#glyph-1-4" x="528.226562" y="51.945313"/>
</g>
<g fill="rgb(0%, 0%, 0%)" fill-opacity="1">
<use xlink:href="#glyph-1-4" x="493.585938" y="71.945312"/>
</g>
<g fill="rgb(0%, 0%, 0%)" fill-opacity="1">
<use xlink:href="#glyph-0-1" x="493.40625" y="115.828125"/>
</g>
<g fill="rgb(0%, 0%, 0%)" fill-opacity="1">
<use xlink:href="#glyph-1-4" x="458.945312" y="51.945313"/>
</g>
<g fill="rgb(0%, 0%, 0%)" fill-opacity="1">
<use xlink:href="#glyph-0-1" x="443.457031" y="18.871094"/>
</g>
<g fill="rgb(0%, 0%, 0%)" fill-opacity="1">
<use xlink:href="#glyph-0-1" x="474.074219" y="18.871094"/>
</g>
<g fill="rgb(0%, 0%, 0%)" fill-opacity="1">
<use xlink:href="#glyph-1-4" x="424.304688" y="71.945312"/>
</g>
<g fill="rgb(0%, 0%, 0%)" fill-opacity="1">
<use xlink:href="#glyph-0-1" x="424.125" y="115.828125"/>
</g>
<g fill="rgb(0%, 0%, 0%)" fill-opacity="1">
<use xlink:href="#glyph-1-4" x="389.664063" y="51.945313"/>
</g>
<g fill="rgb(0%, 0%, 0%)" fill-opacity="1">
<use xlink:href="#glyph-0-1" x="389.484375" y="15.828125"/>
</g>
<g fill="rgb(0%, 0%, 0%)" fill-opacity="1">
<use xlink:href="#glyph-1-4" x="355.023438" y="71.945312"/>
</g>
<g fill="rgb(0%, 0%, 0%)" fill-opacity="1">
<use xlink:href="#glyph-0-1" x="370.148438" y="112.78125"/>
</g>
<g fill="rgb(0%, 0%, 0%)" fill-opacity="1">
<use xlink:href="#glyph-0-1" x="339.535156" y="112.78125"/>
</g>
<g fill="rgb(0%, 0%, 0%)" fill-opacity="1">
<use xlink:href="#glyph-1-4" x="320.382813" y="51.945313"/>
</g>
<g fill="rgb(0%, 0%, 0%)" fill-opacity="1">
<use xlink:href="#glyph-0-1" x="304.894531" y="18.871094"/>
</g>
<g fill="rgb(0%, 0%, 0%)" fill-opacity="1">
<use xlink:href="#glyph-0-1" x="335.507812" y="18.871094"/>
</g>
<g fill="rgb(0%, 0%, 0%)" fill-opacity="1">
<use xlink:href="#glyph-1-4" x="285.742188" y="71.945312"/>
</g>
<g fill="rgb(0%, 0%, 0%)" fill-opacity="1">
<use xlink:href="#glyph-0-1" x="300.867188" y="112.78125"/>
</g>
<g fill="rgb(0%, 0%, 0%)" fill-opacity="1">
<use xlink:href="#glyph-0-1" x="270.253906" y="112.78125"/>
</g>
<g fill="rgb(0%, 0%, 0%)" fill-opacity="1">
<use xlink:href="#glyph-1-4" x="251.097656" y="51.945313"/>
</g>
<g fill="rgb(0%, 0%, 0%)" fill-opacity="1">
<use xlink:href="#glyph-1-1" x="251.113281" y="11.949219"/>
</g>
<g fill="rgb(0%, 0%, 0%)" fill-opacity="1">
<use xlink:href="#glyph-1-1" x="216.472656" y="71.949219"/>
</g>
<g fill="rgb(0%, 0%, 0%)" fill-opacity="1">
<use xlink:href="#glyph-1-2" x="204.351563" y="76.582031"/>
<use xlink:href="#glyph-1-3" x="210.283855" y="76.582031"/>
</g>
<g fill="rgb(0%, 0%, 0%)" fill-opacity="1">
<use xlink:href="#glyph-1-4" x="185.191406" y="51.945313"/>
</g>
<g fill="rgb(0%, 0%, 0%)" fill-opacity="1">
<use xlink:href="#glyph-1-2" x="174.480469" y="56.582031"/>
<use xlink:href="#glyph-1-5" x="180.412761" y="56.582031"/>
</g>
<g fill="rgb(0%, 0%, 0%)" fill-opacity="1">
<use xlink:href="#glyph-1-4" x="562.867188" y="71.945312"/>
</g>
<g fill="rgb(0%, 0%, 0%)" fill-opacity="1">
<use xlink:href="#glyph-0-1" x="577.996094" y="112.78125"/>
</g>
<g fill="rgb(0%, 0%, 0%)" fill-opacity="1">
<use xlink:href="#glyph-0-1" x="547.382812" y="112.78125"/>
</g>
<g fill="rgb(0%, 0%, 0%)" fill-opacity="1">
<use xlink:href="#glyph-1-4" x="597.507812" y="51.945313"/>
</g>
<g fill="rgb(0%, 0%, 0%)" fill-opacity="1">
<use xlink:href="#glyph-0-1" x="597.328125" y="15.828125"/>
</g>
<g fill="rgb(0%, 0%, 0%)" fill-opacity="1">
<use xlink:href="#glyph-1-4" x="632.152344" y="71.945312"/>
</g>
<g fill="rgb(0%, 0%, 0%)" fill-opacity="1">
<use xlink:href="#glyph-0-1" x="631.972656" y="115.828125"/>
</g>
<g fill="rgb(0%, 0%, 0%)" fill-opacity="1">
<use xlink:href="#glyph-1-4" x="666.792969" y="51.945313"/>
</g>
<g fill="rgb(0%, 0%, 0%)" fill-opacity="1">
<use xlink:href="#glyph-0-1" x="651.304688" y="18.871094"/>
</g>
<g fill="rgb(0%, 0%, 0%)" fill-opacity="1">
<use xlink:href="#glyph-0-1" x="681.917969" y="18.871094"/>
</g>
<g fill="rgb(0%, 0%, 0%)" fill-opacity="1">
<use xlink:href="#glyph-1-4" x="701.433594" y="71.945312"/>
</g>
<g fill="rgb(0%, 0%, 0%)" fill-opacity="1">
<use xlink:href="#glyph-0-1" x="701.253906" y="115.828125"/>
</g>
<g fill="rgb(0%, 0%, 0%)" fill-opacity="1">
<use xlink:href="#glyph-1-4" x="736.074219" y="51.945313"/>
</g>
<g fill="rgb(0%, 0%, 0%)" fill-opacity="1">
<use xlink:href="#glyph-0-1" x="735.894531" y="15.828125"/>
</g>
<g fill="rgb(0%, 0%, 0%)" fill-opacity="1">
<use xlink:href="#glyph-1-4" x="770.714844" y="71.945312"/>
</g>
<g fill="rgb(0%, 0%, 0%)" fill-opacity="1">
<use xlink:href="#glyph-0-1" x="785.84375" y="112.78125"/>
</g>
<g fill="rgb(0%, 0%, 0%)" fill-opacity="1">
<use xlink:href="#glyph-0-1" x="755.226562" y="112.78125"/>
</g>
<g fill="rgb(0%, 0%, 0%)" fill-opacity="1">
<use xlink:href="#glyph-1-4" x="805.355469" y="51.945313"/>
</g>
<g fill="rgb(0%, 0%, 0%)" fill-opacity="1">
<use xlink:href="#glyph-0-1" x="789.867188" y="18.871094"/>
</g>
<g fill="rgb(0%, 0%, 0%)" fill-opacity="1">
<use xlink:href="#glyph-0-1" x="820.484375" y="18.871094"/>
</g>
<g fill="rgb(0%, 0%, 0%)" fill-opacity="1">
<use xlink:href="#glyph-1-4" x="839.996094" y="71.945312"/>
</g>
<g fill="rgb(0%, 0%, 0%)" fill-opacity="1">
<use xlink:href="#glyph-0-1" x="855.125" y="112.78125"/>
</g>
<g fill="rgb(0%, 0%, 0%)" fill-opacity="1">
<use xlink:href="#glyph-0-1" x="824.511719" y="112.78125"/>
</g>
<g fill="rgb(0%, 0%, 0%)" fill-opacity="1">
<use xlink:href="#glyph-1-4" x="874.636719" y="51.945313"/>
</g>
<g fill="rgb(0%, 0%, 0%)" fill-opacity="1">
<use xlink:href="#glyph-0-1" x="859.152344" y="18.871094"/>
</g>
<g fill="rgb(0%, 0%, 0%)" fill-opacity="1">
<use xlink:href="#glyph-0-1" x="889.765625" y="18.871094"/>
</g>
<g fill="rgb(0%, 0%, 0%)" fill-opacity="1">
<use xlink:href="#glyph-1-4" x="909.277344" y="71.945312"/>
</g>
<g fill="rgb(0%, 0%, 0%)" fill-opacity="1">
<use xlink:href="#glyph-0-1" x="909.097656" y="115.828125"/>
</g>
<g fill="rgb(0%, 0%, 0%)" fill-opacity="1">
<use xlink:href="#glyph-0-1" x="943.738281" y="55.828125"/>
</g>
<g fill="rgb(0%, 0%, 0%)" fill-opacity="1">
<use xlink:href="#glyph-0-1" x="943.738281" y="95.828125"/>
</g>
</svg>
