<?xml version="1.0" encoding="UTF-8"?>
<svg xmlns="http://www.w3.org/2000/svg" xmlns:xlink="http://www.w3.org/1999/xlink" width="1327" height="248" viewBox="0 0 1327 248">
<defs>
<g>
<g id="glyph-0-0">
<path d="M 1.332031 0 L 1.332031 -6.667969 L 6.667969 -6.667969 L 6.667969 0 Z M 1.5 -0.167969 L 6.5 -0.167969 L 6.5 -6.5 L 1.5 -6.5 Z M 1.5 -0.167969 "/>
</g>
<g id="glyph-0-1">
<path d="M 0.515625 -3.71875 C 0.515625 -4.984375 0.855469 -5.976562 1.535156 -6.695312 C 2.214844 -7.414062 3.09375 -7.769531 4.171875 -7.769531 C 4.875 -7.769531 5.511719 -7.601562 6.078125 -7.265625 C 6.644531 -6.929688 7.074219 -6.460938 7.371094 -5.855469 C 7.667969 -5.253906 7.816406 -4.570312 7.816406 -3.808594 C 7.816406 -3.035156 7.660156 -2.339844 7.347656 -1.730469 C 7.035156 -1.117188 6.59375 -0.65625 6.019531 -0.339844 C 5.449219 -0.0273438 4.828125 0.128906 4.167969 0.128906 C 3.449219 0.128906 2.804688 -0.0429688 2.238281 -0.390625 C 1.671875 -0.738281 1.246094 -1.210938 0.953125 -1.8125 C 0.660156 -2.414062 0.515625 -3.046875 0.515625 -3.71875 Z M 1.558594 -3.703125 C 1.558594 -2.78125 1.804688 -2.058594 2.300781 -1.527344 C 2.792969 -1 3.414062 -0.734375 4.160156 -0.734375 C 4.921875 -0.734375 5.546875 -1 6.039062 -1.535156 C 6.53125 -2.070312 6.777344 -2.828125 6.777344 -3.8125 C 6.777344 -4.433594 6.671875 -4.976562 6.460938 -5.441406 C 6.25 -5.902344 5.945312 -6.261719 5.539062 -6.519531 C 5.132812 -6.773438 4.679688 -6.902344 4.175781 -6.902344 C 3.460938 -6.902344 2.847656 -6.65625 2.332031 -6.164062 C 1.816406 -5.671875 1.558594 -4.851562 1.558594 -3.703125 Z M 1.558594 -3.703125 "/>
</g>
<g id="glyph-0-2">
<path d="M 3.972656 0 L 3.035156 0 L 3.035156 -5.972656 C 2.808594 -5.757812 2.515625 -5.542969 2.148438 -5.328125 C 1.78125 -5.113281 1.453125 -4.953125 1.160156 -4.84375 L 1.160156 -5.75 C 1.683594 -5.996094 2.144531 -6.296875 2.535156 -6.644531 C 2.929688 -6.996094 3.207031 -7.335938 3.371094 -7.667969 L 3.972656 -7.667969 Z M 3.972656 0 "/>
</g>
<g id="glyph-0-3">
<path d="M 0.449219 -2.015625 L 1.386719 -2.140625 C 1.492188 -1.609375 1.675781 -1.226562 1.933594 -0.992188 C 2.191406 -0.757812 2.507812 -0.640625 2.878906 -0.640625 C 3.320312 -0.640625 3.695312 -0.792969 3.996094 -1.097656 C 4.300781 -1.402344 4.453125 -1.78125 4.453125 -2.234375 C 4.453125 -2.664062 4.3125 -3.019531 4.03125 -3.300781 C 3.75 -3.578125 3.390625 -3.71875 2.957031 -3.71875 C 2.78125 -3.71875 2.5625 -3.683594 2.296875 -3.613281 L 2.402344 -4.4375 C 2.464844 -4.429688 2.515625 -4.425781 2.550781 -4.425781 C 2.949219 -4.425781 3.3125 -4.53125 3.628906 -4.738281 C 3.949219 -4.949219 4.109375 -5.269531 4.109375 -5.703125 C 4.109375 -6.046875 3.992188 -6.332031 3.761719 -6.558594 C 3.527344 -6.785156 3.226562 -6.894531 2.859375 -6.894531 C 2.496094 -6.894531 2.191406 -6.78125 1.949219 -6.550781 C 1.707031 -6.324219 1.546875 -5.980469 1.480469 -5.519531 L 0.542969 -5.6875 C 0.65625 -6.316406 0.917969 -6.804688 1.324219 -7.148438 C 1.730469 -7.492188 2.234375 -7.667969 2.839844 -7.667969 C 3.253906 -7.667969 3.640625 -7.578125 3.988281 -7.398438 C 4.339844 -7.21875 4.609375 -6.976562 4.792969 -6.667969 C 4.980469 -6.359375 5.074219 -6.03125 5.074219 -5.683594 C 5.074219 -5.351562 4.984375 -5.050781 4.808594 -4.78125 C 4.628906 -4.511719 4.367188 -4.296875 4.019531 -4.136719 C 4.472656 -4.03125 4.824219 -3.816406 5.074219 -3.488281 C 5.324219 -3.160156 5.449219 -2.75 5.449219 -2.253906 C 5.449219 -1.589844 5.203125 -1.023438 4.71875 -0.558594 C 4.234375 -0.0976562 3.617188 0.136719 2.875 0.136719 C 2.203125 0.136719 1.648438 -0.0625 1.207031 -0.464844 C 0.761719 -0.863281 0.511719 -1.378906 0.449219 -2.015625 Z M 0.449219 -2.015625 "/>
</g>
<g id="glyph-0-4">
<path d="M 0.824219 0 L 0.824219 -7.636719 L 3.703125 -7.636719 C 4.210938 -7.636719 4.597656 -7.609375 4.863281 -7.5625 C 5.238281 -7.5 5.554688 -7.382812 5.808594 -7.207031 C 6.0625 -7.03125 6.265625 -6.785156 6.417969 -6.46875 C 6.574219 -6.152344 6.652344 -5.804688 6.652344 -5.425781 C 6.652344 -4.777344 6.445312 -4.226562 6.03125 -3.777344 C 5.617188 -3.328125 4.871094 -3.105469 3.792969 -3.105469 L 1.832031 -3.105469 L 1.832031 0 Z M 1.832031 -4.003906 L 3.808594 -4.003906 C 4.460938 -4.003906 4.921875 -4.125 5.199219 -4.371094 C 5.472656 -4.613281 5.609375 -4.953125 5.609375 -5.394531 C 5.609375 -5.714844 5.527344 -5.988281 5.367188 -6.214844 C 5.207031 -6.441406 4.992188 -6.59375 4.730469 -6.667969 C 4.558594 -6.710938 4.246094 -6.734375 3.785156 -6.734375 L 1.832031 -6.734375 Z M 1.832031 -4.003906 "/>
</g>
<g id="glyph-0-5">
<path d="M 3.449219 0 L 3.449219 -1.828125 L 0.136719 -1.828125 L 0.136719 -2.6875 L 3.621094 -7.636719 L 4.386719 -7.636719 L 4.386719 -2.6875 L 5.417969 -2.6875 L 5.417969 -1.828125 L 4.386719 -1.828125 L 4.386719 0 Z M 3.449219 -2.6875 L 3.449219 -6.128906 L 1.058594 -2.6875 Z M 3.449219 -2.6875 "/>
</g>
<g id="glyph-0-6">
<path d="M 0.441406 -2 L 1.425781 -2.082031 C 1.5 -1.605469 1.667969 -1.242188 1.933594 -1.003906 C 2.199219 -0.761719 2.519531 -0.640625 2.894531 -0.640625 C 3.347656 -0.640625 3.730469 -0.8125 4.042969 -1.152344 C 4.355469 -1.492188 4.511719 -1.941406 4.511719 -2.503906 C 4.511719 -3.039062 4.359375 -3.460938 4.058594 -3.769531 C 3.757812 -4.078125 3.367188 -4.234375 2.878906 -4.234375 C 2.578125 -4.234375 2.304688 -4.164062 2.0625 -4.027344 C 1.820312 -3.890625 1.628906 -3.714844 1.488281 -3.496094 L 0.609375 -3.609375 L 1.347656 -7.53125 L 5.144531 -7.53125 L 5.144531 -6.636719 L 2.097656 -6.636719 L 1.6875 -4.582031 C 2.144531 -4.902344 2.625 -5.0625 3.128906 -5.0625 C 3.796875 -5.0625 4.359375 -4.832031 4.816406 -4.371094 C 5.277344 -3.910156 5.503906 -3.3125 5.503906 -2.589844 C 5.503906 -1.898438 5.304688 -1.300781 4.902344 -0.796875 C 4.410156 -0.179688 3.742188 0.128906 2.894531 0.128906 C 2.199219 0.128906 1.632812 -0.0625 1.195312 -0.453125 C 0.757812 -0.84375 0.503906 -1.359375 0.441406 -2 Z M 0.441406 -2 "/>
</g>
<g id="glyph-0-7">
<path d="M 5.371094 -0.902344 L 5.371094 0 L 0.324219 0 C 0.316406 -0.226562 0.351562 -0.441406 0.433594 -0.652344 C 0.5625 -0.996094 0.765625 -1.332031 1.050781 -1.667969 C 1.332031 -2 1.742188 -2.386719 2.277344 -2.824219 C 3.105469 -3.503906 3.667969 -4.042969 3.957031 -4.441406 C 4.25 -4.839844 4.394531 -5.214844 4.394531 -5.566406 C 4.394531 -5.9375 4.261719 -6.253906 3.996094 -6.507812 C 3.730469 -6.761719 3.386719 -6.890625 2.957031 -6.890625 C 2.507812 -6.890625 2.144531 -6.753906 1.875 -6.484375 C 1.605469 -6.214844 1.46875 -5.839844 1.464844 -5.359375 L 0.5 -5.457031 C 0.566406 -6.175781 0.8125 -6.726562 1.246094 -7.101562 C 1.675781 -7.476562 2.253906 -7.667969 2.980469 -7.667969 C 3.710938 -7.667969 4.292969 -7.464844 4.71875 -7.058594 C 5.144531 -6.652344 5.359375 -6.148438 5.359375 -5.546875 C 5.359375 -5.242188 5.296875 -4.941406 5.171875 -4.644531 C 5.046875 -4.351562 4.839844 -4.039062 4.550781 -3.714844 C 4.261719 -3.386719 3.777344 -2.9375 3.105469 -2.371094 C 2.542969 -1.898438 2.179688 -1.578125 2.019531 -1.410156 C 1.859375 -1.242188 1.730469 -1.070312 1.625 -0.902344 Z M 5.371094 -0.902344 "/>
</g>
<g id="glyph-0-8">
<path d="M 0.582031 -1.765625 L 1.484375 -1.847656 C 1.5625 -1.425781 1.707031 -1.117188 1.921875 -0.925781 C 2.136719 -0.734375 2.414062 -0.640625 2.75 -0.640625 C 3.039062 -0.640625 3.289062 -0.707031 3.507812 -0.839844 C 3.726562 -0.972656 3.902344 -1.148438 4.042969 -1.367188 C 4.179688 -1.585938 4.296875 -1.886719 4.390625 -2.261719 C 4.484375 -2.636719 4.53125 -3.015625 4.53125 -3.40625 C 4.53125 -3.449219 4.53125 -3.511719 4.527344 -3.59375 C 4.339844 -3.296875 4.082031 -3.054688 3.757812 -2.867188 C 3.433594 -2.679688 3.082031 -2.589844 2.703125 -2.589844 C 2.070312 -2.589844 1.535156 -2.816406 1.097656 -3.277344 C 0.660156 -3.734375 0.441406 -4.339844 0.441406 -5.089844 C 0.441406 -5.863281 0.671875 -6.484375 1.128906 -6.957031 C 1.585938 -7.429688 2.15625 -7.667969 2.84375 -7.667969 C 3.339844 -7.667969 3.792969 -7.53125 4.207031 -7.265625 C 4.617188 -7 4.929688 -6.617188 5.144531 -6.121094 C 5.355469 -5.628906 5.464844 -4.910156 5.464844 -3.972656 C 5.464844 -2.996094 5.359375 -2.222656 5.144531 -1.644531 C 4.933594 -1.066406 4.617188 -0.625 4.199219 -0.324219 C 3.78125 -0.0195312 3.292969 0.128906 2.730469 0.128906 C 2.132812 0.128906 1.644531 -0.0351562 1.265625 -0.367188 C 0.886719 -0.699219 0.660156 -1.164062 0.582031 -1.765625 Z M 4.421875 -5.136719 C 4.421875 -5.675781 4.277344 -6.101562 3.992188 -6.417969 C 3.707031 -6.734375 3.359375 -6.890625 2.957031 -6.890625 C 2.542969 -6.890625 2.179688 -6.71875 1.871094 -6.378906 C 1.5625 -6.039062 1.40625 -5.597656 1.40625 -5.058594 C 1.40625 -4.570312 1.554688 -4.175781 1.847656 -3.871094 C 2.140625 -3.566406 2.5 -3.417969 2.933594 -3.417969 C 3.367188 -3.417969 3.722656 -3.570312 4.003906 -3.871094 C 4.28125 -4.175781 4.421875 -4.597656 4.421875 -5.136719 Z M 4.421875 -5.136719 "/>
</g>
<g id="glyph-0-9">
<path d="M 5.308594 -5.765625 L 4.375 -5.691406 C 4.292969 -6.058594 4.171875 -6.328125 4.019531 -6.496094 C 3.765625 -6.761719 3.453125 -6.894531 3.082031 -6.894531 C 2.785156 -6.894531 2.523438 -6.8125 2.296875 -6.644531 C 2 -6.429688 1.769531 -6.117188 1.597656 -5.703125 C 1.429688 -5.289062 1.339844 -4.703125 1.332031 -3.9375 C 1.558594 -4.28125 1.835938 -4.535156 2.160156 -4.703125 C 2.488281 -4.871094 2.828125 -4.953125 3.1875 -4.953125 C 3.8125 -4.953125 4.34375 -4.722656 4.785156 -4.261719 C 5.222656 -3.800781 5.441406 -3.207031 5.441406 -2.480469 C 5.441406 -2 5.339844 -1.554688 5.132812 -1.144531 C 4.925781 -0.730469 4.640625 -0.417969 4.28125 -0.199219 C 3.921875 0.0195312 3.511719 0.128906 3.050781 0.128906 C 2.269531 0.128906 1.632812 -0.15625 1.140625 -0.730469 C 0.648438 -1.304688 0.402344 -2.253906 0.402344 -3.574219 C 0.402344 -5.050781 0.671875 -6.121094 1.21875 -6.792969 C 1.695312 -7.375 2.335938 -7.667969 3.140625 -7.667969 C 3.742188 -7.667969 4.234375 -7.5 4.617188 -7.160156 C 5 -6.824219 5.230469 -6.359375 5.308594 -5.765625 Z M 1.480469 -2.472656 C 1.480469 -2.152344 1.546875 -1.84375 1.683594 -1.546875 C 1.820312 -1.25 2.015625 -1.027344 2.261719 -0.871094 C 2.507812 -0.71875 2.765625 -0.640625 3.035156 -0.640625 C 3.433594 -0.640625 3.773438 -0.800781 4.058594 -1.121094 C 4.34375 -1.441406 4.484375 -1.875 4.484375 -2.421875 C 4.484375 -2.949219 4.34375 -3.367188 4.0625 -3.667969 C 3.78125 -3.972656 3.425781 -4.125 3 -4.125 C 2.578125 -4.125 2.21875 -3.972656 1.921875 -3.667969 C 1.625 -3.363281 1.480469 -2.96875 1.480469 -2.472656 Z M 1.480469 -2.472656 "/>
</g>
<g id="glyph-0-10">
<path d="M 0.441406 -3.765625 C 0.441406 -4.667969 0.535156 -5.394531 0.722656 -5.945312 C 0.90625 -6.496094 1.183594 -6.921875 1.550781 -7.21875 C 1.917969 -7.515625 2.375 -7.667969 2.933594 -7.667969 C 3.34375 -7.667969 3.703125 -7.585938 4.011719 -7.417969 C 4.320312 -7.253906 4.574219 -7.015625 4.777344 -6.707031 C 4.976562 -6.394531 5.136719 -6.015625 5.25 -5.570312 C 5.363281 -5.125 5.421875 -4.523438 5.421875 -3.765625 C 5.421875 -2.871094 5.328125 -2.148438 5.144531 -1.597656 C 4.960938 -1.046875 4.6875 -0.621094 4.320312 -0.320312 C 3.953125 -0.0195312 3.492188 0.128906 2.933594 0.128906 C 2.195312 0.128906 1.617188 -0.132812 1.199219 -0.660156 C 0.695312 -1.296875 0.441406 -2.332031 0.441406 -3.765625 Z M 1.40625 -3.765625 C 1.40625 -2.511719 1.554688 -1.679688 1.847656 -1.261719 C 2.140625 -0.847656 2.5 -0.640625 2.933594 -0.640625 C 3.363281 -0.640625 3.726562 -0.847656 4.019531 -1.265625 C 4.3125 -1.683594 4.457031 -2.515625 4.457031 -3.765625 C 4.457031 -5.023438 4.3125 -5.859375 4.019531 -6.269531 C 3.726562 -6.683594 3.359375 -6.890625 2.921875 -6.890625 C 2.492188 -6.890625 2.148438 -6.707031 1.890625 -6.34375 C 1.566406 -5.878906 1.40625 -5.019531 1.40625 -3.765625 Z M 1.40625 -3.765625 "/>
</g>
<g id="glyph-0-11">
<path d="M 0.503906 -6.636719 L 0.503906 -7.535156 L 5.449219 -7.535156 L 5.449219 -6.808594 C 4.960938 -6.289062 4.480469 -5.601562 4.003906 -4.746094 C 3.527344 -3.886719 3.15625 -3.003906 2.894531 -2.097656 C 2.707031 -1.460938 2.589844 -0.761719 2.535156 0 L 1.574219 0 C 1.582031 -0.601562 1.703125 -1.328125 1.925781 -2.175781 C 2.152344 -3.027344 2.476562 -3.847656 2.898438 -4.636719 C 3.320312 -5.425781 3.769531 -6.09375 4.246094 -6.636719 Z M 0.503906 -6.636719 "/>
</g>
<g id="glyph-0-12">
<path d="M 0.722656 2.121094 L 0.722656 -7.636719 L 2.792969 -7.636719 L 2.792969 -6.859375 L 1.660156 -6.859375 L 1.660156 1.34375 L 2.792969 1.34375 L 2.792969 2.121094 Z M 0.722656 2.121094 "/>
</g>
<g id="glyph-0-13">
<path d="M 6.269531 -2.675781 L 7.28125 -2.421875 C 7.070312 -1.59375 6.6875 -0.960938 6.136719 -0.523438 C 5.585938 -0.0859375 4.914062 0.128906 4.121094 0.128906 C 3.296875 0.128906 2.628906 -0.0390625 2.113281 -0.371094 C 1.597656 -0.707031 1.203125 -1.191406 0.933594 -1.828125 C 0.664062 -2.464844 0.53125 -3.144531 0.53125 -3.875 C 0.53125 -4.671875 0.683594 -5.363281 0.988281 -5.957031 C 1.292969 -6.546875 1.722656 -6.996094 2.285156 -7.304688 C 2.84375 -7.613281 3.460938 -7.765625 4.136719 -7.765625 C 4.898438 -7.765625 5.542969 -7.570312 6.0625 -7.183594 C 6.582031 -6.792969 6.945312 -6.246094 7.152344 -5.542969 L 6.15625 -5.308594 C 5.980469 -5.863281 5.722656 -6.265625 5.386719 -6.519531 C 5.050781 -6.773438 4.625 -6.902344 4.113281 -6.902344 C 3.527344 -6.902344 3.039062 -6.761719 2.644531 -6.480469 C 2.25 -6.199219 1.972656 -5.820312 1.8125 -5.347656 C 1.652344 -4.871094 1.574219 -4.382812 1.574219 -3.878906 C 1.574219 -3.230469 1.667969 -2.664062 1.855469 -2.179688 C 2.046875 -1.695312 2.339844 -1.332031 2.738281 -1.09375 C 3.136719 -0.855469 3.570312 -0.734375 4.035156 -0.734375 C 4.601562 -0.734375 5.082031 -0.898438 5.472656 -1.222656 C 5.867188 -1.550781 6.132812 -2.035156 6.269531 -2.675781 Z M 6.269531 -2.675781 "/>
</g>
<g id="glyph-0-14">
<path d="M 0.949219 -4.464844 L 0.949219 -5.53125 L 2.015625 -5.53125 L 2.015625 -4.464844 Z M 0.949219 0 L 0.949219 -1.066406 L 2.015625 -1.066406 L 2.015625 0 C 2.015625 0.390625 1.945312 0.710938 1.808594 0.949219 C 1.667969 1.191406 1.449219 1.378906 1.144531 1.511719 L 0.886719 1.109375 C 1.082031 1.023438 1.230469 0.894531 1.324219 0.726562 C 1.417969 0.558594 1.46875 0.316406 1.480469 0 Z M 0.949219 0 "/>
</g>
<g id="glyph-0-15">
<path d="M 6.046875 -0.847656 C 5.820312 -0.589844 5.570312 -0.378906 5.289062 -0.222656 C 5.007812 -0.0625 4.730469 0.015625 4.449219 0.015625 C 4.140625 0.015625 3.839844 -0.0742188 3.546875 -0.253906 C 3.253906 -0.433594 3.019531 -0.714844 2.835938 -1.089844 C 2.652344 -1.464844 2.5625 -1.875 2.5625 -2.324219 C 2.5625 -2.875 2.703125 -3.429688 2.988281 -3.980469 C 3.269531 -4.535156 3.621094 -4.953125 4.042969 -5.230469 C 4.460938 -5.507812 4.871094 -5.644531 5.265625 -5.644531 C 5.566406 -5.644531 5.855469 -5.566406 6.128906 -5.410156 C 6.402344 -5.25 6.640625 -5.011719 6.839844 -4.6875 L 7.015625 -5.496094 L 7.949219 -5.496094 L 7.199219 -2 C 7.09375 -1.515625 7.042969 -1.246094 7.042969 -1.191406 C 7.042969 -1.097656 7.078125 -1.019531 7.148438 -0.949219 C 7.21875 -0.882812 7.304688 -0.847656 7.40625 -0.847656 C 7.589844 -0.847656 7.832031 -0.953125 8.128906 -1.167969 C 8.527344 -1.445312 8.839844 -1.816406 9.070312 -2.285156 C 9.300781 -2.75 9.417969 -3.234375 9.417969 -3.730469 C 9.417969 -4.308594 9.269531 -4.851562 8.972656 -5.355469 C 8.675781 -5.859375 8.230469 -6.261719 7.644531 -6.5625 C 7.054688 -6.863281 6.40625 -7.015625 5.691406 -7.015625 C 4.878906 -7.015625 4.136719 -6.824219 3.464844 -6.445312 C 2.792969 -6.066406 2.273438 -5.519531 1.902344 -4.808594 C 1.535156 -4.097656 1.347656 -3.339844 1.347656 -2.527344 C 1.347656 -1.675781 1.535156 -0.941406 1.902344 -0.328125 C 2.273438 0.285156 2.808594 0.742188 3.507812 1.035156 C 4.207031 1.328125 4.984375 1.472656 5.832031 1.472656 C 6.742188 1.472656 7.503906 1.320312 8.121094 1.015625 C 8.734375 0.710938 9.195312 0.339844 9.5 -0.0976562 L 10.441406 -0.0976562 C 10.265625 0.265625 9.960938 0.636719 9.53125 1.015625 C 9.101562 1.394531 8.589844 1.695312 7.996094 1.914062 C 7.402344 2.132812 6.6875 2.246094 5.847656 2.246094 C 5.078125 2.246094 4.367188 2.144531 3.714844 1.949219 C 3.066406 1.75 2.511719 1.453125 2.050781 1.054688 C 1.59375 0.65625 1.25 0.199219 1.015625 -0.316406 C 0.722656 -0.972656 0.578125 -1.683594 0.578125 -2.441406 C 0.578125 -3.289062 0.75 -4.097656 1.097656 -4.863281 C 1.523438 -5.804688 2.125 -6.527344 2.902344 -7.027344 C 3.683594 -7.527344 4.628906 -7.777344 5.738281 -7.777344 C 6.601562 -7.777344 7.375 -7.601562 8.058594 -7.246094 C 8.746094 -6.894531 9.285156 -6.371094 9.683594 -5.671875 C 10.019531 -5.070312 10.1875 -4.417969 10.1875 -3.714844 C 10.1875 -2.707031 9.832031 -1.8125 9.125 -1.03125 C 8.492188 -0.328125 7.800781 0.0195312 7.050781 0.0195312 C 6.8125 0.0195312 6.617188 -0.015625 6.472656 -0.0898438 C 6.324219 -0.160156 6.214844 -0.265625 6.144531 -0.402344 C 6.101562 -0.488281 6.066406 -0.636719 6.046875 -0.847656 Z M 3.527344 -2.261719 C 3.527344 -1.785156 3.640625 -1.414062 3.863281 -1.152344 C 4.089844 -0.886719 4.347656 -0.753906 4.640625 -0.753906 C 4.835938 -0.753906 5.039062 -0.8125 5.253906 -0.929688 C 5.46875 -1.046875 5.675781 -1.21875 5.871094 -1.449219 C 6.066406 -1.675781 6.230469 -1.96875 6.355469 -2.320312 C 6.480469 -2.671875 6.542969 -3.027344 6.542969 -3.378906 C 6.542969 -3.851562 6.425781 -4.21875 6.191406 -4.480469 C 5.957031 -4.738281 5.671875 -4.871094 5.332031 -4.871094 C 5.109375 -4.871094 4.902344 -4.8125 4.707031 -4.699219 C 4.511719 -4.585938 4.320312 -4.40625 4.136719 -4.15625 C 3.953125 -3.90625 3.804688 -3.601562 3.691406 -3.246094 C 3.582031 -2.886719 3.527344 -2.558594 3.527344 -2.261719 Z M 3.527344 -2.261719 "/>
</g>
<g id="glyph-0-16">
<path d="M 2.269531 2.121094 L 0.203125 2.121094 L 0.203125 1.34375 L 1.332031 1.34375 L 1.332031 -6.859375 L 0.203125 -6.859375 L 0.203125 -7.636719 L 2.269531 -7.636719 Z M 2.269531 2.121094 "/>
</g>
<g id="glyph-0-17">
<path d="M 1.886719 -4.140625 C 1.496094 -4.28125 1.207031 -4.484375 1.019531 -4.75 C 0.832031 -5.015625 0.738281 -5.328125 0.738281 -5.699219 C 0.738281 -6.253906 0.9375 -6.71875 1.339844 -7.097656 C 1.738281 -7.476562 2.269531 -7.667969 2.933594 -7.667969 C 3.597656 -7.667969 4.136719 -7.472656 4.542969 -7.085938 C 4.949219 -6.699219 5.152344 -6.226562 5.152344 -5.671875 C 5.152344 -5.316406 5.058594 -5.007812 4.871094 -4.746094 C 4.6875 -4.484375 4.40625 -4.28125 4.027344 -4.140625 C 4.496094 -3.988281 4.851562 -3.742188 5.097656 -3.402344 C 5.339844 -3.0625 5.464844 -2.65625 5.464844 -2.183594 C 5.464844 -1.53125 5.234375 -0.980469 4.769531 -0.535156 C 4.308594 -0.0898438 3.703125 0.128906 2.949219 0.128906 C 2.195312 0.128906 1.585938 -0.09375 1.125 -0.539062 C 0.664062 -0.984375 0.433594 -1.542969 0.433594 -2.207031 C 0.433594 -2.703125 0.558594 -3.121094 0.808594 -3.457031 C 1.0625 -3.792969 1.421875 -4.019531 1.886719 -4.140625 Z M 1.699219 -5.730469 C 1.699219 -5.367188 1.8125 -5.074219 2.046875 -4.84375 C 2.28125 -4.613281 2.582031 -4.5 2.953125 -4.5 C 3.3125 -4.5 3.609375 -4.613281 3.839844 -4.839844 C 4.070312 -5.066406 4.1875 -5.347656 4.1875 -5.675781 C 4.1875 -6.019531 4.070312 -6.308594 3.832031 -6.542969 C 3.59375 -6.777344 3.296875 -6.894531 2.941406 -6.894531 C 2.585938 -6.894531 2.289062 -6.78125 2.050781 -6.550781 C 1.816406 -6.324219 1.699219 -6.046875 1.699219 -5.730469 Z M 1.394531 -2.203125 C 1.394531 -1.9375 1.460938 -1.675781 1.585938 -1.425781 C 1.710938 -1.175781 1.902344 -0.984375 2.152344 -0.847656 C 2.402344 -0.710938 2.671875 -0.640625 2.957031 -0.640625 C 3.40625 -0.640625 3.777344 -0.785156 4.066406 -1.074219 C 4.359375 -1.363281 4.503906 -1.726562 4.503906 -2.171875 C 4.503906 -2.625 4.355469 -2.996094 4.054688 -3.292969 C 3.753906 -3.585938 3.378906 -3.734375 2.925781 -3.734375 C 2.484375 -3.734375 2.121094 -3.589844 1.832031 -3.296875 C 1.542969 -3.003906 1.394531 -2.640625 1.394531 -2.203125 Z M 1.394531 -2.203125 "/>
</g>
<g id="glyph-1-0">
<path d="M 2 0 L 2 -10 L 10 -10 L 10 0 Z M 2.25 -0.25 L 9.75 -0.25 L 9.75 -9.75 L 2.25 -9.75 Z M 2.25 -0.25 "/>
</g>
<g id="glyph-1-1">
<path d="M 1.28125 0 L 1.28125 -11.453125 L 2.796875 -11.453125 L 2.796875 -6.75 L 8.75 -6.75 L 8.75 -11.453125 L 10.265625 -11.453125 L 10.265625 0 L 8.75 0 L 8.75 -5.398438 L 2.796875 -5.398438 L 2.796875 0 Z M 1.28125 0 "/>
</g>
</g>
</defs>
<path fill="none" stroke-width="0.0333333" stroke-linecap="butt" stroke-linejoin="miter" stroke="rgb(0%, 0%, 0%)" stroke-opacity="1" stroke-miterlimit="10" d="M 2.126952 4.78457 L 1.802538 4.397949 " transform="matrix(40, 0, 0, 40, 21.13675, 14.886717)"/>
<path fill="none" stroke-width="0.0333333" stroke-linecap="butt" stroke-linejoin="miter" stroke="rgb(0%, 0%, 0%)" stroke-opacity="1" stroke-miterlimit="10" d="M 1.999218 4.891699 L 1.674902 4.505078 " transform="matrix(40, 0, 0, 40, 21.13675, 14.886717)"/>
<path fill="none" stroke-width="0.0333333" stroke-linecap="butt" stroke-linejoin="miter" stroke="rgb(0%, 0%, 0%)" stroke-opacity="1" stroke-miterlimit="10" d="M 1.08662 4.414453 L 0.825097 4.460547 " transform="matrix(40, 0, 0, 40, 21.13675, 14.886717)"/>
<path fill="none" stroke-width="0.0333333" stroke-linecap="butt" stroke-linejoin="miter" stroke="rgb(0%, 0%, 0%)" stroke-opacity="1" stroke-miterlimit="10" d="M 0.435546 4.245703 L 0.199023 3.963867 " transform="matrix(40, 0, 0, 40, 21.13675, 14.886717)"/>
<path fill="none" stroke-width="0.0333333" stroke-linecap="butt" stroke-linejoin="miter" stroke="rgb(0%, 0%, 0%)" stroke-opacity="1" stroke-miterlimit="10" d="M 1.517577 4.621289 L 1.381542 4.995215 " transform="matrix(40, 0, 0, 40, 21.13675, 14.886717)"/>
<path fill="none" stroke-width="0.0333333" stroke-linecap="butt" stroke-linejoin="miter" stroke="rgb(0%, 0%, 0%)" stroke-opacity="1" stroke-miterlimit="10" d="M 0.743945 5.354297 L 0.539452 5.390332 " transform="matrix(40, 0, 0, 40, 21.13675, 14.886717)"/>
<path fill="none" stroke-width="0.0333333" stroke-linecap="butt" stroke-linejoin="miter" stroke="rgb(0%, 0%, 0%)" stroke-opacity="1" stroke-miterlimit="10" d="M 1.773046 4.293457 L 2.070702 4.240918 " transform="matrix(40, 0, 0, 40, 21.13675, 14.886717)"/>
<path fill="none" stroke-width="0.0333333" stroke-linecap="butt" stroke-linejoin="miter" stroke="rgb(0%, 0%, 0%)" stroke-opacity="1" stroke-miterlimit="10" d="M 2.7083 3.881836 L 2.843261 3.511231 " transform="matrix(40, 0, 0, 40, 21.13675, 14.886717)"/>
<path fill="none" stroke-width="0.0333333" stroke-linecap="butt" stroke-linejoin="miter" stroke="rgb(0%, 0%, 0%)" stroke-opacity="1" stroke-miterlimit="10" d="M 3.033495 3.719434 L 2.563671 3.548438 " transform="matrix(40, 0, 0, 40, 21.13675, 14.886717)"/>
<path fill="none" stroke-width="0.0333333" stroke-linecap="butt" stroke-linejoin="miter" stroke="rgb(0%, 0%, 0%)" stroke-opacity="1" stroke-miterlimit="10" d="M 2.98789 3.844727 L 2.518066 3.673731 " transform="matrix(40, 0, 0, 40, 21.13675, 14.886717)"/>
<path fill="none" stroke-width="0.0333333" stroke-linecap="butt" stroke-linejoin="miter" stroke="rgb(0%, 0%, 0%)" stroke-opacity="1" stroke-miterlimit="10" d="M 2.431054 3.113477 L 2.2083 3.074219 " transform="matrix(40, 0, 0, 40, 21.13675, 14.886717)"/>
<path fill="none" stroke-width="0.0333333" stroke-linecap="butt" stroke-linejoin="miter" stroke="rgb(0%, 0%, 0%)" stroke-opacity="1" stroke-miterlimit="10" d="M 3.372558 3.447168 L 3.516894 3.530469 " transform="matrix(40, 0, 0, 40, 21.13675, 14.886717)"/>
<path fill="none" stroke-width="0.0333333" stroke-linecap="butt" stroke-linejoin="miter" stroke="rgb(0%, 0%, 0%)" stroke-opacity="1" stroke-miterlimit="10" d="M 4.027538 3.586231 L 4.226171 3.471484 " transform="matrix(40, 0, 0, 40, 21.13675, 14.886717)"/>
<path fill="none" stroke-width="0.0333333" stroke-linecap="butt" stroke-linejoin="miter" stroke="rgb(0%, 0%, 0%)" stroke-opacity="1" stroke-miterlimit="10" d="M 4.774804 3.448438 L 4.924316 3.85918 " transform="matrix(40, 0, 0, 40, 21.13675, 14.886717)"/>
<path fill="none" stroke-width="0.0333333" stroke-linecap="butt" stroke-linejoin="miter" stroke="rgb(0%, 0%, 0%)" stroke-opacity="1" stroke-miterlimit="10" d="M 5.192968 4.174414 L 5.471581 4.223535 " transform="matrix(40, 0, 0, 40, 21.13675, 14.886717)"/>
<path fill="none" stroke-width="0.0333333" stroke-linecap="butt" stroke-linejoin="miter" stroke="rgb(0%, 0%, 0%)" stroke-opacity="1" stroke-miterlimit="10" d="M 6.077538 4.495606 L 6.254394 4.981445 " transform="matrix(40, 0, 0, 40, 21.13675, 14.886717)"/>
<path fill="none" stroke-width="0.0333333" stroke-linecap="butt" stroke-linejoin="miter" stroke="rgb(0%, 0%, 0%)" stroke-opacity="1" stroke-miterlimit="10" d="M 4.934179 4.444434 L 4.815429 4.821289 " transform="matrix(40, 0, 0, 40, 21.13675, 14.886717)"/>
<path fill="none" stroke-width="0.0333333" stroke-linecap="butt" stroke-linejoin="miter" stroke="rgb(0%, 0%, 0%)" stroke-opacity="1" stroke-miterlimit="10" d="M 4.543652 4.397852 L 4.3958 4.474805 " transform="matrix(40, 0, 0, 40, 21.13675, 14.886717)"/>
<path fill="none" stroke-width="0.0333333" stroke-linecap="butt" stroke-linejoin="miter" stroke="rgb(0%, 0%, 0%)" stroke-opacity="1" stroke-miterlimit="10" d="M 4.939355 3.161133 L 5.124511 3.128516 " transform="matrix(40, 0, 0, 40, 21.13675, 14.886717)"/>
<path fill="none" stroke-width="0.0333333" stroke-linecap="butt" stroke-linejoin="miter" stroke="rgb(0%, 0%, 0%)" stroke-opacity="1" stroke-miterlimit="10" d="M 4.686523 2.947656 L 4.686523 2.418164 " transform="matrix(40, 0, 0, 40, 21.13675, 14.886717)"/>
<path fill="none" stroke-width="0.0333333" stroke-linecap="butt" stroke-linejoin="miter" stroke="rgb(0%, 0%, 0%)" stroke-opacity="1" stroke-miterlimit="10" d="M 4.939355 2.250293 L 5.128417 2.283691 " transform="matrix(40, 0, 0, 40, 21.13675, 14.886717)"/>
<path fill="none" stroke-width="0.0333333" stroke-linecap="butt" stroke-linejoin="miter" stroke="rgb(0%, 0%, 0%)" stroke-opacity="1" stroke-miterlimit="10" d="M 5.849413 2.16709 L 6.041308 1.938477 " transform="matrix(40, 0, 0, 40, 21.13675, 14.886717)"/>
<path fill="none" stroke-width="0.0333333" stroke-linecap="butt" stroke-linejoin="miter" stroke="rgb(0%, 0%, 0%)" stroke-opacity="1" stroke-miterlimit="10" d="M 4.790624 1.919531 L 4.916894 1.572656 " transform="matrix(40, 0, 0, 40, 21.13675, 14.886717)"/>
<path fill="none" stroke-width="0.0333333" stroke-linecap="butt" stroke-linejoin="miter" stroke="rgb(0%, 0%, 0%)" stroke-opacity="1" stroke-miterlimit="10" d="M 4.297167 1.980957 L 4.152831 1.897656 " transform="matrix(40, 0, 0, 40, 21.13675, 14.886717)"/>
<path fill="none" stroke-width="0.0333333" stroke-linecap="butt" stroke-linejoin="miter" stroke="rgb(0%, 0%, 0%)" stroke-opacity="1" stroke-miterlimit="10" d="M 3.613183 1.458691 L 3.336425 1.128906 " transform="matrix(40, 0, 0, 40, 21.13675, 14.886717)"/>
<path fill="none" stroke-width="0.0333333" stroke-linecap="butt" stroke-linejoin="miter" stroke="rgb(0%, 0%, 0%)" stroke-opacity="1" stroke-miterlimit="10" d="M 3.281835 0.653418 L 3.408105 0.306641 " transform="matrix(40, 0, 0, 40, 21.13675, 14.886717)"/>
<path fill="none" stroke-width="0.0333333" stroke-linecap="butt" stroke-linejoin="miter" stroke="rgb(0%, 0%, 0%)" stroke-opacity="1" stroke-miterlimit="10" d="M 4.077831 1.399023 L 4.190429 1.264746 " transform="matrix(40, 0, 0, 40, 21.13675, 14.886717)"/>
<path fill="none" stroke-width="0.0333333" stroke-linecap="butt" stroke-linejoin="miter" stroke="rgb(0%, 0%, 0%)" stroke-opacity="1" stroke-miterlimit="10" d="M 3.470019 1.908106 L 3.325683 1.991406 " transform="matrix(40, 0, 0, 40, 21.13675, 14.886717)"/>
<path fill="none" stroke-width="0.0333333" stroke-linecap="butt" stroke-linejoin="miter" stroke="rgb(0%, 0%, 0%)" stroke-opacity="1" stroke-miterlimit="10" d="M 2.954394 2.418164 L 2.954394 2.947656 " transform="matrix(40, 0, 0, 40, 21.13675, 14.886717)"/>
<path fill="none" stroke-width="0.0333333" stroke-linecap="butt" stroke-linejoin="miter" stroke="rgb(0%, 0%, 0%)" stroke-opacity="1" stroke-miterlimit="10" d="M 2.391503 2.304981 L 2.151952 2.347266 " transform="matrix(40, 0, 0, 40, 21.13675, 14.886717)"/>
<path fill="none" stroke-width="0.0333333" stroke-linecap="butt" stroke-linejoin="miter" stroke="rgb(0%, 0%, 0%)" stroke-opacity="1" stroke-miterlimit="10" d="M 1.762304 2.132324 L 1.52578 1.850488 " transform="matrix(40, 0, 0, 40, 21.13675, 14.886717)"/>
<path fill="none" stroke-width="0.0333333" stroke-linecap="butt" stroke-linejoin="miter" stroke="rgb(0%, 0%, 0%)" stroke-opacity="1" stroke-miterlimit="10" d="M 2.850195 1.919531 L 2.713378 1.543359 " transform="matrix(40, 0, 0, 40, 21.13675, 14.886717)"/>
<g fill="rgb(0%, 0%, 0%)" fill-opacity="1">
<use xlink:href="#glyph-0-1" x="106.375" y="220.140625"/>
</g>
<g fill="rgb(0%, 0%, 0%)" fill-opacity="1">
<use xlink:href="#glyph-0-2" x="94.175781" y="224.773438"/>
<use xlink:href="#glyph-0-3" x="100.108074" y="224.773438"/>
</g>
<g fill="rgb(0%, 0%, 0%)" fill-opacity="1">
<use xlink:href="#glyph-0-4" x="80.355469" y="189.363281"/>
</g>
<g fill="rgb(0%, 0%, 0%)" fill-opacity="1">
<use xlink:href="#glyph-0-2" x="68.496094" y="194.128906"/>
<use xlink:href="#glyph-0-5" x="74.428386" y="194.128906"/>
</g>
<g fill="rgb(0%, 0%, 0%)" fill-opacity="1">
<use xlink:href="#glyph-0-1" x="41.269531" y="196.445312"/>
</g>
<g fill="rgb(0%, 0%, 0%)" fill-opacity="1">
<use xlink:href="#glyph-0-2" x="29.011719" y="201.078125"/>
<use xlink:href="#glyph-0-6" x="34.944011" y="201.078125"/>
</g>
<g fill="rgb(0%, 0%, 0%)" fill-opacity="1">
<use xlink:href="#glyph-1-1" x="15.363281" y="169.679688"/>
</g>
<g fill="rgb(0%, 0%, 0%)" fill-opacity="1">
<use xlink:href="#glyph-0-7" x="3.917969" y="170.472656"/>
<use xlink:href="#glyph-0-8" x="9.850261" y="170.472656"/>
</g>
<g fill="rgb(0%, 0%, 0%)" fill-opacity="1">
<use xlink:href="#glyph-0-1" x="66.984375" y="227.085938"/>
</g>
<g fill="rgb(0%, 0%, 0%)" fill-opacity="1">
<use xlink:href="#glyph-0-2" x="54.789063" y="231.71875"/>
<use xlink:href="#glyph-0-9" x="60.721355" y="231.71875"/>
</g>
<g fill="rgb(0%, 0%, 0%)" fill-opacity="1">
<use xlink:href="#glyph-1-1" x="27.394531" y="237.910156"/>
</g>
<g fill="rgb(0%, 0%, 0%)" fill-opacity="1">
<use xlink:href="#glyph-0-3" x="15.988281" y="238.703125"/>
<use xlink:href="#glyph-0-10" x="21.920574" y="238.703125"/>
</g>
<g fill="rgb(0%, 0%, 0%)" fill-opacity="1">
<use xlink:href="#glyph-0-1" x="120.054688" y="182.550781"/>
</g>
<g fill="rgb(0%, 0%, 0%)" fill-opacity="1">
<use xlink:href="#glyph-0-2" x="107.855469" y="187.183594"/>
<use xlink:href="#glyph-0-11" x="113.787761" y="187.183594"/>
</g>
<g fill="rgb(0%, 0%, 0%)" fill-opacity="1">
<use xlink:href="#glyph-0-12" x="133.527344" y="144.96875"/>
<use xlink:href="#glyph-0-13" x="136.490886" y="144.96875"/>
<use xlink:href="#glyph-0-14" x="144.194012" y="144.96875"/>
<use xlink:href="#glyph-0-15" x="147.157554" y="144.96875"/>
<use xlink:href="#glyph-0-16" x="157.985681" y="144.96875"/>
</g>
<g fill="rgb(0%, 0%, 0%)" fill-opacity="1">
<use xlink:href="#glyph-0-2" x="121.519531" y="149.597656"/>
<use xlink:href="#glyph-0-17" x="127.451824" y="149.597656"/>
</g>
<g fill="rgb(0%, 0%, 0%)" fill-opacity="1">
<use xlink:href="#glyph-1-1" x="94.148438" y="141.898438"/>
</g>
<g fill="rgb(0%, 0%, 0%)" fill-opacity="1">
<use xlink:href="#glyph-0-3" x="84.1875" y="142.691406"/>
<use xlink:href="#glyph-0-2" x="90.119793" y="142.691406"/>
</g>
<g fill="rgb(0%, 0%, 0%)" fill-opacity="1">
<use xlink:href="#glyph-0-1" x="168.378906" y="164.964844"/>
</g>
<g fill="rgb(0%, 0%, 0%)" fill-opacity="1">
<use xlink:href="#glyph-0-2" x="156.160156" y="169.597656"/>
<use xlink:href="#glyph-0-8" x="162.092449" y="169.597656"/>
</g>
<g fill="rgb(0%, 0%, 0%)" fill-opacity="1">
<use xlink:href="#glyph-0-12" x="176.097656" y="144.96875"/>
<use xlink:href="#glyph-0-13" x="179.061198" y="144.96875"/>
<use xlink:href="#glyph-0-14" x="186.764325" y="144.96875"/>
<use xlink:href="#glyph-0-15" x="189.727867" y="144.96875"/>
<use xlink:href="#glyph-0-15" x="200.555994" y="144.96875"/>
<use xlink:href="#glyph-0-16" x="211.38412" y="144.96875"/>
</g>
<g fill="rgb(0%, 0%, 0%)" fill-opacity="1">
<use xlink:href="#glyph-0-7" x="164.136719" y="149.597656"/>
<use xlink:href="#glyph-0-10" x="170.069011" y="149.597656"/>
</g>
<g fill="rgb(0%, 0%, 0%)" fill-opacity="1">
<use xlink:href="#glyph-0-13" x="216.683594" y="182.546875"/>
</g>
<g fill="rgb(0%, 0%, 0%)" fill-opacity="1">
<use xlink:href="#glyph-0-7" x="205.976562" y="187.183594"/>
<use xlink:href="#glyph-0-2" x="211.908855" y="187.183594"/>
</g>
<g fill="rgb(0%, 0%, 0%)" fill-opacity="1">
<use xlink:href="#glyph-0-1" x="256.089844" y="189.5"/>
</g>
<g fill="rgb(0%, 0%, 0%)" fill-opacity="1">
<use xlink:href="#glyph-0-7" x="243.972656" y="194.128906"/>
<use xlink:href="#glyph-0-7" x="249.904949" y="194.128906"/>
</g>
<g fill="rgb(0%, 0%, 0%)" fill-opacity="1">
<use xlink:href="#glyph-1-1" x="269.578125" y="230.964844"/>
</g>
<g fill="rgb(0%, 0%, 0%)" fill-opacity="1">
<use xlink:href="#glyph-0-3" x="258.222656" y="231.757812"/>
<use xlink:href="#glyph-0-7" x="264.154949" y="231.757812"/>
</g>
<g fill="rgb(0%, 0%, 0%)" fill-opacity="1">
<use xlink:href="#glyph-1-1" x="204.476562" y="224.582031"/>
</g>
<g fill="rgb(0%, 0%, 0%)" fill-opacity="1">
<use xlink:href="#glyph-0-3" x="193.042969" y="225.371094"/>
<use xlink:href="#glyph-0-3" x="198.975261" y="225.371094"/>
</g>
<g fill="rgb(0%, 0%, 0%)" fill-opacity="1">
<use xlink:href="#glyph-1-1" x="181.023438" y="204.902344"/>
</g>
<g fill="rgb(0%, 0%, 0%)" fill-opacity="1">
<use xlink:href="#glyph-0-3" x="169.621094" y="205.695313"/>
<use xlink:href="#glyph-0-5" x="175.553386" y="205.695313"/>
</g>
<g fill="rgb(0%, 0%, 0%)" fill-opacity="1">
<use xlink:href="#glyph-1-1" x="242.214844" y="141.898438"/>
</g>
<g fill="rgb(0%, 0%, 0%)" fill-opacity="1">
<use xlink:href="#glyph-0-3" x="230.726562" y="142.691406"/>
<use xlink:href="#glyph-0-6" x="236.658855" y="142.691406"/>
</g>
<g fill="rgb(0%, 0%, 0%)" fill-opacity="1">
<use xlink:href="#glyph-0-12" x="186.925781" y="104.96875"/>
<use xlink:href="#glyph-0-13" x="189.889323" y="104.96875"/>
<use xlink:href="#glyph-0-14" x="197.59245" y="104.96875"/>
<use xlink:href="#glyph-0-15" x="200.555992" y="104.96875"/>
<use xlink:href="#glyph-0-16" x="211.384119" y="104.96875"/>
</g>
<g fill="rgb(0%, 0%, 0%)" fill-opacity="1">
<use xlink:href="#glyph-0-7" x="174.941406" y="109.597656"/>
<use xlink:href="#glyph-0-3" x="180.873699" y="109.597656"/>
</g>
<g fill="rgb(0%, 0%, 0%)" fill-opacity="1">
<use xlink:href="#glyph-0-1" x="242.410156" y="111.910156"/>
</g>
<g fill="rgb(0%, 0%, 0%)" fill-opacity="1">
<use xlink:href="#glyph-0-7" x="230.246094" y="116.542969"/>
<use xlink:href="#glyph-0-5" x="236.178386" y="116.542969"/>
</g>
<g fill="rgb(0%, 0%, 0%)" fill-opacity="1">
<use xlink:href="#glyph-1-1" x="267.925781" y="85.148438"/>
</g>
<g fill="rgb(0%, 0%, 0%)" fill-opacity="1">
<use xlink:href="#glyph-0-3" x="256.5" y="85.941406"/>
<use xlink:href="#glyph-0-9" x="262.432293" y="85.941406"/>
</g>
<g fill="rgb(0%, 0%, 0%)" fill-opacity="1">
<use xlink:href="#glyph-1-1" x="216.503906" y="71.257812"/>
</g>
<g fill="rgb(0%, 0%, 0%)" fill-opacity="1">
<use xlink:href="#glyph-0-3" x="205.070312" y="72.046875"/>
<use xlink:href="#glyph-0-11" x="211.002605" y="72.046875"/>
</g>
<g fill="rgb(0%, 0%, 0%)" fill-opacity="1">
<use xlink:href="#glyph-0-12" x="168.167969" y="84.96875"/>
<use xlink:href="#glyph-0-13" x="171.131511" y="84.96875"/>
<use xlink:href="#glyph-0-14" x="178.834637" y="84.96875"/>
<use xlink:href="#glyph-0-15" x="181.798179" y="84.96875"/>
<use xlink:href="#glyph-0-15" x="192.626306" y="84.96875"/>
<use xlink:href="#glyph-0-16" x="203.454433" y="84.96875"/>
</g>
<g fill="rgb(0%, 0%, 0%)" fill-opacity="1">
<use xlink:href="#glyph-0-7" x="156.121094" y="89.597656"/>
<use xlink:href="#glyph-0-6" x="162.053386" y="89.597656"/>
</g>
<g fill="rgb(0%, 0%, 0%)" fill-opacity="1">
<use xlink:href="#glyph-0-1" x="145.488281" y="54.324219"/>
</g>
<g fill="rgb(0%, 0%, 0%)" fill-opacity="1">
<use xlink:href="#glyph-0-7" x="133.296875" y="58.957031"/>
<use xlink:href="#glyph-0-9" x="139.229168" y="58.957031"/>
</g>
<g fill="rgb(0%, 0%, 0%)" fill-opacity="1">
<use xlink:href="#glyph-1-1" x="156.152344" y="20.613281"/>
</g>
<g fill="rgb(0%, 0%, 0%)" fill-opacity="1">
<use xlink:href="#glyph-0-3" x="144.703125" y="21.40625"/>
<use xlink:href="#glyph-0-17" x="150.635418" y="21.40625"/>
</g>
<g fill="rgb(0%, 0%, 0%)" fill-opacity="1">
<use xlink:href="#glyph-1-1" x="193.894531" y="58.203125"/>
</g>
<g fill="rgb(0%, 0%, 0%)" fill-opacity="1">
<use xlink:href="#glyph-0-3" x="182.445312" y="58.996094"/>
<use xlink:href="#glyph-0-8" x="188.377605" y="58.996094"/>
</g>
<g fill="rgb(0%, 0%, 0%)" fill-opacity="1">
<use xlink:href="#glyph-0-12" x="133.527344" y="104.96875"/>
<use xlink:href="#glyph-0-13" x="136.490886" y="104.96875"/>
<use xlink:href="#glyph-0-14" x="144.194012" y="104.96875"/>
<use xlink:href="#glyph-0-15" x="147.157554" y="104.96875"/>
<use xlink:href="#glyph-0-16" x="157.985681" y="104.96875"/>
</g>
<g fill="rgb(0%, 0%, 0%)" fill-opacity="1">
<use xlink:href="#glyph-0-7" x="121.539062" y="109.597656"/>
<use xlink:href="#glyph-0-11" x="127.471355" y="109.597656"/>
</g>
<g fill="rgb(0%, 0%, 0%)" fill-opacity="1">
<use xlink:href="#glyph-0-1" x="94.34375" y="111.910156"/>
</g>
<g fill="rgb(0%, 0%, 0%)" fill-opacity="1">
<use xlink:href="#glyph-0-7" x="82.128906" y="116.542969"/>
<use xlink:href="#glyph-0-17" x="88.061199" y="116.542969"/>
</g>
<g fill="rgb(0%, 0%, 0%)" fill-opacity="1">
<use xlink:href="#glyph-1-1" x="68.4375" y="85.148438"/>
</g>
<g fill="rgb(0%, 0%, 0%)" fill-opacity="1">
<use xlink:href="#glyph-0-5" x="57.03125" y="85.941406"/>
<use xlink:href="#glyph-0-10" x="62.963543" y="85.941406"/>
</g>
<g fill="rgb(0%, 0%, 0%)" fill-opacity="1">
<use xlink:href="#glyph-1-1" x="119.859375" y="71.257812"/>
</g>
<g fill="rgb(0%, 0%, 0%)" fill-opacity="1">
<use xlink:href="#glyph-0-5" x="109.902344" y="72.046875"/>
<use xlink:href="#glyph-0-2" x="115.834636" y="72.046875"/>
</g>
<path fill="none" stroke-width="0.0625" stroke-linecap="butt" stroke-linejoin="miter" stroke="rgb(0%, 0%, 0%)" stroke-opacity="1" stroke-miterlimit="10" d="M -0.00000123978 0 L 0.499999 0 M 0.249999 -0.25 L 0.249999 0.25 " transform="matrix(40, 0, 0, 40, 297.574268, 124)"/>
<path fill="none" stroke-width="0.0333333" stroke-linecap="butt" stroke-linejoin="miter" stroke="rgb(0%, 0%, 0%)" stroke-opacity="1" stroke-miterlimit="10" d="M 1.499999 2.246826 L 1.499999 1.712451 " transform="matrix(40, 0, 0, 40, 352.070361, 57.529296)"/>
<path fill="none" stroke-width="0.0333333" stroke-linecap="butt" stroke-linejoin="miter" stroke="rgb(0%, 0%, 0%)" stroke-opacity="1" stroke-miterlimit="10" d="M 1.749999 1.912939 L 1.249999 1.912939 " transform="matrix(40, 0, 0, 40, 352.070361, 57.529296)"/>
<path fill="none" stroke-width="0.0333333" stroke-linecap="butt" stroke-linejoin="miter" stroke="rgb(0%, 0%, 0%)" stroke-opacity="1" stroke-miterlimit="10" d="M 1.749999 2.046338 L 1.249999 2.046338 " transform="matrix(40, 0, 0, 40, 352.070361, 57.529296)"/>
<path fill="none" stroke-width="0.0333333" stroke-linecap="butt" stroke-linejoin="miter" stroke="rgb(0%, 0%, 0%)" stroke-opacity="1" stroke-miterlimit="10" d="M 1.105077 1.499951 L 0.736522 1.499951 " transform="matrix(40, 0, 0, 40, 352.070361, 57.529296)"/>
<path fill="none" stroke-width="0.0333333" stroke-linecap="butt" stroke-linejoin="miter" stroke="rgb(0%, 0%, 0%)" stroke-opacity="1" stroke-miterlimit="10" d="M 0.244237 1.776318 L 0.0865222 2.049561 " transform="matrix(40, 0, 0, 40, 352.070361, 57.529296)"/>
<path fill="none" stroke-width="0.0333333" stroke-linecap="butt" stroke-linejoin="miter" stroke="rgb(0%, 0%, 0%)" stroke-opacity="1" stroke-miterlimit="10" d="M 0.388573 1.859619 L 0.230858 2.132861 " transform="matrix(40, 0, 0, 40, 352.070361, 57.529296)"/>
<path fill="none" stroke-width="0.0333333" stroke-linecap="butt" stroke-linejoin="miter" stroke="rgb(0%, 0%, 0%)" stroke-opacity="1" stroke-miterlimit="10" d="M 0.362401 1.26167 L 0.153026 0.898975 " transform="matrix(40, 0, 0, 40, 352.070361, 57.529296)"/>
<path fill="none" stroke-width="0.0333333" stroke-linecap="butt" stroke-linejoin="miter" stroke="rgb(0%, 0%, 0%)" stroke-opacity="1" stroke-miterlimit="10" d="M 1.499999 1.241943 L 1.499999 0.659522 " transform="matrix(40, 0, 0, 40, 352.070361, 57.529296)"/>
<path fill="none" stroke-width="0.0333333" stroke-linecap="butt" stroke-linejoin="miter" stroke="rgb(0%, 0%, 0%)" stroke-opacity="1" stroke-miterlimit="10" d="M 1.165917 0.30708 L 0.889159 0.147314 " transform="matrix(40, 0, 0, 40, 352.070361, 57.529296)"/>
<path fill="none" stroke-width="0.0333333" stroke-linecap="butt" stroke-linejoin="miter" stroke="rgb(0%, 0%, 0%)" stroke-opacity="1" stroke-miterlimit="10" d="M 2.079296 1.499951 L 2.245995 1.499951 " transform="matrix(40, 0, 0, 40, 352.070361, 57.529296)"/>
<path fill="none" stroke-width="0.0333333" stroke-linecap="butt" stroke-linejoin="miter" stroke="rgb(0%, 0%, 0%)" stroke-opacity="1" stroke-miterlimit="10" d="M 2.499999 1.712451 L 2.499999 2.241943 " transform="matrix(40, 0, 0, 40, 352.070361, 57.529296)"/>
<path fill="none" stroke-width="0.0333333" stroke-linecap="butt" stroke-linejoin="miter" stroke="rgb(0%, 0%, 0%)" stroke-opacity="1" stroke-miterlimit="10" d="M 2.152928 2.791162 L 1.968163 2.94624 " transform="matrix(40, 0, 0, 40, 352.070361, 57.529296)"/>
<path fill="none" stroke-width="0.0333333" stroke-linecap="butt" stroke-linejoin="miter" stroke="rgb(0%, 0%, 0%)" stroke-opacity="1" stroke-miterlimit="10" d="M 3.080663 1.499951 L 3.247362 1.499951 " transform="matrix(40, 0, 0, 40, 352.070361, 57.529296)"/>
<path fill="none" stroke-width="0.0333333" stroke-linecap="butt" stroke-linejoin="miter" stroke="rgb(0%, 0%, 0%)" stroke-opacity="1" stroke-miterlimit="10" d="M 3.499999 1.241943 L 3.499999 0.775342 " transform="matrix(40, 0, 0, 40, 352.070361, 57.529296)"/>
<path fill="none" stroke-width="0.0333333" stroke-linecap="butt" stroke-linejoin="miter" stroke="rgb(0%, 0%, 0%)" stroke-opacity="1" stroke-miterlimit="10" d="M 3.752245 0.354346 L 3.896581 0.271045 " transform="matrix(40, 0, 0, 40, 352.070361, 57.529296)"/>
<path fill="none" stroke-width="0.0333333" stroke-linecap="butt" stroke-linejoin="miter" stroke="rgb(0%, 0%, 0%)" stroke-opacity="1" stroke-miterlimit="10" d="M 4.006639 1.589307 L 4.1708 1.618311 " transform="matrix(40, 0, 0, 40, 352.070361, 57.529296)"/>
<path fill="none" stroke-width="0.0333333" stroke-linecap="butt" stroke-linejoin="miter" stroke="rgb(0%, 0%, 0%)" stroke-opacity="1" stroke-miterlimit="10" d="M 4.433397 1.965283 L 4.359569 2.384033 " transform="matrix(40, 0, 0, 40, 352.070361, 57.529296)"/>
<path fill="none" stroke-width="0.0333333" stroke-linecap="butt" stroke-linejoin="miter" stroke="rgb(0%, 0%, 0%)" stroke-opacity="1" stroke-miterlimit="10" d="M 4.507616 2.823291 L 4.842968 3.104736 " transform="matrix(40, 0, 0, 40, 352.070361, 57.529296)"/>
<path fill="none" stroke-width="0.0333333" stroke-linecap="butt" stroke-linejoin="miter" stroke="rgb(0%, 0%, 0%)" stroke-opacity="1" stroke-miterlimit="10" d="M 4.950878 1.755811 L 5.115038 1.784814 " transform="matrix(40, 0, 0, 40, 352.070361, 57.529296)"/>
<path fill="none" stroke-width="0.0333333" stroke-linecap="butt" stroke-linejoin="miter" stroke="rgb(0%, 0%, 0%)" stroke-opacity="1" stroke-miterlimit="10" d="M 5.532225 2.019287 L 5.715721 2.523389 " transform="matrix(40, 0, 0, 40, 352.070361, 57.529296)"/>
<path fill="none" stroke-width="0.0333333" stroke-linecap="butt" stroke-linejoin="miter" stroke="rgb(0%, 0%, 0%)" stroke-opacity="1" stroke-miterlimit="10" d="M 6.057909 2.83042 L 6.262694 2.866553 " transform="matrix(40, 0, 0, 40, 352.070361, 57.529296)"/>
<path fill="none" stroke-width="0.0333333" stroke-linecap="butt" stroke-linejoin="miter" stroke="rgb(0%, 0%, 0%)" stroke-opacity="1" stroke-miterlimit="10" d="M 5.552245 1.585107 L 5.675975 1.192822 " transform="matrix(40, 0, 0, 40, 352.070361, 57.529296)"/>
<path fill="none" stroke-width="0.0333333" stroke-linecap="butt" stroke-linejoin="miter" stroke="rgb(0%, 0%, 0%)" stroke-opacity="1" stroke-miterlimit="10" d="M 5.660448 1.747998 L 5.841503 1.65376 " transform="matrix(40, 0, 0, 40, 352.070361, 57.529296)"/>
<path fill="none" stroke-width="0.0333333" stroke-linecap="butt" stroke-linejoin="miter" stroke="rgb(0%, 0%, 0%)" stroke-opacity="1" stroke-miterlimit="10" d="M 4.533202 1.399268 L 4.606835 0.981494 " transform="matrix(40, 0, 0, 40, 352.070361, 57.529296)"/>
<path fill="none" stroke-width="0.0333333" stroke-linecap="butt" stroke-linejoin="miter" stroke="rgb(0%, 0%, 0%)" stroke-opacity="1" stroke-miterlimit="10" d="M 3.499999 1.712451 L 3.499999 2.246826 " transform="matrix(40, 0, 0, 40, 352.070361, 57.529296)"/>
<path fill="none" stroke-width="0.0333333" stroke-linecap="butt" stroke-linejoin="miter" stroke="rgb(0%, 0%, 0%)" stroke-opacity="1" stroke-miterlimit="10" d="M 2.499999 1.241943 L 2.499999 0.753174 " transform="matrix(40, 0, 0, 40, 352.070361, 57.529296)"/>
<g fill="rgb(0%, 0%, 0%)" fill-opacity="1">
<use xlink:href="#glyph-1-1" x="406.296875" y="163.257812"/>
</g>
<g fill="rgb(0%, 0%, 0%)" fill-opacity="1">
<use xlink:href="#glyph-0-12" x="406.28125" y="119.382812"/>
<use xlink:href="#glyph-0-13" x="409.244792" y="119.382812"/>
<use xlink:href="#glyph-0-14" x="416.947918" y="119.382812"/>
<use xlink:href="#glyph-0-15" x="419.911461" y="119.382812"/>
<use xlink:href="#glyph-0-15" x="430.739587" y="119.382812"/>
<use xlink:href="#glyph-0-16" x="441.567714" y="119.382812"/>
</g>
<g fill="rgb(0%, 0%, 0%)" fill-opacity="1">
<use xlink:href="#glyph-0-3" x="400.226562" y="124.011719"/>
</g>
<g fill="rgb(0%, 0%, 0%)" fill-opacity="1">
<use xlink:href="#glyph-0-13" x="369.851562" y="119.375"/>
</g>
<g fill="rgb(0%, 0%, 0%)" fill-opacity="1">
<use xlink:href="#glyph-0-7" x="363.679688" y="124.011719"/>
</g>
<g fill="rgb(0%, 0%, 0%)" fill-opacity="1">
<use xlink:href="#glyph-0-1" x="349.316406" y="154.019531"/>
</g>
<g fill="rgb(0%, 0%, 0%)" fill-opacity="1">
<use xlink:href="#glyph-0-2" x="344.523438" y="158.652344"/>
</g>
<g fill="rgb(0%, 0%, 0%)" fill-opacity="1">
<use xlink:href="#glyph-1-1" x="346.296875" y="88.617188"/>
</g>
<g fill="rgb(0%, 0%, 0%)" fill-opacity="1">
<use xlink:href="#glyph-0-6" x="334.863281" y="89.40625"/>
<use xlink:href="#glyph-0-3" x="340.795574" y="89.40625"/>
</g>
<g fill="rgb(0%, 0%, 0%)" fill-opacity="1">
<use xlink:href="#glyph-0-1" x="406.492188" y="79.378906"/>
</g>
<g fill="rgb(0%, 0%, 0%)" fill-opacity="1">
<use xlink:href="#glyph-0-5" x="400.257812" y="83.980469"/>
</g>
<g fill="rgb(0%, 0%, 0%)" fill-opacity="1">
<use xlink:href="#glyph-1-1" x="371.65625" y="63.257812"/>
</g>
<g fill="rgb(0%, 0%, 0%)" fill-opacity="1">
<use xlink:href="#glyph-0-5" x="360.300781" y="64.050781"/>
<use xlink:href="#glyph-0-7" x="366.233074" y="64.050781"/>
</g>
<g fill="rgb(0%, 0%, 0%)" fill-opacity="1">
<use xlink:href="#glyph-0-12" x="446.28125" y="119.382812"/>
<use xlink:href="#glyph-0-13" x="449.244792" y="119.382812"/>
<use xlink:href="#glyph-0-14" x="456.947918" y="119.382812"/>
<use xlink:href="#glyph-0-15" x="459.911461" y="119.382812"/>
<use xlink:href="#glyph-0-15" x="470.739587" y="119.382812"/>
<use xlink:href="#glyph-0-16" x="481.567714" y="119.382812"/>
</g>
<g fill="rgb(0%, 0%, 0%)" fill-opacity="1">
<use xlink:href="#glyph-0-6" x="440.167969" y="123.878906"/>
</g>
<g fill="rgb(0%, 0%, 0%)" fill-opacity="1">
<use xlink:href="#glyph-0-1" x="446.492188" y="159.378906"/>
</g>
<g fill="rgb(0%, 0%, 0%)" fill-opacity="1">
<use xlink:href="#glyph-0-9" x="440.230469" y="164.011719"/>
</g>
<g fill="rgb(0%, 0%, 0%)" fill-opacity="1">
<use xlink:href="#glyph-1-1" x="415.65625" y="188.96875"/>
</g>
<g fill="rgb(0%, 0%, 0%)" fill-opacity="1">
<use xlink:href="#glyph-0-5" x="404.222656" y="189.761719"/>
<use xlink:href="#glyph-0-3" x="410.154949" y="189.761719"/>
</g>
<g fill="rgb(0%, 0%, 0%)" fill-opacity="1">
<use xlink:href="#glyph-0-12" x="486.28125" y="119.382812"/>
<use xlink:href="#glyph-0-13" x="489.244792" y="119.382812"/>
<use xlink:href="#glyph-0-14" x="496.947918" y="119.382812"/>
<use xlink:href="#glyph-0-15" x="499.911461" y="119.382812"/>
<use xlink:href="#glyph-0-16" x="510.739587" y="119.382812"/>
</g>
<g fill="rgb(0%, 0%, 0%)" fill-opacity="1">
<use xlink:href="#glyph-0-11" x="480.226562" y="123.882812"/>
</g>
<g fill="rgb(0%, 0%, 0%)" fill-opacity="1">
<use xlink:href="#glyph-0-1" x="489.316406" y="79.378906"/>
</g>
<g fill="rgb(0%, 0%, 0%)" fill-opacity="1">
<use xlink:href="#glyph-0-17" x="483.035156" y="84.011719"/>
</g>
<g fill="rgb(0%, 0%, 0%)" fill-opacity="1">
<use xlink:href="#glyph-1-1" x="520.9375" y="63.257812"/>
</g>
<g fill="rgb(0%, 0%, 0%)" fill-opacity="1">
<use xlink:href="#glyph-0-5" x="509.535156" y="64.019531"/>
<use xlink:href="#glyph-0-5" x="515.467449" y="64.019531"/>
</g>
<g fill="rgb(0%, 0%, 0%)" fill-opacity="1">
<use xlink:href="#glyph-0-12" x="525.675781" y="126.328125"/>
<use xlink:href="#glyph-0-13" x="528.639323" y="126.328125"/>
<use xlink:href="#glyph-0-14" x="536.34245" y="126.328125"/>
<use xlink:href="#glyph-0-15" x="539.305992" y="126.328125"/>
<use xlink:href="#glyph-0-16" x="550.134119" y="126.328125"/>
</g>
<g fill="rgb(0%, 0%, 0%)" fill-opacity="1">
<use xlink:href="#glyph-0-8" x="519.601562" y="130.957031"/>
</g>
<g fill="rgb(0%, 0%, 0%)" fill-opacity="1">
<use xlink:href="#glyph-0-1" x="521.761719" y="165.714844"/>
</g>
<g fill="rgb(0%, 0%, 0%)" fill-opacity="1">
<use xlink:href="#glyph-0-2" x="509.589844" y="170.347656"/>
<use xlink:href="#glyph-0-10" x="515.522136" y="170.347656"/>
</g>
<g fill="rgb(0%, 0%, 0%)" fill-opacity="1">
<use xlink:href="#glyph-1-1" x="549.386719" y="195.308594"/>
</g>
<g fill="rgb(0%, 0%, 0%)" fill-opacity="1">
<use xlink:href="#glyph-0-5" x="537.894531" y="196.066406"/>
<use xlink:href="#glyph-0-6" x="543.826824" y="196.066406"/>
</g>
<g fill="rgb(0%, 0%, 0%)" fill-opacity="1">
<use xlink:href="#glyph-0-13" x="565.261719" y="133.265625"/>
</g>
<g fill="rgb(0%, 0%, 0%)" fill-opacity="1">
<use xlink:href="#glyph-0-2" x="554.550781" y="137.902344"/>
<use xlink:href="#glyph-0-2" x="560.483074" y="137.902344"/>
</g>
<g fill="rgb(0%, 0%, 0%)" fill-opacity="1">
<use xlink:href="#glyph-0-1" x="581.78125" y="170.859375"/>
</g>
<g fill="rgb(0%, 0%, 0%)" fill-opacity="1">
<use xlink:href="#glyph-0-2" x="569.660156" y="175.488281"/>
<use xlink:href="#glyph-0-7" x="575.592449" y="175.488281"/>
</g>
<g fill="rgb(0%, 0%, 0%)" fill-opacity="1">
<use xlink:href="#glyph-1-1" x="618.15625" y="181.683594"/>
</g>
<g fill="rgb(0%, 0%, 0%)" fill-opacity="1">
<use xlink:href="#glyph-0-5" x="606.726562" y="182.472656"/>
<use xlink:href="#glyph-0-9" x="612.658855" y="182.472656"/>
</g>
<g fill="rgb(0%, 0%, 0%)" fill-opacity="1">
<use xlink:href="#glyph-1-1" x="577.109375" y="99"/>
</g>
<g fill="rgb(0%, 0%, 0%)" fill-opacity="1">
<use xlink:href="#glyph-0-5" x="565.675781" y="99.761719"/>
<use xlink:href="#glyph-0-11" x="571.608074" y="99.761719"/>
</g>
<g fill="rgb(0%, 0%, 0%)" fill-opacity="1">
<use xlink:href="#glyph-1-1" x="600.5625" y="118.679688"/>
</g>
<g fill="rgb(0%, 0%, 0%)" fill-opacity="1">
<use xlink:href="#glyph-0-5" x="589.113281" y="119.472656"/>
<use xlink:href="#glyph-0-17" x="595.045574" y="119.472656"/>
</g>
<g fill="rgb(0%, 0%, 0%)" fill-opacity="1">
<use xlink:href="#glyph-1-1" x="532.636719" y="90.808594"/>
</g>
<g fill="rgb(0%, 0%, 0%)" fill-opacity="1">
<use xlink:href="#glyph-0-5" x="521.1875" y="91.601562"/>
<use xlink:href="#glyph-0-8" x="527.119793" y="91.601562"/>
</g>
<g fill="rgb(0%, 0%, 0%)" fill-opacity="1">
<use xlink:href="#glyph-1-1" x="486.296875" y="163.257812"/>
</g>
<g fill="rgb(0%, 0%, 0%)" fill-opacity="1">
<use xlink:href="#glyph-0-6" x="474.890625" y="164.050781"/>
<use xlink:href="#glyph-0-10" x="480.822918" y="164.050781"/>
</g>
<g fill="rgb(0%, 0%, 0%)" fill-opacity="1">
<use xlink:href="#glyph-1-1" x="446.296875" y="83.257812"/>
</g>
<g fill="rgb(0%, 0%, 0%)" fill-opacity="1">
<use xlink:href="#glyph-0-6" x="436.335938" y="84.050781"/>
<use xlink:href="#glyph-0-2" x="442.26823" y="84.050781"/>
</g>
<path fill-rule="nonzero" fill="rgb(0%, 0%, 0%)" fill-opacity="1" d="M 646.152344 125.25 L 696.152344 125.25 L 696.152344 129 L 706.152344 124 L 696.152344 119 L 696.152344 122.75 L 646.152344 122.75 "/>
<path fill="none" stroke-width="0.0333333" stroke-linecap="butt" stroke-linejoin="miter" stroke="rgb(0%, 0%, 0%)" stroke-opacity="1" stroke-miterlimit="10" d="M 0.153027 2.333105 L 0.319238 2.045215 " transform="matrix(40, 0, 0, 40, 728.378936, 71.57422)"/>
<path fill="none" stroke-width="0.0333333" stroke-linecap="butt" stroke-linejoin="miter" stroke="rgb(0%, 0%, 0%)" stroke-opacity="1" stroke-miterlimit="10" d="M 0.485937 2.256348 L 0.0529289 2.006348 " transform="matrix(40, 0, 0, 40, 728.378936, 71.57422)"/>
<path fill="none" stroke-width="0.0333333" stroke-linecap="butt" stroke-linejoin="miter" stroke="rgb(0%, 0%, 0%)" stroke-opacity="1" stroke-miterlimit="10" d="M 0.419238 2.371875 L -0.0137703 2.121875 " transform="matrix(40, 0, 0, 40, 728.378936, 71.57422)"/>
<path fill="none" stroke-width="0.0333333" stroke-linecap="butt" stroke-linejoin="miter" stroke="rgb(0%, 0%, 0%)" stroke-opacity="1" stroke-miterlimit="10" d="M 0.666015 1.732031 L 0.97539 1.732031 " transform="matrix(40, 0, 0, 40, 728.378936, 71.57422)"/>
<path fill="none" stroke-width="0.0333333" stroke-linecap="butt" stroke-linejoin="miter" stroke="rgb(0%, 0%, 0%)" stroke-opacity="1" stroke-miterlimit="10" d="M 1.514062 1.923145 L 1.76914 2.364941 " transform="matrix(40, 0, 0, 40, 728.378936, 71.57422)"/>
<path fill="none" stroke-width="0.0333333" stroke-linecap="butt" stroke-linejoin="miter" stroke="rgb(0%, 0%, 0%)" stroke-opacity="1" stroke-miterlimit="10" d="M 1.658398 1.839844 L 1.913476 2.281543 " transform="matrix(40, 0, 0, 40, 728.378936, 71.57422)"/>
<path fill="none" stroke-width="0.0333333" stroke-linecap="butt" stroke-linejoin="miter" stroke="rgb(0%, 0%, 0%)" stroke-opacity="1" stroke-miterlimit="10" d="M 1.631835 1.503711 L 1.817382 1.182422 " transform="matrix(40, 0, 0, 40, 728.378936, 71.57422)"/>
<path fill="none" stroke-width="0.0333333" stroke-linecap="butt" stroke-linejoin="miter" stroke="rgb(0%, 0%, 0%)" stroke-opacity="1" stroke-miterlimit="10" d="M 1.841308 0.591211 L 1.653027 0.265039 " transform="matrix(40, 0, 0, 40, 728.378936, 71.57422)"/>
<path fill="none" stroke-width="0.0333333" stroke-linecap="butt" stroke-linejoin="miter" stroke="rgb(0%, 0%, 0%)" stroke-opacity="1" stroke-miterlimit="10" d="M 1.629101 1.732031 L 1.974804 1.732031 " transform="matrix(40, 0, 0, 40, 728.378936, 71.57422)"/>
<path fill="none" stroke-width="0.0333333" stroke-linecap="butt" stroke-linejoin="miter" stroke="rgb(0%, 0%, 0%)" stroke-opacity="1" stroke-miterlimit="10" d="M 2.598339 1.902441 L 2.846972 2.333105 " transform="matrix(40, 0, 0, 40, 728.378936, 71.57422)"/>
<g fill="rgb(0%, 0%, 0%)" fill-opacity="1">
<use xlink:href="#glyph-1-1" x="722.605469" y="181.226562"/>
</g>
<g fill="rgb(0%, 0%, 0%)" fill-opacity="1">
<use xlink:href="#glyph-0-1" x="742.800781" y="142.703125"/>
</g>
<g fill="rgb(0%, 0%, 0%)" fill-opacity="1">
<use xlink:href="#glyph-0-2" x="730.601562" y="147.335938"/>
<use xlink:href="#glyph-0-11" x="736.533855" y="147.335938"/>
</g>
<g fill="rgb(0%, 0%, 0%)" fill-opacity="1">
<use xlink:href="#glyph-0-4" x="782.492188" y="142.566406"/>
</g>
<g fill="rgb(0%, 0%, 0%)" fill-opacity="1">
<use xlink:href="#glyph-0-2" x="770.632812" y="147.335938"/>
<use xlink:href="#glyph-0-5" x="776.565105" y="147.335938"/>
</g>
<g fill="rgb(0%, 0%, 0%)" fill-opacity="1">
<use xlink:href="#glyph-0-1" x="802.800781" y="177.347656"/>
</g>
<g fill="rgb(0%, 0%, 0%)" fill-opacity="1">
<use xlink:href="#glyph-0-2" x="790.601562" y="181.976562"/>
<use xlink:href="#glyph-0-3" x="796.533855" y="181.976562"/>
</g>
<g fill="rgb(0%, 0%, 0%)" fill-opacity="1">
<use xlink:href="#glyph-0-1" x="802.800781" y="108.0625"/>
</g>
<g fill="rgb(0%, 0%, 0%)" fill-opacity="1">
<use xlink:href="#glyph-0-2" x="790.542969" y="112.695312"/>
<use xlink:href="#glyph-0-6" x="796.475261" y="112.695312"/>
</g>
<g fill="rgb(0%, 0%, 0%)" fill-opacity="1">
<use xlink:href="#glyph-1-1" x="782.605469" y="77.300781"/>
</g>
<g fill="rgb(0%, 0%, 0%)" fill-opacity="1">
<use xlink:href="#glyph-0-7" x="771.160156" y="78.09375"/>
<use xlink:href="#glyph-0-8" x="777.092449" y="78.09375"/>
</g>
<g fill="rgb(0%, 0%, 0%)" fill-opacity="1">
<use xlink:href="#glyph-0-1" x="822.800781" y="142.703125"/>
</g>
<g fill="rgb(0%, 0%, 0%)" fill-opacity="1">
<use xlink:href="#glyph-0-2" x="810.605469" y="147.335938"/>
<use xlink:href="#glyph-0-9" x="816.537761" y="147.335938"/>
</g>
<g fill="rgb(0%, 0%, 0%)" fill-opacity="1">
<use xlink:href="#glyph-1-1" x="842.605469" y="181.226562"/>
</g>
<g fill="rgb(0%, 0%, 0%)" fill-opacity="1">
<use xlink:href="#glyph-0-3" x="831.199219" y="182.015625"/>
<use xlink:href="#glyph-0-10" x="837.131511" y="182.015625"/>
</g>
<path fill="none" stroke-width="0.0625" stroke-linecap="butt" stroke-linejoin="miter" stroke="rgb(0%, 0%, 0%)" stroke-opacity="1" stroke-miterlimit="10" d="M -0.000000792742 0 L 0.499999 0 M 0.249999 -0.25 L 0.249999 0.25 " transform="matrix(40, 0, 0, 40, 870.601594, 124)"/>
<path fill="none" stroke-width="0.0333333" stroke-linecap="butt" stroke-linejoin="miter" stroke="rgb(0%, 0%, 0%)" stroke-opacity="1" stroke-miterlimit="10" d="M 3.970214 0.871289 L 4.27412 1.233496 " transform="matrix(40, 0, 0, 40, 925.109405, 9.832033)"/>
<path fill="none" stroke-width="0.0333333" stroke-linecap="butt" stroke-linejoin="miter" stroke="rgb(0%, 0%, 0%)" stroke-opacity="1" stroke-miterlimit="10" d="M 4.097948 0.76416 L 4.401855 1.126367 " transform="matrix(40, 0, 0, 40, 925.109405, 9.832033)"/>
<path fill="none" stroke-width="0.0333333" stroke-linecap="butt" stroke-linejoin="miter" stroke="rgb(0%, 0%, 0%)" stroke-opacity="1" stroke-miterlimit="10" d="M 4.467284 1.683008 L 4.39287 2.10498 " transform="matrix(40, 0, 0, 40, 925.109405, 9.832033)"/>
<path fill="none" stroke-width="0.0333333" stroke-linecap="butt" stroke-linejoin="miter" stroke="rgb(0%, 0%, 0%)" stroke-opacity="1" stroke-miterlimit="10" d="M 4.292968 2.671191 L 4.219238 3.089746 " transform="matrix(40, 0, 0, 40, 925.109405, 9.832033)"/>
<path fill="none" stroke-width="0.0333333" stroke-linecap="butt" stroke-linejoin="miter" stroke="rgb(0%, 0%, 0%)" stroke-opacity="1" stroke-miterlimit="10" d="M 4.329589 3.553418 L 4.614648 3.893066 " transform="matrix(40, 0, 0, 40, 925.109405, 9.832033)"/>
<path fill="none" stroke-width="0.0333333" stroke-linecap="butt" stroke-linejoin="miter" stroke="rgb(0%, 0%, 0%)" stroke-opacity="1" stroke-miterlimit="10" d="M 4.850585 2.468652 L 5.014745 2.497559 " transform="matrix(40, 0, 0, 40, 925.109405, 9.832033)"/>
<path fill="none" stroke-width="0.0333333" stroke-linecap="butt" stroke-linejoin="miter" stroke="rgb(0%, 0%, 0%)" stroke-opacity="1" stroke-miterlimit="10" d="M 5.278417 2.841309 L 5.204003 3.263477 " transform="matrix(40, 0, 0, 40, 925.109405, 9.832033)"/>
<path fill="none" stroke-width="0.0333333" stroke-linecap="butt" stroke-linejoin="miter" stroke="rgb(0%, 0%, 0%)" stroke-opacity="1" stroke-miterlimit="10" d="M 5.35205 3.702734 L 5.687402 3.984082 " transform="matrix(40, 0, 0, 40, 925.109405, 9.832033)"/>
<path fill="none" stroke-width="0.0333333" stroke-linecap="butt" stroke-linejoin="miter" stroke="rgb(0%, 0%, 0%)" stroke-opacity="1" stroke-miterlimit="10" d="M 5.90996 2.553027 L 6.076562 2.553027 " transform="matrix(40, 0, 0, 40, 925.109405, 9.832033)"/>
<path fill="none" stroke-width="0.0333333" stroke-linecap="butt" stroke-linejoin="miter" stroke="rgb(0%, 0%, 0%)" stroke-opacity="1" stroke-miterlimit="10" d="M 6.329296 2.295019 L 6.329296 1.82832 " transform="matrix(40, 0, 0, 40, 925.109405, 9.832033)"/>
<path fill="none" stroke-width="0.0333333" stroke-linecap="butt" stroke-linejoin="miter" stroke="rgb(0%, 0%, 0%)" stroke-opacity="1" stroke-miterlimit="10" d="M 6.581542 1.407422 L 6.725878 1.324023 " transform="matrix(40, 0, 0, 40, 925.109405, 9.832033)"/>
<path fill="none" stroke-width="0.0333333" stroke-linecap="butt" stroke-linejoin="miter" stroke="rgb(0%, 0%, 0%)" stroke-opacity="1" stroke-miterlimit="10" d="M 6.842382 2.553027 L 7.008984 2.553027 " transform="matrix(40, 0, 0, 40, 925.109405, 9.832033)"/>
<path fill="none" stroke-width="0.0333333" stroke-linecap="butt" stroke-linejoin="miter" stroke="rgb(0%, 0%, 0%)" stroke-opacity="1" stroke-miterlimit="10" d="M 7.329296 2.765527 L 7.329296 3.295019 " transform="matrix(40, 0, 0, 40, 925.109405, 9.832033)"/>
<path fill="none" stroke-width="0.0333333" stroke-linecap="butt" stroke-linejoin="miter" stroke="rgb(0%, 0%, 0%)" stroke-opacity="1" stroke-miterlimit="10" d="M 7.554589 3.683105 L 7.86289 3.861133 " transform="matrix(40, 0, 0, 40, 925.109405, 9.832033)"/>
<path fill="none" stroke-width="0.0333333" stroke-linecap="butt" stroke-linejoin="miter" stroke="rgb(0%, 0%, 0%)" stroke-opacity="1" stroke-miterlimit="10" d="M 7.799804 2.553027 L 7.966503 2.553027 " transform="matrix(40, 0, 0, 40, 925.109405, 9.832033)"/>
<path fill="none" stroke-width="0.0333333" stroke-linecap="butt" stroke-linejoin="miter" stroke="rgb(0%, 0%, 0%)" stroke-opacity="1" stroke-miterlimit="10" d="M 8.42412 2.717285 L 8.670605 3.144238 " transform="matrix(40, 0, 0, 40, 925.109405, 9.832033)"/>
<path fill="none" stroke-width="0.0333333" stroke-linecap="butt" stroke-linejoin="miter" stroke="rgb(0%, 0%, 0%)" stroke-opacity="1" stroke-miterlimit="10" d="M 8.995214 3.419043 L 9.292675 3.419043 " transform="matrix(40, 0, 0, 40, 925.109405, 9.832033)"/>
<path fill="none" stroke-width="0.0333333" stroke-linecap="butt" stroke-linejoin="miter" stroke="rgb(0%, 0%, 0%)" stroke-opacity="1" stroke-miterlimit="10" d="M 8.528417 2.400195 L 8.698437 2.269824 " transform="matrix(40, 0, 0, 40, 925.109405, 9.832033)"/>
<path fill="none" stroke-width="0.0333333" stroke-linecap="butt" stroke-linejoin="miter" stroke="rgb(0%, 0%, 0%)" stroke-opacity="1" stroke-miterlimit="10" d="M 8.364159 2.287793 L 8.421777 1.850391 " transform="matrix(40, 0, 0, 40, 925.109405, 9.832033)"/>
<path fill="none" stroke-width="0.0333333" stroke-linecap="butt" stroke-linejoin="miter" stroke="rgb(0%, 0%, 0%)" stroke-opacity="1" stroke-miterlimit="10" d="M 7.329296 2.295019 L 7.329296 1.806152 " transform="matrix(40, 0, 0, 40, 925.109405, 9.832033)"/>
<path fill="none" stroke-width="0.0333333" stroke-linecap="butt" stroke-linejoin="miter" stroke="rgb(0%, 0%, 0%)" stroke-opacity="1" stroke-miterlimit="10" d="M 6.329296 2.765527 L 6.329296 3.299902 " transform="matrix(40, 0, 0, 40, 925.109405, 9.832033)"/>
<path fill="none" stroke-width="0.0333333" stroke-linecap="butt" stroke-linejoin="miter" stroke="rgb(0%, 0%, 0%)" stroke-opacity="1" stroke-miterlimit="10" d="M 5.377636 2.278613 L 5.451269 1.86084 " transform="matrix(40, 0, 0, 40, 925.109405, 9.832033)"/>
<path fill="none" stroke-width="0.0333333" stroke-linecap="butt" stroke-linejoin="miter" stroke="rgb(0%, 0%, 0%)" stroke-opacity="1" stroke-miterlimit="10" d="M 3.947948 2.309473 L 3.612597 2.250293 " transform="matrix(40, 0, 0, 40, 925.109405, 9.832033)"/>
<path fill="none" stroke-width="0.0333333" stroke-linecap="butt" stroke-linejoin="miter" stroke="rgb(0%, 0%, 0%)" stroke-opacity="1" stroke-miterlimit="10" d="M 3.758007 2.022168 L 3.671191 2.514551 " transform="matrix(40, 0, 0, 40, 925.109405, 9.832033)"/>
<path fill="none" stroke-width="0.0333333" stroke-linecap="butt" stroke-linejoin="miter" stroke="rgb(0%, 0%, 0%)" stroke-opacity="1" stroke-miterlimit="10" d="M 3.889355 2.045312 L 3.802538 2.537695 " transform="matrix(40, 0, 0, 40, 925.109405, 9.832033)"/>
<path fill="none" stroke-width="0.0333333" stroke-linecap="butt" stroke-linejoin="miter" stroke="rgb(0%, 0%, 0%)" stroke-opacity="1" stroke-miterlimit="10" d="M 3.463866 1.919531 L 3.590038 1.572656 " transform="matrix(40, 0, 0, 40, 925.109405, 9.832033)"/>
<path fill="none" stroke-width="0.0333333" stroke-linecap="butt" stroke-linejoin="miter" stroke="rgb(0%, 0%, 0%)" stroke-opacity="1" stroke-miterlimit="10" d="M 3.359667 2.418164 L 3.359667 2.947656 " transform="matrix(40, 0, 0, 40, 925.109405, 9.832033)"/>
<path fill="none" stroke-width="0.0333333" stroke-linecap="butt" stroke-linejoin="miter" stroke="rgb(0%, 0%, 0%)" stroke-opacity="1" stroke-miterlimit="10" d="M 3.015136 3.40459 L 2.8708 3.487988 " transform="matrix(40, 0, 0, 40, 925.109405, 9.832033)"/>
<path fill="none" stroke-width="0.0333333" stroke-linecap="butt" stroke-linejoin="miter" stroke="rgb(0%, 0%, 0%)" stroke-opacity="1" stroke-miterlimit="10" d="M 2.310937 4.02207 L 2.131249 4.333496 " transform="matrix(40, 0, 0, 40, 925.109405, 9.832033)"/>
<path fill="none" stroke-width="0.0333333" stroke-linecap="butt" stroke-linejoin="miter" stroke="rgb(0%, 0%, 0%)" stroke-opacity="1" stroke-miterlimit="10" d="M 1.467577 4.664551 L 1.261718 4.700781 " transform="matrix(40, 0, 0, 40, 925.109405, 9.832033)"/>
<path fill="none" stroke-width="0.0333333" stroke-linecap="butt" stroke-linejoin="miter" stroke="rgb(0%, 0%, 0%)" stroke-opacity="1" stroke-miterlimit="10" d="M 0.898827 5.047656 L 0.767773 5.407715 " transform="matrix(40, 0, 0, 40, 925.109405, 9.832033)"/>
<path fill="none" stroke-width="0.0333333" stroke-linecap="butt" stroke-linejoin="miter" stroke="rgb(0%, 0%, 0%)" stroke-opacity="1" stroke-miterlimit="10" d="M 2.145116 4.687988 L 2.536913 4.988672 " transform="matrix(40, 0, 0, 40, 925.109405, 9.832033)"/>
<path fill="none" stroke-width="0.0333333" stroke-linecap="butt" stroke-linejoin="miter" stroke="rgb(0%, 0%, 0%)" stroke-opacity="1" stroke-miterlimit="10" d="M 2.01582 4.740039 L 2.089159 5.297559 " transform="matrix(40, 0, 0, 40, 925.109405, 9.832033)"/>
<path fill="none" stroke-width="0.0333333" stroke-linecap="butt" stroke-linejoin="miter" stroke="rgb(0%, 0%, 0%)" stroke-opacity="1" stroke-miterlimit="10" d="M 2.712792 3.966894 L 2.937402 4.234668 " transform="matrix(40, 0, 0, 40, 925.109405, 9.832033)"/>
<path fill="none" stroke-width="0.0333333" stroke-linecap="butt" stroke-linejoin="miter" stroke="rgb(0%, 0%, 0%)" stroke-opacity="1" stroke-miterlimit="10" d="M 2.190136 3.530469 L 2.0458 3.447168 " transform="matrix(40, 0, 0, 40, 925.109405, 9.832033)"/>
<path fill="none" stroke-width="0.0333333" stroke-linecap="butt" stroke-linejoin="miter" stroke="rgb(0%, 0%, 0%)" stroke-opacity="1" stroke-miterlimit="10" d="M 1.083984 3.109863 L 0.820605 3.063477 " transform="matrix(40, 0, 0, 40, 925.109405, 9.832033)"/>
<path fill="none" stroke-width="0.0333333" stroke-linecap="butt" stroke-linejoin="miter" stroke="rgb(0%, 0%, 0%)" stroke-opacity="1" stroke-miterlimit="10" d="M 0.373632 3.352832 L 0.199023 3.560937 " transform="matrix(40, 0, 0, 40, 925.109405, 9.832033)"/>
<path fill="none" stroke-width="0.0333333" stroke-linecap="butt" stroke-linejoin="miter" stroke="rgb(0%, 0%, 0%)" stroke-opacity="1" stroke-miterlimit="10" d="M 1.516405 3.511328 L 1.386523 3.868066 " transform="matrix(40, 0, 0, 40, 925.109405, 9.832033)"/>
<path fill="none" stroke-width="0.0333333" stroke-linecap="butt" stroke-linejoin="miter" stroke="rgb(0%, 0%, 0%)" stroke-opacity="1" stroke-miterlimit="10" d="M 1.627636 2.947656 L 1.627636 2.418164 " transform="matrix(40, 0, 0, 40, 925.109405, 9.832033)"/>
<path fill="none" stroke-width="0.0333333" stroke-linecap="butt" stroke-linejoin="miter" stroke="rgb(0%, 0%, 0%)" stroke-opacity="1" stroke-miterlimit="10" d="M 1.063183 2.305273 L 0.825097 2.347266 " transform="matrix(40, 0, 0, 40, 925.109405, 9.832033)"/>
<path fill="none" stroke-width="0.0333333" stroke-linecap="butt" stroke-linejoin="miter" stroke="rgb(0%, 0%, 0%)" stroke-opacity="1" stroke-miterlimit="10" d="M 0.435546 2.132324 L 0.199023 1.850488 " transform="matrix(40, 0, 0, 40, 925.109405, 9.832033)"/>
<path fill="none" stroke-width="0.0333333" stroke-linecap="butt" stroke-linejoin="miter" stroke="rgb(0%, 0%, 0%)" stroke-opacity="1" stroke-miterlimit="10" d="M 1.523437 1.919531 L 1.386523 1.543359 " transform="matrix(40, 0, 0, 40, 925.109405, 9.832033)"/>
<path fill="none" stroke-width="0.0333333" stroke-linecap="butt" stroke-linejoin="miter" stroke="rgb(0%, 0%, 0%)" stroke-opacity="1" stroke-miterlimit="10" d="M 1.999706 1.990918 L 2.144042 1.907617 " transform="matrix(40, 0, 0, 40, 925.109405, 9.832033)"/>
<path fill="none" stroke-width="0.0333333" stroke-linecap="butt" stroke-linejoin="miter" stroke="rgb(0%, 0%, 0%)" stroke-opacity="1" stroke-miterlimit="10" d="M 2.825976 1.897656 L 2.970312 1.980957 " transform="matrix(40, 0, 0, 40, 925.109405, 9.832033)"/>
<path fill="none" stroke-width="0.0333333" stroke-linecap="butt" stroke-linejoin="miter" stroke="rgb(0%, 0%, 0%)" stroke-opacity="1" stroke-miterlimit="10" d="M 2.286327 1.458691 L 2.00957 1.128906 " transform="matrix(40, 0, 0, 40, 925.109405, 9.832033)"/>
<path fill="none" stroke-width="0.0333333" stroke-linecap="butt" stroke-linejoin="miter" stroke="rgb(0%, 0%, 0%)" stroke-opacity="1" stroke-miterlimit="10" d="M 1.95498 0.653418 L 2.081347 0.306445 " transform="matrix(40, 0, 0, 40, 925.109405, 9.832033)"/>
<path fill="none" stroke-width="0.0333333" stroke-linecap="butt" stroke-linejoin="miter" stroke="rgb(0%, 0%, 0%)" stroke-opacity="1" stroke-miterlimit="10" d="M 2.750976 1.399023 L 2.866503 1.261426 " transform="matrix(40, 0, 0, 40, 925.109405, 9.832033)"/>
<path fill="none" stroke-width="0.0333333" stroke-linecap="butt" stroke-linejoin="miter" stroke="rgb(0%, 0%, 0%)" stroke-opacity="1" stroke-miterlimit="10" d="M 4.777538 1.300195 L 4.934179 1.243164 " transform="matrix(40, 0, 0, 40, 925.109405, 9.832033)"/>
<g fill="rgb(0%, 0%, 0%)" fill-opacity="1">
<use xlink:href="#glyph-0-1" x="1077.367188" y="36.820312"/>
</g>
<g fill="rgb(0%, 0%, 0%)" fill-opacity="1">
<use xlink:href="#glyph-0-2" x="1072.574219" y="41.453125"/>
</g>
<g fill="rgb(0%, 0%, 0%)" fill-opacity="1">
<use xlink:href="#glyph-0-13" x="1103.617188" y="67.460938"/>
</g>
<g fill="rgb(0%, 0%, 0%)" fill-opacity="1">
<use xlink:href="#glyph-0-7" x="1097.445312" y="72.097656"/>
</g>
<g fill="rgb(0%, 0%, 0%)" fill-opacity="1">
<use xlink:href="#glyph-0-12" x="1093.097656" y="106.859375"/>
<use xlink:href="#glyph-0-13" x="1096.061198" y="106.859375"/>
<use xlink:href="#glyph-0-14" x="1103.764325" y="106.859375"/>
<use xlink:href="#glyph-0-15" x="1106.727867" y="106.859375"/>
<use xlink:href="#glyph-0-16" x="1117.555994" y="106.859375"/>
</g>
<g fill="rgb(0%, 0%, 0%)" fill-opacity="1">
<use xlink:href="#glyph-0-3" x="1087.042969" y="111.488281"/>
</g>
<g fill="rgb(0%, 0%, 0%)" fill-opacity="1">
<use xlink:href="#glyph-0-1" x="1089.1875" y="146.25"/>
</g>
<g fill="rgb(0%, 0%, 0%)" fill-opacity="1">
<use xlink:href="#glyph-0-5" x="1082.953125" y="150.847656"/>
</g>
<g fill="rgb(0%, 0%, 0%)" fill-opacity="1">
<use xlink:href="#glyph-1-1" x="1111.878906" y="180.769531"/>
</g>
<g fill="rgb(0%, 0%, 0%)" fill-opacity="1">
<use xlink:href="#glyph-0-5" x="1100.523438" y="181.5625"/>
<use xlink:href="#glyph-0-7" x="1106.45573" y="181.5625"/>
</g>
<g fill="rgb(0%, 0%, 0%)" fill-opacity="1">
<use xlink:href="#glyph-0-12" x="1132.492188" y="113.804688"/>
<use xlink:href="#glyph-0-13" x="1135.45573" y="113.804688"/>
<use xlink:href="#glyph-0-14" x="1143.158856" y="113.804688"/>
<use xlink:href="#glyph-0-15" x="1146.122398" y="113.804688"/>
<use xlink:href="#glyph-0-15" x="1156.950525" y="113.804688"/>
<use xlink:href="#glyph-0-16" x="1167.778652" y="113.804688"/>
</g>
<g fill="rgb(0%, 0%, 0%)" fill-opacity="1">
<use xlink:href="#glyph-0-6" x="1126.378906" y="118.300781"/>
</g>
<g fill="rgb(0%, 0%, 0%)" fill-opacity="1">
<use xlink:href="#glyph-0-1" x="1128.578125" y="153.195312"/>
</g>
<g fill="rgb(0%, 0%, 0%)" fill-opacity="1">
<use xlink:href="#glyph-0-9" x="1122.316406" y="157.828125"/>
</g>
<g fill="rgb(0%, 0%, 0%)" fill-opacity="1">
<use xlink:href="#glyph-1-1" x="1156.203125" y="182.785156"/>
</g>
<g fill="rgb(0%, 0%, 0%)" fill-opacity="1">
<use xlink:href="#glyph-0-5" x="1144.769531" y="183.578125"/>
<use xlink:href="#glyph-0-3" x="1150.701824" y="183.578125"/>
</g>
<g fill="rgb(0%, 0%, 0%)" fill-opacity="1">
<use xlink:href="#glyph-0-12" x="1172.492188" y="113.804688"/>
<use xlink:href="#glyph-0-13" x="1175.45573" y="113.804688"/>
<use xlink:href="#glyph-0-14" x="1183.158856" y="113.804688"/>
<use xlink:href="#glyph-0-15" x="1186.122398" y="113.804688"/>
<use xlink:href="#glyph-0-16" x="1196.950525" y="113.804688"/>
</g>
<g fill="rgb(0%, 0%, 0%)" fill-opacity="1">
<use xlink:href="#glyph-0-11" x="1166.433594" y="118.304688"/>
</g>
<g fill="rgb(0%, 0%, 0%)" fill-opacity="1">
<use xlink:href="#glyph-0-1" x="1175.527344" y="73.800781"/>
</g>
<g fill="rgb(0%, 0%, 0%)" fill-opacity="1">
<use xlink:href="#glyph-0-17" x="1169.242188" y="78.433594"/>
</g>
<g fill="rgb(0%, 0%, 0%)" fill-opacity="1">
<use xlink:href="#glyph-1-1" x="1207.148438" y="57.679688"/>
</g>
<g fill="rgb(0%, 0%, 0%)" fill-opacity="1">
<use xlink:href="#glyph-0-5" x="1195.746094" y="58.441406"/>
<use xlink:href="#glyph-0-5" x="1201.678386" y="58.441406"/>
</g>
<g fill="rgb(0%, 0%, 0%)" fill-opacity="1">
<use xlink:href="#glyph-0-12" x="1212.492188" y="113.804688"/>
<use xlink:href="#glyph-0-13" x="1215.45573" y="113.804688"/>
<use xlink:href="#glyph-0-14" x="1223.158856" y="113.804688"/>
<use xlink:href="#glyph-0-15" x="1226.122398" y="113.804688"/>
<use xlink:href="#glyph-0-16" x="1236.950525" y="113.804688"/>
</g>
<g fill="rgb(0%, 0%, 0%)" fill-opacity="1">
<use xlink:href="#glyph-0-8" x="1206.417969" y="118.433594"/>
</g>
<g fill="rgb(0%, 0%, 0%)" fill-opacity="1">
<use xlink:href="#glyph-0-1" x="1215.527344" y="153.800781"/>
</g>
<g fill="rgb(0%, 0%, 0%)" fill-opacity="1">
<use xlink:href="#glyph-0-2" x="1203.351562" y="158.433594"/>
<use xlink:href="#glyph-0-10" x="1209.283855" y="158.433594"/>
</g>
<g fill="rgb(0%, 0%, 0%)" fill-opacity="1">
<use xlink:href="#glyph-1-1" x="1247.148438" y="177.679688"/>
</g>
<g fill="rgb(0%, 0%, 0%)" fill-opacity="1">
<use xlink:href="#glyph-0-5" x="1235.65625" y="178.441406"/>
<use xlink:href="#glyph-0-6" x="1241.588543" y="178.441406"/>
</g>
<g fill="rgb(0%, 0%, 0%)" fill-opacity="1">
<use xlink:href="#glyph-0-13" x="1252.6875" y="113.796875"/>
</g>
<g fill="rgb(0%, 0%, 0%)" fill-opacity="1">
<use xlink:href="#glyph-0-2" x="1241.976562" y="118.433594"/>
<use xlink:href="#glyph-0-2" x="1247.908855" y="118.433594"/>
</g>
<g fill="rgb(0%, 0%, 0%)" fill-opacity="1">
<use xlink:href="#glyph-0-1" x="1272.703125" y="148.441406"/>
</g>
<g fill="rgb(0%, 0%, 0%)" fill-opacity="1">
<use xlink:href="#glyph-0-2" x="1260.582031" y="153.074219"/>
<use xlink:href="#glyph-0-7" x="1266.514324" y="153.074219"/>
</g>
<g fill="rgb(0%, 0%, 0%)" fill-opacity="1">
<use xlink:href="#glyph-1-1" x="1312.507812" y="152.320312"/>
</g>
<g fill="rgb(0%, 0%, 0%)" fill-opacity="1">
<use xlink:href="#glyph-0-5" x="1301.078125" y="153.113281"/>
<use xlink:href="#glyph-0-9" x="1307.010418" y="153.113281"/>
</g>
<g fill="rgb(0%, 0%, 0%)" fill-opacity="1">
<use xlink:href="#glyph-1-1" x="1284.242188" y="93.332031"/>
</g>
<g fill="rgb(0%, 0%, 0%)" fill-opacity="1">
<use xlink:href="#glyph-0-5" x="1272.808594" y="94.089844"/>
<use xlink:href="#glyph-0-11" x="1278.740886" y="94.089844"/>
</g>
<g fill="rgb(0%, 0%, 0%)" fill-opacity="1">
<use xlink:href="#glyph-1-1" x="1257.726562" y="78.023438"/>
</g>
<g fill="rgb(0%, 0%, 0%)" fill-opacity="1">
<use xlink:href="#glyph-0-5" x="1246.277344" y="78.816406"/>
<use xlink:href="#glyph-0-17" x="1252.209636" y="78.816406"/>
</g>
<g fill="rgb(0%, 0%, 0%)" fill-opacity="1">
<use xlink:href="#glyph-1-1" x="1212.507812" y="77.679688"/>
</g>
<g fill="rgb(0%, 0%, 0%)" fill-opacity="1">
<use xlink:href="#glyph-0-5" x="1201.058594" y="78.472656"/>
<use xlink:href="#glyph-0-8" x="1206.990886" y="78.472656"/>
</g>
<g fill="rgb(0%, 0%, 0%)" fill-opacity="1">
<use xlink:href="#glyph-1-1" x="1172.507812" y="157.679688"/>
</g>
<g fill="rgb(0%, 0%, 0%)" fill-opacity="1">
<use xlink:href="#glyph-0-6" x="1161.097656" y="158.472656"/>
<use xlink:href="#glyph-0-10" x="1167.029949" y="158.472656"/>
</g>
<g fill="rgb(0%, 0%, 0%)" fill-opacity="1">
<use xlink:href="#glyph-1-1" x="1139.453125" y="78.289062"/>
</g>
<g fill="rgb(0%, 0%, 0%)" fill-opacity="1">
<use xlink:href="#glyph-0-6" x="1129.492188" y="79.082031"/>
<use xlink:href="#glyph-0-2" x="1135.42448" y="79.082031"/>
</g>
<g fill="rgb(0%, 0%, 0%)" fill-opacity="1">
<use xlink:href="#glyph-0-12" x="1027" y="99.914062"/>
<use xlink:href="#glyph-0-13" x="1029.963542" y="99.914062"/>
<use xlink:href="#glyph-0-14" x="1037.666668" y="99.914062"/>
<use xlink:href="#glyph-0-15" x="1040.630211" y="99.914062"/>
<use xlink:href="#glyph-0-15" x="1051.458337" y="99.914062"/>
<use xlink:href="#glyph-0-16" x="1062.286464" y="99.914062"/>
</g>
<g fill="rgb(0%, 0%, 0%)" fill-opacity="1">
<use xlink:href="#glyph-0-2" x="1014.992188" y="104.542969"/>
<use xlink:href="#glyph-0-17" x="1020.92448" y="104.542969"/>
</g>
<g fill="rgb(0%, 0%, 0%)" fill-opacity="1">
<use xlink:href="#glyph-1-1" x="1067.402344" y="66.203125"/>
</g>
<g fill="rgb(0%, 0%, 0%)" fill-opacity="1">
<use xlink:href="#glyph-0-3" x="1057.445312" y="66.992188"/>
<use xlink:href="#glyph-0-2" x="1063.377605" y="66.992188"/>
</g>
<g fill="rgb(0%, 0%, 0%)" fill-opacity="1">
<use xlink:href="#glyph-0-1" x="1053.917969" y="139.910156"/>
</g>
<g fill="rgb(0%, 0%, 0%)" fill-opacity="1">
<use xlink:href="#glyph-0-2" x="1041.703125" y="144.542969"/>
<use xlink:href="#glyph-0-8" x="1047.635418" y="144.542969"/>
</g>
<g fill="rgb(0%, 0%, 0%)" fill-opacity="1">
<use xlink:href="#glyph-0-12" x="1019.066406" y="159.914062"/>
<use xlink:href="#glyph-0-13" x="1022.029948" y="159.914062"/>
<use xlink:href="#glyph-0-14" x="1029.733075" y="159.914062"/>
<use xlink:href="#glyph-0-15" x="1032.696617" y="159.914062"/>
<use xlink:href="#glyph-0-15" x="1043.524744" y="159.914062"/>
<use xlink:href="#glyph-0-16" x="1054.35287" y="159.914062"/>
</g>
<g fill="rgb(0%, 0%, 0%)" fill-opacity="1">
<use xlink:href="#glyph-0-7" x="1007.105469" y="164.542969"/>
<use xlink:href="#glyph-0-10" x="1013.037761" y="164.542969"/>
</g>
<g fill="rgb(0%, 0%, 0%)" fill-opacity="1">
<use xlink:href="#glyph-0-13" x="999.261719" y="194.546875"/>
</g>
<g fill="rgb(0%, 0%, 0%)" fill-opacity="1">
<use xlink:href="#glyph-0-7" x="988.554687" y="199.183594"/>
<use xlink:href="#glyph-0-2" x="994.48698" y="199.183594"/>
</g>
<g fill="rgb(0%, 0%, 0%)" fill-opacity="1">
<use xlink:href="#glyph-0-1" x="962.707031" y="201.496094"/>
</g>
<g fill="rgb(0%, 0%, 0%)" fill-opacity="1">
<use xlink:href="#glyph-0-7" x="950.589844" y="206.128906"/>
<use xlink:href="#glyph-0-7" x="956.522136" y="206.128906"/>
</g>
<g fill="rgb(0%, 0%, 0%)" fill-opacity="1">
<use xlink:href="#glyph-1-1" x="946.007812" y="242.964844"/>
</g>
<g fill="rgb(0%, 0%, 0%)" fill-opacity="1">
<use xlink:href="#glyph-0-3" x="934.652344" y="243.757813"/>
<use xlink:href="#glyph-0-7" x="940.584636" y="243.757813"/>
</g>
<g fill="rgb(0%, 0%, 0%)" fill-opacity="1">
<use xlink:href="#glyph-1-1" x="1030.816406" y="222.78125"/>
</g>
<g fill="rgb(0%, 0%, 0%)" fill-opacity="1">
<use xlink:href="#glyph-0-3" x="1019.382812" y="223.574219"/>
<use xlink:href="#glyph-0-3" x="1025.315105" y="223.574219"/>
</g>
<g fill="rgb(0%, 0%, 0%)" fill-opacity="1">
<use xlink:href="#glyph-1-1" x="1004.304688" y="238.089844"/>
</g>
<g fill="rgb(0%, 0%, 0%)" fill-opacity="1">
<use xlink:href="#glyph-0-3" x="992.902344" y="238.878906"/>
<use xlink:href="#glyph-0-5" x="998.834636" y="238.878906"/>
</g>
<g fill="rgb(0%, 0%, 0%)" fill-opacity="1">
<use xlink:href="#glyph-1-1" x="1044.792969" y="194.429688"/>
</g>
<g fill="rgb(0%, 0%, 0%)" fill-opacity="1">
<use xlink:href="#glyph-0-3" x="1033.300781" y="195.222656"/>
<use xlink:href="#glyph-0-6" x="1039.233074" y="195.222656"/>
</g>
<g fill="rgb(0%, 0%, 0%)" fill-opacity="1">
<use xlink:href="#glyph-0-12" x="984.425781" y="139.914062"/>
<use xlink:href="#glyph-0-13" x="987.389323" y="139.914062"/>
<use xlink:href="#glyph-0-14" x="995.09245" y="139.914062"/>
<use xlink:href="#glyph-0-15" x="998.055992" y="139.914062"/>
<use xlink:href="#glyph-0-16" x="1008.884119" y="139.914062"/>
</g>
<g fill="rgb(0%, 0%, 0%)" fill-opacity="1">
<use xlink:href="#glyph-0-7" x="972.4375" y="144.542969"/>
<use xlink:href="#glyph-0-3" x="978.369793" y="144.542969"/>
</g>
<g fill="rgb(0%, 0%, 0%)" fill-opacity="1">
<use xlink:href="#glyph-0-1" x="945.242188" y="132.964844"/>
</g>
<g fill="rgb(0%, 0%, 0%)" fill-opacity="1">
<use xlink:href="#glyph-0-7" x="933.078125" y="137.597656"/>
<use xlink:href="#glyph-0-5" x="939.010418" y="137.597656"/>
</g>
<g fill="rgb(0%, 0%, 0%)" fill-opacity="1">
<use xlink:href="#glyph-1-1" x="919.335937" y="167.484375"/>
</g>
<g fill="rgb(0%, 0%, 0%)" fill-opacity="1">
<use xlink:href="#glyph-0-3" x="907.910156" y="168.277344"/>
<use xlink:href="#glyph-0-9" x="913.842449" y="168.277344"/>
</g>
<g fill="rgb(0%, 0%, 0%)" fill-opacity="1">
<use xlink:href="#glyph-1-1" x="970.761719" y="181.375"/>
</g>
<g fill="rgb(0%, 0%, 0%)" fill-opacity="1">
<use xlink:href="#glyph-0-3" x="959.328125" y="182.167969"/>
<use xlink:href="#glyph-0-11" x="965.260418" y="182.167969"/>
</g>
<g fill="rgb(0%, 0%, 0%)" fill-opacity="1">
<use xlink:href="#glyph-0-12" x="984.425781" y="99.914062"/>
<use xlink:href="#glyph-0-13" x="987.389323" y="99.914062"/>
<use xlink:href="#glyph-0-14" x="995.09245" y="99.914062"/>
<use xlink:href="#glyph-0-15" x="998.055992" y="99.914062"/>
<use xlink:href="#glyph-0-15" x="1008.884119" y="99.914062"/>
<use xlink:href="#glyph-0-16" x="1019.712245" y="99.914062"/>
</g>
<g fill="rgb(0%, 0%, 0%)" fill-opacity="1">
<use xlink:href="#glyph-0-7" x="972.382812" y="104.542969"/>
<use xlink:href="#glyph-0-6" x="978.315105" y="104.542969"/>
</g>
<g fill="rgb(0%, 0%, 0%)" fill-opacity="1">
<use xlink:href="#glyph-0-1" x="945.242188" y="106.855469"/>
</g>
<g fill="rgb(0%, 0%, 0%)" fill-opacity="1">
<use xlink:href="#glyph-0-7" x="933.050781" y="111.488281"/>
<use xlink:href="#glyph-0-9" x="938.983074" y="111.488281"/>
</g>
<g fill="rgb(0%, 0%, 0%)" fill-opacity="1">
<use xlink:href="#glyph-1-1" x="919.335937" y="80.09375"/>
</g>
<g fill="rgb(0%, 0%, 0%)" fill-opacity="1">
<use xlink:href="#glyph-0-3" x="907.886719" y="80.886719"/>
<use xlink:href="#glyph-0-17" x="913.819011" y="80.886719"/>
</g>
<g fill="rgb(0%, 0%, 0%)" fill-opacity="1">
<use xlink:href="#glyph-1-1" x="970.761719" y="66.203125"/>
</g>
<g fill="rgb(0%, 0%, 0%)" fill-opacity="1">
<use xlink:href="#glyph-0-3" x="959.3125" y="66.992188"/>
<use xlink:href="#glyph-0-8" x="965.244793" y="66.992188"/>
</g>
<g fill="rgb(0%, 0%, 0%)" fill-opacity="1">
<use xlink:href="#glyph-0-12" x="1019.066406" y="79.914062"/>
<use xlink:href="#glyph-0-13" x="1022.029948" y="79.914062"/>
<use xlink:href="#glyph-0-14" x="1029.733075" y="79.914062"/>
<use xlink:href="#glyph-0-15" x="1032.696617" y="79.914062"/>
<use xlink:href="#glyph-0-16" x="1043.524744" y="79.914062"/>
</g>
<g fill="rgb(0%, 0%, 0%)" fill-opacity="1">
<use xlink:href="#glyph-0-7" x="1007.078125" y="84.542969"/>
<use xlink:href="#glyph-0-11" x="1013.010418" y="84.542969"/>
</g>
<g fill="rgb(0%, 0%, 0%)" fill-opacity="1">
<use xlink:href="#glyph-0-1" x="996.386719" y="49.269531"/>
</g>
<g fill="rgb(0%, 0%, 0%)" fill-opacity="1">
<use xlink:href="#glyph-0-7" x="984.175781" y="53.902344"/>
<use xlink:href="#glyph-0-17" x="990.108074" y="53.902344"/>
</g>
<g fill="rgb(0%, 0%, 0%)" fill-opacity="1">
<use xlink:href="#glyph-1-1" x="1007.050781" y="15.558594"/>
</g>
<g fill="rgb(0%, 0%, 0%)" fill-opacity="1">
<use xlink:href="#glyph-0-5" x="995.644531" y="16.351562"/>
<use xlink:href="#glyph-0-10" x="1001.576824" y="16.351562"/>
</g>
<g fill="rgb(0%, 0%, 0%)" fill-opacity="1">
<use xlink:href="#glyph-1-1" x="1044.792969" y="53.148438"/>
</g>
<g fill="rgb(0%, 0%, 0%)" fill-opacity="1">
<use xlink:href="#glyph-0-5" x="1034.832031" y="53.941406"/>
<use xlink:href="#glyph-0-2" x="1040.764324" y="53.941406"/>
</g>
<g fill="rgb(0%, 0%, 0%)" fill-opacity="1">
<use xlink:href="#glyph-1-1" x="1137.648438" y="57.660156"/>
</g>
<g fill="rgb(0%, 0%, 0%)" fill-opacity="1">
<use xlink:href="#glyph-0-6" x="1126.214844" y="58.453125"/>
<use xlink:href="#glyph-0-3" x="1132.147136" y="58.453125"/>
</g>
</svg>
