<?xml version="1.0" encoding="UTF-8"?>
<svg xmlns="http://www.w3.org/2000/svg" xmlns:xlink="http://www.w3.org/1999/xlink" width="2188" height="233" viewBox="0 0 2188 233">
<defs>
<g>
<g id="glyph-0-0">
<path d="M 2 0 L 2 -10 L 10 -10 L 10 0 Z M 2.25 -0.25 L 9.75 -0.25 L 9.75 -9.75 L 2.25 -9.75 Z M 2.25 -0.25 "/>
</g>
<g id="glyph-0-1">
<path d="M 1.28125 0 L 1.28125 -11.453125 L 2.796875 -11.453125 L 2.796875 -6.75 L 8.75 -6.75 L 8.75 -11.453125 L 10.265625 -11.453125 L 10.265625 0 L 8.75 0 L 8.75 -5.398438 L 2.796875 -5.398438 L 2.796875 0 Z M 1.28125 0 "/>
</g>
<g id="glyph-1-0">
<path d="M 1.332031 0 L 1.332031 -6.667969 L 6.667969 -6.667969 L 6.667969 0 Z M 1.5 -0.167969 L 6.5 -0.167969 L 6.5 -6.5 L 1.5 -6.5 Z M 1.5 -0.167969 "/>
</g>
<g id="glyph-1-1">
<path d="M 6.269531 -2.675781 L 7.28125 -2.421875 C 7.070312 -1.59375 6.6875 -0.960938 6.136719 -0.523438 C 5.585938 -0.0859375 4.914062 0.128906 4.121094 0.128906 C 3.296875 0.128906 2.628906 -0.0390625 2.113281 -0.371094 C 1.597656 -0.707031 1.203125 -1.191406 0.933594 -1.828125 C 0.664062 -2.464844 0.53125 -3.144531 0.53125 -3.875 C 0.53125 -4.671875 0.683594 -5.363281 0.988281 -5.957031 C 1.292969 -6.546875 1.722656 -6.996094 2.285156 -7.304688 C 2.84375 -7.613281 3.460938 -7.765625 4.136719 -7.765625 C 4.898438 -7.765625 5.542969 -7.570312 6.0625 -7.183594 C 6.582031 -6.792969 6.945312 -6.246094 7.152344 -5.542969 L 6.15625 -5.308594 C 5.980469 -5.863281 5.722656 -6.265625 5.386719 -6.519531 C 5.050781 -6.773438 4.625 -6.902344 4.113281 -6.902344 C 3.527344 -6.902344 3.039062 -6.761719 2.644531 -6.480469 C 2.25 -6.199219 1.972656 -5.820312 1.8125 -5.347656 C 1.652344 -4.871094 1.574219 -4.382812 1.574219 -3.878906 C 1.574219 -3.230469 1.667969 -2.664062 1.855469 -2.179688 C 2.046875 -1.695312 2.339844 -1.332031 2.738281 -1.09375 C 3.136719 -0.855469 3.570312 -0.734375 4.035156 -0.734375 C 4.601562 -0.734375 5.082031 -0.898438 5.472656 -1.222656 C 5.867188 -1.550781 6.132812 -2.035156 6.269531 -2.675781 Z M 6.269531 -2.675781 "/>
</g>
<g id="glyph-1-2">
<path d="M 3.972656 0 L 3.035156 0 L 3.035156 -5.972656 C 2.808594 -5.757812 2.515625 -5.542969 2.148438 -5.328125 C 1.78125 -5.113281 1.453125 -4.953125 1.160156 -4.84375 L 1.160156 -5.75 C 1.683594 -5.996094 2.144531 -6.296875 2.535156 -6.644531 C 2.929688 -6.996094 3.207031 -7.335938 3.371094 -7.667969 L 3.972656 -7.667969 Z M 3.972656 0 "/>
</g>
<g id="glyph-1-3">
<path d="M 5.371094 -0.902344 L 5.371094 0 L 0.324219 0 C 0.316406 -0.226562 0.351562 -0.441406 0.433594 -0.652344 C 0.5625 -0.996094 0.765625 -1.332031 1.050781 -1.667969 C 1.332031 -2 1.742188 -2.386719 2.277344 -2.824219 C 3.105469 -3.503906 3.667969 -4.042969 3.957031 -4.441406 C 4.25 -4.839844 4.394531 -5.214844 4.394531 -5.566406 C 4.394531 -5.9375 4.261719 -6.253906 3.996094 -6.507812 C 3.730469 -6.761719 3.386719 -6.890625 2.957031 -6.890625 C 2.507812 -6.890625 2.144531 -6.753906 1.875 -6.484375 C 1.605469 -6.214844 1.46875 -5.839844 1.464844 -5.359375 L 0.5 -5.457031 C 0.566406 -6.175781 0.8125 -6.726562 1.246094 -7.101562 C 1.675781 -7.476562 2.253906 -7.667969 2.980469 -7.667969 C 3.710938 -7.667969 4.292969 -7.464844 4.71875 -7.058594 C 5.144531 -6.652344 5.359375 -6.148438 5.359375 -5.546875 C 5.359375 -5.242188 5.296875 -4.941406 5.171875 -4.644531 C 5.046875 -4.351562 4.839844 -4.039062 4.550781 -3.714844 C 4.261719 -3.386719 3.777344 -2.9375 3.105469 -2.371094 C 2.542969 -1.898438 2.179688 -1.578125 2.019531 -1.410156 C 1.859375 -1.242188 1.730469 -1.070312 1.625 -0.902344 Z M 5.371094 -0.902344 "/>
</g>
<g id="glyph-1-4">
<path d="M 0.449219 -2.015625 L 1.386719 -2.140625 C 1.492188 -1.609375 1.675781 -1.226562 1.933594 -0.992188 C 2.191406 -0.757812 2.507812 -0.640625 2.878906 -0.640625 C 3.320312 -0.640625 3.695312 -0.792969 3.996094 -1.097656 C 4.300781 -1.402344 4.453125 -1.78125 4.453125 -2.234375 C 4.453125 -2.664062 4.3125 -3.019531 4.03125 -3.300781 C 3.75 -3.578125 3.390625 -3.71875 2.957031 -3.71875 C 2.78125 -3.71875 2.5625 -3.683594 2.296875 -3.613281 L 2.402344 -4.4375 C 2.464844 -4.429688 2.515625 -4.425781 2.550781 -4.425781 C 2.949219 -4.425781 3.3125 -4.53125 3.628906 -4.738281 C 3.949219 -4.949219 4.109375 -5.269531 4.109375 -5.703125 C 4.109375 -6.046875 3.992188 -6.332031 3.761719 -6.558594 C 3.527344 -6.785156 3.226562 -6.894531 2.859375 -6.894531 C 2.496094 -6.894531 2.191406 -6.78125 1.949219 -6.550781 C 1.707031 -6.324219 1.546875 -5.980469 1.480469 -5.519531 L 0.542969 -5.6875 C 0.65625 -6.316406 0.917969 -6.804688 1.324219 -7.148438 C 1.730469 -7.492188 2.234375 -7.667969 2.839844 -7.667969 C 3.253906 -7.667969 3.640625 -7.578125 3.988281 -7.398438 C 4.339844 -7.21875 4.609375 -6.976562 4.792969 -6.667969 C 4.980469 -6.359375 5.074219 -6.03125 5.074219 -5.683594 C 5.074219 -5.351562 4.984375 -5.050781 4.808594 -4.78125 C 4.628906 -4.511719 4.367188 -4.296875 4.019531 -4.136719 C 4.472656 -4.03125 4.824219 -3.816406 5.074219 -3.488281 C 5.324219 -3.160156 5.449219 -2.75 5.449219 -2.253906 C 5.449219 -1.589844 5.203125 -1.023438 4.71875 -0.558594 C 4.234375 -0.0976562 3.617188 0.136719 2.875 0.136719 C 2.203125 0.136719 1.648438 -0.0625 1.207031 -0.464844 C 0.761719 -0.863281 0.511719 -1.378906 0.449219 -2.015625 Z M 0.449219 -2.015625 "/>
</g>
<g id="glyph-1-5">
<path d="M 5.308594 -5.765625 L 4.375 -5.691406 C 4.292969 -6.058594 4.171875 -6.328125 4.019531 -6.496094 C 3.765625 -6.761719 3.453125 -6.894531 3.082031 -6.894531 C 2.785156 -6.894531 2.523438 -6.8125 2.296875 -6.644531 C 2 -6.429688 1.769531 -6.117188 1.597656 -5.703125 C 1.429688 -5.289062 1.339844 -4.703125 1.332031 -3.9375 C 1.558594 -4.28125 1.835938 -4.535156 2.160156 -4.703125 C 2.488281 -4.871094 2.828125 -4.953125 3.1875 -4.953125 C 3.8125 -4.953125 4.34375 -4.722656 4.785156 -4.261719 C 5.222656 -3.800781 5.441406 -3.207031 5.441406 -2.480469 C 5.441406 -2 5.339844 -1.554688 5.132812 -1.144531 C 4.925781 -0.730469 4.640625 -0.417969 4.28125 -0.199219 C 3.921875 0.0195312 3.511719 0.128906 3.050781 0.128906 C 2.269531 0.128906 1.632812 -0.15625 1.140625 -0.730469 C 0.648438 -1.304688 0.402344 -2.253906 0.402344 -3.574219 C 0.402344 -5.050781 0.671875 -6.121094 1.21875 -6.792969 C 1.695312 -7.375 2.335938 -7.667969 3.140625 -7.667969 C 3.742188 -7.667969 4.234375 -7.5 4.617188 -7.160156 C 5 -6.824219 5.230469 -6.359375 5.308594 -5.765625 Z M 1.480469 -2.472656 C 1.480469 -2.152344 1.546875 -1.84375 1.683594 -1.546875 C 1.820312 -1.25 2.015625 -1.027344 2.261719 -0.871094 C 2.507812 -0.71875 2.765625 -0.640625 3.035156 -0.640625 C 3.433594 -0.640625 3.773438 -0.800781 4.058594 -1.121094 C 4.34375 -1.441406 4.484375 -1.875 4.484375 -2.421875 C 4.484375 -2.949219 4.34375 -3.367188 4.0625 -3.667969 C 3.78125 -3.972656 3.425781 -4.125 3 -4.125 C 2.578125 -4.125 2.21875 -3.972656 1.921875 -3.667969 C 1.625 -3.363281 1.480469 -2.96875 1.480469 -2.472656 Z M 1.480469 -2.472656 "/>
</g>
<g id="glyph-1-6">
<path d="M 0.503906 -6.636719 L 0.503906 -7.535156 L 5.449219 -7.535156 L 5.449219 -6.808594 C 4.960938 -6.289062 4.480469 -5.601562 4.003906 -4.746094 C 3.527344 -3.886719 3.15625 -3.003906 2.894531 -2.097656 C 2.707031 -1.460938 2.589844 -0.761719 2.535156 0 L 1.574219 0 C 1.582031 -0.601562 1.703125 -1.328125 1.925781 -2.175781 C 2.152344 -3.027344 2.476562 -3.847656 2.898438 -4.636719 C 3.320312 -5.425781 3.769531 -6.09375 4.246094 -6.636719 Z M 0.503906 -6.636719 "/>
</g>
<g id="glyph-1-7">
<path d="M 1.886719 -4.140625 C 1.496094 -4.28125 1.207031 -4.484375 1.019531 -4.75 C 0.832031 -5.015625 0.738281 -5.328125 0.738281 -5.699219 C 0.738281 -6.253906 0.9375 -6.71875 1.339844 -7.097656 C 1.738281 -7.476562 2.269531 -7.667969 2.933594 -7.667969 C 3.597656 -7.667969 4.136719 -7.472656 4.542969 -7.085938 C 4.949219 -6.699219 5.152344 -6.226562 5.152344 -5.671875 C 5.152344 -5.316406 5.058594 -5.007812 4.871094 -4.746094 C 4.6875 -4.484375 4.40625 -4.28125 4.027344 -4.140625 C 4.496094 -3.988281 4.851562 -3.742188 5.097656 -3.402344 C 5.339844 -3.0625 5.464844 -2.65625 5.464844 -2.183594 C 5.464844 -1.53125 5.234375 -0.980469 4.769531 -0.535156 C 4.308594 -0.0898438 3.703125 0.128906 2.949219 0.128906 C 2.195312 0.128906 1.585938 -0.09375 1.125 -0.539062 C 0.664062 -0.984375 0.433594 -1.542969 0.433594 -2.207031 C 0.433594 -2.703125 0.558594 -3.121094 0.808594 -3.457031 C 1.0625 -3.792969 1.421875 -4.019531 1.886719 -4.140625 Z M 1.699219 -5.730469 C 1.699219 -5.367188 1.8125 -5.074219 2.046875 -4.84375 C 2.28125 -4.613281 2.582031 -4.5 2.953125 -4.5 C 3.3125 -4.5 3.609375 -4.613281 3.839844 -4.839844 C 4.070312 -5.066406 4.1875 -5.347656 4.1875 -5.675781 C 4.1875 -6.019531 4.070312 -6.308594 3.832031 -6.542969 C 3.59375 -6.777344 3.296875 -6.894531 2.941406 -6.894531 C 2.585938 -6.894531 2.289062 -6.78125 2.050781 -6.550781 C 1.816406 -6.324219 1.699219 -6.046875 1.699219 -5.730469 Z M 1.394531 -2.203125 C 1.394531 -1.9375 1.460938 -1.675781 1.585938 -1.425781 C 1.710938 -1.175781 1.902344 -0.984375 2.152344 -0.847656 C 2.402344 -0.710938 2.671875 -0.640625 2.957031 -0.640625 C 3.40625 -0.640625 3.777344 -0.785156 4.066406 -1.074219 C 4.359375 -1.363281 4.503906 -1.726562 4.503906 -2.171875 C 4.503906 -2.625 4.355469 -2.996094 4.054688 -3.292969 C 3.753906 -3.585938 3.378906 -3.734375 2.925781 -3.734375 C 2.484375 -3.734375 2.121094 -3.589844 1.832031 -3.296875 C 1.542969 -3.003906 1.394531 -2.640625 1.394531 -2.203125 Z M 1.394531 -2.203125 "/>
</g>
<g id="glyph-1-8">
<path d="M 0.480469 -2.453125 L 1.433594 -2.535156 C 1.476562 -2.152344 1.582031 -1.839844 1.746094 -1.597656 C 1.910156 -1.351562 2.167969 -1.152344 2.515625 -1.003906 C 2.863281 -0.851562 3.253906 -0.777344 3.6875 -0.777344 C 4.074219 -0.777344 4.414062 -0.832031 4.707031 -0.949219 C 5.003906 -1.0625 5.222656 -1.21875 5.367188 -1.417969 C 5.511719 -1.617188 5.582031 -1.835938 5.582031 -2.074219 C 5.582031 -2.3125 5.515625 -2.523438 5.375 -2.699219 C 5.234375 -2.878906 5.007812 -3.03125 4.6875 -3.152344 C 4.484375 -3.230469 4.03125 -3.355469 3.328125 -3.523438 C 2.625 -3.691406 2.136719 -3.851562 1.855469 -4 C 1.488281 -4.191406 1.21875 -4.429688 1.039062 -4.710938 C 0.859375 -4.992188 0.769531 -5.3125 0.769531 -5.660156 C 0.769531 -6.046875 0.878906 -6.40625 1.097656 -6.742188 C 1.316406 -7.078125 1.636719 -7.332031 2.058594 -7.503906 C 2.476562 -7.679688 2.945312 -7.765625 3.457031 -7.765625 C 4.023438 -7.765625 4.523438 -7.675781 4.957031 -7.492188 C 5.386719 -7.308594 5.71875 -7.042969 5.953125 -6.6875 C 6.1875 -6.332031 6.3125 -5.933594 6.328125 -5.484375 L 5.359375 -5.410156 C 5.308594 -5.894531 5.132812 -6.257812 4.832031 -6.503906 C 4.53125 -6.75 4.085938 -6.875 3.5 -6.875 C 2.890625 -6.875 2.445312 -6.761719 2.164062 -6.539062 C 1.882812 -6.316406 1.746094 -6.046875 1.746094 -5.730469 C 1.746094 -5.457031 1.84375 -5.230469 2.042969 -5.050781 C 2.238281 -4.875 2.742188 -4.695312 3.566406 -4.507812 C 4.386719 -4.320312 4.949219 -4.160156 5.253906 -4.019531 C 5.699219 -3.816406 6.027344 -3.554688 6.238281 -3.242188 C 6.449219 -2.929688 6.558594 -2.566406 6.558594 -2.15625 C 6.558594 -1.75 6.441406 -1.367188 6.207031 -1.007812 C 5.976562 -0.648438 5.640625 -0.367188 5.207031 -0.167969 C 4.769531 0.03125 4.28125 0.128906 3.734375 0.128906 C 3.042969 0.128906 2.464844 0.03125 1.996094 -0.171875 C 1.53125 -0.375 1.164062 -0.675781 0.898438 -1.082031 C 0.632812 -1.484375 0.492188 -1.941406 0.480469 -2.453125 Z M 0.480469 -2.453125 "/>
</g>
<g id="glyph-1-9">
<path d="M 3.449219 0 L 3.449219 -1.828125 L 0.136719 -1.828125 L 0.136719 -2.6875 L 3.621094 -7.636719 L 4.386719 -7.636719 L 4.386719 -2.6875 L 5.417969 -2.6875 L 5.417969 -1.828125 L 4.386719 -1.828125 L 4.386719 0 Z M 3.449219 -2.6875 L 3.449219 -6.128906 L 1.058594 -2.6875 Z M 3.449219 -2.6875 "/>
</g>
<g id="glyph-1-10">
<path d="M 0.441406 -2 L 1.425781 -2.082031 C 1.5 -1.605469 1.667969 -1.242188 1.933594 -1.003906 C 2.199219 -0.761719 2.519531 -0.640625 2.894531 -0.640625 C 3.347656 -0.640625 3.730469 -0.8125 4.042969 -1.152344 C 4.355469 -1.492188 4.511719 -1.941406 4.511719 -2.503906 C 4.511719 -3.039062 4.359375 -3.460938 4.058594 -3.769531 C 3.757812 -4.078125 3.367188 -4.234375 2.878906 -4.234375 C 2.578125 -4.234375 2.304688 -4.164062 2.0625 -4.027344 C 1.820312 -3.890625 1.628906 -3.714844 1.488281 -3.496094 L 0.609375 -3.609375 L 1.347656 -7.53125 L 5.144531 -7.53125 L 5.144531 -6.636719 L 2.097656 -6.636719 L 1.6875 -4.582031 C 2.144531 -4.902344 2.625 -5.0625 3.128906 -5.0625 C 3.796875 -5.0625 4.359375 -4.832031 4.816406 -4.371094 C 5.277344 -3.910156 5.503906 -3.3125 5.503906 -2.589844 C 5.503906 -1.898438 5.304688 -1.300781 4.902344 -0.796875 C 4.410156 -0.179688 3.742188 0.128906 2.894531 0.128906 C 2.199219 0.128906 1.632812 -0.0625 1.195312 -0.453125 C 0.757812 -0.84375 0.503906 -1.359375 0.441406 -2 Z M 0.441406 -2 "/>
</g>
<g id="glyph-1-11">
<path d="M 0.582031 -1.765625 L 1.484375 -1.847656 C 1.5625 -1.425781 1.707031 -1.117188 1.921875 -0.925781 C 2.136719 -0.734375 2.414062 -0.640625 2.75 -0.640625 C 3.039062 -0.640625 3.289062 -0.707031 3.507812 -0.839844 C 3.726562 -0.972656 3.902344 -1.148438 4.042969 -1.367188 C 4.179688 -1.585938 4.296875 -1.886719 4.390625 -2.261719 C 4.484375 -2.636719 4.53125 -3.015625 4.53125 -3.40625 C 4.53125 -3.449219 4.53125 -3.511719 4.527344 -3.59375 C 4.339844 -3.296875 4.082031 -3.054688 3.757812 -2.867188 C 3.433594 -2.679688 3.082031 -2.589844 2.703125 -2.589844 C 2.070312 -2.589844 1.535156 -2.816406 1.097656 -3.277344 C 0.660156 -3.734375 0.441406 -4.339844 0.441406 -5.089844 C 0.441406 -5.863281 0.671875 -6.484375 1.128906 -6.957031 C 1.585938 -7.429688 2.15625 -7.667969 2.84375 -7.667969 C 3.339844 -7.667969 3.792969 -7.53125 4.207031 -7.265625 C 4.617188 -7 4.929688 -6.617188 5.144531 -6.121094 C 5.355469 -5.628906 5.464844 -4.910156 5.464844 -3.972656 C 5.464844 -2.996094 5.359375 -2.222656 5.144531 -1.644531 C 4.933594 -1.066406 4.617188 -0.625 4.199219 -0.324219 C 3.78125 -0.0195312 3.292969 0.128906 2.730469 0.128906 C 2.132812 0.128906 1.644531 -0.0351562 1.265625 -0.367188 C 0.886719 -0.699219 0.660156 -1.164062 0.582031 -1.765625 Z M 4.421875 -5.136719 C 4.421875 -5.675781 4.277344 -6.101562 3.992188 -6.417969 C 3.707031 -6.734375 3.359375 -6.890625 2.957031 -6.890625 C 2.542969 -6.890625 2.179688 -6.71875 1.871094 -6.378906 C 1.5625 -6.039062 1.40625 -5.597656 1.40625 -5.058594 C 1.40625 -4.570312 1.554688 -4.175781 1.847656 -3.871094 C 2.140625 -3.566406 2.5 -3.417969 2.933594 -3.417969 C 3.367188 -3.417969 3.722656 -3.570312 4.003906 -3.871094 C 4.28125 -4.175781 4.421875 -4.597656 4.421875 -5.136719 Z M 4.421875 -5.136719 "/>
</g>
<g id="glyph-1-12">
<path d="M 0.722656 2.121094 L 0.722656 -7.636719 L 2.792969 -7.636719 L 2.792969 -6.859375 L 1.660156 -6.859375 L 1.660156 1.34375 L 2.792969 1.34375 L 2.792969 2.121094 Z M 0.722656 2.121094 "/>
</g>
<g id="glyph-1-13">
<path d="M 0.949219 -4.464844 L 0.949219 -5.53125 L 2.015625 -5.53125 L 2.015625 -4.464844 Z M 0.949219 0 L 0.949219 -1.066406 L 2.015625 -1.066406 L 2.015625 0 C 2.015625 0.390625 1.945312 0.710938 1.808594 0.949219 C 1.667969 1.191406 1.449219 1.378906 1.144531 1.511719 L 0.886719 1.109375 C 1.082031 1.023438 1.230469 0.894531 1.324219 0.726562 C 1.417969 0.558594 1.46875 0.316406 1.480469 0 Z M 0.949219 0 "/>
</g>
<g id="glyph-1-14">
<path d="M 6.046875 -0.847656 C 5.820312 -0.589844 5.570312 -0.378906 5.289062 -0.222656 C 5.007812 -0.0625 4.730469 0.015625 4.449219 0.015625 C 4.140625 0.015625 3.839844 -0.0742188 3.546875 -0.253906 C 3.253906 -0.433594 3.019531 -0.714844 2.835938 -1.089844 C 2.652344 -1.464844 2.5625 -1.875 2.5625 -2.324219 C 2.5625 -2.875 2.703125 -3.429688 2.988281 -3.980469 C 3.269531 -4.535156 3.621094 -4.953125 4.042969 -5.230469 C 4.460938 -5.507812 4.871094 -5.644531 5.265625 -5.644531 C 5.566406 -5.644531 5.855469 -5.566406 6.128906 -5.410156 C 6.402344 -5.25 6.640625 -5.011719 6.839844 -4.6875 L 7.015625 -5.496094 L 7.949219 -5.496094 L 7.199219 -2 C 7.09375 -1.515625 7.042969 -1.246094 7.042969 -1.191406 C 7.042969 -1.097656 7.078125 -1.019531 7.148438 -0.949219 C 7.21875 -0.882812 7.304688 -0.847656 7.40625 -0.847656 C 7.589844 -0.847656 7.832031 -0.953125 8.128906 -1.167969 C 8.527344 -1.445312 8.839844 -1.816406 9.070312 -2.285156 C 9.300781 -2.75 9.417969 -3.234375 9.417969 -3.730469 C 9.417969 -4.308594 9.269531 -4.851562 8.972656 -5.355469 C 8.675781 -5.859375 8.230469 -6.261719 7.644531 -6.5625 C 7.054688 -6.863281 6.40625 -7.015625 5.691406 -7.015625 C 4.878906 -7.015625 4.136719 -6.824219 3.464844 -6.445312 C 2.792969 -6.066406 2.273438 -5.519531 1.902344 -4.808594 C 1.535156 -4.097656 1.347656 -3.339844 1.347656 -2.527344 C 1.347656 -1.675781 1.535156 -0.941406 1.902344 -0.328125 C 2.273438 0.285156 2.808594 0.742188 3.507812 1.035156 C 4.207031 1.328125 4.984375 1.472656 5.832031 1.472656 C 6.742188 1.472656 7.503906 1.320312 8.121094 1.015625 C 8.734375 0.710938 9.195312 0.339844 9.5 -0.0976562 L 10.441406 -0.0976562 C 10.265625 0.265625 9.960938 0.636719 9.53125 1.015625 C 9.101562 1.394531 8.589844 1.695312 7.996094 1.914062 C 7.402344 2.132812 6.6875 2.246094 5.847656 2.246094 C 5.078125 2.246094 4.367188 2.144531 3.714844 1.949219 C 3.066406 1.75 2.511719 1.453125 2.050781 1.054688 C 1.59375 0.65625 1.25 0.199219 1.015625 -0.316406 C 0.722656 -0.972656 0.578125 -1.683594 0.578125 -2.441406 C 0.578125 -3.289062 0.75 -4.097656 1.097656 -4.863281 C 1.523438 -5.804688 2.125 -6.527344 2.902344 -7.027344 C 3.683594 -7.527344 4.628906 -7.777344 5.738281 -7.777344 C 6.601562 -7.777344 7.375 -7.601562 8.058594 -7.246094 C 8.746094 -6.894531 9.285156 -6.371094 9.683594 -5.671875 C 10.019531 -5.070312 10.1875 -4.417969 10.1875 -3.714844 C 10.1875 -2.707031 9.832031 -1.8125 9.125 -1.03125 C 8.492188 -0.328125 7.800781 0.0195312 7.050781 0.0195312 C 6.8125 0.0195312 6.617188 -0.015625 6.472656 -0.0898438 C 6.324219 -0.160156 6.214844 -0.265625 6.144531 -0.402344 C 6.101562 -0.488281 6.066406 -0.636719 6.046875 -0.847656 Z M 3.527344 -2.261719 C 3.527344 -1.785156 3.640625 -1.414062 3.863281 -1.152344 C 4.089844 -0.886719 4.347656 -0.753906 4.640625 -0.753906 C 4.835938 -0.753906 5.039062 -0.8125 5.253906 -0.929688 C 5.46875 -1.046875 5.675781 -1.21875 5.871094 -1.449219 C 6.066406 -1.675781 6.230469 -1.96875 6.355469 -2.320312 C 6.480469 -2.671875 6.542969 -3.027344 6.542969 -3.378906 C 6.542969 -3.851562 6.425781 -4.21875 6.191406 -4.480469 C 5.957031 -4.738281 5.671875 -4.871094 5.332031 -4.871094 C 5.109375 -4.871094 4.902344 -4.8125 4.707031 -4.699219 C 4.511719 -4.585938 4.320312 -4.40625 4.136719 -4.15625 C 3.953125 -3.90625 3.804688 -3.601562 3.691406 -3.246094 C 3.582031 -2.886719 3.527344 -2.558594 3.527344 -2.261719 Z M 3.527344 -2.261719 "/>
</g>
<g id="glyph-1-15">
<path d="M 2.269531 2.121094 L 0.203125 2.121094 L 0.203125 1.34375 L 1.332031 1.34375 L 1.332031 -6.859375 L 0.203125 -6.859375 L 0.203125 -7.636719 L 2.269531 -7.636719 Z M 2.269531 2.121094 "/>
</g>
<g id="glyph-1-16">
<path d="M 0.8125 0 L 0.8125 -7.636719 L 1.847656 -7.636719 L 5.859375 -1.640625 L 5.859375 -7.636719 L 6.828125 -7.636719 L 6.828125 0 L 5.792969 0 L 1.78125 -6 L 1.78125 0 Z M 0.8125 0 "/>
</g>
<g id="glyph-1-17">
<path d="M 0.515625 -3.71875 C 0.515625 -4.984375 0.855469 -5.976562 1.535156 -6.695312 C 2.214844 -7.414062 3.09375 -7.769531 4.171875 -7.769531 C 4.875 -7.769531 5.511719 -7.601562 6.078125 -7.265625 C 6.644531 -6.929688 7.074219 -6.460938 7.371094 -5.855469 C 7.667969 -5.253906 7.816406 -4.570312 7.816406 -3.808594 C 7.816406 -3.035156 7.660156 -2.339844 7.347656 -1.730469 C 7.035156 -1.117188 6.59375 -0.65625 6.019531 -0.339844 C 5.449219 -0.0273438 4.828125 0.128906 4.167969 0.128906 C 3.449219 0.128906 2.804688 -0.0429688 2.238281 -0.390625 C 1.671875 -0.738281 1.246094 -1.210938 0.953125 -1.8125 C 0.660156 -2.414062 0.515625 -3.046875 0.515625 -3.71875 Z M 1.558594 -3.703125 C 1.558594 -2.78125 1.804688 -2.058594 2.300781 -1.527344 C 2.792969 -1 3.414062 -0.734375 4.160156 -0.734375 C 4.921875 -0.734375 5.546875 -1 6.039062 -1.535156 C 6.53125 -2.070312 6.777344 -2.828125 6.777344 -3.8125 C 6.777344 -4.433594 6.671875 -4.976562 6.460938 -5.441406 C 6.25 -5.902344 5.945312 -6.261719 5.539062 -6.519531 C 5.132812 -6.773438 4.679688 -6.902344 4.175781 -6.902344 C 3.460938 -6.902344 2.847656 -6.65625 2.332031 -6.164062 C 1.816406 -5.671875 1.558594 -4.851562 1.558594 -3.703125 Z M 1.558594 -3.703125 "/>
</g>
<g id="glyph-1-18">
<path d="M 0.441406 -3.765625 C 0.441406 -4.667969 0.535156 -5.394531 0.722656 -5.945312 C 0.90625 -6.496094 1.183594 -6.921875 1.550781 -7.21875 C 1.917969 -7.515625 2.375 -7.667969 2.933594 -7.667969 C 3.34375 -7.667969 3.703125 -7.585938 4.011719 -7.417969 C 4.320312 -7.253906 4.574219 -7.015625 4.777344 -6.707031 C 4.976562 -6.394531 5.136719 -6.015625 5.25 -5.570312 C 5.363281 -5.125 5.421875 -4.523438 5.421875 -3.765625 C 5.421875 -2.871094 5.328125 -2.148438 5.144531 -1.597656 C 4.960938 -1.046875 4.6875 -0.621094 4.320312 -0.320312 C 3.953125 -0.0195312 3.492188 0.128906 2.933594 0.128906 C 2.195312 0.128906 1.617188 -0.132812 1.199219 -0.660156 C 0.695312 -1.296875 0.441406 -2.332031 0.441406 -3.765625 Z M 1.40625 -3.765625 C 1.40625 -2.511719 1.554688 -1.679688 1.847656 -1.261719 C 2.140625 -0.847656 2.5 -0.640625 2.933594 -0.640625 C 3.363281 -0.640625 3.726562 -0.847656 4.019531 -1.265625 C 4.3125 -1.683594 4.457031 -2.515625 4.457031 -3.765625 C 4.457031 -5.023438 4.3125 -5.859375 4.019531 -6.269531 C 3.726562 -6.683594 3.359375 -6.890625 2.921875 -6.890625 C 2.492188 -6.890625 2.148438 -6.707031 1.890625 -6.34375 C 1.566406 -5.878906 1.40625 -5.019531 1.40625 -3.765625 Z M 1.40625 -3.765625 "/>
</g>
</g>
</defs>
<path fill="none" stroke-width="0.0333333" stroke-linecap="butt" stroke-linejoin="miter" stroke="rgb(0%, 0%, 0%)" stroke-opacity="1" stroke-miterlimit="10" d="M 0.73325 0.833399 L 1.150926 0.877344 " transform="matrix(40, 0, 0, 40, 20.720779, 9.93359)"/>
<path fill="none" stroke-width="0.0333333" stroke-linecap="butt" stroke-linejoin="miter" stroke="rgb(0%, 0%, 0%)" stroke-opacity="1" stroke-miterlimit="10" d="M 0.982273 1.111035 L 1.03452 0.61377 " transform="matrix(40, 0, 0, 40, 20.720779, 9.93359)"/>
<path fill="none" stroke-width="0.0333333" stroke-linecap="butt" stroke-linejoin="miter" stroke="rgb(0%, 0%, 0%)" stroke-opacity="1" stroke-miterlimit="10" d="M 0.849656 1.09707 L 0.901902 0.599805 " transform="matrix(40, 0, 0, 40, 20.720779, 9.93359)"/>
<path fill="none" stroke-width="0.0333333" stroke-linecap="butt" stroke-linejoin="miter" stroke="rgb(0%, 0%, 0%)" stroke-opacity="1" stroke-miterlimit="10" d="M 1.571043 1.083594 L 1.775828 1.543359 " transform="matrix(40, 0, 0, 40, 20.720779, 9.93359)"/>
<path fill="none" stroke-width="0.0333333" stroke-linecap="butt" stroke-linejoin="miter" stroke="rgb(0%, 0%, 0%)" stroke-opacity="1" stroke-miterlimit="10" d="M 1.480125 1.96416 L 1.130906 2.077637 " transform="matrix(40, 0, 0, 40, 20.720779, 9.93359)"/>
<path fill="none" stroke-width="0.0333333" stroke-linecap="butt" stroke-linejoin="miter" stroke="rgb(0%, 0%, 0%)" stroke-opacity="1" stroke-miterlimit="10" d="M 0.712547 1.921289 L 0.43618 1.672461 " transform="matrix(40, 0, 0, 40, 20.720779, 9.93359)"/>
<path fill="none" stroke-width="0.0333333" stroke-linecap="butt" stroke-linejoin="miter" stroke="rgb(0%, 0%, 0%)" stroke-opacity="1" stroke-miterlimit="10" d="M 0.826609 2.444141 L 0.688035 2.787109 " transform="matrix(40, 0, 0, 40, 20.720779, 9.93359)"/>
<path fill="none" stroke-width="0.0333333" stroke-linecap="butt" stroke-linejoin="miter" stroke="rgb(0%, 0%, 0%)" stroke-opacity="1" stroke-miterlimit="10" d="M 0.529441 2.273145 L 0.249949 2.363867 " transform="matrix(40, 0, 0, 40, 20.720779, 9.93359)"/>
<path fill="none" stroke-width="0.0333333" stroke-linecap="butt" stroke-linejoin="miter" stroke="rgb(0%, 0%, 0%)" stroke-opacity="1" stroke-miterlimit="10" d="M 2.095359 1.715527 L 2.370359 1.556738 " transform="matrix(40, 0, 0, 40, 20.720779, 9.93359)"/>
<path fill="none" stroke-width="0.0333333" stroke-linecap="butt" stroke-linejoin="miter" stroke="rgb(0%, 0%, 0%)" stroke-opacity="1" stroke-miterlimit="10" d="M 2.415574 1.819336 L 2.165574 1.386328 " transform="matrix(40, 0, 0, 40, 20.720779, 9.93359)"/>
<path fill="none" stroke-width="0.0333333" stroke-linecap="butt" stroke-linejoin="miter" stroke="rgb(0%, 0%, 0%)" stroke-opacity="1" stroke-miterlimit="10" d="M 2.300145 1.885938 L 2.050145 1.45293 " transform="matrix(40, 0, 0, 40, 20.720779, 9.93359)"/>
<path fill="none" stroke-width="0.0333333" stroke-linecap="butt" stroke-linejoin="miter" stroke="rgb(0%, 0%, 0%)" stroke-opacity="1" stroke-miterlimit="10" d="M 2.901707 1.447363 L 3.298191 1.804395 " transform="matrix(40, 0, 0, 40, 20.720779, 9.93359)"/>
<path fill="none" stroke-width="0.0333333" stroke-linecap="butt" stroke-linejoin="miter" stroke="rgb(0%, 0%, 0%)" stroke-opacity="1" stroke-miterlimit="10" d="M 3.685398 1.728125 L 3.847996 1.477637 " transform="matrix(40, 0, 0, 40, 20.720779, 9.93359)"/>
<path fill="none" stroke-width="0.0333333" stroke-linecap="butt" stroke-linejoin="miter" stroke="rgb(0%, 0%, 0%)" stroke-opacity="1" stroke-miterlimit="10" d="M 3.748387 2.101758 L 4.062059 2.241406 " transform="matrix(40, 0, 0, 40, 20.720779, 9.93359)"/>
<path fill="none" stroke-width="0.0333333" stroke-linecap="butt" stroke-linejoin="miter" stroke="rgb(0%, 0%, 0%)" stroke-opacity="1" stroke-miterlimit="10" d="M 4.898387 2.61377 L 5.050633 2.681543 " transform="matrix(40, 0, 0, 40, 20.720779, 9.93359)"/>
<path fill="none" stroke-width="0.0333333" stroke-linecap="butt" stroke-linejoin="miter" stroke="rgb(0%, 0%, 0%)" stroke-opacity="1" stroke-miterlimit="10" d="M 5.518211 2.679004 L 5.778856 2.489649 " transform="matrix(40, 0, 0, 40, 20.720779, 9.93359)"/>
<path fill="none" stroke-width="0.0333333" stroke-linecap="butt" stroke-linejoin="miter" stroke="rgb(0%, 0%, 0%)" stroke-opacity="1" stroke-miterlimit="10" d="M 6.201512 1.939942 L 6.153172 1.479199 " transform="matrix(40, 0, 0, 40, 20.720779, 9.93359)"/>
<path fill="none" stroke-width="0.0333333" stroke-linecap="butt" stroke-linejoin="miter" stroke="rgb(0%, 0%, 0%)" stroke-opacity="1" stroke-miterlimit="10" d="M 6.035789 1.957324 L 5.987352 1.49668 " transform="matrix(40, 0, 0, 40, 20.720779, 9.93359)"/>
<path fill="none" stroke-width="0.0333333" stroke-linecap="butt" stroke-linejoin="miter" stroke="rgb(0%, 0%, 0%)" stroke-opacity="1" stroke-miterlimit="10" d="M 6.314109 2.296094 L 6.631004 2.437207 " transform="matrix(40, 0, 0, 40, 20.720779, 9.93359)"/>
<path fill="none" stroke-width="0.0333333" stroke-linecap="butt" stroke-linejoin="miter" stroke="rgb(0%, 0%, 0%)" stroke-opacity="1" stroke-miterlimit="10" d="M 7.259129 2.48457 L 7.442234 2.351563 " transform="matrix(40, 0, 0, 40, 20.720779, 9.93359)"/>
<path fill="none" stroke-width="0.0333333" stroke-linecap="butt" stroke-linejoin="miter" stroke="rgb(0%, 0%, 0%)" stroke-opacity="1" stroke-miterlimit="10" d="M 8.036668 2.115039 L 8.353563 2.256152 " transform="matrix(40, 0, 0, 40, 20.720779, 9.93359)"/>
<path fill="none" stroke-width="0.0333333" stroke-linecap="butt" stroke-linejoin="miter" stroke="rgb(0%, 0%, 0%)" stroke-opacity="1" stroke-miterlimit="10" d="M 8.981688 2.303613 L 9.139891 2.188672 " transform="matrix(40, 0, 0, 40, 20.720779, 9.93359)"/>
<path fill="none" stroke-width="0.0333333" stroke-linecap="butt" stroke-linejoin="miter" stroke="rgb(0%, 0%, 0%)" stroke-opacity="1" stroke-miterlimit="10" d="M 9.759227 1.934082 L 10.076121 2.075098 " transform="matrix(40, 0, 0, 40, 20.720779, 9.93359)"/>
<path fill="none" stroke-width="0.0333333" stroke-linecap="butt" stroke-linejoin="miter" stroke="rgb(0%, 0%, 0%)" stroke-opacity="1" stroke-miterlimit="10" d="M 10.450242 2.532617 L 10.498973 2.996484 " transform="matrix(40, 0, 0, 40, 20.720779, 9.93359)"/>
<path fill="none" stroke-width="0.0333333" stroke-linecap="butt" stroke-linejoin="miter" stroke="rgb(0%, 0%, 0%)" stroke-opacity="1" stroke-miterlimit="10" d="M 10.615965 2.515137 L 10.664793 2.979102 " transform="matrix(40, 0, 0, 40, 20.720779, 9.93359)"/>
<path fill="none" stroke-width="0.0333333" stroke-linecap="butt" stroke-linejoin="miter" stroke="rgb(0%, 0%, 0%)" stroke-opacity="1" stroke-miterlimit="10" d="M 10.704344 2.122559 L 10.862645 2.00752 " transform="matrix(40, 0, 0, 40, 20.720779, 9.93359)"/>
<path fill="none" stroke-width="0.0333333" stroke-linecap="butt" stroke-linejoin="miter" stroke="rgb(0%, 0%, 0%)" stroke-opacity="1" stroke-miterlimit="10" d="M 11.493406 1.758106 L 11.800926 1.89502 " transform="matrix(40, 0, 0, 40, 20.720779, 9.93359)"/>
<path fill="none" stroke-width="0.0333333" stroke-linecap="butt" stroke-linejoin="miter" stroke="rgb(0%, 0%, 0%)" stroke-opacity="1" stroke-miterlimit="10" d="M 9.670457 1.59668 L 9.788035 1.199707 " transform="matrix(40, 0, 0, 40, 20.720779, 9.93359)"/>
<path fill="none" stroke-width="0.0333333" stroke-linecap="butt" stroke-linejoin="miter" stroke="rgb(0%, 0%, 0%)" stroke-opacity="1" stroke-miterlimit="10" d="M 9.441746 1.582129 L 9.260789 1.248926 " transform="matrix(40, 0, 0, 40, 20.720779, 9.93359)"/>
<path fill="none" stroke-width="0.0333333" stroke-linecap="butt" stroke-linejoin="miter" stroke="rgb(0%, 0%, 0%)" stroke-opacity="1" stroke-miterlimit="10" d="M 8.695359 2.745313 L 8.581785 3.128613 " transform="matrix(40, 0, 0, 40, 20.720779, 9.93359)"/>
<path fill="none" stroke-width="0.0333333" stroke-linecap="butt" stroke-linejoin="miter" stroke="rgb(0%, 0%, 0%)" stroke-opacity="1" stroke-miterlimit="10" d="M 8.87368 2.613672 L 9.115184 3.058496 " transform="matrix(40, 0, 0, 40, 20.720779, 9.93359)"/>
<path fill="none" stroke-width="0.0333333" stroke-linecap="butt" stroke-linejoin="miter" stroke="rgb(0%, 0%, 0%)" stroke-opacity="1" stroke-miterlimit="10" d="M 7.947898 1.777734 L 8.064793 1.383203 " transform="matrix(40, 0, 0, 40, 20.720779, 9.93359)"/>
<path fill="none" stroke-width="0.0333333" stroke-linecap="butt" stroke-linejoin="miter" stroke="rgb(0%, 0%, 0%)" stroke-opacity="1" stroke-miterlimit="10" d="M 7.719188 1.763184 L 7.538231 1.429883 " transform="matrix(40, 0, 0, 40, 20.720779, 9.93359)"/>
<path fill="none" stroke-width="0.0333333" stroke-linecap="butt" stroke-linejoin="miter" stroke="rgb(0%, 0%, 0%)" stroke-opacity="1" stroke-miterlimit="10" d="M 6.971824 2.92959 L 6.859227 3.309668 " transform="matrix(40, 0, 0, 40, 20.720779, 9.93359)"/>
<path fill="none" stroke-width="0.0333333" stroke-linecap="butt" stroke-linejoin="miter" stroke="rgb(0%, 0%, 0%)" stroke-opacity="1" stroke-miterlimit="10" d="M 7.151121 2.794629 L 7.392625 3.239551 " transform="matrix(40, 0, 0, 40, 20.720779, 9.93359)"/>
<path fill="none" stroke-width="0.0333333" stroke-linecap="butt" stroke-linejoin="miter" stroke="rgb(0%, 0%, 0%)" stroke-opacity="1" stroke-miterlimit="10" d="M 5.355027 2.968164 L 5.415281 3.540918 " transform="matrix(40, 0, 0, 40, 20.720779, 9.93359)"/>
<path fill="none" stroke-width="0.0333333" stroke-linecap="butt" stroke-linejoin="miter" stroke="rgb(0%, 0%, 0%)" stroke-opacity="1" stroke-miterlimit="10" d="M 4.555223 2.109961 L 4.693016 1.800586 " transform="matrix(40, 0, 0, 40, 20.720779, 9.93359)"/>
<path fill="none" stroke-width="0.0333333" stroke-linecap="butt" stroke-linejoin="miter" stroke="rgb(0%, 0%, 0%)" stroke-opacity="1" stroke-miterlimit="10" d="M 4.286668 2.713184 L 4.130516 3.064063 " transform="matrix(40, 0, 0, 40, 20.720779, 9.93359)"/>
<path fill="none" stroke-width="0.0333333" stroke-linecap="butt" stroke-linejoin="miter" stroke="rgb(0%, 0%, 0%)" stroke-opacity="1" stroke-miterlimit="10" d="M 4.017918 3.548633 L 4.188914 3.994043 " transform="matrix(40, 0, 0, 40, 20.720779, 9.93359)"/>
<path fill="none" stroke-width="0.0333333" stroke-linecap="butt" stroke-linejoin="miter" stroke="rgb(0%, 0%, 0%)" stroke-opacity="1" stroke-miterlimit="10" d="M 4.173484 3.488867 L 4.344481 3.934375 " transform="matrix(40, 0, 0, 40, 20.720779, 9.93359)"/>
<path fill="none" stroke-width="0.0333333" stroke-linecap="butt" stroke-linejoin="miter" stroke="rgb(0%, 0%, 0%)" stroke-opacity="1" stroke-miterlimit="10" d="M 3.588133 3.125098 L 3.253563 2.976074 " transform="matrix(40, 0, 0, 40, 20.720779, 9.93359)"/>
<path fill="none" stroke-width="0.0333333" stroke-linecap="butt" stroke-linejoin="miter" stroke="rgb(0%, 0%, 0%)" stroke-opacity="1" stroke-miterlimit="10" d="M 3.213914 2.66416 L 3.374656 2.303027 " transform="matrix(40, 0, 0, 40, 20.720779, 9.93359)"/>
<path fill="none" stroke-width="0.0333333" stroke-linecap="butt" stroke-linejoin="miter" stroke="rgb(0%, 0%, 0%)" stroke-opacity="1" stroke-miterlimit="10" d="M 2.576609 2.854297 L 2.270555 2.82207 " transform="matrix(40, 0, 0, 40, 20.720779, 9.93359)"/>
<path fill="none" stroke-width="0.0333333" stroke-linecap="butt" stroke-linejoin="miter" stroke="rgb(0%, 0%, 0%)" stroke-opacity="1" stroke-miterlimit="10" d="M 2.051023 2.527832 L 1.938523 1.99834 " transform="matrix(40, 0, 0, 40, 20.720779, 9.93359)"/>
<path fill="none" stroke-width="0.0333333" stroke-linecap="butt" stroke-linejoin="miter" stroke="rgb(0%, 0%, 0%)" stroke-opacity="1" stroke-miterlimit="10" d="M 2.239305 2.211133 L 1.750242 2.315137 " transform="matrix(40, 0, 0, 40, 20.720779, 9.93359)"/>
<path fill="none" stroke-width="0.0333333" stroke-linecap="butt" stroke-linejoin="miter" stroke="rgb(0%, 0%, 0%)" stroke-opacity="1" stroke-miterlimit="10" d="M 1.607176 3.050488 L 1.457371 3.123535 " transform="matrix(40, 0, 0, 40, 20.720779, 9.93359)"/>
<path fill="none" stroke-width="0.0333333" stroke-linecap="butt" stroke-linejoin="miter" stroke="rgb(0%, 0%, 0%)" stroke-opacity="1" stroke-miterlimit="10" d="M 1.362742 2.891504 L 1.581981 3.340918 " transform="matrix(40, 0, 0, 40, 20.720779, 9.93359)"/>
<path fill="none" stroke-width="0.0333333" stroke-linecap="butt" stroke-linejoin="miter" stroke="rgb(0%, 0%, 0%)" stroke-opacity="1" stroke-miterlimit="10" d="M 1.482664 2.833106 L 1.701805 3.28252 " transform="matrix(40, 0, 0, 40, 20.720779, 9.93359)"/>
<path fill="none" stroke-width="0.0333333" stroke-linecap="butt" stroke-linejoin="miter" stroke="rgb(0%, 0%, 0%)" stroke-opacity="1" stroke-miterlimit="10" d="M 2.110008 2.964551 L 2.110008 3.547168 " transform="matrix(40, 0, 0, 40, 20.720779, 9.93359)"/>
<path fill="none" stroke-width="0.0333333" stroke-linecap="butt" stroke-linejoin="miter" stroke="rgb(0%, 0%, 0%)" stroke-opacity="1" stroke-miterlimit="10" d="M 2.23032 3.970899 L 2.48657 4.118848 " transform="matrix(40, 0, 0, 40, 20.720779, 9.93359)"/>
<path fill="none" stroke-width="0.0333333" stroke-linecap="butt" stroke-linejoin="miter" stroke="rgb(0%, 0%, 0%)" stroke-opacity="1" stroke-miterlimit="10" d="M 2.313719 3.826563 L 2.569969 3.974512 " transform="matrix(40, 0, 0, 40, 20.720779, 9.93359)"/>
<path fill="none" stroke-width="0.0333333" stroke-linecap="butt" stroke-linejoin="miter" stroke="rgb(0%, 0%, 0%)" stroke-opacity="1" stroke-miterlimit="10" d="M 1.647313 4.072363 L 1.502977 4.155762 " transform="matrix(40, 0, 0, 40, 20.720779, 9.93359)"/>
<path fill="none" stroke-width="0.0333333" stroke-linecap="butt" stroke-linejoin="miter" stroke="rgb(0%, 0%, 0%)" stroke-opacity="1" stroke-miterlimit="10" d="M 1.243992 4.580664 L 1.243992 5.052051 " transform="matrix(40, 0, 0, 40, 20.720779, 9.93359)"/>
<path fill="none" stroke-width="0.0333333" stroke-linecap="butt" stroke-linejoin="miter" stroke="rgb(0%, 0%, 0%)" stroke-opacity="1" stroke-miterlimit="10" d="M 1.655125 0.693652 L 1.848875 0.426953 " transform="matrix(40, 0, 0, 40, 20.720779, 9.93359)"/>
<path fill="none" stroke-width="0.0333333" stroke-linecap="butt" stroke-linejoin="miter" stroke="rgb(0%, 0%, 0%)" stroke-opacity="1" stroke-miterlimit="10" d="M 1.36909 0.629785 L 1.210789 0.274414 " transform="matrix(40, 0, 0, 40, 20.720779, 9.93359)"/>
<g fill="rgb(0%, 0%, 0%)" fill-opacity="1">
<use xlink:href="#glyph-0-1" x="34.984375" y="48.023438"/>
</g>
<g fill="rgb(0%, 0%, 0%)" fill-opacity="1">
<use xlink:href="#glyph-1-1" x="74.941406" y="48.320312"/>
</g>
<g fill="rgb(0%, 0%, 0%)" fill-opacity="1">
<use xlink:href="#glyph-1-2" x="70.164062" y="52.957031"/>
</g>
<g fill="rgb(0%, 0%, 0%)" fill-opacity="1">
<use xlink:href="#glyph-1-1" x="91.210938" y="84.863281"/>
</g>
<g fill="rgb(0%, 0%, 0%)" fill-opacity="1">
<use xlink:href="#glyph-1-3" x="85.039062" y="89.496094"/>
</g>
<g fill="rgb(0%, 0%, 0%)" fill-opacity="1">
<use xlink:href="#glyph-1-1" x="53.171875" y="97.222656"/>
</g>
<g fill="rgb(0%, 0%, 0%)" fill-opacity="1">
<use xlink:href="#glyph-1-4" x="46.917969" y="101.859375"/>
</g>
<g fill="rgb(0%, 0%, 0%)" fill-opacity="1">
<use xlink:href="#glyph-0-1" x="23.265625" y="74.339844"/>
</g>
<g fill="rgb(0%, 0%, 0%)" fill-opacity="1">
<use xlink:href="#glyph-1-4" x="11.835938" y="75.132812"/>
<use xlink:href="#glyph-1-5" x="17.76823" y="75.132812"/>
</g>
<g fill="rgb(0%, 0%, 0%)" fill-opacity="1">
<use xlink:href="#glyph-0-1" x="38.007812" y="138.191406"/>
</g>
<g fill="rgb(0%, 0%, 0%)" fill-opacity="1">
<use xlink:href="#glyph-1-4" x="26.574219" y="138.984375"/>
<use xlink:href="#glyph-1-6" x="32.506511" y="138.984375"/>
</g>
<g fill="rgb(0%, 0%, 0%)" fill-opacity="1">
<use xlink:href="#glyph-0-1" x="14.949219" y="113.464844"/>
</g>
<g fill="rgb(0%, 0%, 0%)" fill-opacity="1">
<use xlink:href="#glyph-1-4" x="3.5" y="114.257812"/>
<use xlink:href="#glyph-1-7" x="9.432293" y="114.257812"/>
</g>
<g fill="rgb(0%, 0%, 0%)" fill-opacity="1">
<use xlink:href="#glyph-1-8" x="125.90625" y="64.863281"/>
</g>
<g fill="rgb(0%, 0%, 0%)" fill-opacity="1">
<use xlink:href="#glyph-1-9" x="119.632813" y="69.464844"/>
</g>
<g fill="rgb(0%, 0%, 0%)" fill-opacity="1">
<use xlink:href="#glyph-1-1" x="158.953125" y="91.628906"/>
</g>
<g fill="rgb(0%, 0%, 0%)" fill-opacity="1">
<use xlink:href="#glyph-1-10" x="152.644531" y="96.128906"/>
</g>
<g fill="rgb(0%, 0%, 0%)" fill-opacity="1">
<use xlink:href="#glyph-0-1" x="177.183594" y="61.964844"/>
</g>
<g fill="rgb(0%, 0%, 0%)" fill-opacity="1">
<use xlink:href="#glyph-1-4" x="165.734375" y="62.753906"/>
<use xlink:href="#glyph-1-11" x="171.666668" y="62.753906"/>
</g>
<g fill="rgb(0%, 0%, 0%)" fill-opacity="1">
<use xlink:href="#glyph-1-12" x="191.925781" y="107.90625"/>
<use xlink:href="#glyph-1-1" x="194.889323" y="107.90625"/>
<use xlink:href="#glyph-1-13" x="202.59245" y="107.90625"/>
<use xlink:href="#glyph-1-14" x="205.555992" y="107.90625"/>
<use xlink:href="#glyph-1-14" x="216.384119" y="107.90625"/>
<use xlink:href="#glyph-1-15" x="227.212245" y="107.90625"/>
</g>
<g fill="rgb(0%, 0%, 0%)" fill-opacity="1">
<use xlink:href="#glyph-1-5" x="185.875" y="112.53125"/>
</g>
<g fill="rgb(0%, 0%, 0%)" fill-opacity="1">
<use xlink:href="#glyph-1-16" x="228.382813" y="124.035156"/>
</g>
<g fill="rgb(0%, 0%, 0%)" fill-opacity="1">
<use xlink:href="#glyph-1-6" x="222.410156" y="128.671875"/>
</g>
<g fill="rgb(0%, 0%, 0%)" fill-opacity="1">
<use xlink:href="#glyph-1-1" x="261.023438" y="100.65625"/>
</g>
<g fill="rgb(0%, 0%, 0%)" fill-opacity="1">
<use xlink:href="#glyph-1-7" x="254.757813" y="105.289062"/>
</g>
<g fill="rgb(0%, 0%, 0%)" fill-opacity="1">
<use xlink:href="#glyph-1-17" x="256.859375" y="60.878906"/>
</g>
<g fill="rgb(0%, 0%, 0%)" fill-opacity="1">
<use xlink:href="#glyph-1-11" x="250.574219" y="65.511719"/>
</g>
<g fill="rgb(0%, 0%, 0%)" fill-opacity="1">
<use xlink:href="#glyph-1-1" x="297.566406" y="116.925781"/>
</g>
<g fill="rgb(0%, 0%, 0%)" fill-opacity="1">
<use xlink:href="#glyph-1-2" x="285.40625" y="121.558594"/>
<use xlink:href="#glyph-1-18" x="291.338543" y="121.558594"/>
</g>
<g fill="rgb(0%, 0%, 0%)" fill-opacity="1">
<use xlink:href="#glyph-1-1" x="329.925781" y="93.414062"/>
</g>
<g fill="rgb(0%, 0%, 0%)" fill-opacity="1">
<use xlink:href="#glyph-1-2" x="319.214844" y="98.046875"/>
<use xlink:href="#glyph-1-2" x="325.147136" y="98.046875"/>
</g>
<g fill="rgb(0%, 0%, 0%)" fill-opacity="1">
<use xlink:href="#glyph-1-1" x="366.46875" y="109.683594"/>
</g>
<g fill="rgb(0%, 0%, 0%)" fill-opacity="1">
<use xlink:href="#glyph-1-2" x="354.359375" y="114.316406"/>
<use xlink:href="#glyph-1-3" x="360.291668" y="114.316406"/>
</g>
<g fill="rgb(0%, 0%, 0%)" fill-opacity="1">
<use xlink:href="#glyph-1-1" x="398.828125" y="86.171875"/>
</g>
<g fill="rgb(0%, 0%, 0%)" fill-opacity="1">
<use xlink:href="#glyph-1-2" x="386.644531" y="90.808594"/>
<use xlink:href="#glyph-1-4" x="392.576824" y="90.808594"/>
</g>
<g fill="rgb(0%, 0%, 0%)" fill-opacity="1">
<use xlink:href="#glyph-1-1" x="435.371094" y="102.441406"/>
</g>
<g fill="rgb(0%, 0%, 0%)" fill-opacity="1">
<use xlink:href="#glyph-1-2" x="423.21875" y="107.074219"/>
<use xlink:href="#glyph-1-9" x="429.151043" y="107.074219"/>
</g>
<g fill="rgb(0%, 0%, 0%)" fill-opacity="1">
<use xlink:href="#glyph-1-17" x="439.566406" y="142.226562"/>
</g>
<g fill="rgb(0%, 0%, 0%)" fill-opacity="1">
<use xlink:href="#glyph-1-2" x="427.308594" y="146.855469"/>
<use xlink:href="#glyph-1-10" x="433.240886" y="146.855469"/>
</g>
<g fill="rgb(0%, 0%, 0%)" fill-opacity="1">
<use xlink:href="#glyph-1-17" x="467.746094" y="78.933594"/>
</g>
<g fill="rgb(0%, 0%, 0%)" fill-opacity="1">
<use xlink:href="#glyph-1-2" x="455.550781" y="83.566406"/>
<use xlink:href="#glyph-1-5" x="461.483074" y="83.566406"/>
</g>
<g fill="rgb(0%, 0%, 0%)" fill-opacity="1">
<use xlink:href="#glyph-0-1" x="504.09375" y="99.082031"/>
</g>
<g fill="rgb(0%, 0%, 0%)" fill-opacity="1">
<use xlink:href="#glyph-1-9" x="492.6875" y="99.875"/>
<use xlink:href="#glyph-1-18" x="498.619793" y="99.875"/>
</g>
<g fill="rgb(0%, 0%, 0%)" fill-opacity="1">
<use xlink:href="#glyph-0-1" x="410.007813" y="51.699219"/>
</g>
<g fill="rgb(0%, 0%, 0%)" fill-opacity="1">
<use xlink:href="#glyph-1-9" x="400.050781" y="52.492188"/>
<use xlink:href="#glyph-1-2" x="405.983074" y="52.492188"/>
</g>
<g fill="rgb(0%, 0%, 0%)" fill-opacity="1">
<use xlink:href="#glyph-0-1" x="379.5625" y="54.902344"/>
</g>
<g fill="rgb(0%, 0%, 0%)" fill-opacity="1">
<use xlink:href="#glyph-1-9" x="368.207031" y="55.691406"/>
<use xlink:href="#glyph-1-3" x="374.139324" y="55.691406"/>
</g>
<g fill="rgb(0%, 0%, 0%)" fill-opacity="1">
<use xlink:href="#glyph-0-1" x="354.929688" y="151.917969"/>
</g>
<g fill="rgb(0%, 0%, 0%)" fill-opacity="1">
<use xlink:href="#glyph-1-9" x="343.496094" y="152.710938"/>
<use xlink:href="#glyph-1-4" x="349.428386" y="152.710938"/>
</g>
<g fill="rgb(0%, 0%, 0%)" fill-opacity="1">
<use xlink:href="#glyph-0-1" x="385.375" y="148.71875"/>
</g>
<g fill="rgb(0%, 0%, 0%)" fill-opacity="1">
<use xlink:href="#glyph-1-9" x="373.972656" y="149.480469"/>
<use xlink:href="#glyph-1-9" x="379.904949" y="149.480469"/>
</g>
<g fill="rgb(0%, 0%, 0%)" fill-opacity="1">
<use xlink:href="#glyph-0-1" x="341.105469" y="58.941406"/>
</g>
<g fill="rgb(0%, 0%, 0%)" fill-opacity="1">
<use xlink:href="#glyph-1-9" x="329.617188" y="59.703125"/>
<use xlink:href="#glyph-1-10" x="335.54948" y="59.703125"/>
</g>
<g fill="rgb(0%, 0%, 0%)" fill-opacity="1">
<use xlink:href="#glyph-0-1" x="310.660156" y="62.144531"/>
</g>
<g fill="rgb(0%, 0%, 0%)" fill-opacity="1">
<use xlink:href="#glyph-1-9" x="299.230469" y="62.933594"/>
<use xlink:href="#glyph-1-5" x="305.162761" y="62.933594"/>
</g>
<g fill="rgb(0%, 0%, 0%)" fill-opacity="1">
<use xlink:href="#glyph-0-1" x="286.023438" y="159.160156"/>
</g>
<g fill="rgb(0%, 0%, 0%)" fill-opacity="1">
<use xlink:href="#glyph-1-9" x="274.589844" y="159.921875"/>
<use xlink:href="#glyph-1-6" x="280.522136" y="159.921875"/>
</g>
<g fill="rgb(0%, 0%, 0%)" fill-opacity="1">
<use xlink:href="#glyph-0-1" x="316.472656" y="155.960938"/>
</g>
<g fill="rgb(0%, 0%, 0%)" fill-opacity="1">
<use xlink:href="#glyph-1-9" x="305.023438" y="156.75"/>
<use xlink:href="#glyph-1-7" x="310.95573" y="156.75"/>
</g>
<g fill="rgb(0%, 0%, 0%)" fill-opacity="1">
<use xlink:href="#glyph-0-1" x="232.664063" y="167.828125"/>
</g>
<g fill="rgb(0%, 0%, 0%)" fill-opacity="1">
<use xlink:href="#glyph-1-9" x="221.214844" y="168.621094"/>
<use xlink:href="#glyph-1-11" x="227.147136" y="168.621094"/>
</g>
<g fill="rgb(0%, 0%, 0%)" fill-opacity="1">
<use xlink:href="#glyph-0-1" x="208.210938" y="75.238281"/>
</g>
<g fill="rgb(0%, 0%, 0%)" fill-opacity="1">
<use xlink:href="#glyph-1-10" x="196.800781" y="76.03125"/>
<use xlink:href="#glyph-1-18" x="202.733074" y="76.03125"/>
</g>
<g fill="rgb(0%, 0%, 0%)" fill-opacity="1">
<use xlink:href="#glyph-1-1" x="175.851562" y="144.4375"/>
</g>
<g fill="rgb(0%, 0%, 0%)" fill-opacity="1">
<use xlink:href="#glyph-1-2" x="163.667969" y="149.074219"/>
<use xlink:href="#glyph-1-6" x="169.600261" y="149.074219"/>
</g>
<g fill="rgb(0%, 0%, 0%)" fill-opacity="1">
<use xlink:href="#glyph-1-17" x="190.203125" y="181.785156"/>
</g>
<g fill="rgb(0%, 0%, 0%)" fill-opacity="1">
<use xlink:href="#glyph-1-2" x="177.984375" y="186.417969"/>
<use xlink:href="#glyph-1-7" x="183.916668" y="186.417969"/>
</g>
<g fill="rgb(0%, 0%, 0%)" fill-opacity="1">
<use xlink:href="#glyph-1-16" x="139.027344" y="128.035156"/>
</g>
<g fill="rgb(0%, 0%, 0%)" fill-opacity="1">
<use xlink:href="#glyph-1-2" x="127.109375" y="132.804688"/>
<use xlink:href="#glyph-1-11" x="133.041668" y="132.804688"/>
</g>
<g fill="rgb(0%, 0%, 0%)" fill-opacity="1">
<use xlink:href="#glyph-1-1" x="99.527344" y="123.988281"/>
</g>
<g fill="rgb(0%, 0%, 0%)" fill-opacity="1">
<use xlink:href="#glyph-1-3" x="87.371094" y="128.625"/>
<use xlink:href="#glyph-1-18" x="93.303386" y="128.625"/>
</g>
<g fill="rgb(0%, 0%, 0%)" fill-opacity="1">
<use xlink:href="#glyph-0-1" x="63.398438" y="145.40625"/>
</g>
<g fill="rgb(0%, 0%, 0%)" fill-opacity="1">
<use xlink:href="#glyph-1-1" x="99.527344" y="163.988281"/>
</g>
<g fill="rgb(0%, 0%, 0%)" fill-opacity="1">
<use xlink:href="#glyph-1-3" x="88.820312" y="168.625"/>
<use xlink:href="#glyph-1-2" x="94.752605" y="168.625"/>
</g>
<g fill="rgb(0%, 0%, 0%)" fill-opacity="1">
<use xlink:href="#glyph-1-17" x="134.1875" y="183.992188"/>
</g>
<g fill="rgb(0%, 0%, 0%)" fill-opacity="1">
<use xlink:href="#glyph-1-3" x="122.066406" y="188.625"/>
<use xlink:href="#glyph-1-3" x="127.998699" y="188.625"/>
</g>
<g fill="rgb(0%, 0%, 0%)" fill-opacity="1">
<use xlink:href="#glyph-1-17" x="67.726562" y="183.992188"/>
</g>
<g fill="rgb(0%, 0%, 0%)" fill-opacity="1">
<use xlink:href="#glyph-1-3" x="55.527344" y="188.625"/>
<use xlink:href="#glyph-1-4" x="61.459636" y="188.625"/>
</g>
<g fill="rgb(0%, 0%, 0%)" fill-opacity="1">
<use xlink:href="#glyph-0-1" x="64.707031" y="227.871094"/>
</g>
<g fill="rgb(0%, 0%, 0%)" fill-opacity="1">
<use xlink:href="#glyph-1-10" x="54.746094" y="228.664063"/>
<use xlink:href="#glyph-1-2" x="60.678386" y="228.664063"/>
</g>
<g fill="rgb(0%, 0%, 0%)" fill-opacity="1">
<use xlink:href="#glyph-0-1" x="98.273438" y="19.84375"/>
</g>
<g fill="rgb(0%, 0%, 0%)" fill-opacity="1">
<use xlink:href="#glyph-1-10" x="86.839844" y="20.632813"/>
<use xlink:href="#glyph-1-4" x="92.772136" y="20.632813"/>
</g>
<g fill="rgb(0%, 0%, 0%)" fill-opacity="1">
<use xlink:href="#glyph-0-1" x="58.492188" y="15.660156"/>
</g>
<g fill="rgb(0%, 0%, 0%)" fill-opacity="1">
<use xlink:href="#glyph-1-10" x="47.089844" y="16.421875"/>
<use xlink:href="#glyph-1-9" x="53.022136" y="16.421875"/>
</g>
<path fill="none" stroke-width="0.0625" stroke-linecap="butt" stroke-linejoin="miter" stroke="rgb(0%, 0%, 0%)" stroke-opacity="1" stroke-miterlimit="10" d="M 0.0000471115 0 L 0.500047 0 M 0.250047 -0.25 L 0.250047 0.25 " transform="matrix(40, 0, 0, 40, 532.087959, 116.5)"/>
<path fill="none" stroke-width="0.0333333" stroke-linecap="butt" stroke-linejoin="miter" stroke="rgb(0%, 0%, 0%)" stroke-opacity="1" stroke-miterlimit="10" d="M 0.242137 1.360254 L 0.386473 1.276855 " transform="matrix(40, 0, 0, 40, 574.314521, 66.152343)"/>
<path fill="none" stroke-width="0.0333333" stroke-linecap="butt" stroke-linejoin="miter" stroke="rgb(0%, 0%, 0%)" stroke-opacity="1" stroke-miterlimit="10" d="M 0.49702 1.501758 L 0.24702 1.06875 " transform="matrix(40, 0, 0, 40, 574.314521, 66.152343)"/>
<path fill="none" stroke-width="0.0333333" stroke-linecap="butt" stroke-linejoin="miter" stroke="rgb(0%, 0%, 0%)" stroke-opacity="1" stroke-miterlimit="10" d="M 0.38159 1.568359 L 0.13159 1.135352 " transform="matrix(40, 0, 0, 40, 574.314521, 66.152343)"/>
<path fill="none" stroke-width="0.0333333" stroke-linecap="butt" stroke-linejoin="miter" stroke="rgb(0%, 0%, 0%)" stroke-opacity="1" stroke-miterlimit="10" d="M 1.038426 1.099512 L 1.397996 1.307129 " transform="matrix(40, 0, 0, 40, 574.314521, 66.152343)"/>
<path fill="none" stroke-width="0.0333333" stroke-linecap="butt" stroke-linejoin="miter" stroke="rgb(0%, 0%, 0%)" stroke-opacity="1" stroke-miterlimit="10" d="M 1.093211 1.419824 L 1.343211 0.986816 " transform="matrix(40, 0, 0, 40, 574.314521, 66.152343)"/>
<path fill="none" stroke-width="0.0333333" stroke-linecap="butt" stroke-linejoin="miter" stroke="rgb(0%, 0%, 0%)" stroke-opacity="1" stroke-miterlimit="10" d="M 1.92534 1.388379 L 2.089793 1.293457 " transform="matrix(40, 0, 0, 40, 574.314521, 66.152343)"/>
<path fill="none" stroke-width="0.0333333" stroke-linecap="butt" stroke-linejoin="miter" stroke="rgb(0%, 0%, 0%)" stroke-opacity="1" stroke-miterlimit="10" d="M 2.190282 1.524121 L 1.940282 1.091113 " transform="matrix(40, 0, 0, 40, 574.314521, 66.152343)"/>
<path fill="none" stroke-width="0.0333333" stroke-linecap="butt" stroke-linejoin="miter" stroke="rgb(0%, 0%, 0%)" stroke-opacity="1" stroke-miterlimit="10" d="M 2.074754 1.59082 L 1.824754 1.157813 " transform="matrix(40, 0, 0, 40, 574.314521, 66.152343)"/>
<path fill="none" stroke-width="0.0333333" stroke-linecap="butt" stroke-linejoin="miter" stroke="rgb(0%, 0%, 0%)" stroke-opacity="1" stroke-miterlimit="10" d="M 2.760106 1.093555 L 3.130028 1.307129 " transform="matrix(40, 0, 0, 40, 574.314521, 66.152343)"/>
<path fill="none" stroke-width="0.0333333" stroke-linecap="butt" stroke-linejoin="miter" stroke="rgb(0%, 0%, 0%)" stroke-opacity="1" stroke-miterlimit="10" d="M 3.657371 1.388379 L 3.823485 1.29248 " transform="matrix(40, 0, 0, 40, 574.314521, 66.152343)"/>
<path fill="none" stroke-width="0.0333333" stroke-linecap="butt" stroke-linejoin="miter" stroke="rgb(0%, 0%, 0%)" stroke-opacity="1" stroke-miterlimit="10" d="M 4.492137 1.093555 L 4.862059 1.307129 " transform="matrix(40, 0, 0, 40, 574.314521, 66.152343)"/>
<path fill="none" stroke-width="0.0333333" stroke-linecap="butt" stroke-linejoin="miter" stroke="rgb(0%, 0%, 0%)" stroke-opacity="1" stroke-miterlimit="10" d="M 5.11284 1.775293 L 5.11284 2.241992 " transform="matrix(40, 0, 0, 40, 574.314521, 66.152343)"/>
<path fill="none" stroke-width="0.0333333" stroke-linecap="butt" stroke-linejoin="miter" stroke="rgb(0%, 0%, 0%)" stroke-opacity="1" stroke-miterlimit="10" d="M 5.279442 1.775293 L 5.279442 2.241992 " transform="matrix(40, 0, 0, 40, 574.314521, 66.152343)"/>
<path fill="none" stroke-width="0.0333333" stroke-linecap="butt" stroke-linejoin="miter" stroke="rgb(0%, 0%, 0%)" stroke-opacity="1" stroke-miterlimit="10" d="M 5.389403 1.388379 L 5.554246 1.293262 " transform="matrix(40, 0, 0, 40, 574.314521, 66.152343)"/>
<path fill="none" stroke-width="0.0333333" stroke-linecap="butt" stroke-linejoin="miter" stroke="rgb(0%, 0%, 0%)" stroke-opacity="1" stroke-miterlimit="10" d="M 6.234617 1.099512 L 6.595848 1.308105 " transform="matrix(40, 0, 0, 40, 574.314521, 66.152343)"/>
<path fill="none" stroke-width="0.0333333" stroke-linecap="butt" stroke-linejoin="miter" stroke="rgb(0%, 0%, 0%)" stroke-opacity="1" stroke-miterlimit="10" d="M 4.435789 0.744824 L 4.584617 0.385645 " transform="matrix(40, 0, 0, 40, 574.314521, 66.152343)"/>
<path fill="none" stroke-width="0.0333333" stroke-linecap="butt" stroke-linejoin="miter" stroke="rgb(0%, 0%, 0%)" stroke-opacity="1" stroke-miterlimit="10" d="M 4.212059 0.714941 L 4.061668 0.351953 " transform="matrix(40, 0, 0, 40, 574.314521, 66.152343)"/>
<path fill="none" stroke-width="0.0333333" stroke-linecap="butt" stroke-linejoin="miter" stroke="rgb(0%, 0%, 0%)" stroke-opacity="1" stroke-miterlimit="10" d="M 3.336278 1.808496 L 3.195653 2.148047 " transform="matrix(40, 0, 0, 40, 574.314521, 66.152343)"/>
<path fill="none" stroke-width="0.0333333" stroke-linecap="butt" stroke-linejoin="miter" stroke="rgb(0%, 0%, 0%)" stroke-opacity="1" stroke-miterlimit="10" d="M 3.53491 1.670898 L 3.732567 2.148047 " transform="matrix(40, 0, 0, 40, 574.314521, 66.152343)"/>
<path fill="none" stroke-width="0.0333333" stroke-linecap="butt" stroke-linejoin="miter" stroke="rgb(0%, 0%, 0%)" stroke-opacity="1" stroke-miterlimit="10" d="M 2.681395 0.741992 L 2.681395 0.275488 " transform="matrix(40, 0, 0, 40, 574.314521, 66.152343)"/>
<path fill="none" stroke-width="0.0333333" stroke-linecap="butt" stroke-linejoin="miter" stroke="rgb(0%, 0%, 0%)" stroke-opacity="1" stroke-miterlimit="10" d="M 2.514696 0.741992 L 2.514696 0.275488 " transform="matrix(40, 0, 0, 40, 574.314521, 66.152343)"/>
<path fill="none" stroke-width="0.0333333" stroke-linecap="butt" stroke-linejoin="miter" stroke="rgb(0%, 0%, 0%)" stroke-opacity="1" stroke-miterlimit="10" d="M 1.64868 1.775488 L 1.64868 2.241992 " transform="matrix(40, 0, 0, 40, 574.314521, 66.152343)"/>
<path fill="none" stroke-width="0.0333333" stroke-linecap="butt" stroke-linejoin="miter" stroke="rgb(0%, 0%, 0%)" stroke-opacity="1" stroke-miterlimit="10" d="M 1.815379 1.775488 L 1.815379 2.241992 " transform="matrix(40, 0, 0, 40, 574.314521, 66.152343)"/>
<g fill="rgb(0%, 0%, 0%)" fill-opacity="1">
<use xlink:href="#glyph-0-1" x="568.542969" y="131.878906"/>
</g>
<g fill="rgb(0%, 0%, 0%)" fill-opacity="1">
<use xlink:href="#glyph-1-17" x="603.378906" y="108"/>
</g>
<g fill="rgb(0%, 0%, 0%)" fill-opacity="1">
<use xlink:href="#glyph-1-4" x="591.179688" y="112.632812"/>
<use xlink:href="#glyph-1-4" x="597.11198" y="112.632812"/>
</g>
<g fill="rgb(0%, 0%, 0%)" fill-opacity="1">
<use xlink:href="#glyph-1-1" x="638.003906" y="127.996094"/>
</g>
<g fill="rgb(0%, 0%, 0%)" fill-opacity="1">
<use xlink:href="#glyph-1-4" x="627.292969" y="132.632812"/>
<use xlink:href="#glyph-1-2" x="633.225261" y="132.632812"/>
</g>
<g fill="rgb(0%, 0%, 0%)" fill-opacity="1">
<use xlink:href="#glyph-1-1" x="672.644531" y="107.996094"/>
</g>
<g fill="rgb(0%, 0%, 0%)" fill-opacity="1">
<use xlink:href="#glyph-1-3" x="660.445312" y="112.632812"/>
<use xlink:href="#glyph-1-11" x="666.377605" y="112.632812"/>
</g>
<g fill="rgb(0%, 0%, 0%)" fill-opacity="1">
<use xlink:href="#glyph-1-1" x="707.285156" y="127.996094"/>
</g>
<g fill="rgb(0%, 0%, 0%)" fill-opacity="1">
<use xlink:href="#glyph-1-3" x="695.089844" y="132.632812"/>
<use xlink:href="#glyph-1-7" x="701.022136" y="132.632812"/>
</g>
<g fill="rgb(0%, 0%, 0%)" fill-opacity="1">
<use xlink:href="#glyph-1-1" x="741.925781" y="107.996094"/>
</g>
<g fill="rgb(0%, 0%, 0%)" fill-opacity="1">
<use xlink:href="#glyph-1-3" x="729.746094" y="112.632812"/>
<use xlink:href="#glyph-1-6" x="735.678386" y="112.632812"/>
</g>
<g fill="rgb(0%, 0%, 0%)" fill-opacity="1">
<use xlink:href="#glyph-1-1" x="776.566406" y="127.996094"/>
</g>
<g fill="rgb(0%, 0%, 0%)" fill-opacity="1">
<use xlink:href="#glyph-1-3" x="764.328125" y="132.632812"/>
<use xlink:href="#glyph-1-10" x="770.260418" y="132.632812"/>
</g>
<g fill="rgb(0%, 0%, 0%)" fill-opacity="1">
<use xlink:href="#glyph-1-17" x="776.582031" y="168"/>
</g>
<g fill="rgb(0%, 0%, 0%)" fill-opacity="1">
<use xlink:href="#glyph-1-3" x="764.417969" y="172.632812"/>
<use xlink:href="#glyph-1-9" x="770.350261" y="172.632812"/>
</g>
<g fill="rgb(0%, 0%, 0%)" fill-opacity="1">
<use xlink:href="#glyph-1-17" x="811.222656" y="108"/>
</g>
<g fill="rgb(0%, 0%, 0%)" fill-opacity="1">
<use xlink:href="#glyph-1-3" x="799.03125" y="112.632812"/>
<use xlink:href="#glyph-1-5" x="804.963543" y="112.632812"/>
</g>
<g fill="rgb(0%, 0%, 0%)" fill-opacity="1">
<use xlink:href="#glyph-0-1" x="845.671875" y="131.878906"/>
</g>
<g fill="rgb(0%, 0%, 0%)" fill-opacity="1">
<use xlink:href="#glyph-1-10" x="834.242188" y="132.671875"/>
<use xlink:href="#glyph-1-5" x="840.17448" y="132.671875"/>
</g>
<g fill="rgb(0%, 0%, 0%)" fill-opacity="1">
<use xlink:href="#glyph-0-1" x="757.054688" y="74.925781"/>
</g>
<g fill="rgb(0%, 0%, 0%)" fill-opacity="1">
<use xlink:href="#glyph-1-5" x="745.648438" y="75.71875"/>
<use xlink:href="#glyph-1-18" x="751.58073" y="75.71875"/>
</g>
<g fill="rgb(0%, 0%, 0%)" fill-opacity="1">
<use xlink:href="#glyph-0-1" x="726.441406" y="74.925781"/>
</g>
<g fill="rgb(0%, 0%, 0%)" fill-opacity="1">
<use xlink:href="#glyph-1-5" x="716.480469" y="75.71875"/>
<use xlink:href="#glyph-1-2" x="722.412761" y="75.71875"/>
</g>
<g fill="rgb(0%, 0%, 0%)" fill-opacity="1">
<use xlink:href="#glyph-0-1" x="691.800781" y="168.835938"/>
</g>
<g fill="rgb(0%, 0%, 0%)" fill-opacity="1">
<use xlink:href="#glyph-1-10" x="680.347656" y="169.628906"/>
<use xlink:href="#glyph-1-7" x="686.279949" y="169.628906"/>
</g>
<g fill="rgb(0%, 0%, 0%)" fill-opacity="1">
<use xlink:href="#glyph-0-1" x="722.414062" y="168.835938"/>
</g>
<g fill="rgb(0%, 0%, 0%)" fill-opacity="1">
<use xlink:href="#glyph-1-10" x="710.964844" y="169.628906"/>
<use xlink:href="#glyph-1-11" x="716.897136" y="169.628906"/>
</g>
<g fill="rgb(0%, 0%, 0%)" fill-opacity="1">
<use xlink:href="#glyph-1-17" x="672.660156" y="68"/>
</g>
<g fill="rgb(0%, 0%, 0%)" fill-opacity="1">
<use xlink:href="#glyph-1-4" x="660.488281" y="72.632812"/>
<use xlink:href="#glyph-1-18" x="666.420574" y="72.632812"/>
</g>
<g fill="rgb(0%, 0%, 0%)" fill-opacity="1">
<use xlink:href="#glyph-1-17" x="638.019531" y="168"/>
</g>
<g fill="rgb(0%, 0%, 0%)" fill-opacity="1">
<use xlink:href="#glyph-1-4" x="625.898438" y="172.632812"/>
<use xlink:href="#glyph-1-3" x="631.83073" y="172.632812"/>
</g>
<path fill="none" stroke-width="0.0625" stroke-linecap="butt" stroke-linejoin="miter" stroke="rgb(0%, 0%, 0%)" stroke-opacity="1" stroke-miterlimit="10" d="M 0.0000473261 0 L 0.500047 0 M 0.250047 -0.25 L 0.250047 0.25 " transform="matrix(40, 0, 0, 40, 873.666076, 116.5)"/>
<path fill="none" stroke-width="0.0333333" stroke-linecap="butt" stroke-linejoin="miter" stroke="rgb(0%, 0%, 0%)" stroke-opacity="1" stroke-miterlimit="10" d="M 0.236571 0.0833008 L 0.455321 0.0833008 " transform="matrix(40, 0, 0, 40, 925.873106, 116.5)"/>
<path fill="none" stroke-width="0.0333333" stroke-linecap="butt" stroke-linejoin="miter" stroke="rgb(0%, 0%, 0%)" stroke-opacity="1" stroke-miterlimit="10" d="M 0.236571 -0.0833008 L 0.455321 -0.0833008 " transform="matrix(40, 0, 0, 40, 925.873106, 116.5)"/>
<path fill="none" stroke-width="0.0333333" stroke-linecap="butt" stroke-linejoin="miter" stroke="rgb(0%, 0%, 0%)" stroke-opacity="1" stroke-miterlimit="10" d="M 0.412645 0.25 L 0.412645 -0.25 " transform="matrix(40, 0, 0, 40, 925.873106, 116.5)"/>
<path fill="none" stroke-width="0.0333333" stroke-linecap="butt" stroke-linejoin="miter" stroke="rgb(0%, 0%, 0%)" stroke-opacity="1" stroke-miterlimit="10" d="M 0.279344 0.25 L 0.279344 -0.25 " transform="matrix(40, 0, 0, 40, 925.873106, 116.5)"/>
<g fill="rgb(0%, 0%, 0%)" fill-opacity="1">
<use xlink:href="#glyph-1-17" x="923.117188" y="118.347656"/>
</g>
<g fill="rgb(0%, 0%, 0%)" fill-opacity="1">
<use xlink:href="#glyph-1-4" x="910.949219" y="122.980469"/>
<use xlink:href="#glyph-1-9" x="916.881511" y="122.980469"/>
</g>
<g fill="rgb(0%, 0%, 0%)" fill-opacity="1">
<use xlink:href="#glyph-1-17" x="960.296875" y="118.347656"/>
</g>
<g fill="rgb(0%, 0%, 0%)" fill-opacity="1">
<use xlink:href="#glyph-1-4" x="948.039062" y="122.980469"/>
<use xlink:href="#glyph-1-10" x="953.971355" y="122.980469"/>
</g>
<path fill-rule="nonzero" fill="rgb(0%, 0%, 0%)" fill-opacity="1" d="M 985.847656 117.75 L 1035.847656 117.75 L 1035.847656 121.5 L 1045.847656 116.5 L 1035.847656 111.5 L 1035.847656 115.25 L 985.847656 115.25 "/>
<path fill="none" stroke-width="0.0333333" stroke-linecap="butt" stroke-linejoin="miter" stroke="rgb(0%, 0%, 0%)" stroke-opacity="1" stroke-miterlimit="10" d="M 0.493603 -0.0833008 L 0.236572 -0.0833008 " transform="matrix(40, 0, 0, 40, 1078.005874, 116.5)"/>
<path fill="none" stroke-width="0.0333333" stroke-linecap="butt" stroke-linejoin="miter" stroke="rgb(0%, 0%, 0%)" stroke-opacity="1" stroke-miterlimit="10" d="M 0.493603 0.0833008 L 0.236572 0.0833008 " transform="matrix(40, 0, 0, 40, 1078.005874, 116.5)"/>
<path fill="none" stroke-width="0.0333333" stroke-linecap="butt" stroke-linejoin="miter" stroke="rgb(0%, 0%, 0%)" stroke-opacity="1" stroke-miterlimit="10" d="M 1.152197 0.0833008 L 1.456787 0.0833008 " transform="matrix(40, 0, 0, 40, 1078.005874, 116.5)"/>
<path fill="none" stroke-width="0.0333333" stroke-linecap="butt" stroke-linejoin="miter" stroke="rgb(0%, 0%, 0%)" stroke-opacity="1" stroke-miterlimit="10" d="M 1.152197 -0.0833008 L 1.456787 -0.0833008 " transform="matrix(40, 0, 0, 40, 1078.005874, 116.5)"/>
<path fill="none" stroke-width="0.0333333" stroke-linecap="butt" stroke-linejoin="miter" stroke="rgb(0%, 0%, 0%)" stroke-opacity="1" stroke-miterlimit="10" d="M 1.304541 0.25 L 1.304541 -0.25 " transform="matrix(40, 0, 0, 40, 1078.005874, 116.5)"/>
<g fill="rgb(0%, 0%, 0%)" fill-opacity="1">
<use xlink:href="#glyph-1-1" x="1112.414062" y="118.34375"/>
</g>
<g fill="rgb(0%, 0%, 0%)" fill-opacity="1">
<use xlink:href="#glyph-1-4" x="1101.703125" y="122.980469"/>
<use xlink:href="#glyph-1-2" x="1107.635418" y="122.980469"/>
</g>
<g fill="rgb(0%, 0%, 0%)" fill-opacity="1">
<use xlink:href="#glyph-1-17" x="1075.25" y="118.347656"/>
</g>
<g fill="rgb(0%, 0%, 0%)" fill-opacity="1">
<use xlink:href="#glyph-1-4" x="1063.128906" y="122.980469"/>
<use xlink:href="#glyph-1-3" x="1069.061199" y="122.980469"/>
</g>
<g fill="rgb(0%, 0%, 0%)" fill-opacity="1">
<use xlink:href="#glyph-1-17" x="1152.429688" y="118.347656"/>
</g>
<g fill="rgb(0%, 0%, 0%)" fill-opacity="1">
<use xlink:href="#glyph-1-4" x="1140.230469" y="122.980469"/>
<use xlink:href="#glyph-1-4" x="1146.162761" y="122.980469"/>
</g>
<path fill="none" stroke-width="0.0625" stroke-linecap="butt" stroke-linejoin="miter" stroke="rgb(0%, 0%, 0%)" stroke-opacity="1" stroke-miterlimit="10" d="M 0.0000484645 0 L 0.500048 0 M 0.250048 -0.25 L 0.250048 0.25 " transform="matrix(40, 0, 0, 40, 1177.97853, 116.5)"/>
<path fill="none" stroke-width="0.0333333" stroke-linecap="butt" stroke-linejoin="miter" stroke="rgb(0%, 0%, 0%)" stroke-opacity="1" stroke-miterlimit="10" d="M 2.546924 0.718897 L 2.622021 0.292725 " transform="matrix(40, 0, 0, 40, 1232.486341, 9.740232)"/>
<path fill="none" stroke-width="0.0333333" stroke-linecap="butt" stroke-linejoin="miter" stroke="rgb(0%, 0%, 0%)" stroke-opacity="1" stroke-miterlimit="10" d="M 2.172412 0.865576 L 1.812841 0.734717 " transform="matrix(40, 0, 0, 40, 1232.486341, 9.740232)"/>
<path fill="none" stroke-width="0.0333333" stroke-linecap="butt" stroke-linejoin="miter" stroke="rgb(0%, 0%, 0%)" stroke-opacity="1" stroke-miterlimit="10" d="M 2.319189 1.2979 L 2.137549 1.612549 " transform="matrix(40, 0, 0, 40, 1232.486341, 9.740232)"/>
<path fill="none" stroke-width="0.0333333" stroke-linecap="butt" stroke-linejoin="miter" stroke="rgb(0%, 0%, 0%)" stroke-opacity="1" stroke-miterlimit="10" d="M 1.603662 1.85083 L 1.152197 1.85083 " transform="matrix(40, 0, 0, 40, 1232.486341, 9.740232)"/>
<path fill="none" stroke-width="0.0333333" stroke-linecap="butt" stroke-linejoin="miter" stroke="rgb(0%, 0%, 0%)" stroke-opacity="1" stroke-miterlimit="10" d="M 0.841357 1.576025 L 0.652978 1.249854 " transform="matrix(40, 0, 0, 40, 1232.486341, 9.740232)"/>
<path fill="none" stroke-width="0.0333333" stroke-linecap="butt" stroke-linejoin="miter" stroke="rgb(0%, 0%, 0%)" stroke-opacity="1" stroke-miterlimit="10" d="M 0.817236 2.167334 L 0.652978 2.451904 " transform="matrix(40, 0, 0, 40, 1232.486341, 9.740232)"/>
<path fill="none" stroke-width="0.0333333" stroke-linecap="butt" stroke-linejoin="miter" stroke="rgb(0%, 0%, 0%)" stroke-opacity="1" stroke-miterlimit="10" d="M 0.605127 1.85083 L 0.222314 1.85083 " transform="matrix(40, 0, 0, 40, 1232.486341, 9.740232)"/>
<path fill="none" stroke-width="0.0333333" stroke-linecap="butt" stroke-linejoin="miter" stroke="rgb(0%, 0%, 0%)" stroke-opacity="1" stroke-miterlimit="10" d="M 2.022705 2.056787 L 2.290283 2.520264 " transform="matrix(40, 0, 0, 40, 1232.486341, 9.740232)"/>
<path fill="none" stroke-width="0.0333333" stroke-linecap="butt" stroke-linejoin="miter" stroke="rgb(0%, 0%, 0%)" stroke-opacity="1" stroke-miterlimit="10" d="M 2.167041 1.973486 L 2.434619 2.436865 " transform="matrix(40, 0, 0, 40, 1232.486341, 9.740232)"/>
<path fill="none" stroke-width="0.0333333" stroke-linecap="butt" stroke-linejoin="miter" stroke="rgb(0%, 0%, 0%)" stroke-opacity="1" stroke-miterlimit="10" d="M 2.012158 2.371826 L 2.445166 2.121826 " transform="matrix(40, 0, 0, 40, 1232.486341, 9.740232)"/>
<path fill="none" stroke-width="0.0333333" stroke-linecap="butt" stroke-linejoin="miter" stroke="rgb(0%, 0%, 0%)" stroke-opacity="1" stroke-miterlimit="10" d="M 2.317334 3.033252 L 2.137549 3.34458 " transform="matrix(40, 0, 0, 40, 1232.486341, 9.740232)"/>
<path fill="none" stroke-width="0.0333333" stroke-linecap="butt" stroke-linejoin="miter" stroke="rgb(0%, 0%, 0%)" stroke-opacity="1" stroke-miterlimit="10" d="M 1.490283 3.499561 L 1.236572 3.499561 " transform="matrix(40, 0, 0, 40, 1232.486341, 9.740232)"/>
<path fill="none" stroke-width="0.0333333" stroke-linecap="butt" stroke-linejoin="miter" stroke="rgb(0%, 0%, 0%)" stroke-opacity="1" stroke-miterlimit="10" d="M 1.490283 3.66626 L 1.236572 3.66626 " transform="matrix(40, 0, 0, 40, 1232.486341, 9.740232)"/>
<path fill="none" stroke-width="0.0333333" stroke-linecap="butt" stroke-linejoin="miter" stroke="rgb(0%, 0%, 0%)" stroke-opacity="1" stroke-miterlimit="10" d="M 2.094873 3.747119 L 2.341357 4.174072 " transform="matrix(40, 0, 0, 40, 1232.486341, 9.740232)"/>
<path fill="none" stroke-width="0.0333333" stroke-linecap="butt" stroke-linejoin="miter" stroke="rgb(0%, 0%, 0%)" stroke-opacity="1" stroke-miterlimit="10" d="M 2.317236 4.765381 L 2.152978 5.049951 " transform="matrix(40, 0, 0, 40, 1232.486341, 9.740232)"/>
<path fill="none" stroke-width="0.0333333" stroke-linecap="butt" stroke-linejoin="miter" stroke="rgb(0%, 0%, 0%)" stroke-opacity="1" stroke-miterlimit="10" d="M 2.736572 2.716846 L 2.974267 2.716846 " transform="matrix(40, 0, 0, 40, 1232.486341, 9.740232)"/>
<path fill="none" stroke-width="0.0333333" stroke-linecap="butt" stroke-linejoin="miter" stroke="rgb(0%, 0%, 0%)" stroke-opacity="1" stroke-miterlimit="10" d="M 3.632959 2.486475 L 3.853662 2.104346 " transform="matrix(40, 0, 0, 40, 1232.486341, 9.740232)"/>
<path fill="none" stroke-width="0.0333333" stroke-linecap="butt" stroke-linejoin="miter" stroke="rgb(0%, 0%, 0%)" stroke-opacity="1" stroke-miterlimit="10" d="M 4.227783 1.623096 L 4.379541 1.471338 " transform="matrix(40, 0, 0, 40, 1232.486341, 9.740232)"/>
<path fill="none" stroke-width="0.0333333" stroke-linecap="butt" stroke-linejoin="miter" stroke="rgb(0%, 0%, 0%)" stroke-opacity="1" stroke-miterlimit="10" d="M 3.827295 1.551709 L 3.590674 1.141846 " transform="matrix(40, 0, 0, 40, 1232.486341, 9.740232)"/>
<path fill="none" stroke-width="0.0333333" stroke-linecap="butt" stroke-linejoin="miter" stroke="rgb(0%, 0%, 0%)" stroke-opacity="1" stroke-miterlimit="10" d="M 3.098095 0.984815 L 2.652197 0.984815 " transform="matrix(40, 0, 0, 40, 1232.486341, 9.740232)"/>
<path fill="none" stroke-width="0.0333333" stroke-linecap="butt" stroke-linejoin="miter" stroke="rgb(0%, 0%, 0%)" stroke-opacity="1" stroke-miterlimit="10" d="M 2.808447 0.734815 L 2.808447 1.234815 " transform="matrix(40, 0, 0, 40, 1232.486341, 9.740232)"/>
<path fill="none" stroke-width="0.0333333" stroke-linecap="butt" stroke-linejoin="miter" stroke="rgb(0%, 0%, 0%)" stroke-opacity="1" stroke-miterlimit="10" d="M 2.941845 0.734815 L 2.941845 1.234815 " transform="matrix(40, 0, 0, 40, 1232.486341, 9.740232)"/>
<path fill="none" stroke-width="0.0333333" stroke-linecap="butt" stroke-linejoin="miter" stroke="rgb(0%, 0%, 0%)" stroke-opacity="1" stroke-miterlimit="10" d="M 4.248291 1.99419 L 4.531982 2.157959 " transform="matrix(40, 0, 0, 40, 1232.486341, 9.740232)"/>
<path fill="none" stroke-width="0.0333333" stroke-linecap="butt" stroke-linejoin="miter" stroke="rgb(0%, 0%, 0%)" stroke-opacity="1" stroke-miterlimit="10" d="M 5.284228 2.592236 L 5.428564 2.675635 " transform="matrix(40, 0, 0, 40, 1232.486341, 9.740232)"/>
<path fill="none" stroke-width="0.0333333" stroke-linecap="butt" stroke-linejoin="miter" stroke="rgb(0%, 0%, 0%)" stroke-opacity="1" stroke-miterlimit="10" d="M 5.906982 2.749854 L 6.203271 2.57876 " transform="matrix(40, 0, 0, 40, 1232.486341, 9.740232)"/>
<path fill="none" stroke-width="0.0333333" stroke-linecap="butt" stroke-linejoin="miter" stroke="rgb(0%, 0%, 0%)" stroke-opacity="1" stroke-miterlimit="10" d="M 6.681396 2.092822 L 6.681396 1.626123 " transform="matrix(40, 0, 0, 40, 1232.486341, 9.740232)"/>
<path fill="none" stroke-width="0.0333333" stroke-linecap="butt" stroke-linejoin="miter" stroke="rgb(0%, 0%, 0%)" stroke-opacity="1" stroke-miterlimit="10" d="M 6.514697 2.092822 L 6.514697 1.626123 " transform="matrix(40, 0, 0, 40, 1232.486341, 9.740232)"/>
<path fill="none" stroke-width="0.0333333" stroke-linecap="butt" stroke-linejoin="miter" stroke="rgb(0%, 0%, 0%)" stroke-opacity="1" stroke-miterlimit="10" d="M 6.760107 2.444385 L 7.130029 2.657959 " transform="matrix(40, 0, 0, 40, 1232.486341, 9.740232)"/>
<path fill="none" stroke-width="0.0333333" stroke-linecap="butt" stroke-linejoin="miter" stroke="rgb(0%, 0%, 0%)" stroke-opacity="1" stroke-miterlimit="10" d="M 7.657373 2.739209 L 7.867041 2.618213 " transform="matrix(40, 0, 0, 40, 1232.486341, 9.740232)"/>
<path fill="none" stroke-width="0.0333333" stroke-linecap="butt" stroke-linejoin="miter" stroke="rgb(0%, 0%, 0%)" stroke-opacity="1" stroke-miterlimit="10" d="M 8.492138 2.444385 L 8.86206 2.657959 " transform="matrix(40, 0, 0, 40, 1232.486341, 9.740232)"/>
<path fill="none" stroke-width="0.0333333" stroke-linecap="butt" stroke-linejoin="miter" stroke="rgb(0%, 0%, 0%)" stroke-opacity="1" stroke-miterlimit="10" d="M 9.389404 2.739209 L 9.56997 2.63501 " transform="matrix(40, 0, 0, 40, 1232.486341, 9.740232)"/>
<path fill="none" stroke-width="0.0333333" stroke-linecap="butt" stroke-linejoin="miter" stroke="rgb(0%, 0%, 0%)" stroke-opacity="1" stroke-miterlimit="10" d="M 10.22417 2.444385 L 10.594091 2.657959 " transform="matrix(40, 0, 0, 40, 1232.486341, 9.740232)"/>
<path fill="none" stroke-width="0.0333333" stroke-linecap="butt" stroke-linejoin="miter" stroke="rgb(0%, 0%, 0%)" stroke-opacity="1" stroke-miterlimit="10" d="M 10.844873 3.1229 L 10.844873 3.592822 " transform="matrix(40, 0, 0, 40, 1232.486341, 9.740232)"/>
<path fill="none" stroke-width="0.0333333" stroke-linecap="butt" stroke-linejoin="miter" stroke="rgb(0%, 0%, 0%)" stroke-opacity="1" stroke-miterlimit="10" d="M 11.011572 3.1229 L 11.011572 3.592822 " transform="matrix(40, 0, 0, 40, 1232.486341, 9.740232)"/>
<path fill="none" stroke-width="0.0333333" stroke-linecap="butt" stroke-linejoin="miter" stroke="rgb(0%, 0%, 0%)" stroke-opacity="1" stroke-miterlimit="10" d="M 11.121435 2.739209 L 11.302197 2.634912 " transform="matrix(40, 0, 0, 40, 1232.486341, 9.740232)"/>
<path fill="none" stroke-width="0.0333333" stroke-linecap="butt" stroke-linejoin="miter" stroke="rgb(0%, 0%, 0%)" stroke-opacity="1" stroke-miterlimit="10" d="M 11.96665 2.450342 L 12.327881 2.658936 " transform="matrix(40, 0, 0, 40, 1232.486341, 9.740232)"/>
<path fill="none" stroke-width="0.0333333" stroke-linecap="butt" stroke-linejoin="miter" stroke="rgb(0%, 0%, 0%)" stroke-opacity="1" stroke-miterlimit="10" d="M 9.944091 2.065772 L 9.793701 1.702783 " transform="matrix(40, 0, 0, 40, 1232.486341, 9.740232)"/>
<path fill="none" stroke-width="0.0333333" stroke-linecap="butt" stroke-linejoin="miter" stroke="rgb(0%, 0%, 0%)" stroke-opacity="1" stroke-miterlimit="10" d="M 10.16792 2.095654 L 10.318017 1.733154 " transform="matrix(40, 0, 0, 40, 1232.486341, 9.740232)"/>
<path fill="none" stroke-width="0.0333333" stroke-linecap="butt" stroke-linejoin="miter" stroke="rgb(0%, 0%, 0%)" stroke-opacity="1" stroke-miterlimit="10" d="M 9.266943 3.021729 L 9.464599 3.498877 " transform="matrix(40, 0, 0, 40, 1232.486341, 9.740232)"/>
<path fill="none" stroke-width="0.0333333" stroke-linecap="butt" stroke-linejoin="miter" stroke="rgb(0%, 0%, 0%)" stroke-opacity="1" stroke-miterlimit="10" d="M 9.069677 3.156104 L 8.927685 3.498877 " transform="matrix(40, 0, 0, 40, 1232.486341, 9.740232)"/>
<path fill="none" stroke-width="0.0333333" stroke-linecap="butt" stroke-linejoin="miter" stroke="rgb(0%, 0%, 0%)" stroke-opacity="1" stroke-miterlimit="10" d="M 8.21206 2.065772 L 8.06167 1.702783 " transform="matrix(40, 0, 0, 40, 1232.486341, 9.740232)"/>
<path fill="none" stroke-width="0.0333333" stroke-linecap="butt" stroke-linejoin="miter" stroke="rgb(0%, 0%, 0%)" stroke-opacity="1" stroke-miterlimit="10" d="M 8.435791 2.095654 L 8.584619 1.736475 " transform="matrix(40, 0, 0, 40, 1232.486341, 9.740232)"/>
<path fill="none" stroke-width="0.0333333" stroke-linecap="butt" stroke-linejoin="miter" stroke="rgb(0%, 0%, 0%)" stroke-opacity="1" stroke-miterlimit="10" d="M 7.534912 3.021729 L 7.732568 3.498877 " transform="matrix(40, 0, 0, 40, 1232.486341, 9.740232)"/>
<path fill="none" stroke-width="0.0333333" stroke-linecap="butt" stroke-linejoin="miter" stroke="rgb(0%, 0%, 0%)" stroke-opacity="1" stroke-miterlimit="10" d="M 7.336279 3.159326 L 7.195654 3.498877 " transform="matrix(40, 0, 0, 40, 1232.486341, 9.740232)"/>
<path fill="none" stroke-width="0.0333333" stroke-linecap="butt" stroke-linejoin="miter" stroke="rgb(0%, 0%, 0%)" stroke-opacity="1" stroke-miterlimit="10" d="M 5.73208 3.003662 L 5.73208 3.597705 " transform="matrix(40, 0, 0, 40, 1232.486341, 9.740232)"/>
<path fill="none" stroke-width="0.0333333" stroke-linecap="butt" stroke-linejoin="miter" stroke="rgb(0%, 0%, 0%)" stroke-opacity="1" stroke-miterlimit="10" d="M 5.03872 2.051709 L 5.182763 1.802197 " transform="matrix(40, 0, 0, 40, 1232.486341, 9.740232)"/>
<path fill="none" stroke-width="0.0333333" stroke-linecap="butt" stroke-linejoin="miter" stroke="rgb(0%, 0%, 0%)" stroke-opacity="1" stroke-miterlimit="10" d="M 4.683349 2.667236 L 4.503564 2.978565 " transform="matrix(40, 0, 0, 40, 1232.486341, 9.740232)"/>
<path fill="none" stroke-width="0.0333333" stroke-linecap="butt" stroke-linejoin="miter" stroke="rgb(0%, 0%, 0%)" stroke-opacity="1" stroke-miterlimit="10" d="M 4.031982 3.023975 L 3.645459 2.80083 " transform="matrix(40, 0, 0, 40, 1232.486341, 9.740232)"/>
<path fill="none" stroke-width="0.0333333" stroke-linecap="butt" stroke-linejoin="miter" stroke="rgb(0%, 0%, 0%)" stroke-opacity="1" stroke-miterlimit="10" d="M 4.346338 3.465283 L 4.467822 3.918897 " transform="matrix(40, 0, 0, 40, 1232.486341, 9.740232)"/>
<path fill="none" stroke-width="0.0333333" stroke-linecap="butt" stroke-linejoin="miter" stroke="rgb(0%, 0%, 0%)" stroke-opacity="1" stroke-miterlimit="10" d="M 4.507275 3.422217 L 4.628857 3.87583 " transform="matrix(40, 0, 0, 40, 1232.486341, 9.740232)"/>
<g fill="rgb(0%, 0%, 0%)" fill-opacity="1">
<use xlink:href="#glyph-1-1" x="1326.894531" y="50.976562"/>
</g>
<g fill="rgb(0%, 0%, 0%)" fill-opacity="1">
<use xlink:href="#glyph-1-2" x="1322.113281" y="55.613281"/>
</g>
<g fill="rgb(0%, 0%, 0%)" fill-opacity="1">
<use xlink:href="#glyph-0-1" x="1333.660156" y="15.46875"/>
</g>
<g fill="rgb(0%, 0%, 0%)" fill-opacity="1">
<use xlink:href="#glyph-1-10" x="1322.226562" y="16.261719"/>
<use xlink:href="#glyph-1-4" x="1328.158855" y="16.261719"/>
</g>
<g fill="rgb(0%, 0%, 0%)" fill-opacity="1">
<use xlink:href="#glyph-0-1" x="1289.125" y="41.179688"/>
</g>
<g fill="rgb(0%, 0%, 0%)" fill-opacity="1">
<use xlink:href="#glyph-1-10" x="1277.722656" y="41.941406"/>
<use xlink:href="#glyph-1-9" x="1283.654949" y="41.941406"/>
</g>
<g fill="rgb(0%, 0%, 0%)" fill-opacity="1">
<use xlink:href="#glyph-1-1" x="1306.894531" y="85.617188"/>
</g>
<g fill="rgb(0%, 0%, 0%)" fill-opacity="1">
<use xlink:href="#glyph-1-3" x="1300.722656" y="90.253906"/>
</g>
<g fill="rgb(0%, 0%, 0%)" fill-opacity="1">
<use xlink:href="#glyph-1-1" x="1266.894531" y="85.617188"/>
</g>
<g fill="rgb(0%, 0%, 0%)" fill-opacity="1">
<use xlink:href="#glyph-1-4" x="1260.640625" y="90.253906"/>
</g>
<g fill="rgb(0%, 0%, 0%)" fill-opacity="1">
<use xlink:href="#glyph-0-1" x="1246.714844" y="54.859375"/>
</g>
<g fill="rgb(0%, 0%, 0%)" fill-opacity="1">
<use xlink:href="#glyph-1-4" x="1235.285156" y="55.652344"/>
<use xlink:href="#glyph-1-5" x="1241.217449" y="55.652344"/>
</g>
<g fill="rgb(0%, 0%, 0%)" fill-opacity="1">
<use xlink:href="#glyph-0-1" x="1246.714844" y="124.140625"/>
</g>
<g fill="rgb(0%, 0%, 0%)" fill-opacity="1">
<use xlink:href="#glyph-1-4" x="1235.28125" y="124.933594"/>
<use xlink:href="#glyph-1-6" x="1241.213543" y="124.933594"/>
</g>
<g fill="rgb(0%, 0%, 0%)" fill-opacity="1">
<use xlink:href="#glyph-0-1" x="1226.714844" y="89.5"/>
</g>
<g fill="rgb(0%, 0%, 0%)" fill-opacity="1">
<use xlink:href="#glyph-1-4" x="1215.265625" y="90.292969"/>
<use xlink:href="#glyph-1-7" x="1221.197918" y="90.292969"/>
</g>
<g fill="rgb(0%, 0%, 0%)" fill-opacity="1">
<use xlink:href="#glyph-1-1" x="1330.269531" y="120.257813"/>
</g>
<g fill="rgb(0%, 0%, 0%)" fill-opacity="1">
<use xlink:href="#glyph-1-3" x="1318.113281" y="124.894531"/>
<use xlink:href="#glyph-1-18" x="1324.045574" y="124.894531"/>
</g>
<g fill="rgb(0%, 0%, 0%)" fill-opacity="1">
<use xlink:href="#glyph-1-1" x="1306.894531" y="154.898438"/>
</g>
<g fill="rgb(0%, 0%, 0%)" fill-opacity="1">
<use xlink:href="#glyph-1-3" x="1296.183594" y="159.535156"/>
<use xlink:href="#glyph-1-2" x="1302.115886" y="159.535156"/>
</g>
<g fill="rgb(0%, 0%, 0%)" fill-opacity="1">
<use xlink:href="#glyph-1-17" x="1269.730469" y="154.902344"/>
</g>
<g fill="rgb(0%, 0%, 0%)" fill-opacity="1">
<use xlink:href="#glyph-1-3" x="1257.613281" y="159.535156"/>
<use xlink:href="#glyph-1-3" x="1263.545574" y="159.535156"/>
</g>
<g fill="rgb(0%, 0%, 0%)" fill-opacity="1">
<use xlink:href="#glyph-1-17" x="1326.910156" y="189.546875"/>
</g>
<g fill="rgb(0%, 0%, 0%)" fill-opacity="1">
<use xlink:href="#glyph-1-3" x="1314.710938" y="194.175781"/>
<use xlink:href="#glyph-1-4" x="1320.64323" y="194.175781"/>
</g>
<g fill="rgb(0%, 0%, 0%)" fill-opacity="1">
<use xlink:href="#glyph-0-1" x="1306.714844" y="228.066406"/>
</g>
<g fill="rgb(0%, 0%, 0%)" fill-opacity="1">
<use xlink:href="#glyph-1-10" x="1296.753906" y="228.855469"/>
<use xlink:href="#glyph-1-2" x="1302.686199" y="228.855469"/>
</g>
<g fill="rgb(0%, 0%, 0%)" fill-opacity="1">
<use xlink:href="#glyph-1-16" x="1366.613281" y="120.125"/>
</g>
<g fill="rgb(0%, 0%, 0%)" fill-opacity="1">
<use xlink:href="#glyph-1-2" x="1354.691406" y="124.894531"/>
<use xlink:href="#glyph-1-11" x="1360.623699" y="124.894531"/>
</g>
<g fill="rgb(0%, 0%, 0%)" fill-opacity="1">
<use xlink:href="#glyph-1-12" x="1370.816406" y="85.625"/>
<use xlink:href="#glyph-1-1" x="1373.779948" y="85.625"/>
<use xlink:href="#glyph-1-13" x="1381.483075" y="85.625"/>
<use xlink:href="#glyph-1-14" x="1384.446617" y="85.625"/>
<use xlink:href="#glyph-1-15" x="1395.274744" y="85.625"/>
</g>
<g fill="rgb(0%, 0%, 0%)" fill-opacity="1">
<use xlink:href="#glyph-1-10" x="1364.703125" y="90.121094"/>
</g>
<g fill="rgb(0%, 0%, 0%)" fill-opacity="1">
<use xlink:href="#glyph-0-1" x="1415" y="61.21875"/>
</g>
<g fill="rgb(0%, 0%, 0%)" fill-opacity="1">
<use xlink:href="#glyph-1-4" x="1403.550781" y="62.007812"/>
<use xlink:href="#glyph-1-11" x="1409.483074" y="62.007812"/>
</g>
<g fill="rgb(0%, 0%, 0%)" fill-opacity="1">
<use xlink:href="#glyph-1-8" x="1366.945312" y="50.976562"/>
</g>
<g fill="rgb(0%, 0%, 0%)" fill-opacity="1">
<use xlink:href="#glyph-1-9" x="1360.671875" y="55.582031"/>
</g>
<g fill="rgb(0%, 0%, 0%)" fill-opacity="1">
<use xlink:href="#glyph-1-12" x="1421.339844" y="105.625"/>
<use xlink:href="#glyph-1-1" x="1424.303386" y="105.625"/>
<use xlink:href="#glyph-1-13" x="1432.006512" y="105.625"/>
<use xlink:href="#glyph-1-14" x="1434.970054" y="105.625"/>
<use xlink:href="#glyph-1-14" x="1445.798181" y="105.625"/>
<use xlink:href="#glyph-1-15" x="1456.626308" y="105.625"/>
</g>
<g fill="rgb(0%, 0%, 0%)" fill-opacity="1">
<use xlink:href="#glyph-1-5" x="1415.289062" y="110.253906"/>
</g>
<g fill="rgb(0%, 0%, 0%)" fill-opacity="1">
<use xlink:href="#glyph-1-16" x="1455.894531" y="125.484375"/>
</g>
<g fill="rgb(0%, 0%, 0%)" fill-opacity="1">
<use xlink:href="#glyph-1-6" x="1449.921875" y="130.125"/>
</g>
<g fill="rgb(0%, 0%, 0%)" fill-opacity="1">
<use xlink:href="#glyph-1-1" x="1490.816406" y="105.617188"/>
</g>
<g fill="rgb(0%, 0%, 0%)" fill-opacity="1">
<use xlink:href="#glyph-1-7" x="1484.550781" y="110.253906"/>
</g>
<g fill="rgb(0%, 0%, 0%)" fill-opacity="1">
<use xlink:href="#glyph-1-17" x="1490.832031" y="65.621094"/>
</g>
<g fill="rgb(0%, 0%, 0%)" fill-opacity="1">
<use xlink:href="#glyph-1-11" x="1484.546875" y="70.253906"/>
</g>
<g fill="rgb(0%, 0%, 0%)" fill-opacity="1">
<use xlink:href="#glyph-1-1" x="1525.457031" y="125.617188"/>
</g>
<g fill="rgb(0%, 0%, 0%)" fill-opacity="1">
<use xlink:href="#glyph-1-2" x="1513.300781" y="130.253906"/>
<use xlink:href="#glyph-1-18" x="1519.233074" y="130.253906"/>
</g>
<g fill="rgb(0%, 0%, 0%)" fill-opacity="1">
<use xlink:href="#glyph-1-1" x="1560.097656" y="105.617188"/>
</g>
<g fill="rgb(0%, 0%, 0%)" fill-opacity="1">
<use xlink:href="#glyph-1-2" x="1549.386719" y="110.253906"/>
<use xlink:href="#glyph-1-2" x="1555.319011" y="110.253906"/>
</g>
<g fill="rgb(0%, 0%, 0%)" fill-opacity="1">
<use xlink:href="#glyph-1-1" x="1594.738281" y="125.617188"/>
</g>
<g fill="rgb(0%, 0%, 0%)" fill-opacity="1">
<use xlink:href="#glyph-1-2" x="1582.632812" y="130.253906"/>
<use xlink:href="#glyph-1-3" x="1588.565105" y="130.253906"/>
</g>
<g fill="rgb(0%, 0%, 0%)" fill-opacity="1">
<use xlink:href="#glyph-1-1" x="1629.378906" y="105.617188"/>
</g>
<g fill="rgb(0%, 0%, 0%)" fill-opacity="1">
<use xlink:href="#glyph-1-2" x="1617.195312" y="110.253906"/>
<use xlink:href="#glyph-1-4" x="1623.127605" y="110.253906"/>
</g>
<g fill="rgb(0%, 0%, 0%)" fill-opacity="1">
<use xlink:href="#glyph-1-1" x="1664.023438" y="125.617188"/>
</g>
<g fill="rgb(0%, 0%, 0%)" fill-opacity="1">
<use xlink:href="#glyph-1-2" x="1651.867188" y="130.253906"/>
<use xlink:href="#glyph-1-9" x="1657.79948" y="130.253906"/>
</g>
<g fill="rgb(0%, 0%, 0%)" fill-opacity="1">
<use xlink:href="#glyph-1-17" x="1664.039062" y="165.621094"/>
</g>
<g fill="rgb(0%, 0%, 0%)" fill-opacity="1">
<use xlink:href="#glyph-1-2" x="1651.78125" y="170.253906"/>
<use xlink:href="#glyph-1-10" x="1657.713543" y="170.253906"/>
</g>
<g fill="rgb(0%, 0%, 0%)" fill-opacity="1">
<use xlink:href="#glyph-1-17" x="1698.679688" y="105.621094"/>
</g>
<g fill="rgb(0%, 0%, 0%)" fill-opacity="1">
<use xlink:href="#glyph-1-2" x="1686.484375" y="110.253906"/>
<use xlink:href="#glyph-1-5" x="1692.416668" y="110.253906"/>
</g>
<g fill="rgb(0%, 0%, 0%)" fill-opacity="1">
<use xlink:href="#glyph-0-1" x="1733.125" y="129.5"/>
</g>
<g fill="rgb(0%, 0%, 0%)" fill-opacity="1">
<use xlink:href="#glyph-1-9" x="1721.714844" y="130.292969"/>
<use xlink:href="#glyph-1-18" x="1727.647136" y="130.292969"/>
</g>
<g fill="rgb(0%, 0%, 0%)" fill-opacity="1">
<use xlink:href="#glyph-0-1" x="1613.894531" y="72.546875"/>
</g>
<g fill="rgb(0%, 0%, 0%)" fill-opacity="1">
<use xlink:href="#glyph-1-9" x="1603.933594" y="73.339844"/>
<use xlink:href="#glyph-1-2" x="1609.865886" y="73.339844"/>
</g>
<g fill="rgb(0%, 0%, 0%)" fill-opacity="1">
<use xlink:href="#glyph-0-1" x="1644.507812" y="72.546875"/>
</g>
<g fill="rgb(0%, 0%, 0%)" fill-opacity="1">
<use xlink:href="#glyph-1-9" x="1633.152344" y="73.339844"/>
<use xlink:href="#glyph-1-3" x="1639.084636" y="73.339844"/>
</g>
<g fill="rgb(0%, 0%, 0%)" fill-opacity="1">
<use xlink:href="#glyph-0-1" x="1609.867188" y="166.457031"/>
</g>
<g fill="rgb(0%, 0%, 0%)" fill-opacity="1">
<use xlink:href="#glyph-1-9" x="1598.433594" y="167.25"/>
<use xlink:href="#glyph-1-4" x="1604.365886" y="167.25"/>
</g>
<g fill="rgb(0%, 0%, 0%)" fill-opacity="1">
<use xlink:href="#glyph-0-1" x="1579.253906" y="166.457031"/>
</g>
<g fill="rgb(0%, 0%, 0%)" fill-opacity="1">
<use xlink:href="#glyph-1-9" x="1567.851562" y="167.21875"/>
<use xlink:href="#glyph-1-9" x="1573.783855" y="167.21875"/>
</g>
<g fill="rgb(0%, 0%, 0%)" fill-opacity="1">
<use xlink:href="#glyph-0-1" x="1544.613281" y="72.546875"/>
</g>
<g fill="rgb(0%, 0%, 0%)" fill-opacity="1">
<use xlink:href="#glyph-1-9" x="1533.121094" y="73.308594"/>
<use xlink:href="#glyph-1-10" x="1539.053386" y="73.308594"/>
</g>
<g fill="rgb(0%, 0%, 0%)" fill-opacity="1">
<use xlink:href="#glyph-0-1" x="1575.226562" y="72.546875"/>
</g>
<g fill="rgb(0%, 0%, 0%)" fill-opacity="1">
<use xlink:href="#glyph-1-9" x="1563.796875" y="73.339844"/>
<use xlink:href="#glyph-1-5" x="1569.729168" y="73.339844"/>
</g>
<g fill="rgb(0%, 0%, 0%)" fill-opacity="1">
<use xlink:href="#glyph-0-1" x="1540.585938" y="166.457031"/>
</g>
<g fill="rgb(0%, 0%, 0%)" fill-opacity="1">
<use xlink:href="#glyph-1-9" x="1529.152344" y="167.21875"/>
<use xlink:href="#glyph-1-6" x="1535.084636" y="167.21875"/>
</g>
<g fill="rgb(0%, 0%, 0%)" fill-opacity="1">
<use xlink:href="#glyph-0-1" x="1509.96875" y="166.457031"/>
</g>
<g fill="rgb(0%, 0%, 0%)" fill-opacity="1">
<use xlink:href="#glyph-1-9" x="1498.519531" y="167.25"/>
<use xlink:href="#glyph-1-7" x="1504.451824" y="167.25"/>
</g>
<g fill="rgb(0%, 0%, 0%)" fill-opacity="1">
<use xlink:href="#glyph-0-1" x="1455.996094" y="169.5"/>
</g>
<g fill="rgb(0%, 0%, 0%)" fill-opacity="1">
<use xlink:href="#glyph-1-9" x="1444.546875" y="170.292969"/>
<use xlink:href="#glyph-1-11" x="1450.479168" y="170.292969"/>
</g>
<g fill="rgb(0%, 0%, 0%)" fill-opacity="1">
<use xlink:href="#glyph-0-1" x="1441.355469" y="74.859375"/>
</g>
<g fill="rgb(0%, 0%, 0%)" fill-opacity="1">
<use xlink:href="#glyph-1-10" x="1429.945312" y="75.652344"/>
<use xlink:href="#glyph-1-18" x="1435.877605" y="75.652344"/>
</g>
<g fill="rgb(0%, 0%, 0%)" fill-opacity="1">
<use xlink:href="#glyph-1-1" x="1401.535156" y="140.257812"/>
</g>
<g fill="rgb(0%, 0%, 0%)" fill-opacity="1">
<use xlink:href="#glyph-1-2" x="1389.351562" y="144.894531"/>
<use xlink:href="#glyph-1-6" x="1395.283855" y="144.894531"/>
</g>
<g fill="rgb(0%, 0%, 0%)" fill-opacity="1">
<use xlink:href="#glyph-1-17" x="1411.902344" y="178.898438"/>
</g>
<g fill="rgb(0%, 0%, 0%)" fill-opacity="1">
<use xlink:href="#glyph-1-2" x="1399.6875" y="183.53125"/>
<use xlink:href="#glyph-1-7" x="1405.619793" y="183.53125"/>
</g>
<path fill="none" stroke-width="0.0625" stroke-linecap="butt" stroke-linejoin="miter" stroke="rgb(0%, 0%, 0%)" stroke-opacity="1" stroke-miterlimit="10" d="M 0.0000486791 0 L 0.500049 0 M 0.250049 -0.25 L 0.250049 0.25 " transform="matrix(40, 0, 0, 40, 1761.119147, 116.5)"/>
<path fill="none" stroke-width="0.0333333" stroke-linecap="butt" stroke-linejoin="miter" stroke="rgb(0%, 0%, 0%)" stroke-opacity="1" stroke-miterlimit="10" d="M 0.242334 1.360156 L 0.38667 1.276758 " transform="matrix(40, 0, 0, 40, 1803.345708, 66.152343)"/>
<path fill="none" stroke-width="0.0333333" stroke-linecap="butt" stroke-linejoin="miter" stroke="rgb(0%, 0%, 0%)" stroke-opacity="1" stroke-miterlimit="10" d="M 0.497217 1.50166 L 0.247217 1.068555 " transform="matrix(40, 0, 0, 40, 1803.345708, 66.152343)"/>
<path fill="none" stroke-width="0.0333333" stroke-linecap="butt" stroke-linejoin="miter" stroke="rgb(0%, 0%, 0%)" stroke-opacity="1" stroke-miterlimit="10" d="M 0.381689 1.568262 L 0.131689 1.135254 " transform="matrix(40, 0, 0, 40, 1803.345708, 66.152343)"/>
<path fill="none" stroke-width="0.0333333" stroke-linecap="butt" stroke-linejoin="miter" stroke="rgb(0%, 0%, 0%)" stroke-opacity="1" stroke-miterlimit="10" d="M 1.038428 1.099512 L 1.397998 1.307129 " transform="matrix(40, 0, 0, 40, 1803.345708, 66.152343)"/>
<path fill="none" stroke-width="0.0333333" stroke-linecap="butt" stroke-linejoin="miter" stroke="rgb(0%, 0%, 0%)" stroke-opacity="1" stroke-miterlimit="10" d="M 1.150928 1.453125 L 1.400928 1.020117 " transform="matrix(40, 0, 0, 40, 1803.345708, 66.152343)"/>
<path fill="none" stroke-width="0.0333333" stroke-linecap="butt" stroke-linejoin="miter" stroke="rgb(0%, 0%, 0%)" stroke-opacity="1" stroke-miterlimit="10" d="M 1.035498 1.386523 L 1.285498 0.953516 " transform="matrix(40, 0, 0, 40, 1803.345708, 66.152343)"/>
<path fill="none" stroke-width="0.0333333" stroke-linecap="butt" stroke-linejoin="miter" stroke="rgb(0%, 0%, 0%)" stroke-opacity="1" stroke-miterlimit="10" d="M 1.925342 1.388379 L 2.089795 1.293457 " transform="matrix(40, 0, 0, 40, 1803.345708, 66.152343)"/>
<path fill="none" stroke-width="0.0333333" stroke-linecap="butt" stroke-linejoin="miter" stroke="rgb(0%, 0%, 0%)" stroke-opacity="1" stroke-miterlimit="10" d="M 2.760107 1.093555 L 3.130029 1.307129 " transform="matrix(40, 0, 0, 40, 1803.345708, 66.152343)"/>
<path fill="none" stroke-width="0.0333333" stroke-linecap="butt" stroke-linejoin="miter" stroke="rgb(0%, 0%, 0%)" stroke-opacity="1" stroke-miterlimit="10" d="M 3.657373 1.388379 L 3.821045 1.293945 " transform="matrix(40, 0, 0, 40, 1803.345708, 66.152343)"/>
<path fill="none" stroke-width="0.0333333" stroke-linecap="butt" stroke-linejoin="miter" stroke="rgb(0%, 0%, 0%)" stroke-opacity="1" stroke-miterlimit="10" d="M 4.413428 0.741992 L 4.413428 0.27207 " transform="matrix(40, 0, 0, 40, 1803.345708, 66.152343)"/>
<path fill="none" stroke-width="0.0333333" stroke-linecap="butt" stroke-linejoin="miter" stroke="rgb(0%, 0%, 0%)" stroke-opacity="1" stroke-miterlimit="10" d="M 4.246826 0.741992 L 4.246826 0.27207 " transform="matrix(40, 0, 0, 40, 1803.345708, 66.152343)"/>
<path fill="none" stroke-width="0.0333333" stroke-linecap="butt" stroke-linejoin="miter" stroke="rgb(0%, 0%, 0%)" stroke-opacity="1" stroke-miterlimit="10" d="M 4.492139 1.093555 L 4.86206 1.307129 " transform="matrix(40, 0, 0, 40, 1803.345708, 66.152343)"/>
<path fill="none" stroke-width="0.0333333" stroke-linecap="butt" stroke-linejoin="miter" stroke="rgb(0%, 0%, 0%)" stroke-opacity="1" stroke-miterlimit="10" d="M 5.403174 1.380469 L 5.566943 1.285938 " transform="matrix(40, 0, 0, 40, 1803.345708, 66.152343)"/>
<path fill="none" stroke-width="0.0333333" stroke-linecap="butt" stroke-linejoin="miter" stroke="rgb(0%, 0%, 0%)" stroke-opacity="1" stroke-miterlimit="10" d="M 3.337646 1.805273 L 3.195654 2.148047 " transform="matrix(40, 0, 0, 40, 1803.345708, 66.152343)"/>
<path fill="none" stroke-width="0.0333333" stroke-linecap="butt" stroke-linejoin="miter" stroke="rgb(0%, 0%, 0%)" stroke-opacity="1" stroke-miterlimit="10" d="M 3.534912 1.670898 L 3.732568 2.148047 " transform="matrix(40, 0, 0, 40, 1803.345708, 66.152343)"/>
<path fill="none" stroke-width="0.0333333" stroke-linecap="butt" stroke-linejoin="miter" stroke="rgb(0%, 0%, 0%)" stroke-opacity="1" stroke-miterlimit="10" d="M 2.70376 0.744824 L 2.852588 0.385645 " transform="matrix(40, 0, 0, 40, 1803.345708, 66.152343)"/>
<path fill="none" stroke-width="0.0333333" stroke-linecap="butt" stroke-linejoin="miter" stroke="rgb(0%, 0%, 0%)" stroke-opacity="1" stroke-miterlimit="10" d="M 2.480029 0.714941 L 2.329639 0.351953 " transform="matrix(40, 0, 0, 40, 1803.345708, 66.152343)"/>
<path fill="none" stroke-width="0.0333333" stroke-linecap="butt" stroke-linejoin="miter" stroke="rgb(0%, 0%, 0%)" stroke-opacity="1" stroke-miterlimit="10" d="M 1.648682 1.775293 L 1.648682 2.241992 " transform="matrix(40, 0, 0, 40, 1803.345708, 66.152343)"/>
<path fill="none" stroke-width="0.0333333" stroke-linecap="butt" stroke-linejoin="miter" stroke="rgb(0%, 0%, 0%)" stroke-opacity="1" stroke-miterlimit="10" d="M 1.815381 1.775293 L 1.815381 2.241992 " transform="matrix(40, 0, 0, 40, 1803.345708, 66.152343)"/>
<g fill="rgb(0%, 0%, 0%)" fill-opacity="1">
<use xlink:href="#glyph-0-1" x="1797.574219" y="131.878906"/>
</g>
<g fill="rgb(0%, 0%, 0%)" fill-opacity="1">
<use xlink:href="#glyph-1-17" x="1832.410156" y="108"/>
</g>
<g fill="rgb(0%, 0%, 0%)" fill-opacity="1">
<use xlink:href="#glyph-1-4" x="1820.242188" y="112.632812"/>
<use xlink:href="#glyph-1-9" x="1826.17448" y="112.632812"/>
</g>
<g fill="rgb(0%, 0%, 0%)" fill-opacity="1">
<use xlink:href="#glyph-1-1" x="1867.035156" y="127.996094"/>
</g>
<g fill="rgb(0%, 0%, 0%)" fill-opacity="1">
<use xlink:href="#glyph-1-3" x="1854.835938" y="132.632812"/>
<use xlink:href="#glyph-1-11" x="1860.76823" y="132.632812"/>
</g>
<g fill="rgb(0%, 0%, 0%)" fill-opacity="1">
<use xlink:href="#glyph-1-1" x="1901.675781" y="107.996094"/>
</g>
<g fill="rgb(0%, 0%, 0%)" fill-opacity="1">
<use xlink:href="#glyph-1-3" x="1889.476563" y="112.632812"/>
<use xlink:href="#glyph-1-7" x="1895.408855" y="112.632812"/>
</g>
<g fill="rgb(0%, 0%, 0%)" fill-opacity="1">
<use xlink:href="#glyph-1-1" x="1936.316406" y="127.996094"/>
</g>
<g fill="rgb(0%, 0%, 0%)" fill-opacity="1">
<use xlink:href="#glyph-1-3" x="1924.136719" y="132.632812"/>
<use xlink:href="#glyph-1-6" x="1930.069011" y="132.632812"/>
</g>
<g fill="rgb(0%, 0%, 0%)" fill-opacity="1">
<use xlink:href="#glyph-1-1" x="1970.957031" y="107.996094"/>
</g>
<g fill="rgb(0%, 0%, 0%)" fill-opacity="1">
<use xlink:href="#glyph-1-3" x="1958.71875" y="112.632812"/>
<use xlink:href="#glyph-1-10" x="1964.651043" y="112.632812"/>
</g>
<g fill="rgb(0%, 0%, 0%)" fill-opacity="1">
<use xlink:href="#glyph-1-17" x="1970.972656" y="68"/>
</g>
<g fill="rgb(0%, 0%, 0%)" fill-opacity="1">
<use xlink:href="#glyph-1-3" x="1958.808594" y="72.632812"/>
<use xlink:href="#glyph-1-9" x="1964.740886" y="72.632812"/>
</g>
<g fill="rgb(0%, 0%, 0%)" fill-opacity="1">
<use xlink:href="#glyph-1-17" x="2005.613281" y="128"/>
</g>
<g fill="rgb(0%, 0%, 0%)" fill-opacity="1">
<use xlink:href="#glyph-1-3" x="1993.421875" y="132.632812"/>
<use xlink:href="#glyph-1-5" x="1999.354168" y="132.632812"/>
</g>
<g fill="rgb(0%, 0%, 0%)" fill-opacity="1">
<use xlink:href="#glyph-0-1" x="2040.058594" y="111.878906"/>
</g>
<g fill="rgb(0%, 0%, 0%)" fill-opacity="1">
<use xlink:href="#glyph-1-10" x="2028.628906" y="112.671875"/>
<use xlink:href="#glyph-1-5" x="2034.561199" y="112.671875"/>
</g>
<g fill="rgb(0%, 0%, 0%)" fill-opacity="1">
<use xlink:href="#glyph-0-1" x="1920.828125" y="168.835938"/>
</g>
<g fill="rgb(0%, 0%, 0%)" fill-opacity="1">
<use xlink:href="#glyph-1-5" x="1909.421875" y="169.628906"/>
<use xlink:href="#glyph-1-18" x="1915.354168" y="169.628906"/>
</g>
<g fill="rgb(0%, 0%, 0%)" fill-opacity="1">
<use xlink:href="#glyph-0-1" x="1951.445312" y="168.835938"/>
</g>
<g fill="rgb(0%, 0%, 0%)" fill-opacity="1">
<use xlink:href="#glyph-1-5" x="1941.484375" y="169.628906"/>
<use xlink:href="#glyph-1-2" x="1947.416668" y="169.628906"/>
</g>
<g fill="rgb(0%, 0%, 0%)" fill-opacity="1">
<use xlink:href="#glyph-0-1" x="1916.804688" y="74.925781"/>
</g>
<g fill="rgb(0%, 0%, 0%)" fill-opacity="1">
<use xlink:href="#glyph-1-10" x="1905.351562" y="75.71875"/>
<use xlink:href="#glyph-1-7" x="1911.283855" y="75.71875"/>
</g>
<g fill="rgb(0%, 0%, 0%)" fill-opacity="1">
<use xlink:href="#glyph-0-1" x="1886.1875" y="74.925781"/>
</g>
<g fill="rgb(0%, 0%, 0%)" fill-opacity="1">
<use xlink:href="#glyph-1-10" x="1874.738281" y="75.71875"/>
<use xlink:href="#glyph-1-11" x="1880.670574" y="75.71875"/>
</g>
<g fill="rgb(0%, 0%, 0%)" fill-opacity="1">
<use xlink:href="#glyph-1-17" x="1867.050781" y="168"/>
</g>
<g fill="rgb(0%, 0%, 0%)" fill-opacity="1">
<use xlink:href="#glyph-1-4" x="1854.878906" y="172.632812"/>
<use xlink:href="#glyph-1-18" x="1860.811199" y="172.632812"/>
</g>
<path fill="none" stroke-width="0.0625" stroke-linecap="butt" stroke-linejoin="miter" stroke="rgb(0%, 0%, 0%)" stroke-opacity="1" stroke-miterlimit="10" d="M 0.000048703 0 L 0.500049 0 M 0.250049 -0.25 L 0.250049 0.25 " transform="matrix(40, 0, 0, 40, 2068.056646, 116.5)"/>
<path fill="none" stroke-width="0.0333333" stroke-linecap="butt" stroke-linejoin="miter" stroke="rgb(0%, 0%, 0%)" stroke-opacity="1" stroke-miterlimit="10" d="M 0.255225 0.147363 L 0.531982 0.307129 " transform="matrix(40, 0, 0, 40, 2110.283207, 106.054691)"/>
<path fill="none" stroke-width="0.0333333" stroke-linecap="butt" stroke-linejoin="miter" stroke="rgb(0%, 0%, 0%)" stroke-opacity="1" stroke-miterlimit="10" d="M 0.326318 0.477051 L 0.576318 0.0440429 " transform="matrix(40, 0, 0, 40, 2110.283207, 106.054691)"/>
<path fill="none" stroke-width="0.0333333" stroke-linecap="butt" stroke-linejoin="miter" stroke="rgb(0%, 0%, 0%)" stroke-opacity="1" stroke-miterlimit="10" d="M 0.210889 0.410449 L 0.460889 -0.0225587 " transform="matrix(40, 0, 0, 40, 2110.283207, 106.054691)"/>
<path fill="none" stroke-width="0.0333333" stroke-linecap="butt" stroke-linejoin="miter" stroke="rgb(0%, 0%, 0%)" stroke-opacity="1" stroke-miterlimit="10" d="M 1.073096 0.380469 L 1.476807 0.147363 " transform="matrix(40, 0, 0, 40, 2110.283207, 106.054691)"/>
<path fill="none" stroke-width="0.0333333" stroke-linecap="butt" stroke-linejoin="miter" stroke="rgb(0%, 0%, 0%)" stroke-opacity="1" stroke-miterlimit="10" d="M 1.457666 0.44707 L 1.207666 0.0140624 " transform="matrix(40, 0, 0, 40, 2110.283207, 106.054691)"/>
<path fill="none" stroke-width="0.0333333" stroke-linecap="butt" stroke-linejoin="miter" stroke="rgb(0%, 0%, 0%)" stroke-opacity="1" stroke-miterlimit="10" d="M 1.342236 0.513769 L 1.092236 0.0807616 " transform="matrix(40, 0, 0, 40, 2110.283207, 106.054691)"/>
<g fill="rgb(0%, 0%, 0%)" fill-opacity="1">
<use xlink:href="#glyph-0-1" x="2104.511719" y="111.78125"/>
</g>
<g fill="rgb(0%, 0%, 0%)" fill-opacity="1">
<use xlink:href="#glyph-1-17" x="2139.347656" y="127.902344"/>
</g>
<g fill="rgb(0%, 0%, 0%)" fill-opacity="1">
<use xlink:href="#glyph-1-4" x="2127.089844" y="132.535156"/>
<use xlink:href="#glyph-1-10" x="2133.022136" y="132.535156"/>
</g>
<g fill="rgb(0%, 0%, 0%)" fill-opacity="1">
<use xlink:href="#glyph-0-1" x="2173.792969" y="111.78125"/>
</g>
</svg>
