<?xml version="1.0" encoding="UTF-8"?>
<svg xmlns="http://www.w3.org/2000/svg" xmlns:xlink="http://www.w3.org/1999/xlink" width="1089" height="235" viewBox="0 0 1089 235">
<defs>
<g>
<g id="glyph-0-0">
<path d="M 1.332031 0 L 1.332031 -6.667969 L 6.667969 -6.667969 L 6.667969 0 Z M 1.5 -0.167969 L 6.5 -0.167969 L 6.5 -6.5 L 1.5 -6.5 Z M 1.5 -0.167969 "/>
</g>
<g id="glyph-0-1">
<path d="M 6.269531 -2.675781 L 7.28125 -2.421875 C 7.070312 -1.59375 6.6875 -0.960938 6.136719 -0.523438 C 5.585938 -0.0859375 4.914062 0.128906 4.121094 0.128906 C 3.296875 0.128906 2.628906 -0.0390625 2.113281 -0.371094 C 1.597656 -0.707031 1.203125 -1.191406 0.933594 -1.828125 C 0.664062 -2.464844 0.53125 -3.144531 0.53125 -3.875 C 0.53125 -4.671875 0.683594 -5.363281 0.988281 -5.957031 C 1.292969 -6.546875 1.722656 -6.996094 2.285156 -7.304688 C 2.84375 -7.613281 3.460938 -7.765625 4.136719 -7.765625 C 4.898438 -7.765625 5.542969 -7.570312 6.0625 -7.183594 C 6.582031 -6.792969 6.945312 -6.246094 7.152344 -5.542969 L 6.15625 -5.308594 C 5.980469 -5.863281 5.722656 -6.265625 5.386719 -6.519531 C 5.050781 -6.773438 4.625 -6.902344 4.113281 -6.902344 C 3.527344 -6.902344 3.039062 -6.761719 2.644531 -6.480469 C 2.25 -6.199219 1.972656 -5.820312 1.8125 -5.347656 C 1.652344 -4.871094 1.574219 -4.382812 1.574219 -3.878906 C 1.574219 -3.230469 1.667969 -2.664062 1.855469 -2.179688 C 2.046875 -1.695312 2.339844 -1.332031 2.738281 -1.09375 C 3.136719 -0.855469 3.570312 -0.734375 4.035156 -0.734375 C 4.601562 -0.734375 5.082031 -0.898438 5.472656 -1.222656 C 5.867188 -1.550781 6.132812 -2.035156 6.269531 -2.675781 Z M 6.269531 -2.675781 "/>
</g>
<g id="glyph-0-2">
<path d="M 3.972656 0 L 3.035156 0 L 3.035156 -5.972656 C 2.808594 -5.757812 2.515625 -5.542969 2.148438 -5.328125 C 1.78125 -5.113281 1.453125 -4.953125 1.160156 -4.84375 L 1.160156 -5.75 C 1.683594 -5.996094 2.144531 -6.296875 2.535156 -6.644531 C 2.929688 -6.996094 3.207031 -7.335938 3.371094 -7.667969 L 3.972656 -7.667969 Z M 3.972656 0 "/>
</g>
<g id="glyph-0-3">
<path d="M 5.371094 -0.902344 L 5.371094 0 L 0.324219 0 C 0.316406 -0.226562 0.351562 -0.441406 0.433594 -0.652344 C 0.5625 -0.996094 0.765625 -1.332031 1.050781 -1.667969 C 1.332031 -2 1.742188 -2.386719 2.277344 -2.824219 C 3.105469 -3.503906 3.667969 -4.042969 3.957031 -4.441406 C 4.25 -4.839844 4.394531 -5.214844 4.394531 -5.566406 C 4.394531 -5.9375 4.261719 -6.253906 3.996094 -6.507812 C 3.730469 -6.761719 3.386719 -6.890625 2.957031 -6.890625 C 2.507812 -6.890625 2.144531 -6.753906 1.875 -6.484375 C 1.605469 -6.214844 1.46875 -5.839844 1.464844 -5.359375 L 0.5 -5.457031 C 0.566406 -6.175781 0.8125 -6.726562 1.246094 -7.101562 C 1.675781 -7.476562 2.253906 -7.667969 2.980469 -7.667969 C 3.710938 -7.667969 4.292969 -7.464844 4.71875 -7.058594 C 5.144531 -6.652344 5.359375 -6.148438 5.359375 -5.546875 C 5.359375 -5.242188 5.296875 -4.941406 5.171875 -4.644531 C 5.046875 -4.351562 4.839844 -4.039062 4.550781 -3.714844 C 4.261719 -3.386719 3.777344 -2.9375 3.105469 -2.371094 C 2.542969 -1.898438 2.179688 -1.578125 2.019531 -1.410156 C 1.859375 -1.242188 1.730469 -1.070312 1.625 -0.902344 Z M 5.371094 -0.902344 "/>
</g>
<g id="glyph-0-4">
<path d="M 0.449219 -2.015625 L 1.386719 -2.140625 C 1.492188 -1.609375 1.675781 -1.226562 1.933594 -0.992188 C 2.191406 -0.757812 2.507812 -0.640625 2.878906 -0.640625 C 3.320312 -0.640625 3.695312 -0.792969 3.996094 -1.097656 C 4.300781 -1.402344 4.453125 -1.78125 4.453125 -2.234375 C 4.453125 -2.664062 4.3125 -3.019531 4.03125 -3.300781 C 3.75 -3.578125 3.390625 -3.71875 2.957031 -3.71875 C 2.78125 -3.71875 2.5625 -3.683594 2.296875 -3.613281 L 2.402344 -4.4375 C 2.464844 -4.429688 2.515625 -4.425781 2.550781 -4.425781 C 2.949219 -4.425781 3.3125 -4.53125 3.628906 -4.738281 C 3.949219 -4.949219 4.109375 -5.269531 4.109375 -5.703125 C 4.109375 -6.046875 3.992188 -6.332031 3.761719 -6.558594 C 3.527344 -6.785156 3.226562 -6.894531 2.859375 -6.894531 C 2.496094 -6.894531 2.191406 -6.78125 1.949219 -6.550781 C 1.707031 -6.324219 1.546875 -5.980469 1.480469 -5.519531 L 0.542969 -5.6875 C 0.65625 -6.316406 0.917969 -6.804688 1.324219 -7.148438 C 1.730469 -7.492188 2.234375 -7.667969 2.839844 -7.667969 C 3.253906 -7.667969 3.640625 -7.578125 3.988281 -7.398438 C 4.339844 -7.21875 4.609375 -6.976562 4.792969 -6.667969 C 4.980469 -6.359375 5.074219 -6.03125 5.074219 -5.683594 C 5.074219 -5.351562 4.984375 -5.050781 4.808594 -4.78125 C 4.628906 -4.511719 4.367188 -4.296875 4.019531 -4.136719 C 4.472656 -4.03125 4.824219 -3.816406 5.074219 -3.488281 C 5.324219 -3.160156 5.449219 -2.75 5.449219 -2.253906 C 5.449219 -1.589844 5.203125 -1.023438 4.71875 -0.558594 C 4.234375 -0.0976562 3.617188 0.136719 2.875 0.136719 C 2.203125 0.136719 1.648438 -0.0625 1.207031 -0.464844 C 0.761719 -0.863281 0.511719 -1.378906 0.449219 -2.015625 Z M 0.449219 -2.015625 "/>
</g>
<g id="glyph-0-5">
<path d="M 3.449219 0 L 3.449219 -1.828125 L 0.136719 -1.828125 L 0.136719 -2.6875 L 3.621094 -7.636719 L 4.386719 -7.636719 L 4.386719 -2.6875 L 5.417969 -2.6875 L 5.417969 -1.828125 L 4.386719 -1.828125 L 4.386719 0 Z M 3.449219 -2.6875 L 3.449219 -6.128906 L 1.058594 -2.6875 Z M 3.449219 -2.6875 "/>
</g>
<g id="glyph-0-6">
<path d="M 0.515625 -3.71875 C 0.515625 -4.984375 0.855469 -5.976562 1.535156 -6.695312 C 2.214844 -7.414062 3.09375 -7.769531 4.171875 -7.769531 C 4.875 -7.769531 5.511719 -7.601562 6.078125 -7.265625 C 6.644531 -6.929688 7.074219 -6.460938 7.371094 -5.855469 C 7.667969 -5.253906 7.816406 -4.570312 7.816406 -3.808594 C 7.816406 -3.035156 7.660156 -2.339844 7.347656 -1.730469 C 7.035156 -1.117188 6.59375 -0.65625 6.019531 -0.339844 C 5.449219 -0.0273438 4.828125 0.128906 4.167969 0.128906 C 3.449219 0.128906 2.804688 -0.0429688 2.238281 -0.390625 C 1.671875 -0.738281 1.246094 -1.210938 0.953125 -1.8125 C 0.660156 -2.414062 0.515625 -3.046875 0.515625 -3.71875 Z M 1.558594 -3.703125 C 1.558594 -2.78125 1.804688 -2.058594 2.300781 -1.527344 C 2.792969 -1 3.414062 -0.734375 4.160156 -0.734375 C 4.921875 -0.734375 5.546875 -1 6.039062 -1.535156 C 6.53125 -2.070312 6.777344 -2.828125 6.777344 -3.8125 C 6.777344 -4.433594 6.671875 -4.976562 6.460938 -5.441406 C 6.25 -5.902344 5.945312 -6.261719 5.539062 -6.519531 C 5.132812 -6.773438 4.679688 -6.902344 4.175781 -6.902344 C 3.460938 -6.902344 2.847656 -6.65625 2.332031 -6.164062 C 1.816406 -5.671875 1.558594 -4.851562 1.558594 -3.703125 Z M 1.558594 -3.703125 "/>
</g>
<g id="glyph-0-7">
<path d="M 0.441406 -2 L 1.425781 -2.082031 C 1.5 -1.605469 1.667969 -1.242188 1.933594 -1.003906 C 2.199219 -0.761719 2.519531 -0.640625 2.894531 -0.640625 C 3.347656 -0.640625 3.730469 -0.8125 4.042969 -1.152344 C 4.355469 -1.492188 4.511719 -1.941406 4.511719 -2.503906 C 4.511719 -3.039062 4.359375 -3.460938 4.058594 -3.769531 C 3.757812 -4.078125 3.367188 -4.234375 2.878906 -4.234375 C 2.578125 -4.234375 2.304688 -4.164062 2.0625 -4.027344 C 1.820312 -3.890625 1.628906 -3.714844 1.488281 -3.496094 L 0.609375 -3.609375 L 1.347656 -7.53125 L 5.144531 -7.53125 L 5.144531 -6.636719 L 2.097656 -6.636719 L 1.6875 -4.582031 C 2.144531 -4.902344 2.625 -5.0625 3.128906 -5.0625 C 3.796875 -5.0625 4.359375 -4.832031 4.816406 -4.371094 C 5.277344 -3.910156 5.503906 -3.3125 5.503906 -2.589844 C 5.503906 -1.898438 5.304688 -1.300781 4.902344 -0.796875 C 4.410156 -0.179688 3.742188 0.128906 2.894531 0.128906 C 2.199219 0.128906 1.632812 -0.0625 1.195312 -0.453125 C 0.757812 -0.84375 0.503906 -1.359375 0.441406 -2 Z M 0.441406 -2 "/>
</g>
<g id="glyph-0-8">
<path d="M 0.503906 -6.636719 L 0.503906 -7.535156 L 5.449219 -7.535156 L 5.449219 -6.808594 C 4.960938 -6.289062 4.480469 -5.601562 4.003906 -4.746094 C 3.527344 -3.886719 3.15625 -3.003906 2.894531 -2.097656 C 2.707031 -1.460938 2.589844 -0.761719 2.535156 0 L 1.574219 0 C 1.582031 -0.601562 1.703125 -1.328125 1.925781 -2.175781 C 2.152344 -3.027344 2.476562 -3.847656 2.898438 -4.636719 C 3.320312 -5.425781 3.769531 -6.09375 4.246094 -6.636719 Z M 0.503906 -6.636719 "/>
</g>
<g id="glyph-0-9">
<path d="M 1.886719 -4.140625 C 1.496094 -4.28125 1.207031 -4.484375 1.019531 -4.75 C 0.832031 -5.015625 0.738281 -5.328125 0.738281 -5.699219 C 0.738281 -6.253906 0.9375 -6.71875 1.339844 -7.097656 C 1.738281 -7.476562 2.269531 -7.667969 2.933594 -7.667969 C 3.597656 -7.667969 4.136719 -7.472656 4.542969 -7.085938 C 4.949219 -6.699219 5.152344 -6.226562 5.152344 -5.671875 C 5.152344 -5.316406 5.058594 -5.007812 4.871094 -4.746094 C 4.6875 -4.484375 4.40625 -4.28125 4.027344 -4.140625 C 4.496094 -3.988281 4.851562 -3.742188 5.097656 -3.402344 C 5.339844 -3.0625 5.464844 -2.65625 5.464844 -2.183594 C 5.464844 -1.53125 5.234375 -0.980469 4.769531 -0.535156 C 4.308594 -0.0898438 3.703125 0.128906 2.949219 0.128906 C 2.195312 0.128906 1.585938 -0.09375 1.125 -0.539062 C 0.664062 -0.984375 0.433594 -1.542969 0.433594 -2.207031 C 0.433594 -2.703125 0.558594 -3.121094 0.808594 -3.457031 C 1.0625 -3.792969 1.421875 -4.019531 1.886719 -4.140625 Z M 1.699219 -5.730469 C 1.699219 -5.367188 1.8125 -5.074219 2.046875 -4.84375 C 2.28125 -4.613281 2.582031 -4.5 2.953125 -4.5 C 3.3125 -4.5 3.609375 -4.613281 3.839844 -4.839844 C 4.070312 -5.066406 4.1875 -5.347656 4.1875 -5.675781 C 4.1875 -6.019531 4.070312 -6.308594 3.832031 -6.542969 C 3.59375 -6.777344 3.296875 -6.894531 2.941406 -6.894531 C 2.585938 -6.894531 2.289062 -6.78125 2.050781 -6.550781 C 1.816406 -6.324219 1.699219 -6.046875 1.699219 -5.730469 Z M 1.394531 -2.203125 C 1.394531 -1.9375 1.460938 -1.675781 1.585938 -1.425781 C 1.710938 -1.175781 1.902344 -0.984375 2.152344 -0.847656 C 2.402344 -0.710938 2.671875 -0.640625 2.957031 -0.640625 C 3.40625 -0.640625 3.777344 -0.785156 4.066406 -1.074219 C 4.359375 -1.363281 4.503906 -1.726562 4.503906 -2.171875 C 4.503906 -2.625 4.355469 -2.996094 4.054688 -3.292969 C 3.753906 -3.585938 3.378906 -3.734375 2.925781 -3.734375 C 2.484375 -3.734375 2.121094 -3.589844 1.832031 -3.296875 C 1.542969 -3.003906 1.394531 -2.640625 1.394531 -2.203125 Z M 1.394531 -2.203125 "/>
</g>
<g id="glyph-0-10">
<path d="M 0.582031 -1.765625 L 1.484375 -1.847656 C 1.5625 -1.425781 1.707031 -1.117188 1.921875 -0.925781 C 2.136719 -0.734375 2.414062 -0.640625 2.75 -0.640625 C 3.039062 -0.640625 3.289062 -0.707031 3.507812 -0.839844 C 3.726562 -0.972656 3.902344 -1.148438 4.042969 -1.367188 C 4.179688 -1.585938 4.296875 -1.886719 4.390625 -2.261719 C 4.484375 -2.636719 4.53125 -3.015625 4.53125 -3.40625 C 4.53125 -3.449219 4.53125 -3.511719 4.527344 -3.59375 C 4.339844 -3.296875 4.082031 -3.054688 3.757812 -2.867188 C 3.433594 -2.679688 3.082031 -2.589844 2.703125 -2.589844 C 2.070312 -2.589844 1.535156 -2.816406 1.097656 -3.277344 C 0.660156 -3.734375 0.441406 -4.339844 0.441406 -5.089844 C 0.441406 -5.863281 0.671875 -6.484375 1.128906 -6.957031 C 1.585938 -7.429688 2.15625 -7.667969 2.84375 -7.667969 C 3.339844 -7.667969 3.792969 -7.53125 4.207031 -7.265625 C 4.617188 -7 4.929688 -6.617188 5.144531 -6.121094 C 5.355469 -5.628906 5.464844 -4.910156 5.464844 -3.972656 C 5.464844 -2.996094 5.359375 -2.222656 5.144531 -1.644531 C 4.933594 -1.066406 4.617188 -0.625 4.199219 -0.324219 C 3.78125 -0.0195312 3.292969 0.128906 2.730469 0.128906 C 2.132812 0.128906 1.644531 -0.0351562 1.265625 -0.367188 C 0.886719 -0.699219 0.660156 -1.164062 0.582031 -1.765625 Z M 4.421875 -5.136719 C 4.421875 -5.675781 4.277344 -6.101562 3.992188 -6.417969 C 3.707031 -6.734375 3.359375 -6.890625 2.957031 -6.890625 C 2.542969 -6.890625 2.179688 -6.71875 1.871094 -6.378906 C 1.5625 -6.039062 1.40625 -5.597656 1.40625 -5.058594 C 1.40625 -4.570312 1.554688 -4.175781 1.847656 -3.871094 C 2.140625 -3.566406 2.5 -3.417969 2.933594 -3.417969 C 3.367188 -3.417969 3.722656 -3.570312 4.003906 -3.871094 C 4.28125 -4.175781 4.421875 -4.597656 4.421875 -5.136719 Z M 4.421875 -5.136719 "/>
</g>
<g id="glyph-0-11">
<path d="M 0.441406 -3.765625 C 0.441406 -4.667969 0.535156 -5.394531 0.722656 -5.945312 C 0.90625 -6.496094 1.183594 -6.921875 1.550781 -7.21875 C 1.917969 -7.515625 2.375 -7.667969 2.933594 -7.667969 C 3.34375 -7.667969 3.703125 -7.585938 4.011719 -7.417969 C 4.320312 -7.253906 4.574219 -7.015625 4.777344 -6.707031 C 4.976562 -6.394531 5.136719 -6.015625 5.25 -5.570312 C 5.363281 -5.125 5.421875 -4.523438 5.421875 -3.765625 C 5.421875 -2.871094 5.328125 -2.148438 5.144531 -1.597656 C 4.960938 -1.046875 4.6875 -0.621094 4.320312 -0.320312 C 3.953125 -0.0195312 3.492188 0.128906 2.933594 0.128906 C 2.195312 0.128906 1.617188 -0.132812 1.199219 -0.660156 C 0.695312 -1.296875 0.441406 -2.332031 0.441406 -3.765625 Z M 1.40625 -3.765625 C 1.40625 -2.511719 1.554688 -1.679688 1.847656 -1.261719 C 2.140625 -0.847656 2.5 -0.640625 2.933594 -0.640625 C 3.363281 -0.640625 3.726562 -0.847656 4.019531 -1.265625 C 4.3125 -1.683594 4.457031 -2.515625 4.457031 -3.765625 C 4.457031 -5.023438 4.3125 -5.859375 4.019531 -6.269531 C 3.726562 -6.683594 3.359375 -6.890625 2.921875 -6.890625 C 2.492188 -6.890625 2.148438 -6.707031 1.890625 -6.34375 C 1.566406 -5.878906 1.40625 -5.019531 1.40625 -3.765625 Z M 1.40625 -3.765625 "/>
</g>
<g id="glyph-0-12">
<path d="M 0.8125 0 L 0.8125 -7.636719 L 1.847656 -7.636719 L 5.859375 -1.640625 L 5.859375 -7.636719 L 6.828125 -7.636719 L 6.828125 0 L 5.792969 0 L 1.78125 -6 L 1.78125 0 Z M 0.8125 0 "/>
</g>
<g id="glyph-0-13">
<path d="M 5.308594 -5.765625 L 4.375 -5.691406 C 4.292969 -6.058594 4.171875 -6.328125 4.019531 -6.496094 C 3.765625 -6.761719 3.453125 -6.894531 3.082031 -6.894531 C 2.785156 -6.894531 2.523438 -6.8125 2.296875 -6.644531 C 2 -6.429688 1.769531 -6.117188 1.597656 -5.703125 C 1.429688 -5.289062 1.339844 -4.703125 1.332031 -3.9375 C 1.558594 -4.28125 1.835938 -4.535156 2.160156 -4.703125 C 2.488281 -4.871094 2.828125 -4.953125 3.1875 -4.953125 C 3.8125 -4.953125 4.34375 -4.722656 4.785156 -4.261719 C 5.222656 -3.800781 5.441406 -3.207031 5.441406 -2.480469 C 5.441406 -2 5.339844 -1.554688 5.132812 -1.144531 C 4.925781 -0.730469 4.640625 -0.417969 4.28125 -0.199219 C 3.921875 0.0195312 3.511719 0.128906 3.050781 0.128906 C 2.269531 0.128906 1.632812 -0.15625 1.140625 -0.730469 C 0.648438 -1.304688 0.402344 -2.253906 0.402344 -3.574219 C 0.402344 -5.050781 0.671875 -6.121094 1.21875 -6.792969 C 1.695312 -7.375 2.335938 -7.667969 3.140625 -7.667969 C 3.742188 -7.667969 4.234375 -7.5 4.617188 -7.160156 C 5 -6.824219 5.230469 -6.359375 5.308594 -5.765625 Z M 1.480469 -2.472656 C 1.480469 -2.152344 1.546875 -1.84375 1.683594 -1.546875 C 1.820312 -1.25 2.015625 -1.027344 2.261719 -0.871094 C 2.507812 -0.71875 2.765625 -0.640625 3.035156 -0.640625 C 3.433594 -0.640625 3.773438 -0.800781 4.058594 -1.121094 C 4.34375 -1.441406 4.484375 -1.875 4.484375 -2.421875 C 4.484375 -2.949219 4.34375 -3.367188 4.0625 -3.667969 C 3.78125 -3.972656 3.425781 -4.125 3 -4.125 C 2.578125 -4.125 2.21875 -3.972656 1.921875 -3.667969 C 1.625 -3.363281 1.480469 -2.96875 1.480469 -2.472656 Z M 1.480469 -2.472656 "/>
</g>
<g id="glyph-1-0">
<path d="M 2 0 L 2 -10 L 10 -10 L 10 0 Z M 2.25 -0.25 L 9.75 -0.25 L 9.75 -9.75 L 2.25 -9.75 Z M 2.25 -0.25 "/>
</g>
<g id="glyph-1-1">
<path d="M 1.28125 0 L 1.28125 -11.453125 L 2.796875 -11.453125 L 2.796875 -6.75 L 8.75 -6.75 L 8.75 -11.453125 L 10.265625 -11.453125 L 10.265625 0 L 8.75 0 L 8.75 -5.398438 L 2.796875 -5.398438 L 2.796875 0 Z M 1.28125 0 "/>
</g>
</g>
</defs>
<path fill="none" stroke-width="0.0333333" stroke-linecap="butt" stroke-linejoin="miter" stroke="rgb(0%, 0%, 0%)" stroke-opacity="1" stroke-miterlimit="10" d="M 3.112304 1.203125 L 2.791307 1.388379 " transform="matrix(40, 0, 0, 40, 20.097702, 67.125001)"/>
<path fill="none" stroke-width="0.0333333" stroke-linecap="butt" stroke-linejoin="miter" stroke="rgb(0%, 0%, 0%)" stroke-opacity="1" stroke-miterlimit="10" d="M 2.263964 1.307129 L 1.894042 1.093555 " transform="matrix(40, 0, 0, 40, 20.097702, 67.125001)"/>
<path fill="none" stroke-width="0.0333333" stroke-linecap="butt" stroke-linejoin="miter" stroke="rgb(0%, 0%, 0%)" stroke-opacity="1" stroke-miterlimit="10" d="M 1.337694 1.227637 L 1.059276 1.388379 " transform="matrix(40, 0, 0, 40, 20.097702, 67.125001)"/>
<path fill="none" stroke-width="0.0333333" stroke-linecap="butt" stroke-linejoin="miter" stroke="rgb(0%, 0%, 0%)" stroke-opacity="1" stroke-miterlimit="10" d="M 0.782714 1.771289 L 0.782714 2.241992 " transform="matrix(40, 0, 0, 40, 20.097702, 67.125001)"/>
<path fill="none" stroke-width="0.0333333" stroke-linecap="butt" stroke-linejoin="miter" stroke="rgb(0%, 0%, 0%)" stroke-opacity="1" stroke-miterlimit="10" d="M 0.949315 1.771289 L 0.949315 2.241992 " transform="matrix(40, 0, 0, 40, 20.097702, 67.125001)"/>
<path fill="none" stroke-width="0.0333333" stroke-linecap="butt" stroke-linejoin="miter" stroke="rgb(0%, 0%, 0%)" stroke-opacity="1" stroke-miterlimit="10" d="M 0.616014 2.073242 L 1.116014 2.073242 " transform="matrix(40, 0, 0, 40, 20.097702, 67.125001)"/>
<path fill="none" stroke-width="0.0333333" stroke-linecap="butt" stroke-linejoin="miter" stroke="rgb(0%, 0%, 0%)" stroke-opacity="1" stroke-miterlimit="10" d="M 0.616014 1.939941 L 1.116014 1.939941 " transform="matrix(40, 0, 0, 40, 20.097702, 67.125001)"/>
<path fill="none" stroke-width="0.0333333" stroke-linecap="butt" stroke-linejoin="miter" stroke="rgb(0%, 0%, 0%)" stroke-opacity="1" stroke-miterlimit="10" d="M 0.531932 1.307129 L 0.255175 1.147363 " transform="matrix(40, 0, 0, 40, 20.097702, 67.125001)"/>
<path fill="none" stroke-width="0.0333333" stroke-linecap="butt" stroke-linejoin="miter" stroke="rgb(0%, 0%, 0%)" stroke-opacity="1" stroke-miterlimit="10" d="M 1.613964 0.714941 L 1.463573 0.351953 " transform="matrix(40, 0, 0, 40, 20.097702, 67.125001)"/>
<path fill="none" stroke-width="0.0333333" stroke-linecap="butt" stroke-linejoin="miter" stroke="rgb(0%, 0%, 0%)" stroke-opacity="1" stroke-miterlimit="10" d="M 1.837792 0.744824 L 1.986522 0.385645 " transform="matrix(40, 0, 0, 40, 20.097702, 67.125001)"/>
<path fill="none" stroke-width="0.0333333" stroke-linecap="butt" stroke-linejoin="miter" stroke="rgb(0%, 0%, 0%)" stroke-opacity="1" stroke-miterlimit="10" d="M 2.668847 1.670898 L 2.866503 2.148047 " transform="matrix(40, 0, 0, 40, 20.097702, 67.125001)"/>
<path fill="none" stroke-width="0.0333333" stroke-linecap="butt" stroke-linejoin="miter" stroke="rgb(0%, 0%, 0%)" stroke-opacity="1" stroke-miterlimit="10" d="M 2.471679 1.805273 L 2.329589 2.148047 " transform="matrix(40, 0, 0, 40, 20.097702, 67.125001)"/>
<path fill="none" stroke-width="0.0333333" stroke-linecap="butt" stroke-linejoin="miter" stroke="rgb(0%, 0%, 0%)" stroke-opacity="1" stroke-miterlimit="10" d="M 3.464061 0.741992 L 3.464061 0.253125 " transform="matrix(40, 0, 0, 40, 20.097702, 67.125001)"/>
<path fill="none" stroke-width="0.0333333" stroke-linecap="butt" stroke-linejoin="miter" stroke="rgb(0%, 0%, 0%)" stroke-opacity="1" stroke-miterlimit="10" d="M 3.626073 1.093555 L 3.997753 1.308105 " transform="matrix(40, 0, 0, 40, 20.097702, 67.125001)"/>
<path fill="none" stroke-width="0.0333333" stroke-linecap="butt" stroke-linejoin="miter" stroke="rgb(0%, 0%, 0%)" stroke-opacity="1" stroke-miterlimit="10" d="M 3.657323 0.888379 L 3.834374 0.78623 " transform="matrix(40, 0, 0, 40, 20.097702, 67.125001)"/>
<g fill="rgb(0%, 0%, 0%)" fill-opacity="1">
<use xlink:href="#glyph-0-1" x="153.070313" y="108.96875"/>
</g>
<g fill="rgb(0%, 0%, 0%)" fill-opacity="1">
<use xlink:href="#glyph-0-2" x="148.289062" y="113.605469"/>
</g>
<g fill="rgb(0%, 0%, 0%)" fill-opacity="1">
<use xlink:href="#glyph-0-1" x="118.429688" y="128.96875"/>
</g>
<g fill="rgb(0%, 0%, 0%)" fill-opacity="1">
<use xlink:href="#glyph-0-3" x="112.257813" y="133.605469"/>
</g>
<g fill="rgb(0%, 0%, 0%)" fill-opacity="1">
<use xlink:href="#glyph-0-1" x="83.785156" y="108.96875"/>
</g>
<g fill="rgb(0%, 0%, 0%)" fill-opacity="1">
<use xlink:href="#glyph-0-4" x="77.535156" y="113.605469"/>
</g>
<g fill="rgb(0%, 0%, 0%)" fill-opacity="1">
<use xlink:href="#glyph-0-1" x="49.144531" y="128.96875"/>
</g>
<g fill="rgb(0%, 0%, 0%)" fill-opacity="1">
<use xlink:href="#glyph-0-5" x="42.925781" y="133.574219"/>
</g>
<g fill="rgb(0%, 0%, 0%)" fill-opacity="1">
<use xlink:href="#glyph-0-6" x="49.160156" y="168.972656"/>
</g>
<g fill="rgb(0%, 0%, 0%)" fill-opacity="1">
<use xlink:href="#glyph-0-7" x="42.835938" y="173.472656"/>
</g>
<g fill="rgb(0%, 0%, 0%)" fill-opacity="1">
<use xlink:href="#glyph-1-1" x="14.324219" y="112.851562"/>
</g>
<g fill="rgb(0%, 0%, 0%)" fill-opacity="1">
<use xlink:href="#glyph-0-2" x="2.890625" y="113.644531"/>
<use xlink:href="#glyph-0-8" x="8.822918" y="113.644531"/>
</g>
<g fill="rgb(0%, 0%, 0%)" fill-opacity="1">
<use xlink:href="#glyph-1-1" x="68.300781" y="75.898438"/>
</g>
<g fill="rgb(0%, 0%, 0%)" fill-opacity="1">
<use xlink:href="#glyph-0-2" x="56.847656" y="76.691406"/>
<use xlink:href="#glyph-0-9" x="62.779949" y="76.691406"/>
</g>
<g fill="rgb(0%, 0%, 0%)" fill-opacity="1">
<use xlink:href="#glyph-1-1" x="98.914063" y="75.898438"/>
</g>
<g fill="rgb(0%, 0%, 0%)" fill-opacity="1">
<use xlink:href="#glyph-0-2" x="87.464844" y="76.691406"/>
<use xlink:href="#glyph-0-10" x="93.397136" y="76.691406"/>
</g>
<g fill="rgb(0%, 0%, 0%)" fill-opacity="1">
<use xlink:href="#glyph-1-1" x="133.554688" y="169.808594"/>
</g>
<g fill="rgb(0%, 0%, 0%)" fill-opacity="1">
<use xlink:href="#glyph-0-3" x="122.148438" y="170.601563"/>
<use xlink:href="#glyph-0-11" x="128.08073" y="170.601563"/>
</g>
<g fill="rgb(0%, 0%, 0%)" fill-opacity="1">
<use xlink:href="#glyph-1-1" x="102.941406" y="169.808594"/>
</g>
<g fill="rgb(0%, 0%, 0%)" fill-opacity="1">
<use xlink:href="#glyph-0-3" x="92.984375" y="170.601563"/>
<use xlink:href="#glyph-0-2" x="98.916668" y="170.601563"/>
</g>
<g fill="rgb(0%, 0%, 0%)" fill-opacity="1">
<use xlink:href="#glyph-1-1" x="152.890625" y="72.851562"/>
</g>
<g fill="rgb(0%, 0%, 0%)" fill-opacity="1">
<use xlink:href="#glyph-0-3" x="141.535156" y="73.644531"/>
<use xlink:href="#glyph-0-3" x="147.467449" y="73.644531"/>
</g>
<g fill="rgb(0%, 0%, 0%)" fill-opacity="1">
<use xlink:href="#glyph-1-1" x="187.53125" y="132.851562"/>
</g>
<g fill="rgb(0%, 0%, 0%)" fill-opacity="1">
<use xlink:href="#glyph-0-3" x="176.097656" y="133.644531"/>
<use xlink:href="#glyph-0-4" x="182.029949" y="133.644531"/>
</g>
<g fill="rgb(0%, 0%, 0%)" fill-opacity="1">
<use xlink:href="#glyph-1-1" x="187.53125" y="92.851562"/>
</g>
<g fill="rgb(0%, 0%, 0%)" fill-opacity="1">
<use xlink:href="#glyph-0-3" x="176.128906" y="93.644531"/>
<use xlink:href="#glyph-0-5" x="182.061199" y="93.644531"/>
</g>
<path fill="none" stroke-width="0.0625" stroke-linecap="butt" stroke-linejoin="miter" stroke="rgb(0%, 0%, 0%)" stroke-opacity="1" stroke-miterlimit="10" d="M -0.00000123978 0 L 0.499999 0 M 0.249999 -0.25 L 0.249999 0.25 " transform="matrix(40, 0, 0, 40, 215.527393, 117.5)"/>
<path fill="none" stroke-width="0.0333333" stroke-linecap="butt" stroke-linejoin="miter" stroke="rgb(0%, 0%, 0%)" stroke-opacity="1" stroke-miterlimit="10" d="M 6.346971 1.997021 L 6.133007 2.367725 " transform="matrix(40, 0, 0, 40, 270.152392, 45.341797)"/>
<path fill="none" stroke-width="0.0333333" stroke-linecap="butt" stroke-linejoin="miter" stroke="rgb(0%, 0%, 0%)" stroke-opacity="1" stroke-miterlimit="10" d="M 5.990136 2.115088 L 6.423143 2.365088 " transform="matrix(40, 0, 0, 40, 270.152392, 45.341797)"/>
<path fill="none" stroke-width="0.0333333" stroke-linecap="butt" stroke-linejoin="miter" stroke="rgb(0%, 0%, 0%)" stroke-opacity="1" stroke-miterlimit="10" d="M 6.056835 1.999658 L 6.489843 2.249658 " transform="matrix(40, 0, 0, 40, 270.152392, 45.341797)"/>
<path fill="none" stroke-width="0.0333333" stroke-linecap="butt" stroke-linejoin="miter" stroke="rgb(0%, 0%, 0%)" stroke-opacity="1" stroke-miterlimit="10" d="M 5.6041 2.598096 L 5.236522 2.598096 " transform="matrix(40, 0, 0, 40, 270.152392, 45.341797)"/>
<path fill="none" stroke-width="0.0333333" stroke-linecap="butt" stroke-linejoin="miter" stroke="rgb(0%, 0%, 0%)" stroke-opacity="1" stroke-miterlimit="10" d="M 4.862401 2.359814 L 4.594823 1.896338 " transform="matrix(40, 0, 0, 40, 270.152392, 45.341797)"/>
<path fill="none" stroke-width="0.0333333" stroke-linecap="butt" stroke-linejoin="miter" stroke="rgb(0%, 0%, 0%)" stroke-opacity="1" stroke-miterlimit="10" d="M 4.104296 1.73208 L 3.736522 1.73208 " transform="matrix(40, 0, 0, 40, 270.152392, 45.341797)"/>
<path fill="none" stroke-width="0.0333333" stroke-linecap="butt" stroke-linejoin="miter" stroke="rgb(0%, 0%, 0%)" stroke-opacity="1" stroke-miterlimit="10" d="M 3.315233 2.0521 L 3.137596 2.359814 " transform="matrix(40, 0, 0, 40, 270.152392, 45.341797)"/>
<path fill="none" stroke-width="0.0333333" stroke-linecap="butt" stroke-linejoin="miter" stroke="rgb(0%, 0%, 0%)" stroke-opacity="1" stroke-miterlimit="10" d="M 3.094823 2.762354 L 3.346971 3.199072 " transform="matrix(40, 0, 0, 40, 270.152392, 45.341797)"/>
<path fill="none" stroke-width="0.0333333" stroke-linecap="butt" stroke-linejoin="miter" stroke="rgb(0%, 0%, 0%)" stroke-opacity="1" stroke-miterlimit="10" d="M 3.037792 3.163428 L 3.4708 2.913428 " transform="matrix(40, 0, 0, 40, 270.152392, 45.341797)"/>
<path fill="none" stroke-width="0.0333333" stroke-linecap="butt" stroke-linejoin="miter" stroke="rgb(0%, 0%, 0%)" stroke-opacity="1" stroke-miterlimit="10" d="M 2.971093 3.047998 L 3.4041 2.797998 " transform="matrix(40, 0, 0, 40, 270.152392, 45.341797)"/>
<path fill="none" stroke-width="0.0333333" stroke-linecap="butt" stroke-linejoin="miter" stroke="rgb(0%, 0%, 0%)" stroke-opacity="1" stroke-miterlimit="10" d="M 2.475292 2.598096 L 2.236522 2.598096 " transform="matrix(40, 0, 0, 40, 270.152392, 45.341797)"/>
<path fill="none" stroke-width="0.0333333" stroke-linecap="butt" stroke-linejoin="miter" stroke="rgb(0%, 0%, 0%)" stroke-opacity="1" stroke-miterlimit="10" d="M 1.819237 2.911182 L 1.653026 3.199072 " transform="matrix(40, 0, 0, 40, 270.152392, 45.341797)"/>
<path fill="none" stroke-width="0.0333333" stroke-linecap="butt" stroke-linejoin="miter" stroke="rgb(0%, 0%, 0%)" stroke-opacity="1" stroke-miterlimit="10" d="M 1.862401 2.359814 L 1.594823 1.896338 " transform="matrix(40, 0, 0, 40, 270.152392, 45.341797)"/>
<path fill="none" stroke-width="0.0333333" stroke-linecap="butt" stroke-linejoin="miter" stroke="rgb(0%, 0%, 0%)" stroke-opacity="1" stroke-miterlimit="10" d="M 0.976561 1.73208 L 0.666014 1.73208 " transform="matrix(40, 0, 0, 40, 270.152392, 45.341797)"/>
<path fill="none" stroke-width="0.0333333" stroke-linecap="butt" stroke-linejoin="miter" stroke="rgb(0%, 0%, 0%)" stroke-opacity="1" stroke-miterlimit="10" d="M 0.317284 2.048584 L 0.153026 2.333057 " transform="matrix(40, 0, 0, 40, 270.152392, 45.341797)"/>
<path fill="none" stroke-width="0.0333333" stroke-linecap="butt" stroke-linejoin="miter" stroke="rgb(0%, 0%, 0%)" stroke-opacity="1" stroke-miterlimit="10" d="M 1.637596 1.493701 L 1.795116 1.22085 " transform="matrix(40, 0, 0, 40, 270.152392, 45.341797)"/>
<path fill="none" stroke-width="0.0333333" stroke-linecap="butt" stroke-linejoin="miter" stroke="rgb(0%, 0%, 0%)" stroke-opacity="1" stroke-miterlimit="10" d="M 1.862401 0.627686 L 1.598339 0.170361 " transform="matrix(40, 0, 0, 40, 270.152392, 45.341797)"/>
<path fill="none" stroke-width="0.0333333" stroke-linecap="butt" stroke-linejoin="miter" stroke="rgb(0%, 0%, 0%)" stroke-opacity="1" stroke-miterlimit="10" d="M 0.973241 0.0000488281 L 0.722264 0.0000488281 " transform="matrix(40, 0, 0, 40, 270.152392, 45.341797)"/>
<path fill="none" stroke-width="0.0333333" stroke-linecap="butt" stroke-linejoin="miter" stroke="rgb(0%, 0%, 0%)" stroke-opacity="1" stroke-miterlimit="10" d="M 2.236522 0.866064 L 2.474803 0.866064 " transform="matrix(40, 0, 0, 40, 270.152392, 45.341797)"/>
<path fill="none" stroke-width="0.0333333" stroke-linecap="butt" stroke-linejoin="miter" stroke="rgb(0%, 0%, 0%)" stroke-opacity="1" stroke-miterlimit="10" d="M 3.094823 1.030322 L 3.362401 1.493701 " transform="matrix(40, 0, 0, 40, 270.152392, 45.341797)"/>
<path fill="none" stroke-width="0.0333333" stroke-linecap="butt" stroke-linejoin="miter" stroke="rgb(0%, 0%, 0%)" stroke-opacity="1" stroke-miterlimit="10" d="M 3.137596 0.627686 L 3.316796 0.317334 " transform="matrix(40, 0, 0, 40, 270.152392, 45.341797)"/>
<path fill="none" stroke-width="0.0333333" stroke-linecap="butt" stroke-linejoin="miter" stroke="rgb(0%, 0%, 0%)" stroke-opacity="1" stroke-miterlimit="10" d="M 4.69912 1.579248 L 4.863671 1.452979 " transform="matrix(40, 0, 0, 40, 270.152392, 45.341797)"/>
<path fill="none" stroke-width="0.0333333" stroke-linecap="butt" stroke-linejoin="miter" stroke="rgb(0%, 0%, 0%)" stroke-opacity="1" stroke-miterlimit="10" d="M 4.53496 1.466748 L 4.592479 1.029541 " transform="matrix(40, 0, 0, 40, 270.152392, 45.341797)"/>
<path fill="none" stroke-width="0.0333333" stroke-linecap="butt" stroke-linejoin="miter" stroke="rgb(0%, 0%, 0%)" stroke-opacity="1" stroke-miterlimit="10" d="M 4.696874 2.830615 L 4.447557 3.022021 " transform="matrix(40, 0, 0, 40, 270.152392, 45.341797)"/>
<path fill="none" stroke-width="0.0333333" stroke-linecap="butt" stroke-linejoin="miter" stroke="rgb(0%, 0%, 0%)" stroke-opacity="1" stroke-miterlimit="10" d="M 4.962987 2.879346 L 4.904491 3.323877 " transform="matrix(40, 0, 0, 40, 270.152392, 45.341797)"/>
<path fill="none" stroke-width="0.0333333" stroke-linecap="butt" stroke-linejoin="miter" stroke="rgb(0%, 0%, 0%)" stroke-opacity="1" stroke-miterlimit="10" d="M 6.087401 2.749561 L 6.346971 3.199072 " transform="matrix(40, 0, 0, 40, 270.152392, 45.341797)"/>
<path fill="none" stroke-width="0.0333333" stroke-linecap="butt" stroke-linejoin="miter" stroke="rgb(0%, 0%, 0%)" stroke-opacity="1" stroke-miterlimit="10" d="M 3.149511 1.73208 C 3.149511 1.964111 3.025682 2.178564 2.824803 2.29458 " transform="matrix(40, 0, 0, 40, 270.152392, 45.341797)"/>
<path fill="none" stroke-width="0.0333333" stroke-linecap="butt" stroke-linejoin="miter" stroke="rgb(0%, 0%, 0%)" stroke-opacity="1" stroke-miterlimit="10" d="M 2.824803 1.16958 C 3.025682 1.285596 3.149511 1.500049 3.149511 1.73208 " transform="matrix(40, 0, 0, 40, 270.152392, 45.341797)"/>
<path fill="none" stroke-width="0.0333333" stroke-linecap="butt" stroke-linejoin="miter" stroke="rgb(0%, 0%, 0%)" stroke-opacity="1" stroke-miterlimit="10" d="M 2.175194 1.16958 C 2.376171 1.053564 2.623827 1.053564 2.824803 1.16958 " transform="matrix(40, 0, 0, 40, 270.152392, 45.341797)"/>
<path fill="none" stroke-width="0.0333333" stroke-linecap="butt" stroke-linejoin="miter" stroke="rgb(0%, 0%, 0%)" stroke-opacity="1" stroke-miterlimit="10" d="M 1.850487 1.73208 C 1.850487 1.500049 1.974315 1.285596 2.175194 1.16958 " transform="matrix(40, 0, 0, 40, 270.152392, 45.341797)"/>
<path fill="none" stroke-width="0.0333333" stroke-linecap="butt" stroke-linejoin="miter" stroke="rgb(0%, 0%, 0%)" stroke-opacity="1" stroke-miterlimit="10" d="M 2.175194 2.29458 C 1.974315 2.178564 1.850487 1.964111 1.850487 1.73208 " transform="matrix(40, 0, 0, 40, 270.152392, 45.341797)"/>
<path fill="none" stroke-width="0.0333333" stroke-linecap="butt" stroke-linejoin="miter" stroke="rgb(0%, 0%, 0%)" stroke-opacity="1" stroke-miterlimit="10" d="M 2.824803 2.29458 C 2.623827 2.410596 2.376171 2.410596 2.175194 2.29458 " transform="matrix(40, 0, 0, 40, 270.152392, 45.341797)"/>
<g fill="rgb(0%, 0%, 0%)" fill-opacity="1">
<use xlink:href="#glyph-1-1" x="524.378906" y="120.351562"/>
</g>
<g fill="rgb(0%, 0%, 0%)" fill-opacity="1">
<use xlink:href="#glyph-0-12" x="504.277344" y="150.976562"/>
</g>
<g fill="rgb(0%, 0%, 0%)" fill-opacity="1">
<use xlink:href="#glyph-0-13" x="498.3125" y="155.746094"/>
</g>
<g fill="rgb(0%, 0%, 0%)" fill-opacity="1">
<use xlink:href="#glyph-0-1" x="467.933594" y="151.109375"/>
</g>
<g fill="rgb(0%, 0%, 0%)" fill-opacity="1">
<use xlink:href="#glyph-0-8" x="461.683594" y="155.617188"/>
</g>
<g fill="rgb(0%, 0%, 0%)" fill-opacity="1">
<use xlink:href="#glyph-0-1" x="444.558594" y="116.46875"/>
</g>
<g fill="rgb(0%, 0%, 0%)" fill-opacity="1">
<use xlink:href="#glyph-0-9" x="438.292969" y="121.105469"/>
</g>
<g fill="rgb(0%, 0%, 0%)" fill-opacity="1">
<use xlink:href="#glyph-0-1" x="407.933594" y="116.46875"/>
</g>
<g fill="rgb(0%, 0%, 0%)" fill-opacity="1">
<use xlink:href="#glyph-0-10" x="401.667969" y="121.105469"/>
</g>
<g fill="rgb(0%, 0%, 0%)" fill-opacity="1">
<use xlink:href="#glyph-0-1" x="384.558594" y="151.109375"/>
</g>
<g fill="rgb(0%, 0%, 0%)" fill-opacity="1">
<use xlink:href="#glyph-0-2" x="372.402344" y="155.746094"/>
<use xlink:href="#glyph-0-11" x="378.334636" y="155.746094"/>
</g>
<g fill="rgb(0%, 0%, 0%)" fill-opacity="1">
<use xlink:href="#glyph-1-1" x="404.378906" y="189.632812"/>
</g>
<g fill="rgb(0%, 0%, 0%)" fill-opacity="1">
<use xlink:href="#glyph-0-1" x="347.933594" y="151.109375"/>
</g>
<g fill="rgb(0%, 0%, 0%)" fill-opacity="1">
<use xlink:href="#glyph-0-2" x="337.222656" y="155.746094"/>
<use xlink:href="#glyph-0-2" x="343.154949" y="155.746094"/>
</g>
<g fill="rgb(0%, 0%, 0%)" fill-opacity="1">
<use xlink:href="#glyph-1-1" x="324.378906" y="189.632812"/>
</g>
<g fill="rgb(0%, 0%, 0%)" fill-opacity="1">
<use xlink:href="#glyph-0-3" x="312.953125" y="190.425781"/>
<use xlink:href="#glyph-0-13" x="318.885418" y="190.425781"/>
</g>
<g fill="rgb(0%, 0%, 0%)" fill-opacity="1">
<use xlink:href="#glyph-0-1" x="324.558594" y="116.46875"/>
</g>
<g fill="rgb(0%, 0%, 0%)" fill-opacity="1">
<use xlink:href="#glyph-0-2" x="312.453125" y="121.105469"/>
<use xlink:href="#glyph-0-3" x="318.385418" y="121.105469"/>
</g>
<g fill="rgb(0%, 0%, 0%)" fill-opacity="1">
<use xlink:href="#glyph-0-6" x="284.574219" y="116.472656"/>
</g>
<g fill="rgb(0%, 0%, 0%)" fill-opacity="1">
<use xlink:href="#glyph-0-2" x="272.375" y="121.105469"/>
<use xlink:href="#glyph-0-4" x="278.307293" y="121.105469"/>
</g>
<g fill="rgb(0%, 0%, 0%)" fill-opacity="1">
<use xlink:href="#glyph-1-1" x="264.378906" y="154.992188"/>
</g>
<g fill="rgb(0%, 0%, 0%)" fill-opacity="1">
<use xlink:href="#glyph-0-3" x="252.949219" y="155.785156"/>
<use xlink:href="#glyph-0-8" x="258.881511" y="155.785156"/>
</g>
<g fill="rgb(0%, 0%, 0%)" fill-opacity="1">
<use xlink:href="#glyph-0-1" x="347.933594" y="81.828125"/>
</g>
<g fill="rgb(0%, 0%, 0%)" fill-opacity="1">
<use xlink:href="#glyph-0-2" x="335.78125" y="86.464844"/>
<use xlink:href="#glyph-0-5" x="341.713543" y="86.464844"/>
</g>
<g fill="rgb(0%, 0%, 0%)" fill-opacity="1">
<use xlink:href="#glyph-0-6" x="324.574219" y="47.191406"/>
</g>
<g fill="rgb(0%, 0%, 0%)" fill-opacity="1">
<use xlink:href="#glyph-0-2" x="312.316406" y="51.824219"/>
<use xlink:href="#glyph-0-7" x="318.248699" y="51.824219"/>
</g>
<g fill="rgb(0%, 0%, 0%)" fill-opacity="1">
<use xlink:href="#glyph-1-1" x="284.378906" y="51.070312"/>
</g>
<g fill="rgb(0%, 0%, 0%)" fill-opacity="1">
<use xlink:href="#glyph-0-3" x="272.933594" y="51.863281"/>
<use xlink:href="#glyph-0-9" x="278.865886" y="51.863281"/>
</g>
<g fill="rgb(0%, 0%, 0%)" fill-opacity="1">
<use xlink:href="#glyph-0-1" x="384.558594" y="81.828125"/>
</g>
<g fill="rgb(0%, 0%, 0%)" fill-opacity="1">
<use xlink:href="#glyph-0-2" x="372.378906" y="86.464844"/>
<use xlink:href="#glyph-0-13" x="378.311199" y="86.464844"/>
</g>
<g fill="rgb(0%, 0%, 0%)" fill-opacity="1">
<use xlink:href="#glyph-1-1" x="404.378906" y="51.070312"/>
</g>
<g fill="rgb(0%, 0%, 0%)" fill-opacity="1">
<use xlink:href="#glyph-0-3" x="392.933594" y="51.863281"/>
<use xlink:href="#glyph-0-10" x="398.865886" y="51.863281"/>
</g>
<g fill="rgb(0%, 0%, 0%)" fill-opacity="1">
<use xlink:href="#glyph-1-1" x="476.113281" y="96"/>
</g>
<g fill="rgb(0%, 0%, 0%)" fill-opacity="1">
<use xlink:href="#glyph-0-4" x="464.707031" y="96.792969"/>
<use xlink:href="#glyph-0-11" x="470.639324" y="96.792969"/>
</g>
<g fill="rgb(0%, 0%, 0%)" fill-opacity="1">
<use xlink:href="#glyph-1-1" x="449.601562" y="80.695312"/>
</g>
<g fill="rgb(0%, 0%, 0%)" fill-opacity="1">
<use xlink:href="#glyph-0-4" x="439.640625" y="81.484375"/>
<use xlink:href="#glyph-0-2" x="445.572918" y="81.484375"/>
</g>
<g fill="rgb(0%, 0%, 0%)" fill-opacity="1">
<use xlink:href="#glyph-1-1" x="432.644531" y="179.34375"/>
</g>
<g fill="rgb(0%, 0%, 0%)" fill-opacity="1">
<use xlink:href="#glyph-0-4" x="421.289062" y="180.136719"/>
<use xlink:href="#glyph-0-3" x="427.221355" y="180.136719"/>
</g>
<g fill="rgb(0%, 0%, 0%)" fill-opacity="1">
<use xlink:href="#glyph-1-1" x="459.160156" y="194.648438"/>
</g>
<g fill="rgb(0%, 0%, 0%)" fill-opacity="1">
<use xlink:href="#glyph-0-4" x="447.726562" y="195.441406"/>
<use xlink:href="#glyph-0-4" x="453.658855" y="195.441406"/>
</g>
<g fill="rgb(0%, 0%, 0%)" fill-opacity="1">
<use xlink:href="#glyph-1-1" x="524.378906" y="189.632812"/>
</g>
<g fill="rgb(0%, 0%, 0%)" fill-opacity="1">
<use xlink:href="#glyph-0-4" x="512.976562" y="190.425781"/>
<use xlink:href="#glyph-0-5" x="518.908855" y="190.425781"/>
</g>
<path fill-rule="nonzero" fill="rgb(0%, 0%, 0%)" fill-opacity="1" d="M 552.375 118.75 L 602.375 118.75 L 602.375 122.5 L 612.375 117.5 L 602.375 112.5 L 602.375 116.25 L 552.375 116.25 "/>
<path fill="none" stroke-width="0.0333333" stroke-linecap="butt" stroke-linejoin="miter" stroke="rgb(0%, 0%, 0%)" stroke-opacity="1" stroke-miterlimit="10" d="M 6.182812 1.119531 L 5.795702 1.260449 " transform="matrix(40, 0, 0, 40, 647.015663, 9.624996)"/>
<path fill="none" stroke-width="0.0333333" stroke-linecap="butt" stroke-linejoin="miter" stroke="rgb(0%, 0%, 0%)" stroke-opacity="1" stroke-miterlimit="10" d="M 5.562499 1.615234 L 5.48662 2.045703 " transform="matrix(40, 0, 0, 40, 647.015663, 9.624996)"/>
<path fill="none" stroke-width="0.0333333" stroke-linecap="butt" stroke-linejoin="miter" stroke="rgb(0%, 0%, 0%)" stroke-opacity="1" stroke-miterlimit="10" d="M 5.020116 2.464356 L 4.682323 2.587305 " transform="matrix(40, 0, 0, 40, 647.015663, 9.624996)"/>
<path fill="none" stroke-width="0.0333333" stroke-linecap="butt" stroke-linejoin="miter" stroke="rgb(0%, 0%, 0%)" stroke-opacity="1" stroke-miterlimit="10" d="M 4.451659 2.379297 L 4.373925 1.938379 " transform="matrix(40, 0, 0, 40, 647.015663, 9.624996)"/>
<path fill="none" stroke-width="0.0333333" stroke-linecap="butt" stroke-linejoin="miter" stroke="rgb(0%, 0%, 0%)" stroke-opacity="1" stroke-miterlimit="10" d="M 4.594823 2.817969 L 4.866991 3.289356 " transform="matrix(40, 0, 0, 40, 647.015663, 9.624996)"/>
<path fill="none" stroke-width="0.0333333" stroke-linecap="butt" stroke-linejoin="miter" stroke="rgb(0%, 0%, 0%)" stroke-opacity="1" stroke-miterlimit="10" d="M 4.547753 3.236328 L 4.980761 2.986328 " transform="matrix(40, 0, 0, 40, 647.015663, 9.624996)"/>
<path fill="none" stroke-width="0.0333333" stroke-linecap="butt" stroke-linejoin="miter" stroke="rgb(0%, 0%, 0%)" stroke-opacity="1" stroke-miterlimit="10" d="M 4.481054 3.120899 L 4.914062 2.870899 " transform="matrix(40, 0, 0, 40, 647.015663, 9.624996)"/>
<path fill="none" stroke-width="0.0333333" stroke-linecap="butt" stroke-linejoin="miter" stroke="rgb(0%, 0%, 0%)" stroke-opacity="1" stroke-miterlimit="10" d="M 5.240331 3.607129 L 5.446386 3.682129 " transform="matrix(40, 0, 0, 40, 647.015663, 9.624996)"/>
<path fill="none" stroke-width="0.0333333" stroke-linecap="butt" stroke-linejoin="miter" stroke="rgb(0%, 0%, 0%)" stroke-opacity="1" stroke-miterlimit="10" d="M 4.819726 3.832031 L 4.637597 4.147363 " transform="matrix(40, 0, 0, 40, 647.015663, 9.624996)"/>
<path fill="none" stroke-width="0.0333333" stroke-linecap="butt" stroke-linejoin="miter" stroke="rgb(0%, 0%, 0%)" stroke-opacity="1" stroke-miterlimit="10" d="M 4.667968 4.446875 L 4.94746 4.548535 " transform="matrix(40, 0, 0, 40, 647.015663, 9.624996)"/>
<path fill="none" stroke-width="0.0333333" stroke-linecap="butt" stroke-linejoin="miter" stroke="rgb(0%, 0%, 0%)" stroke-opacity="1" stroke-miterlimit="10" d="M 4.449706 4.670899 L 4.373925 5.100977 " transform="matrix(40, 0, 0, 40, 647.015663, 9.624996)"/>
<path fill="none" stroke-width="0.0333333" stroke-linecap="butt" stroke-linejoin="miter" stroke="rgb(0%, 0%, 0%)" stroke-opacity="1" stroke-miterlimit="10" d="M 4.106542 4.385742 L 3.652147 4.385742 " transform="matrix(40, 0, 0, 40, 647.015663, 9.624996)"/>
<path fill="none" stroke-width="0.0333333" stroke-linecap="butt" stroke-linejoin="miter" stroke="rgb(0%, 0%, 0%)" stroke-opacity="1" stroke-miterlimit="10" d="M 3.52998 4.555859 L 3.626171 5.100977 " transform="matrix(40, 0, 0, 40, 647.015663, 9.624996)"/>
<path fill="none" stroke-width="0.0333333" stroke-linecap="butt" stroke-linejoin="miter" stroke="rgb(0%, 0%, 0%)" stroke-opacity="1" stroke-miterlimit="10" d="M 3.079784 4.538672 L 2.812792 4.63584 " transform="matrix(40, 0, 0, 40, 647.015663, 9.624996)"/>
<path fill="none" stroke-width="0.0333333" stroke-linecap="butt" stroke-linejoin="miter" stroke="rgb(0%, 0%, 0%)" stroke-opacity="1" stroke-miterlimit="10" d="M 3.341308 4.11084 L 3.094823 3.683984 " transform="matrix(40, 0, 0, 40, 647.015663, 9.624996)"/>
<path fill="none" stroke-width="0.0333333" stroke-linecap="butt" stroke-linejoin="miter" stroke="rgb(0%, 0%, 0%)" stroke-opacity="1" stroke-miterlimit="10" d="M 3.137597 3.281348 L 3.293261 3.011719 " transform="matrix(40, 0, 0, 40, 647.015663, 9.624996)"/>
<path fill="none" stroke-width="0.0333333" stroke-linecap="butt" stroke-linejoin="miter" stroke="rgb(0%, 0%, 0%)" stroke-opacity="1" stroke-miterlimit="10" d="M 3.736522 2.653613 L 4.098046 2.653613 " transform="matrix(40, 0, 0, 40, 647.015663, 9.624996)"/>
<path fill="none" stroke-width="0.0333333" stroke-linecap="butt" stroke-linejoin="miter" stroke="rgb(0%, 0%, 0%)" stroke-opacity="1" stroke-miterlimit="10" d="M 3.983983 2.903613 L 3.983983 2.403613 " transform="matrix(40, 0, 0, 40, 647.015663, 9.624996)"/>
<path fill="none" stroke-width="0.0333333" stroke-linecap="butt" stroke-linejoin="miter" stroke="rgb(0%, 0%, 0%)" stroke-opacity="1" stroke-miterlimit="10" d="M 3.850683 2.903613 L 3.850683 2.403613 " transform="matrix(40, 0, 0, 40, 647.015663, 9.624996)"/>
<path fill="none" stroke-width="0.0333333" stroke-linecap="butt" stroke-linejoin="miter" stroke="rgb(0%, 0%, 0%)" stroke-opacity="1" stroke-miterlimit="10" d="M 3.362401 2.415332 L 3.094823 1.951953 " transform="matrix(40, 0, 0, 40, 647.015663, 9.624996)"/>
<path fill="none" stroke-width="0.0333333" stroke-linecap="butt" stroke-linejoin="miter" stroke="rgb(0%, 0%, 0%)" stroke-opacity="1" stroke-miterlimit="10" d="M 3.137597 1.549317 L 3.316796 1.238965 " transform="matrix(40, 0, 0, 40, 647.015663, 9.624996)"/>
<path fill="none" stroke-width="0.0333333" stroke-linecap="butt" stroke-linejoin="miter" stroke="rgb(0%, 0%, 0%)" stroke-opacity="1" stroke-miterlimit="10" d="M 2.511522 1.787598 L 2.236522 1.787598 " transform="matrix(40, 0, 0, 40, 647.015663, 9.624996)"/>
<path fill="none" stroke-width="0.0333333" stroke-linecap="butt" stroke-linejoin="miter" stroke="rgb(0%, 0%, 0%)" stroke-opacity="1" stroke-miterlimit="10" d="M 1.862401 1.549317 L 1.598339 1.091992 " transform="matrix(40, 0, 0, 40, 647.015663, 9.624996)"/>
<path fill="none" stroke-width="0.0333333" stroke-linecap="butt" stroke-linejoin="miter" stroke="rgb(0%, 0%, 0%)" stroke-opacity="1" stroke-miterlimit="10" d="M 0.974608 0.921582 L 0.722265 0.921582 " transform="matrix(40, 0, 0, 40, 647.015663, 9.624996)"/>
<path fill="none" stroke-width="0.0333333" stroke-linecap="butt" stroke-linejoin="miter" stroke="rgb(0%, 0%, 0%)" stroke-opacity="1" stroke-miterlimit="10" d="M 1.795116 2.142383 L 1.637597 2.415332 " transform="matrix(40, 0, 0, 40, 647.015663, 9.624996)"/>
<path fill="none" stroke-width="0.0333333" stroke-linecap="butt" stroke-linejoin="miter" stroke="rgb(0%, 0%, 0%)" stroke-opacity="1" stroke-miterlimit="10" d="M 0.97539 2.653613 L 0.666015 2.653613 " transform="matrix(40, 0, 0, 40, 647.015663, 9.624996)"/>
<path fill="none" stroke-width="0.0333333" stroke-linecap="butt" stroke-linejoin="miter" stroke="rgb(0%, 0%, 0%)" stroke-opacity="1" stroke-miterlimit="10" d="M 0.317382 2.97002 L 0.153026 3.254688 " transform="matrix(40, 0, 0, 40, 647.015663, 9.624996)"/>
<path fill="none" stroke-width="0.0333333" stroke-linecap="butt" stroke-linejoin="miter" stroke="rgb(0%, 0%, 0%)" stroke-opacity="1" stroke-miterlimit="10" d="M 1.594823 2.817969 L 1.862401 3.281348 " transform="matrix(40, 0, 0, 40, 647.015663, 9.624996)"/>
<path fill="none" stroke-width="0.0333333" stroke-linecap="butt" stroke-linejoin="miter" stroke="rgb(0%, 0%, 0%)" stroke-opacity="1" stroke-miterlimit="10" d="M 2.236522 3.519727 L 2.604589 3.519727 " transform="matrix(40, 0, 0, 40, 647.015663, 9.624996)"/>
<path fill="none" stroke-width="0.0333333" stroke-linecap="butt" stroke-linejoin="miter" stroke="rgb(0%, 0%, 0%)" stroke-opacity="1" stroke-miterlimit="10" d="M 1.817382 3.836035 L 1.653026 4.120703 " transform="matrix(40, 0, 0, 40, 647.015663, 9.624996)"/>
<path fill="none" stroke-width="0.0333333" stroke-linecap="butt" stroke-linejoin="miter" stroke="rgb(0%, 0%, 0%)" stroke-opacity="1" stroke-miterlimit="10" d="M 5.526659 2.478711 L 5.761132 2.929004 " transform="matrix(40, 0, 0, 40, 647.015663, 9.624996)"/>
<path fill="none" stroke-width="0.0333333" stroke-linecap="butt" stroke-linejoin="miter" stroke="rgb(0%, 0%, 0%)" stroke-opacity="1" stroke-miterlimit="10" d="M 5.607616 2.364551 L 5.904589 2.458203 " transform="matrix(40, 0, 0, 40, 647.015663, 9.624996)"/>
<path fill="none" stroke-width="0.0333333" stroke-linecap="butt" stroke-linejoin="miter" stroke="rgb(0%, 0%, 0%)" stroke-opacity="1" stroke-miterlimit="10" d="M 5.467968 1.047559 L 5.291991 0.709473 " transform="matrix(40, 0, 0, 40, 647.015663, 9.624996)"/>
<path fill="none" stroke-width="0.0333333" stroke-linecap="butt" stroke-linejoin="miter" stroke="rgb(0%, 0%, 0%)" stroke-opacity="1" stroke-miterlimit="10" d="M 5.229003 1.205664 L 4.908886 1.104688 " transform="matrix(40, 0, 0, 40, 647.015663, 9.624996)"/>
<path fill="none" stroke-width="0.0333333" stroke-linecap="butt" stroke-linejoin="miter" stroke="rgb(0%, 0%, 0%)" stroke-opacity="1" stroke-miterlimit="10" d="M 6.699901 1.108106 L 7.084862 1.431055 " transform="matrix(40, 0, 0, 40, 647.015663, 9.624996)"/>
<path fill="none" stroke-width="0.0333333" stroke-linecap="butt" stroke-linejoin="miter" stroke="rgb(0%, 0%, 0%)" stroke-opacity="1" stroke-miterlimit="10" d="M 6.599901 0.718945 L 6.675097 0.292774 " transform="matrix(40, 0, 0, 40, 647.015663, 9.624996)"/>
<path fill="none" stroke-width="0.0333333" stroke-linecap="butt" stroke-linejoin="miter" stroke="rgb(0%, 0%, 0%)" stroke-opacity="1" stroke-miterlimit="10" d="M 6.735448 0.918457 L 6.953222 0.83916 " transform="matrix(40, 0, 0, 40, 647.015663, 9.624996)"/>
<path fill="none" stroke-width="0.0333333" stroke-linecap="butt" stroke-linejoin="miter" stroke="rgb(0%, 0%, 0%)" stroke-opacity="1" stroke-miterlimit="10" d="M 3.149511 2.653613 C 3.149511 2.885742 3.025683 3.100098 2.824804 3.216113 " transform="matrix(40, 0, 0, 40, 647.015663, 9.624996)"/>
<path fill="none" stroke-width="0.0333333" stroke-linecap="butt" stroke-linejoin="miter" stroke="rgb(0%, 0%, 0%)" stroke-opacity="1" stroke-miterlimit="10" d="M 2.824804 2.091113 C 3.025683 2.207227 3.149511 2.421582 3.149511 2.653613 " transform="matrix(40, 0, 0, 40, 647.015663, 9.624996)"/>
<path fill="none" stroke-width="0.0333333" stroke-linecap="butt" stroke-linejoin="miter" stroke="rgb(0%, 0%, 0%)" stroke-opacity="1" stroke-miterlimit="10" d="M 2.175194 2.091113 C 2.376171 1.975098 2.623827 1.975098 2.824804 2.091113 " transform="matrix(40, 0, 0, 40, 647.015663, 9.624996)"/>
<path fill="none" stroke-width="0.0333333" stroke-linecap="butt" stroke-linejoin="miter" stroke="rgb(0%, 0%, 0%)" stroke-opacity="1" stroke-miterlimit="10" d="M 1.850487 2.653613 C 1.850487 2.421582 1.974315 2.207227 2.175194 2.091113 " transform="matrix(40, 0, 0, 40, 647.015663, 9.624996)"/>
<path fill="none" stroke-width="0.0333333" stroke-linecap="butt" stroke-linejoin="miter" stroke="rgb(0%, 0%, 0%)" stroke-opacity="1" stroke-miterlimit="10" d="M 2.175194 3.216113 C 1.974315 3.100098 1.850487 2.885742 1.850487 2.653613 " transform="matrix(40, 0, 0, 40, 647.015663, 9.624996)"/>
<path fill="none" stroke-width="0.0333333" stroke-linecap="butt" stroke-linejoin="miter" stroke="rgb(0%, 0%, 0%)" stroke-opacity="1" stroke-miterlimit="10" d="M 2.824804 3.216113 C 2.623827 3.332227 2.376171 3.332227 2.175194 3.216113 " transform="matrix(40, 0, 0, 40, 647.015663, 9.624996)"/>
<g fill="rgb(0%, 0%, 0%)" fill-opacity="1">
<use xlink:href="#glyph-0-1" x="903.542969" y="50.863281"/>
</g>
<g fill="rgb(0%, 0%, 0%)" fill-opacity="1">
<use xlink:href="#glyph-0-2" x="898.765625" y="55.496094"/>
</g>
<g fill="rgb(0%, 0%, 0%)" fill-opacity="1">
<use xlink:href="#glyph-0-1" x="865.957031" y="64.542969"/>
</g>
<g fill="rgb(0%, 0%, 0%)" fill-opacity="1">
<use xlink:href="#glyph-0-3" x="859.785156" y="69.179688"/>
</g>
<g fill="rgb(0%, 0%, 0%)" fill-opacity="1">
<use xlink:href="#glyph-0-1" x="859.011719" y="103.933594"/>
</g>
<g fill="rgb(0%, 0%, 0%)" fill-opacity="1">
<use xlink:href="#glyph-0-4" x="852.757812" y="108.570312"/>
</g>
<g fill="rgb(0%, 0%, 0%)" fill-opacity="1">
<use xlink:href="#glyph-0-1" x="821.421875" y="117.617188"/>
</g>
<g fill="rgb(0%, 0%, 0%)" fill-opacity="1">
<use xlink:href="#glyph-0-5" x="815.203125" y="122.21875"/>
</g>
<g fill="rgb(0%, 0%, 0%)" fill-opacity="1">
<use xlink:href="#glyph-1-1" x="814.296875" y="82.105469"/>
</g>
<g fill="rgb(0%, 0%, 0%)" fill-opacity="1">
<use xlink:href="#glyph-0-2" x="802.863281" y="82.898438"/>
<use xlink:href="#glyph-0-8" x="808.795574" y="82.898438"/>
</g>
<g fill="rgb(0%, 0%, 0%)" fill-opacity="1">
<use xlink:href="#glyph-0-12" x="845.25" y="152.125"/>
</g>
<g fill="rgb(0%, 0%, 0%)" fill-opacity="1">
<use xlink:href="#glyph-0-13" x="839.285156" y="156.894531"/>
</g>
<g fill="rgb(0%, 0%, 0%)" fill-opacity="1">
<use xlink:href="#glyph-1-1" x="878.832031" y="169.820313"/>
</g>
<g fill="rgb(0%, 0%, 0%)" fill-opacity="1">
<use xlink:href="#glyph-0-4" x="867.429688" y="170.613281"/>
<use xlink:href="#glyph-0-5" x="873.36198" y="170.613281"/>
</g>
<g fill="rgb(0%, 0%, 0%)" fill-opacity="1">
<use xlink:href="#glyph-0-1" x="821.421875" y="186.898438"/>
</g>
<g fill="rgb(0%, 0%, 0%)" fill-opacity="1">
<use xlink:href="#glyph-0-8" x="815.171875" y="191.40625"/>
</g>
<g fill="rgb(0%, 0%, 0%)" fill-opacity="1">
<use xlink:href="#glyph-1-1" x="858.832031" y="204.460938"/>
</g>
<g fill="rgb(0%, 0%, 0%)" fill-opacity="1">
<use xlink:href="#glyph-0-4" x="847.476562" y="205.253906"/>
<use xlink:href="#glyph-0-3" x="853.408855" y="205.253906"/>
</g>
<g fill="rgb(0%, 0%, 0%)" fill-opacity="1">
<use xlink:href="#glyph-1-1" x="814.296875" y="230.171875"/>
</g>
<g fill="rgb(0%, 0%, 0%)" fill-opacity="1">
<use xlink:href="#glyph-0-4" x="802.863281" y="230.964844"/>
<use xlink:href="#glyph-0-4" x="808.795574" y="230.964844"/>
</g>
<g fill="rgb(0%, 0%, 0%)" fill-opacity="1">
<use xlink:href="#glyph-0-1" x="781.421875" y="186.898438"/>
</g>
<g fill="rgb(0%, 0%, 0%)" fill-opacity="1">
<use xlink:href="#glyph-0-9" x="775.15625" y="191.535156"/>
</g>
<g fill="rgb(0%, 0%, 0%)" fill-opacity="1">
<use xlink:href="#glyph-1-1" x="788.1875" y="230.171875"/>
</g>
<g fill="rgb(0%, 0%, 0%)" fill-opacity="1">
<use xlink:href="#glyph-0-4" x="776.78125" y="230.964844"/>
<use xlink:href="#glyph-0-11" x="782.713543" y="230.964844"/>
</g>
<g fill="rgb(0%, 0%, 0%)" fill-opacity="1">
<use xlink:href="#glyph-1-1" x="743.65625" y="204.460938"/>
</g>
<g fill="rgb(0%, 0%, 0%)" fill-opacity="1">
<use xlink:href="#glyph-0-4" x="733.695312" y="205.253906"/>
<use xlink:href="#glyph-0-2" x="739.627605" y="205.253906"/>
</g>
<g fill="rgb(0%, 0%, 0%)" fill-opacity="1">
<use xlink:href="#glyph-0-1" x="761.421875" y="152.257812"/>
</g>
<g fill="rgb(0%, 0%, 0%)" fill-opacity="1">
<use xlink:href="#glyph-0-10" x="755.15625" y="156.894531"/>
</g>
<g fill="rgb(0%, 0%, 0%)" fill-opacity="1">
<use xlink:href="#glyph-0-1" x="784.796875" y="117.617188"/>
</g>
<g fill="rgb(0%, 0%, 0%)" fill-opacity="1">
<use xlink:href="#glyph-0-2" x="772.640625" y="122.25"/>
<use xlink:href="#glyph-0-11" x="778.572918" y="122.25"/>
</g>
<g fill="rgb(0%, 0%, 0%)" fill-opacity="1">
<use xlink:href="#glyph-0-1" x="761.421875" y="82.976563"/>
</g>
<g fill="rgb(0%, 0%, 0%)" fill-opacity="1">
<use xlink:href="#glyph-0-2" x="750.710938" y="87.609375"/>
<use xlink:href="#glyph-0-2" x="756.64323" y="87.609375"/>
</g>
<g fill="rgb(0%, 0%, 0%)" fill-opacity="1">
<use xlink:href="#glyph-1-1" x="781.242188" y="52.214844"/>
</g>
<g fill="rgb(0%, 0%, 0%)" fill-opacity="1">
<use xlink:href="#glyph-0-3" x="769.816406" y="53.007812"/>
<use xlink:href="#glyph-0-13" x="775.748699" y="53.007812"/>
</g>
<g fill="rgb(0%, 0%, 0%)" fill-opacity="1">
<use xlink:href="#glyph-0-1" x="724.796875" y="82.976563"/>
</g>
<g fill="rgb(0%, 0%, 0%)" fill-opacity="1">
<use xlink:href="#glyph-0-2" x="712.691406" y="87.609375"/>
<use xlink:href="#glyph-0-3" x="718.623699" y="87.609375"/>
</g>
<g fill="rgb(0%, 0%, 0%)" fill-opacity="1">
<use xlink:href="#glyph-0-6" x="701.4375" y="48.335938"/>
</g>
<g fill="rgb(0%, 0%, 0%)" fill-opacity="1">
<use xlink:href="#glyph-0-2" x="689.238281" y="52.96875"/>
<use xlink:href="#glyph-0-4" x="695.170574" y="52.96875"/>
</g>
<g fill="rgb(0%, 0%, 0%)" fill-opacity="1">
<use xlink:href="#glyph-1-1" x="661.242188" y="52.214844"/>
</g>
<g fill="rgb(0%, 0%, 0%)" fill-opacity="1">
<use xlink:href="#glyph-0-3" x="649.8125" y="53.007812"/>
<use xlink:href="#glyph-0-8" x="655.744793" y="53.007812"/>
</g>
<g fill="rgb(0%, 0%, 0%)" fill-opacity="1">
<use xlink:href="#glyph-0-1" x="701.421875" y="117.617188"/>
</g>
<g fill="rgb(0%, 0%, 0%)" fill-opacity="1">
<use xlink:href="#glyph-0-2" x="689.269531" y="122.25"/>
<use xlink:href="#glyph-0-5" x="695.201824" y="122.25"/>
</g>
<g fill="rgb(0%, 0%, 0%)" fill-opacity="1">
<use xlink:href="#glyph-0-6" x="661.4375" y="117.621094"/>
</g>
<g fill="rgb(0%, 0%, 0%)" fill-opacity="1">
<use xlink:href="#glyph-0-2" x="649.179688" y="122.25"/>
<use xlink:href="#glyph-0-7" x="655.11198" y="122.25"/>
</g>
<g fill="rgb(0%, 0%, 0%)" fill-opacity="1">
<use xlink:href="#glyph-1-1" x="641.242188" y="156.140625"/>
</g>
<g fill="rgb(0%, 0%, 0%)" fill-opacity="1">
<use xlink:href="#glyph-0-3" x="629.796875" y="156.933594"/>
<use xlink:href="#glyph-0-9" x="635.729168" y="156.933594"/>
</g>
<g fill="rgb(0%, 0%, 0%)" fill-opacity="1">
<use xlink:href="#glyph-0-1" x="724.796875" y="152.257812"/>
</g>
<g fill="rgb(0%, 0%, 0%)" fill-opacity="1">
<use xlink:href="#glyph-0-2" x="712.617188" y="156.894531"/>
<use xlink:href="#glyph-0-13" x="718.54948" y="156.894531"/>
</g>
<g fill="rgb(0%, 0%, 0%)" fill-opacity="1">
<use xlink:href="#glyph-1-1" x="701.242188" y="190.78125"/>
</g>
<g fill="rgb(0%, 0%, 0%)" fill-opacity="1">
<use xlink:href="#glyph-0-3" x="689.796875" y="191.574219"/>
<use xlink:href="#glyph-0-10" x="695.729168" y="191.574219"/>
</g>
<g fill="rgb(0%, 0%, 0%)" fill-opacity="1">
<use xlink:href="#glyph-1-1" x="877.300781" y="143.296875"/>
</g>
<g fill="rgb(0%, 0%, 0%)" fill-opacity="1">
<use xlink:href="#glyph-0-2" x="865.851563" y="144.089844"/>
<use xlink:href="#glyph-0-9" x="871.783855" y="144.089844"/>
</g>
<g fill="rgb(0%, 0%, 0%)" fill-opacity="1">
<use xlink:href="#glyph-1-1" x="896.980469" y="119.847656"/>
</g>
<g fill="rgb(0%, 0%, 0%)" fill-opacity="1">
<use xlink:href="#glyph-0-2" x="885.527344" y="120.636719"/>
<use xlink:href="#glyph-0-10" x="891.459636" y="120.636719"/>
</g>
<g fill="rgb(0%, 0%, 0%)" fill-opacity="1">
<use xlink:href="#glyph-1-1" x="847.308594" y="32.945312"/>
</g>
<g fill="rgb(0%, 0%, 0%)" fill-opacity="1">
<use xlink:href="#glyph-0-3" x="835.902344" y="33.738281"/>
<use xlink:href="#glyph-0-11" x="841.834636" y="33.738281"/>
</g>
<g fill="rgb(0%, 0%, 0%)" fill-opacity="1">
<use xlink:href="#glyph-1-1" x="827.628906" y="56.398438"/>
</g>
<g fill="rgb(0%, 0%, 0%)" fill-opacity="1">
<use xlink:href="#glyph-0-3" x="817.671875" y="57.191406"/>
<use xlink:href="#glyph-0-2" x="823.604168" y="57.191406"/>
</g>
<g fill="rgb(0%, 0%, 0%)" fill-opacity="1">
<use xlink:href="#glyph-1-1" x="934.007812" y="80.457031"/>
</g>
<g fill="rgb(0%, 0%, 0%)" fill-opacity="1">
<use xlink:href="#glyph-0-3" x="922.652344" y="81.25"/>
<use xlink:href="#glyph-0-3" x="928.584636" y="81.25"/>
</g>
<g fill="rgb(0%, 0%, 0%)" fill-opacity="1">
<use xlink:href="#glyph-1-1" x="910.3125" y="15.351562"/>
</g>
<g fill="rgb(0%, 0%, 0%)" fill-opacity="1">
<use xlink:href="#glyph-0-3" x="898.878906" y="16.144531"/>
<use xlink:href="#glyph-0-4" x="904.811199" y="16.144531"/>
</g>
<g fill="rgb(0%, 0%, 0%)" fill-opacity="1">
<use xlink:href="#glyph-1-1" x="940.953125" y="41.0625"/>
</g>
<g fill="rgb(0%, 0%, 0%)" fill-opacity="1">
<use xlink:href="#glyph-0-3" x="929.550781" y="41.855469"/>
<use xlink:href="#glyph-0-5" x="935.483074" y="41.855469"/>
</g>
<path fill="none" stroke-width="0.0625" stroke-linecap="butt" stroke-linejoin="miter" stroke="rgb(0%, 0%, 0%)" stroke-opacity="1" stroke-miterlimit="10" d="M -0.000000172853 0 L 0.5 0 M 0.25 -0.25 L 0.25 0.25 " transform="matrix(40, 0, 0, 40, 968.949226, 117.5)"/>
<path fill="none" stroke-width="0.0333333" stroke-linecap="butt" stroke-linejoin="miter" stroke="rgb(0%, 0%, 0%)" stroke-opacity="1" stroke-miterlimit="10" d="M 0.255176 0.147363 L 0.531933 0.307129 " transform="matrix(40, 0, 0, 40, 1011.175787, 107.124996)"/>
<path fill="none" stroke-width="0.0333333" stroke-linecap="butt" stroke-linejoin="miter" stroke="rgb(0%, 0%, 0%)" stroke-opacity="1" stroke-miterlimit="10" d="M 0.326367 0.477051 L 0.576367 0.0440431 " transform="matrix(40, 0, 0, 40, 1011.175787, 107.124996)"/>
<path fill="none" stroke-width="0.0333333" stroke-linecap="butt" stroke-linejoin="miter" stroke="rgb(0%, 0%, 0%)" stroke-opacity="1" stroke-miterlimit="10" d="M 0.21084 0.410449 L 0.46084 -0.0225585 " transform="matrix(40, 0, 0, 40, 1011.175787, 107.124996)"/>
<path fill="none" stroke-width="0.0333333" stroke-linecap="butt" stroke-linejoin="miter" stroke="rgb(0%, 0%, 0%)" stroke-opacity="1" stroke-miterlimit="10" d="M 1.073047 0.380469 L 1.476855 0.147363 " transform="matrix(40, 0, 0, 40, 1011.175787, 107.124996)"/>
<path fill="none" stroke-width="0.0333333" stroke-linecap="butt" stroke-linejoin="miter" stroke="rgb(0%, 0%, 0%)" stroke-opacity="1" stroke-miterlimit="10" d="M 1.457715 0.44707 L 1.207715 0.0140626 " transform="matrix(40, 0, 0, 40, 1011.175787, 107.124996)"/>
<path fill="none" stroke-width="0.0333333" stroke-linecap="butt" stroke-linejoin="miter" stroke="rgb(0%, 0%, 0%)" stroke-opacity="1" stroke-miterlimit="10" d="M 1.342187 0.51377 L 1.092187 0.0807618 " transform="matrix(40, 0, 0, 40, 1011.175787, 107.124996)"/>
<g fill="rgb(0%, 0%, 0%)" fill-opacity="1">
<use xlink:href="#glyph-1-1" x="1005.402344" y="112.851562"/>
</g>
<g fill="rgb(0%, 0%, 0%)" fill-opacity="1">
<use xlink:href="#glyph-0-6" x="1040.238281" y="128.972656"/>
</g>
<g fill="rgb(0%, 0%, 0%)" fill-opacity="1">
<use xlink:href="#glyph-0-7" x="1033.914062" y="133.472656"/>
</g>
<g fill="rgb(0%, 0%, 0%)" fill-opacity="1">
<use xlink:href="#glyph-1-1" x="1074.683594" y="112.851562"/>
</g>
</svg>
